<?xml version="1.0" encoding="UTF-8" standalone="no"?>
<!-- Created with Inkscape (http://www.inkscape.org/) -->

<svg
   xmlns:dc="http://purl.org/dc/elements/1.1/"
   xmlns:cc="http://creativecommons.org/ns#"
   xmlns:rdf="http://www.w3.org/1999/02/22-rdf-syntax-ns#"
   xmlns:svg="http://www.w3.org/2000/svg"
   xmlns="http://www.w3.org/2000/svg"
   xmlns:sodipodi="http://sodipodi.sourceforge.net/DTD/sodipodi-0.dtd"
   xmlns:inkscape="http://www.inkscape.org/namespaces/inkscape"
   width="93.899147"
   height="100"
   id="svg4704"
   version="1.1"
   inkscape:version="0.48.1 "
   sodipodi:docname="Nouveau document 2">
  <defs
     id="defs4706">
    <clipPath
       clipPathUnits="userSpaceOnUse"
       id="clipPath6220">
      <path
         inkscape:connector-curvature="0"
         d="m 0,841.89 595.275,0 L 595.275,0 0,0 0,841.89 z"
         id="path6222" />
    </clipPath>
    <clipPath
       clipPathUnits="userSpaceOnUse"
       id="clipPath6248">
      <path
         inkscape:connector-curvature="0"
         d="m 0,841.89 595.275,0 L 595.275,0 0,0 0,841.89 z"
         id="path6250" />
    </clipPath>
    <clipPath
       clipPathUnits="userSpaceOnUse"
       id="clipPath6260">
      <path
         inkscape:connector-curvature="0"
         d="m 92.459,751.874 c -0.011,-0.158 -2.943,-0.481 -2.953,-0.629 l 0,0 c -0.035,-0.497 0.724,-7.912 0.724,-7.912 l 0,0 c 13.355,7.099 23.903,17.038 32.059,17.487 l 0,0 -2.654,4.749 c 0,0.082 0.931,6.322 1.197,6.91 l 0,0 c -13.294,-5.363 -17.284,-13.427 -28.373,-20.605"
         id="path6262" />
    </clipPath>
    <clipPath
       clipPathUnits="userSpaceOnUse"
       id="clipPath6272">
      <path
         inkscape:connector-curvature="0"
         d="m 0,841.89 595.275,0 L 595.275,0 0,0 0,841.89 z"
         id="path6274" />
    </clipPath>
    <clipPath
       clipPathUnits="userSpaceOnUse"
       id="clipPath6284">
      <path
         inkscape:connector-curvature="0"
         d="m 49.168,765.569 -2.655,-4.749 c 8.157,-0.449 18.704,-10.388 32.06,-17.487 l 0,0 c 0,0 0.758,7.415 0.724,7.912 l 0,0 c -0.01,0.148 -2.942,0.471 -2.954,0.629 l 0,0 c -11.088,7.178 -15.078,15.242 -28.372,20.605 l 0,0 c 0.266,-0.588 1.197,-6.828 1.197,-6.91"
         id="path6286" />
    </clipPath>
    <clipPath
       clipPathUnits="userSpaceOnUse"
       id="clipPath6296">
      <path
         inkscape:connector-curvature="0"
         d="m 0,841.89 595.275,0 L 595.275,0 0,0 0,841.89 z"
         id="path6298" />
    </clipPath>
    <clipPath
       clipPathUnits="userSpaceOnUse"
       id="clipPath6320">
      <path
         inkscape:connector-curvature="0"
         d="m 84.402,758.926 c -11.651,0 -20.402,6.267 -25.648,12.095 l 0,0 -2.225,-12.061 c 8.529,-3.973 18.247,-10.864 27.868,-10.864 l 0,0 c 9.625,0 19.333,6.886 27.866,10.86 l 0,0 -2.215,12.065 c -5.246,-5.828 -13.992,-12.095 -25.646,-12.095"
         id="path6322" />
    </clipPath>
    <clipPath
       clipPathUnits="userSpaceOnUse"
       id="clipPath6332">
      <path
         inkscape:connector-curvature="0"
         d="m 0,841.89 595.275,0 L 595.275,0 0,0 0,841.89 z"
         id="path6334" />
    </clipPath>
  </defs>
  <sodipodi:namedview
     id="base"
     pagecolor="#ffffff"
     bordercolor="#666666"
     borderopacity="1.0"
     inkscape:pageopacity="0.0"
     inkscape:pageshadow="2"
     inkscape:zoom="5.17"
     inkscape:cx="46.949574"
     inkscape:cy="50"
     inkscape:document-units="px"
     inkscape:current-layer="layer1"
     showgrid="false"
     fit-margin-top="0"
     fit-margin-left="0"
     fit-margin-right="0"
     fit-margin-bottom="0"
     inkscape:window-width="1366"
     inkscape:window-height="706"
     inkscape:window-x="-8"
     inkscape:window-y="-8"
     inkscape:window-maximized="1" />
  <metadata
     id="metadata4709">
    <rdf:RDF>
      <cc:Work
         rdf:about="">
        <dc:format>image/svg+xml</dc:format>
        <dc:type
           rdf:resource="http://purl.org/dc/dcmitype/StillImage" />
        <dc:title></dc:title>
      </cc:Work>
    </rdf:RDF>
  </metadata>
  <g
     inkscape:label="Calque 1"
     inkscape:groupmode="layer"
     id="layer1"
     transform="translate(57.853168,-300.13242)">
    <g
       transform="matrix(1.2391543,0,0,-1.2391543,-115.48958,1321.2367)"
       id="g9885">
      <g
         id="g6216">
        <g
           clip-path="url(#clipPath6220)"
           id="g6218">
          <g
             transform="translate(81.4155,747.2993)"
             id="g6224">
            <path
               inkscape:connector-curvature="0"
               id="path6226"
               style="fill:#ffffff;fill-opacity:1;fill-rule:nonzero;stroke:none"
               d="M 0,0 C -0.103,-0.09 -0.202,-0.176 -0.403,-0.257 -0.6,-0.334 -0.75,-0.347 -0.896,-0.364 l 0,-0.198 0.42,0 0,-1.881 c -0.004,-0.33 -0.111,-0.386 -0.45,-0.39 l 0,-0.18 1.449,0 0,0.18 C 0.394,-2.829 0.214,-2.82 0.133,-2.688 0.09,-2.618 0.086,-2.524 0.086,-2.447 L 0.086,0 0,0 z" />
          </g>
          <g
             transform="translate(83.0562,745.6323)"
             id="g6228">
            <path
               inkscape:connector-curvature="0"
               id="path6230"
               style="fill:#ffffff;fill-opacity:1;fill-rule:evenodd;stroke:none"
               d="m 0,0 c 0.231,-0.124 0.6,-0.321 0.6,-0.69 0,-0.21 -0.137,-0.458 -0.437,-0.458 -0.291,0 -0.476,0.269 -0.476,0.513 0,0.125 0.039,0.237 0.086,0.335 C -0.15,-0.15 -0.073,-0.073 0,0 m 0.292,0.39 c -0.167,0.098 -0.549,0.326 -0.549,0.651 0,0.21 0.133,0.416 0.385,0.416 0.267,0 0.399,-0.244 0.399,-0.484 C 0.527,0.677 0.364,0.479 0.292,0.39 M 0.523,0.262 c 0.142,0.081 0.458,0.265 0.458,0.676 0,0.42 -0.347,0.733 -0.818,0.733 -0.455,0 -0.87,-0.304 -0.87,-0.767 0,-0.416 0.312,-0.63 0.493,-0.755 -0.172,-0.063 -0.36,-0.136 -0.489,-0.355 -0.064,-0.103 -0.103,-0.232 -0.103,-0.364 0,-0.433 0.39,-0.806 0.948,-0.806 0.527,0 0.96,0.339 0.96,0.81 0,0.424 -0.322,0.652 -0.579,0.828" />
          </g>
          <g
             transform="translate(84.3452,746.3784)"
             id="g6232">
            <path
               inkscape:connector-curvature="0"
               id="path6234"
               style="fill:#ffffff;fill-opacity:1;fill-rule:nonzero;stroke:none"
               d="M 0,0 0.197,0 C 0.279,0.3 0.36,0.406 0.694,0.42 0.785,0.424 0.866,0.424 0.982,0.424 l 0.51,0 L 0.57,-1.265 C 0.369,-1.643 0.3,-1.775 0.3,-1.903 c 0,-0.146 0.142,-0.228 0.27,-0.228 0.185,0 0.236,0.133 0.305,0.318 0.034,0.081 0.162,0.432 0.188,0.505 0.125,0.322 0.326,0.84 0.45,1.166 l 0.399,1.003 -1.47,0 c -0.017,0 -0.043,0 -0.06,0.008 -0.017,0.009 -0.034,0.03 -0.039,0.065 l -0.18,0 L 0,0 z" />
          </g>
          <g
             transform="translate(86.4019,746.3784)"
             id="g6236">
            <path
               inkscape:connector-curvature="0"
               id="path6238"
               style="fill:#ffffff;fill-opacity:1;fill-rule:nonzero;stroke:none"
               d="m 0,0 0.197,0 c 0.082,0.3 0.163,0.406 0.497,0.42 0.09,0.004 0.172,0.004 0.287,0.004 l 0.511,0 L 0.57,-1.265 C 0.369,-1.643 0.3,-1.775 0.3,-1.903 c 0,-0.146 0.141,-0.228 0.27,-0.228 0.184,0 0.236,0.133 0.305,0.318 0.034,0.081 0.163,0.432 0.188,0.505 0.125,0.322 0.326,0.84 0.45,1.166 l 0.399,1.003 -1.471,0 c -0.017,0 -0.042,0 -0.059,0.008 -0.018,0.009 -0.035,0.03 -0.039,0.065 l -0.18,0 L 0,0 z" />
          </g>
        </g>
      </g>
      <g
         id="g6244">
        <g
           clip-path="url(#clipPath6248)"
           id="g6246">
          <g
             transform="translate(120.8325,772.479)"
             id="g6252">
            <path
               inkscape:connector-curvature="0"
               id="path6254"
               style="fill:#ed1d24;fill-opacity:1;fill-rule:nonzero;stroke:none"
               d="m 0,0 c -0.267,-0.588 -1.197,-6.828 -1.197,-6.91 l 2.654,-4.748 c -8.157,-0.449 -18.704,-10.389 -32.059,-17.488 0,0 -0.759,7.416 -0.725,7.913 0.011,0.147 2.942,0.47 2.953,0.629 C -17.285,-13.427 -13.294,-5.363 0,0" />
          </g>
        </g>
      </g>
      <g
         id="g6256">
        <g
           clip-path="url(#clipPath6260)"
           id="g6258">
          <g
             transform="translate(111.1987,770.3306)"
             id="g6264">
            <path
               inkscape:connector-curvature="0"
               id="path6266"
               style="fill:#d01d24;fill-opacity:1;fill-rule:nonzero;stroke:none"
               d="m 0,0 2.214,-12.064 c -6.459,-3.009 -12.488,-8.793 -19.748,-10.889 0.179,0.159 -0.755,1.459 -0.599,1.69 0.407,0.604 0.481,1.161 0.515,1.659 0.015,0.219 0.022,0.448 0.049,0.694 0.023,0.213 0.061,0.44 0.137,0.69 0.087,0.255 0.192,0.467 0.301,0.657 0.123,0.214 0.251,0.404 0.368,0.589 0.264,0.423 0.533,0.917 0.558,1.645 0.018,0.534 -0.087,0.982 -0.27,1.351 0.156,0.111 0.297,0.224 0.412,0.317 0.374,0.303 0.845,0.817 0.647,1.435 -0.196,0.632 -0.891,0.772 -1.372,0.797 -0.148,0.008 -0.329,0.017 -0.52,0.015 -0.022,0.133 -0.056,0.267 -0.104,0.402 C -9.813,-8.969 -3.926,-4.362 0,0" />
          </g>
        </g>
      </g>
      <g
         id="g6268">
        <g
           clip-path="url(#clipPath6272)"
           id="g6270">
          <g
             transform="translate(47.9707,772.479)"
             id="g6276">
            <path
               inkscape:connector-curvature="0"
               id="path6278"
               style="fill:#ed1d24;fill-opacity:1;fill-rule:nonzero;stroke:none"
               d="m 0,0 c 0.267,-0.588 1.197,-6.828 1.197,-6.91 l -2.655,-4.748 c 8.157,-0.449 18.704,-10.389 32.06,-17.488 0,0 0.759,7.416 0.725,7.913 -0.011,0.147 -2.943,0.47 -2.954,0.629 C 17.285,-13.427 13.294,-5.363 0,0" />
          </g>
        </g>
      </g>
      <g
         id="g6280">
        <g
           clip-path="url(#clipPath6284)"
           id="g6282">
          <g
             transform="translate(57.6045,770.3306)"
             id="g6288">
            <path
               inkscape:connector-curvature="0"
               id="path6290"
               style="fill:#d01d24;fill-opacity:1;fill-rule:nonzero;stroke:none"
               d="m 0,0 -2.215,-12.064 c 6.46,-3.009 12.488,-8.793 19.749,-10.889 -0.179,0.159 0.755,1.459 0.598,1.69 -0.406,0.604 -0.48,1.161 -0.514,1.659 -0.015,0.219 -0.023,0.448 -0.05,0.694 -0.023,0.213 -0.06,0.44 -0.136,0.69 -0.087,0.255 -0.192,0.467 -0.301,0.657 -0.123,0.214 -0.252,0.404 -0.368,0.589 -0.264,0.423 -0.533,0.917 -0.558,1.645 -0.019,0.534 0.087,0.982 0.27,1.351 -0.157,0.111 -0.298,0.224 -0.413,0.317 -0.373,0.303 -0.844,0.817 -0.646,1.435 0.195,0.632 0.89,0.772 1.372,0.797 0.148,0.008 0.328,0.017 0.52,0.015 0.022,0.133 0.056,0.267 0.103,0.402 C 9.813,-8.969 3.926,-4.362 0,0" />
          </g>
        </g>
      </g>
      <g
         id="g6292">
        <g
           clip-path="url(#clipPath6296)"
           id="g6294">
          <g
             transform="translate(82.9448,788.4722)"
             id="g6300">
            <path
               inkscape:connector-curvature="0"
               id="path6302"
               style="fill:#0d426c;fill-opacity:1;fill-rule:nonzero;stroke:none"
               d="m 0,0 c 0,-0.806 -0.653,-1.458 -1.458,-1.458 l -2.371,-0.001 -1.709,0.001 -18.938,-0.001 -4.961,0 -0.785,0 c -0.251,1.617 -0.381,3.273 -0.381,4.96 0,16.74 12.804,30.486 29.143,31.961 0.017,10e-4 0.036,-0.002 0.054,-0.009 C -0.625,35.426 0,34.784 0,33.996 L 0,0 z m -6.995,4.084 c 0.805,0 1.457,0.653 1.457,1.459 l 0,4.964 c -0.002,0.804 -0.653,1.454 -1.457,1.454 l -16.533,0 c -0.847,-2.479 -1.335,-5.126 -1.399,-7.877 l 17.932,0 z m 0,13.42 c 0.805,0 1.457,0.653 1.457,1.459 l 0,9.852 c -6.416,-1.729 -11.859,-5.832 -15.331,-11.311 l 13.874,0 z M 8.451,5.543 c 0,-0.806 0.653,-1.459 1.458,-1.459 l 5.391,0 0,28.371 c 1.966,-0.943 3.82,-2.08 5.538,-3.388 l 0,-23.586 C 20.87,4.704 21.51,4.084 22.294,4.084 l 5.225,0 c -0.061,2.631 -0.509,5.166 -1.29,7.55 l 0,12.239 c 4.553,-5.541 7.287,-12.637 7.287,-20.372 0,-1.687 -0.13,-3.343 -0.38,-4.96 L 4.372,-1.458 C 3.566,-1.458 2.914,-0.806 2.914,0 l 0,35.561 C 4.807,35.476 6.658,35.227 8.452,34.827 L 8.451,5.543 z m -29.146,-18.672 20.695,0 0,-4.084 -16.939,0 c 4.552,-4.054 10.45,-6.627 16.939,-6.964 l 0,-4.382 c -14.345,0.643 -26.236,10.721 -29.629,24.183 l 28.171,0 C -0.653,-4.376 0,-5.029 0,-5.835 l 0,-2.626 -23.526,0 c 0.791,-1.653 1.741,-3.216 2.831,-4.668 m 53.238,8.753 c -0.353,-1.4 -0.798,-2.765 -1.328,-4.085 l -24.221,0 0,-15.199 c 4.723,0.959 9.009,3.123 12.526,6.155 l 6.175,0 C 20.113,-23.953 12.006,-28.151 2.914,-28.559 l 0,22.724 c 0,0.806 0.652,1.459 1.457,1.459 l 28.172,0 z" />
          </g>
          <g
             transform="translate(77.2256,751.814)"
             id="g6304">
            <path
               inkscape:connector-curvature="0"
               id="path6306"
               style="fill:#8e1b1d;fill-opacity:1;fill-rule:nonzero;stroke:none"
               d="M 0,0 1.976,-1.369 C 1.989,-1.397 1.646,-7.411 1.347,-8.48 -2.588,-6.05 -20.677,7.102 -20.697,7.146 -20.708,7.174 -3.235,2.287 0,0" />
          </g>
          <g
             transform="translate(89.6016,750.4448)"
             id="g6308">
            <path
               inkscape:connector-curvature="0"
               id="path6310"
               style="fill:#8e1b1d;fill-opacity:1;fill-rule:nonzero;stroke:none"
               d="M 0,0 C -0.013,-0.028 0.33,-6.042 0.629,-7.111 4.564,-4.681 22.642,8.467 22.662,8.512 22.674,8.54 0,0 0,0" />
          </g>
          <g
             transform="translate(110.0488,771.021)"
             id="g6312">
            <path
               inkscape:connector-curvature="0"
               id="path6314"
               style="fill:#ed1d24;fill-opacity:1;fill-rule:nonzero;stroke:none"
               d="m 0,0 2.214,-12.064 c -8.533,-3.975 -18.24,-10.861 -27.866,-10.861 -9.621,0 -19.339,6.891 -27.868,10.864 L -51.295,0 c 5.246,-5.828 13.997,-12.095 25.648,-12.095 11.654,0 20.401,6.267 25.647,12.095" />
          </g>
        </g>
      </g>
      <g
         id="g6316">
        <g
           clip-path="url(#clipPath6320)"
           id="g6318">
          <g
             transform="translate(76.2847,761.1343)"
             id="g6324">
            <path
               inkscape:connector-curvature="0"
               id="path6326"
               style="fill:#d01d24;fill-opacity:1;fill-rule:nonzero;stroke:none"
               d="m 0,0 c 0.521,0.666 1.115,0.945 1.604,1.143 0.199,0.08 0.408,0.155 0.628,0.253 0.186,0.084 0.367,0.18 0.554,0.312 0.172,0.132 0.312,0.268 0.443,0.413 0.163,0.179 0.299,0.355 0.437,0.52 0.338,0.404 0.788,0.882 1.582,1.172 0.424,0.155 0.83,0.22 1.21,0.214 L 6.525,4.204 C 6.695,4.646 7.144,5.563 8.132,5.549 9.103,5.544 9.541,4.64 9.709,4.204 L 9.776,4.027 c 0.381,0.006 0.786,-0.059 1.211,-0.214 0.794,-0.29 1.243,-0.768 1.581,-1.172 0.138,-0.164 0.274,-0.34 0.436,-0.52 0.136,-0.149 0.281,-0.29 0.462,-0.426 0.18,-0.125 0.355,-0.217 0.535,-0.298 0.221,-0.099 0.43,-0.174 0.629,-0.254 0.489,-0.198 1.084,-0.477 1.604,-1.142 0.278,-0.356 0.466,-0.722 0.578,-1.086 L 17,-1.094 c 0.47,-0.025 1.483,-0.166 1.777,-1.112 0.293,-0.923 -0.427,-1.62 -0.793,-1.916 L 17.837,-4.24 c 0.124,-0.36 0.186,-0.766 0.17,-1.218 -0.029,-0.844 -0.346,-1.42 -0.626,-1.866 -0.113,-0.182 -0.239,-0.365 -0.359,-0.575 -0.096,-0.167 -0.189,-0.353 -0.265,-0.579 -0.064,-0.214 -0.096,-0.411 -0.115,-0.593 -0.027,-0.241 -0.034,-0.463 -0.048,-0.677 -0.036,-0.525 -0.118,-1.178 -0.591,-1.878 -0.253,-0.375 -0.542,-0.667 -0.854,-0.885 l 0.05,-0.182 c 0.122,-0.455 0.301,-1.462 -0.509,-2.034 -0.787,-0.564 -1.672,-0.093 -2.066,0.163 l -0.159,0.103 C 12.161,-14.69 11.794,-14.875 11.36,-15 c -0.812,-0.232 -1.457,-0.109 -1.968,0.019 -0.208,0.052 -0.422,0.115 -0.659,0.164 -0.188,0.04 -0.394,0.07 -0.63,0.073 -0.226,-0.005 -0.421,-0.035 -0.602,-0.073 -0.236,-0.05 -0.45,-0.112 -0.658,-0.164 -0.511,-0.128 -1.157,-0.251 -1.969,-0.019 -0.434,0.125 -0.801,0.31 -1.105,0.539 l -0.158,-0.103 c -0.398,-0.258 -1.299,-0.737 -2.091,-0.145 -0.782,0.575 -0.605,1.564 -0.485,2.016 l 0.05,0.182 c -0.312,0.218 -0.602,0.51 -0.854,0.885 -0.472,0.7 -0.554,1.352 -0.59,1.878 -0.015,0.214 -0.022,0.436 -0.048,0.676 -0.021,0.191 -0.055,0.396 -0.125,0.623 -0.074,0.213 -0.164,0.389 -0.256,0.549 -0.12,0.21 -0.245,0.394 -0.359,0.576 -0.28,0.446 -0.597,1.022 -0.626,1.866 -0.016,0.452 0.046,0.858 0.17,1.218 l -0.147,0.118 c -0.368,0.298 -1.102,1.009 -0.783,1.944 0.305,0.922 1.301,1.059 1.767,1.084 l 0.188,0.009 C -0.466,-0.721 -0.278,-0.355 0,0" />
          </g>
        </g>
      </g>
      <g
         id="g6328">
        <g
           clip-path="url(#clipPath6332)"
           id="g6330">
          <g
             transform="translate(76.062,759.6069)"
             id="g6336">
            <path
               inkscape:connector-curvature="0"
               id="path6338"
               style="fill:#ffffff;fill-opacity:1;fill-rule:nonzero;stroke:none"
               d="M 0,0 C 0.069,0.406 0.247,0.831 0.576,1.252 1.024,1.825 1.532,2.067 1.994,2.254 2.198,2.336 2.413,2.413 2.639,2.515 2.844,2.607 3.051,2.717 3.268,2.869 3.473,3.024 3.636,3.184 3.784,3.348 3.951,3.531 4.091,3.711 4.232,3.88 4.552,4.262 4.94,4.67 5.624,4.919 6.125,5.102 6.584,5.141 6.992,5.08 7.049,5.263 7.113,5.432 7.167,5.57 7.34,6.021 7.689,6.637 8.349,6.629 8.999,6.626 9.341,6.017 9.513,5.57 9.566,5.432 9.631,5.263 9.688,5.08 10.095,5.141 10.554,5.102 11.056,4.919 11.74,4.67 12.127,4.263 12.447,3.88 12.588,3.711 12.728,3.531 12.895,3.348 13.046,3.181 13.214,3.018 13.426,2.859 13.637,2.712 13.839,2.605 14.04,2.516 14.266,2.414 14.481,2.336 14.685,2.254 15.147,2.067 15.655,1.825 16.103,1.252 16.432,0.831 16.61,0.406 16.679,0 c 0.191,0.002 0.372,-0.007 0.52,-0.015 0.482,-0.025 1.176,-0.165 1.372,-0.797 0.198,-0.618 -0.274,-1.131 -0.647,-1.434 -0.114,-0.094 -0.256,-0.207 -0.412,-0.317 0.183,-0.37 0.289,-0.818 0.27,-1.352 -0.026,-0.727 -0.294,-1.222 -0.558,-1.644 -0.117,-0.186 -0.245,-0.376 -0.369,-0.59 -0.108,-0.189 -0.213,-0.402 -0.3,-0.657 -0.076,-0.25 -0.114,-0.477 -0.137,-0.69 -0.026,-0.246 -0.034,-0.475 -0.049,-0.693 -0.035,-0.499 -0.108,-1.056 -0.515,-1.66 -0.299,-0.442 -0.647,-0.743 -1.012,-0.934 0.061,-0.181 0.108,-0.356 0.146,-0.499 0.125,-0.466 0.206,-1.169 -0.334,-1.551 -0.527,-0.38 -1.161,-0.089 -1.564,0.172 -0.124,0.08 -0.276,0.18 -0.429,0.294 -0.294,-0.288 -0.688,-0.528 -1.202,-0.675 -0.699,-0.2 -1.252,-0.098 -1.736,0.023 -0.213,0.053 -0.432,0.118 -0.675,0.168 -0.214,0.044 -0.447,0.08 -0.717,0.082 -0.262,-0.004 -0.49,-0.039 -0.699,-0.082 -0.242,-0.05 -0.462,-0.115 -0.675,-0.168 -0.484,-0.121 -1.037,-0.223 -1.737,-0.023 -0.513,0.147 -0.907,0.387 -1.201,0.675 -0.154,-0.114 -0.306,-0.214 -0.43,-0.294 -0.406,-0.264 -1.05,-0.557 -1.579,-0.161 -0.524,0.384 -0.443,1.078 -0.32,1.54 0.039,0.143 0.086,0.318 0.147,0.499 -0.364,0.191 -0.713,0.492 -1.012,0.934 -0.407,0.604 -0.48,1.161 -0.514,1.659 -0.016,0.219 -0.023,0.448 -0.05,0.694 -0.023,0.217 -0.063,0.45 -0.142,0.707 -0.086,0.248 -0.189,0.454 -0.295,0.64 -0.123,0.214 -0.252,0.403 -0.368,0.589 -0.265,0.423 -0.533,0.918 -0.559,1.645 -0.019,0.534 0.087,0.982 0.27,1.352 -0.156,0.11 -0.297,0.223 -0.412,0.317 -0.376,0.305 -0.854,0.826 -0.641,1.452 0.203,0.617 0.888,0.754 1.366,0.779 C -0.372,-0.007 -0.191,0.002 0,0" />
          </g>
          <g
             transform="translate(77.7949,757.355)"
             id="g6340">
            <path
               inkscape:connector-curvature="0"
               id="path6342"
               style="fill:#ed1d24;fill-opacity:1;fill-rule:nonzero;stroke:none"
               d="m 0,0 c -0.361,0.105 -0.643,0.036 -0.961,-0.107 -0.523,-0.237 -1.217,0.321 -1.598,0.629 -0.381,0.31 -0.487,0.554 -0.43,0.721 l 0,-0.001 c 0.052,0.169 0.281,0.305 0.771,0.331 0.49,0.026 1.379,0.069 1.664,-0.429 C -0.381,0.84 -0.194,0.619 0.16,0.492 L 0,0 z" />
          </g>
          <g
             transform="translate(91.0078,757.355)"
             id="g6344">
            <path
               inkscape:connector-curvature="0"
               id="path6346"
               style="fill:#ed1d24;fill-opacity:1;fill-rule:nonzero;stroke:none"
               d="m 0,0 c 0.361,0.105 0.643,0.036 0.961,-0.107 0.523,-0.237 1.217,0.321 1.598,0.629 0.381,0.31 0.487,0.554 0.43,0.721 L 2.99,1.242 C 2.937,1.411 2.708,1.547 2.218,1.573 1.728,1.599 0.839,1.642 0.555,1.144 0.382,0.84 0.194,0.619 -0.16,0.492 L 0,0 z" />
          </g>
          <g
             transform="translate(80.5771,749.7769)"
             id="g6348">
            <path
               inkscape:connector-curvature="0"
               id="path6350"
               style="fill:#ed1d24;fill-opacity:1;fill-rule:nonzero;stroke:none"
               d="M 0,0 C -0.211,-0.312 -0.233,-0.601 -0.195,-0.947 -0.132,-1.518 -0.876,-2.006 -1.288,-2.272 -1.7,-2.54 -1.965,-2.564 -2.106,-2.459 l 0,-10e-4 c -0.144,0.103 -0.202,0.362 -0.075,0.836 0.126,0.475 0.36,1.333 0.922,1.449 0.342,0.071 0.61,0.181 0.841,0.479 L 0,0 z" />
          </g>
          <g
             transform="translate(88.2261,749.7769)"
             id="g6352">
            <path
               inkscape:connector-curvature="0"
               id="path6354"
               style="fill:#ed1d24;fill-opacity:1;fill-rule:nonzero;stroke:none"
               d="M 0,0 C 0.211,-0.312 0.233,-0.601 0.195,-0.947 0.132,-1.518 0.876,-2.006 1.288,-2.272 1.7,-2.54 1.965,-2.564 2.106,-2.459 L 2.105,-2.46 C 2.25,-2.357 2.308,-2.098 2.181,-1.624 2.055,-1.149 1.82,-0.291 1.259,-0.175 0.917,-0.104 0.648,0.006 0.418,0.304 L 0,0 z" />
          </g>
          <g
             transform="translate(84.1431,762.3423)"
             id="g6356">
            <path
               inkscape:connector-curvature="0"
               id="path6358"
               style="fill:#ed1d24;fill-opacity:1;fill-rule:nonzero;stroke:none"
               d="m 0,0 c -0.012,0.376 -0.164,0.623 -0.399,0.882 -0.386,0.424 -0.071,1.256 0.106,1.714 0.176,0.458 0.375,0.633 0.552,0.632 l -0.001,0 C 0.435,3.229 0.635,3.054 0.811,2.596 0.987,2.138 1.302,1.306 0.916,0.882 0.682,0.623 0.529,0.376 0.517,0 L 0,0 z" />
          </g>
          <g
             transform="translate(77.2979,757.7876)"
             id="g6360">
            <path
               inkscape:connector-curvature="0"
               id="path6362"
               style="fill:#ed1d24;fill-opacity:1;fill-rule:nonzero;stroke:none"
               d="m 0,0 c 0,0 -1.737,-0.241 -1.673,-2.072 0.038,-1.107 0.783,-1.499 1.192,-2.7 l 0,0.001 c 0.375,-1.212 0.003,-1.968 0.622,-2.885 1.025,-1.52 2.572,-0.694 2.572,-0.694 l 10e-4,-0.001 c 0,0 -0.308,-1.726 1.454,-2.231 1.064,-0.306 1.667,0.282 2.936,0.299 l -0.001,0 c 1.269,-0.017 1.873,-0.605 2.937,-0.299 1.761,0.505 1.454,2.231 1.454,2.231 l 0,0.001 c 0,0 1.548,-0.826 2.572,0.694 0.619,0.917 0.247,1.673 0.623,2.885 l 0,-0.001 c 0.409,1.201 1.153,1.593 1.192,2.7 C 15.945,-0.241 14.208,0 14.208,0 l -10e-4,0.001 c 0,0 1.264,1.217 0.136,2.66 -0.682,0.872 -1.515,0.752 -2.551,1.485 l 0,-0.001 C 10.776,4.904 10.632,5.734 9.592,6.113 7.871,6.739 7.104,5.162 7.104,5.162 l -0.001,0 c 0,0 -0.766,1.577 -2.488,0.951 C 3.575,5.734 3.432,4.904 2.416,4.145 l 0,0.001 C 1.379,3.413 0.546,3.533 -0.135,2.661 -1.264,1.218 0,0.001 0,0.001 L 0,0 z" />
          </g>
          <g
             transform="translate(79.9009,756.938)"
             id="g6364">
            <path
               inkscape:connector-curvature="0"
               id="path6366"
               style="fill:#ffffff;fill-opacity:1;fill-rule:nonzero;stroke:none"
               d="m 0,0 c 0,0 -1.119,0.039 -1.457,-0.628 -0.223,-0.439 -0.15,-1.209 0.356,-1.588 0.321,-0.241 0.493,-0.481 0.623,-0.859 0.117,-0.382 0.12,-0.678 0.001,-1.063 -0.187,-0.603 0.207,-1.268 0.646,-1.493 0.665,-0.341 1.547,0.349 1.547,0.349 l 0.008,-0.006 c 0,0 -0.384,-1.052 0.146,-1.579 0.349,-0.348 1.104,-0.517 1.621,-0.153 0.328,0.232 0.611,0.321 1.01,0.328 l -0.001,0 c 0.4,-0.007 0.682,-0.096 1.011,-0.328 0.516,-0.364 1.271,-0.195 1.62,0.153 0.53,0.527 0.147,1.579 0.147,1.579 l 0.007,0.006 c 0,0 0.882,-0.69 1.548,-0.349 0.438,0.225 0.832,0.89 0.646,1.493 -0.119,0.385 -0.117,0.681 0,1.063 0.13,0.378 0.302,0.618 0.624,0.859 0.506,0.379 0.578,1.149 0.355,1.588 C 10.12,0.039 9.001,0 9.001,0 L 8.999,0.009 c 0,0 0.928,0.625 0.81,1.363 C 9.73,1.859 9.219,2.439 8.587,2.448 8.185,2.454 7.905,2.548 7.577,2.777 L 7.578,2.776 C 7.259,3.018 7.083,3.256 6.953,3.636 6.749,4.234 6.039,4.541 5.552,4.465 4.813,4.35 4.505,3.273 4.505,3.273 l -0.008,0 c 0,0 -0.309,1.077 -1.048,1.192 C 2.962,4.541 2.252,4.233 2.049,3.636 1.919,3.255 1.743,3.018 1.424,2.776 l 0,0.001 C 1.097,2.548 0.816,2.454 0.415,2.448 -0.218,2.439 -0.729,1.859 -0.807,1.372 -0.926,0.634 0.002,0.008 0.002,0.008 L 0,0 z m 0.617,-0.198 c 0,0 0.079,0.261 -0.242,0.622 -0.241,0.272 -0.336,0.554 -0.309,0.778 0.046,0.373 0.464,0.706 0.94,0.791 0.283,0.05 0.507,0.139 0.759,0.316 l -10e-4,0 C 2.01,2.492 2.164,2.679 2.298,2.932 2.526,3.358 2.972,3.653 3.341,3.581 3.563,3.538 3.801,3.361 3.985,3.047 4.231,2.63 4.503,2.625 4.503,2.625 l -0.004,0 c 0,0 0.272,0.005 0.517,0.423 C 5.2,3.361 5.438,3.538 5.66,3.581 6.029,3.653 6.476,3.358 6.703,2.932 6.838,2.679 6.991,2.493 7.237,2.309 l 0,0 C 7.488,2.132 7.712,2.043 7.995,1.993 8.471,1.908 8.889,1.575 8.935,1.202 8.962,0.978 8.868,0.696 8.626,0.425 8.305,0.063 8.384,-0.198 8.384,-0.198 l -0.001,0.004 c 0,0 0.089,-0.257 0.561,-0.362 C 9.3,-0.634 9.542,-0.806 9.651,-1.003 9.834,-1.332 9.691,-1.848 9.356,-2.195 9.157,-2.402 9.027,-2.605 8.928,-2.896 l 10e-4,0 C 8.837,-3.189 8.823,-3.431 8.862,-3.715 8.93,-4.193 8.742,-4.694 8.401,-4.854 8.196,-4.948 7.899,-4.945 7.565,-4.8 7.122,-4.606 6.898,-4.762 6.898,-4.762 l 0.004,0.003 c 0,0 -0.217,-0.165 -0.17,-0.646 C 6.768,-5.768 6.679,-6.051 6.525,-6.216 6.268,-6.491 5.734,-6.515 5.299,-6.304 5.041,-6.178 4.808,-6.117 4.5,-6.113 l 0.001,0 C 4.193,-6.117 3.96,-6.178 3.702,-6.304 3.268,-6.515 2.733,-6.491 2.477,-6.216 2.323,-6.051 2.234,-5.768 2.27,-5.405 2.316,-4.924 2.099,-4.759 2.099,-4.759 l 0.004,-0.004 c 0,0 -0.224,0.157 -0.667,-0.037 -0.334,-0.145 -0.63,-0.148 -0.835,-0.054 -0.341,0.16 -0.529,0.661 -0.462,1.139 0.04,0.284 0.025,0.526 -0.066,0.819 l 0,0 c -0.099,0.291 -0.228,0.494 -0.427,0.701 -0.336,0.347 -0.479,0.863 -0.296,1.192 0.109,0.197 0.351,0.369 0.707,0.447 0.472,0.105 0.562,0.362 0.562,0.362 L 0.617,-0.198 z" />
          </g>
          <g
             transform="translate(82.438,756.1128)"
             id="g6368">
            <path
               inkscape:connector-curvature="0"
               id="path6370"
               style="fill:#ffffff;fill-opacity:1;fill-rule:nonzero;stroke:none"
               d="m 0,0 c -0.099,-0.267 -0.484,-0.275 -0.479,-0.55 0.008,-0.441 0.35,-0.429 0.448,-0.731 L -0.032,-1.28 C 0.066,-1.582 -0.217,-1.773 0.036,-2.136 0.193,-2.36 0.51,-2.141 0.747,-2.299 L 0.755,-2.305 C 0.979,-2.48 0.868,-2.85 1.13,-2.93 c 0.423,-0.13 0.516,0.2 0.834,0.2 l -10e-4,0 c 0.318,0 0.412,-0.33 0.835,-0.2 0.262,0.08 0.151,0.45 0.374,0.625 l 0.009,0.006 c 0.236,0.158 0.553,-0.061 0.71,0.163 0.254,0.363 -0.031,0.554 0.068,0.856 l 0,-10e-4 c 0.098,0.302 0.439,0.29 0.447,0.731 C 4.411,-0.275 4.026,-0.267 3.927,0 L 3.924,0.01 C 3.847,0.283 4.153,0.518 3.989,0.736 3.723,1.089 3.453,0.878 3.196,1.064 l 10e-4,0 C 2.94,1.251 3.058,1.572 2.639,1.717 2.38,1.806 2.253,1.441 1.969,1.431 l -0.011,0 C 1.674,1.441 1.547,1.806 1.288,1.717 0.87,1.572 0.987,1.251 0.73,1.064 l 0.001,0 C 0.474,0.878 0.205,1.089 -0.062,0.736 -0.227,0.518 0.08,0.283 0.003,0.01 L 0,0 z m 3.021,-0.633 c 0,-0.584 -0.474,-1.056 -1.057,-1.056 -0.585,0 -1.058,0.472 -1.058,1.056 0,0.584 0.473,1.057 1.058,1.057 0.583,0 1.057,-0.473 1.057,-1.057" />
          </g>
        </g>
      </g>
    </g>
  </g>
</svg>
