<?xml version="1.0" encoding="UTF-8" standalone="no"?>
<svg
   width="696.71344"
   height="799.99994"
   viewBox="0 0 696.71344 799.99994"
   fill="none"
   version="1.1"
   id="svg263"
   sodipodi:docname="Logo Burnley AFC - 2023.svg"
   inkscape:version="1.2 (dc2aeda, 2022-05-15)"
   xmlns:inkscape="http://www.inkscape.org/namespaces/inkscape"
   xmlns:sodipodi="http://sodipodi.sourceforge.net/DTD/sodipodi-0.dtd"
   xmlns="http://www.w3.org/2000/svg"
   xmlns:svg="http://www.w3.org/2000/svg">
  <sodipodi:namedview
     id="namedview265"
     pagecolor="#ffffff"
     bordercolor="#000000"
     borderopacity="0.25"
     inkscape:showpageshadow="2"
     inkscape:pageopacity="0.0"
     inkscape:pagecheckerboard="0"
     inkscape:deskcolor="#d1d1d1"
     showgrid="false"
     inkscape:zoom="0.9275"
     inkscape:cx="217.78976"
     inkscape:cy="420.48517"
     inkscape:window-width="1920"
     inkscape:window-height="1080"
     inkscape:window-x="0"
     inkscape:window-y="0"
     inkscape:window-maximized="0"
     inkscape:current-layer="svg263" />
  <g
     id="g10152">
    <path
       id="path184"
       style="fill:#5f0041;fill-opacity:1;stroke-width:0.124309"
       d="m 0,0 v 429.10742 c 0.46949453,84.50733 37.090343,169.48449 101.87891,238.49805 63.84953,67.60552 149.29476,114.55327 240.375,131.45508 l 6.10351,0.93945 6.10352,-0.93945 c 91.08024,-16.90181 176.52546,-63.84956 240.375,-131.45508 64.78856,-69.01356 101.4094,-153.99072 101.8789,-238.49805 V 0 Z"
       sodipodi:nodetypes="cccccccccc" />
    <path
       style="fill:#ffffff;stroke-width:0.124309"
       d="M 21.595703,21.597656 V 429.10742 c 0.938988,79.34245 35.211546,158.68685 96.244137,223.94531 60.56266,64.31949 141.7843,108.91968 228.63868,125.35157 l 1.8789,0.46875 1.87696,-0.46875 c 86.85437,-16.43189 168.07601,-61.03208 228.63867,-125.35157 61.0326,-65.25846 95.3071,-144.60286 96.24609,-223.94531 V 21.597656 Z"
       id="path186" />
    <path
       style="fill:#5f0041;stroke-width:0.124309;fill-opacity:1"
       d="M 43.191406,43.193359 H 653.52148 V 429.10742 C 652.11258,580.28126 518.31021,724.41278 348.35742,756.80664 178.40463,724.41278 44.600315,580.28126 43.191406,429.10742 Z"
       id="path10018" />
  </g>
  <defs
     id="defs261" />
  <path
     style="stroke-width:0.124309;fill:#5f0041;fill-opacity:1"
     d="m 349.29563,123.94498 c 0,17.3709 15.96198,23.4739 16.4319,23.94383 -0.46992,-0.46993 -0.93899,-1.40891 -0.93899,-1.87798 1.87799,0.93899 3.75597,1.87798 5.63394,2.34705 0.93898,0.46991 1.87797,0.46991 2.81698,0.93899 h 0.46906 c -0.46906,-0.46908 -0.93898,-1.40806 -0.93898,-1.87799 1.4089,0.939 2.81696,1.40891 4.22586,1.40891 0.46907,0 1.40808,0 1.87798,-0.46991 l 0.93814,-0.46907 c 0.46993,0 0.93899,-0.46993 1.40891,-0.46993 0,0.46993 -0.46992,0.939 -0.46992,1.40891 -0.46906,0.46908 -0.46906,0.46908 -0.93899,0.93899 -0.93814,0.46908 -1.87713,0.939 -2.81612,0.939 -0.46992,0 -0.93899,0 -1.40891,-0.46992 -0.46906,0.46992 -1.40805,0.46992 -2.34704,0.46992 -0.939,0 -2.34791,0 -3.2869,-0.46992 -0.93899,-0.46908 -1.40805,-0.46908 -2.34704,-0.93899 -4.69496,0.46991 -23.00484,-6.10302 -18.30988,-25.35189 z"
     id="path590" />
  <path
     style="stroke-width:0.124309;fill:#5f0041;fill-opacity:1"
     d="m 346.47865,85.917169 c 0,0 1.87798,-2.81698 7.042,0 0,0 -1.87798,3.75511 -7.042,0 z"
     id="path588" />
  <g
     id="g10014">
    <g
       id="g9961"
       transform="translate(6.9832467e-4)">
      <path
         id="path224"
         style="fill:#ffffff;stroke-width:0.124309"
         d="m 119.07059,448.10742 c -7.3723,0.2202 -13.0749,1.91521 -16.96875,5.41406 -4.204958,3.77842 -5.314874,7.95001 -5.632814,9.85938 -0.15423,0.92624 -4.224512,22.5352 11.738284,47.41797 0,0 -3.10023,1.99673 -3.75586,2.8164 -1.24457,1.55599 -3.28725,4.22485 -4.695315,7.51172 -3.286036,7.51192 -5.165213,23.47494 9.388675,56.8086 l 0.46875,0.93945 0.93945,0.46875 c 0.46992,0 40.84451,11.2676 84.03711,45.07031 30.51668,23.94378 67.13679,49.76535 106.10352,61.03321 17.61176,5.09167 33.49798,6.01516 47.66406,6.10156 14.16609,-0.0864 30.05035,-1.00989 47.66211,-6.10156 38.96673,-11.26786 75.58684,-37.08943 106.10352,-61.03321 43.1926,-33.80271 83.56719,-45.07031 84.03711,-45.07031 l 0.93945,-0.46875 0.46875,-0.93945 c 14.55388,-33.33366 12.67471,-49.29668 9.38867,-56.8086 -1.40806,-3.28687 -3.45074,-5.95573 -4.69531,-7.51172 -0.65563,-0.81967 -3.75586,-2.8164 -3.75586,-2.8164 15.96278,-24.88277 11.89251,-46.49173 11.73828,-47.41797 -0.31794,-1.90937 -1.42786,-6.08096 -5.63281,-9.85938 -3.89385,-3.49885 -9.59645,-5.19386 -16.96875,-5.41406 -2.45744,-0.0734 -5.09598,0.0291 -7.91406,0.25 -9.40045,0.737 -16.57527,3.67488 -21.0918,7.9961 -1.34769,1.28939 -6.88024,7.88569 -5.66992,15.94726 0.46991,3.75595 1.40833,8.45108 2.8164,12.20703 -7.04198,0.93899 -13.5377,2.0859 -19.71679,4.22461 -6.03496,2.08881 -9.31125,5.18571 -10.33008,8.91992 -0.39093,1.43284 -1.87752,25.35242 0.93945,45.07032 -28.1688,12.6759 -44.59961,26.76172 -44.59961,26.76172 -68.07536,62.9105 -123.24968,61.9707 -123.71875,61.9707 -0.46907,0 -55.64534,0.9398 -123.7207,-61.9707 0,0 -16.43081,-14.08582 -44.59961,-26.76172 2.81697,-19.7179 1.33038,-43.63748 0.93945,-45.07032 -1.01883,-3.73421 -4.29512,-6.83111 -10.33008,-8.91992 -6.17909,-2.13871 -12.67481,-3.28562 -19.71679,-4.22461 1.40807,-3.75595 2.34649,-8.45108 2.8164,-12.20703 1.21032,-8.06157 -4.32223,-14.65787 -5.66992,-15.94726 -4.51653,-4.32122 -11.69134,-7.2591 -21.09179,-7.9961 -2.81809,-0.22094 -5.45663,-0.3234 -7.91407,-0.25 z m 1.44531,4.67969 c 2.15673,-0.0587 4.47372,0.0394 6.93946,0.26562 10.32724,0.9475 17.69223,4.30764 20.65625,9.38868 0.33426,0.573 1.52749,3.84272 0.4707,5.16406 -0.82942,1.03705 -4.69586,3.75743 -21.59765,-0.9375 l -2.34571,-0.4707 -3.26172,15.06445 c -4.5753,-1.02858 -9.37359,-2.04207 -13.72265,-4.52539 -3.41187,-1.94818 -6.25872,-7.48496 -5.55274,-11.94727 0.27483,-1.73712 0.49492,-4.66575 3.75586,-7.51172 3.19475,-2.78818 8.18804,-4.31405 14.6582,-4.49023 z m 455.68165,0 c 6.47016,0.17618 11.46345,1.70205 14.6582,4.49023 3.26095,2.84597 3.48103,5.7746 3.75586,7.51172 0.70598,4.46231 -2.14087,9.99909 -5.55274,11.94727 -4.34906,2.48332 -9.14735,3.49681 -13.72265,4.52539 l -3.26172,-15.06445 -2.3457,0.4707 c -16.9018,4.69493 -20.76824,1.97455 -21.59766,0.9375 -1.05679,-1.32134 0.13644,-4.59106 0.4707,-5.16406 2.96402,-5.08104 10.32901,-8.44118 20.65625,-9.38868 2.46574,-0.22622 4.78273,-0.32432 6.93946,-0.26562 z m -448.27344,19.04492 c 7.8335,1.86487 13.5925,2.54404 17.74805,1.80274 1.07446,-0.19168 3.57713,-0.79669 4.31835,-1.33399 0,1.40891 -2.83321,11.24692 -3.25,12.11524 -6.8557,-0.58293 -13.95074,-1.04214 -21.11523,-2.30274 z m 440.86523,0 2.29883,10.28125 c -7.16449,1.2606 -14.25953,1.71981 -21.11523,2.30274 -0.41679,-0.86832 -3.25,-10.70633 -3.25,-12.11524 0.74123,0.5373 3.24389,1.14231 4.31836,1.33399 4.15554,0.7413 9.91454,0.0621 17.74804,-1.80274 z m -467.15625,5.16406 c 0.93899,0.939 1.9447,1.76522 2.81836,2.34766 1.95301,1.302 3.80021,2.23919 6.10156,3.28516 2.86704,1.30307 6.5968,2.20644 9.85938,2.81836 4.25475,0.79799 29.1079,3.28595 30.04687,3.75585 7.04285,0.93899 13.66683,1.74888 19.71875,4.22461 4.27937,1.75061 6.85406,3.80202 7.51172,6.10352 0.28839,1.00925 0.11346,1.94268 -0.46875,2.81641 -0.36818,0.55254 -2.80516,1.48471 -7.98242,2.34765 -6.09078,1.01521 -14.55416,0.93915 -22.53516,1.40821 -11.26784,0.46992 -23.00324,0.93842 -29.57617,2.8164 -1.40891,0.46992 -2.34781,0.94024 -3.75586,1.41016 -7.6,-11.89723 -12.56966,-31.04415 -11.73828,-33.33399 z m 493.44727,0 c 0.83138,2.28984 -4.13828,21.43676 -11.73828,33.33399 -1.40805,-0.46992 -2.34695,-0.94024 -3.75586,-1.41016 -6.57293,-1.87798 -18.30833,-2.34648 -29.57617,-2.8164 -7.981,-0.46906 -16.44438,-0.393 -22.53516,-1.40821 -5.17726,-0.86294 -7.61424,-1.79511 -7.98242,-2.34765 -0.58221,-0.87373 -0.75714,-1.80716 -0.46875,-2.81641 0.65766,-2.3015 3.23235,-4.35291 7.51172,-6.10352 6.05192,-2.47573 12.6759,-3.28562 19.71875,-4.22461 0.93898,-0.4699 25.79213,-2.95786 30.04687,-3.75585 3.26258,-0.61192 6.99234,-1.51529 9.85938,-2.81836 2.30135,-1.04597 4.14855,-1.98316 6.10156,-3.28516 0.87366,-0.58244 1.87937,-1.40866 2.81836,-2.34766 z m -417.39063,29.57813 v 0.9375 c 0,7.51106 0.46978,21.12877 -1.4082,33.80469 -12.67592,-5.63394 -27.23102,-10.79905 -44.13281,-14.08594 -4.6941,-0.93899 -13.10276,-3.38204 -14.08399,-3.75586 -8.88317,-3.38422 -8.91992,-5.16486 -8.91992,-5.63477 0,-0.78017 0.36571,-1.72707 0.9668,-2.13086 2.60798,-1.75198 9.63603,-3.49439 10.33594,-3.64453 6.39501,-1.37179 16.32535,-1.73437 26.25585,-1.73437 2.34706,0 14.08929,-0.79126 16.90235,-0.93946 6.11258,-0.32201 11.26703,-1.40833 14.08398,-2.8164 z m 341.33399,0 c 2.81695,1.40807 7.9714,2.49439 14.08398,2.8164 2.81306,0.1482 14.55529,0.93946 16.90235,0.93946 9.9305,0 19.86279,0.36258 26.25781,1.73437 0.69991,0.15014 7.72601,1.89255 10.33398,3.64453 0.60109,0.40379 0.9668,1.35069 0.9668,2.13086 0,0.46991 -0.0367,2.25055 -8.91992,5.63477 -0.98123,0.37382 -9.38989,2.81687 -14.08399,3.75586 -16.90179,3.28689 -31.45689,8.452 -44.13281,14.08594 -1.87798,-12.67592 -1.4082,-26.29363 -1.4082,-33.80469 z M 106.79716,521.5957 c 0.93897,0.93898 6.10264,4.22934 7.51171,4.69532 15.32806,5.06896 31.09235,8.196 46.00977,13.14648 6.43856,2.43372 12.48603,4.84153 18.31055,7.51172 28.0794,12.8727 44.13086,26.29101 44.13086,26.29101 69.01437,63.8495 123.25059,63.37891 125.59765,63.37891 2.34706,0 56.58133,0.47059 125.5957,-63.37891 1e-5,0 16.05146,-13.41831 44.13086,-26.29101 5.82452,-2.67019 11.87199,-5.078 18.31055,-7.51172 14.91742,-4.95048 30.68171,-8.07752 46.00977,-13.14648 1.40908,-0.46598 6.57274,-3.75634 7.51172,-4.69532 0,0.46992 0.46875,0.4704 0.46875,0.93946 2.81695,5.16486 5.63473,19.24999 -8.44922,53.05273 -6.57293,2.3479 -44.6021,14.5533 -84.50782,45.53906 -30.98576,23.94378 -68.23013,49.68621 -107.51171,61.03321 -13.42984,3.87938 -27.30741,4.73446 -41.5586,5.01562 -14.25118,-0.28116 -28.13071,-1.13624 -41.56054,-5.01562 -39.28159,-11.347 -76.52595,-37.08943 -107.51172,-61.03321 -39.90572,-30.98576 -77.93489,-43.19116 -84.50782,-45.53906 -14.08395,-33.80274 -11.26617,-47.88787 -8.44922,-53.05273 0,-0.46906 0.46875,-0.46954 0.46876,-0.93946 z" />
      <g
         id="g8741"
         transform="translate(-0.50408251)">
        <path
           d="m 157.27599,563.38043 c 2.3479,-0.46992 3.75595,-0.93899 4.69494,-3.28689 0.939,-2.34706 0.939,-6.57293 -5.16402,-8.91999 l -13.14586,-5.16402 -9.3899,23.94298 13.61579,5.16487 c 4.22503,1.87798 9.38905,0.93899 11.26702,-3.75596 1.40891,-4.22589 0,-6.57293 -1.87797,-7.98099 z m -5.16402,3.7551 c -0.939,1.87799 -2.34706,1.87799 -3.75597,0.939 l -4.22503,-1.87798 1.87799,-4.22503 4.6941,1.87798 c 1.40891,0.93899 1.87798,1.87798 1.40891,3.28603 z m 2.34704,-8.91997 c -0.46907,1.40891 -1.87798,1.40891 -3.28604,0.93899 l -3.75596,-1.40807 1.40891,-3.75595 3.75511,1.40806 c 1.87798,0.93899 2.3479,1.87798 1.87798,2.81697 z"
           fill="#ffffff"
           id="path188"
           style="stroke-width:0.124309" />
        <path
           d="m 256.80639,643.66195 3.75596,-5.63394 -11.73695,-7.51192 1.87797,-2.81696 10.3289,6.57293 3.28604,-4.69496 -9.85897,-7.042 1.40805,-2.34705 11.26789,7.042 2.34705,-2.81697 v 15.49291 l -4.6941,7.98099 6.57208,4.22588 4.69495,-8.45091 15.96283,-9.85897 -7.51192,-4.22588 -8.45091,6.10386 0.93899,-10.32889 -6.10301,-3.28604 -17.84081,-11.73779 -14.08401,21.12684 z"
           fill="#ffffff"
           id="path198"
           style="stroke-width:0.124309" />
        <path
           d="m 298.12195,663.84981 3.28604,-9.3899 9.85897,3.28689 1.87798,-5.63394 -9.85897,-3.28689 1.40805,-3.28604 11.26788,4.22503 1.87798,-6.10301 -18.30988,-6.57293 -8.91998,23.94382 z"
           fill="#ffffff"
           id="path200"
           style="stroke-width:0.124309" />
        <path
           d="m 314.55299,655.86797 c -1.40805,7.51193 2.3479,14.08486 10.32889,15.49377 7.51192,1.40805 13.61494,-2.81698 15.49291,-10.79882 1.40806,-7.51107 -2.34789,-14.084 -10.32889,-15.49291 -7.98099,-1.40806 -14.084,3.2869 -15.49291,10.79796 z m 7.51192,1.87799 c 0.939,-5.6331 4.22503,-6.10302 6.57293,-6.10302 1.87799,0.46992 4.69495,2.34791 3.75596,7.98099 -0.93899,5.63395 -4.22587,6.10387 -6.57293,6.10387 -1.87797,-0.46992 -4.69495,-2.3479 -3.75596,-7.98184 z"
           fill="#ffffff"
           id="path202"
           style="stroke-width:0.124309" />
        <path
           d="m 353.98973,675.11685 c 7.98184,0 13.14587,-5.16402 13.14587,-13.14586 0,-7.981 -5.16402,-13.61494 -12.67595,-13.61494 -7.981,0 -13.14586,5.16488 -13.14586,13.14586 -0.46908,7.51192 4.69494,13.14586 12.67594,13.61494 z m 0.46992,-20.65694 c 1.87797,0 5.16402,1.40806 5.16402,7.042 0,5.63394 -3.28605,7.04201 -5.16402,7.04201 -1.87799,0 -5.16402,-1.40807 -5.16402,-7.04201 0,-5.63394 2.81696,-7.042 5.16402,-7.042 z"
           fill="#ffffff"
           id="path204"
           style="stroke-width:0.124309" />
        <path
           d="m 374.17759,653.98999 3.28689,19.24887 7.51107,-1.40805 -2.81696,-18.77981 7.04285,-1.40806 -0.939,-6.57293 -22.06583,3.75596 0.93899,6.57293 z"
           fill="#ffffff"
           id="path206"
           style="stroke-width:0.124309" />
        <path
           d="m 411.26726,664.31973 c 4.22504,-1.40891 7.51192,-5.63394 5.63396,-10.32888 -1.40891,-3.75597 -3.75597,-4.69495 -6.57293,-4.69495 1.40891,-1.40807 2.3479,-3.28605 1.40891,-5.63395 -0.93899,-2.34705 -3.28689,-5.63308 -9.85982,-3.28604 l -13.14502,4.69495 8.45007,23.94383 z m -1.87797,-8.4509 c 0.46992,1.87797 -0.46906,2.81696 -1.87797,3.28604 l -4.22503,1.40891 -1.40891,-4.69495 4.69493,-1.87798 c 0.93901,0 2.34792,0.46906 2.81698,1.87798 z m -7.04199,-9.38991 c 1.40805,-0.46907 2.81697,-0.46907 3.28603,0.939 0.46992,1.40891 -0.46907,2.3479 -1.87798,2.81696 l -3.75596,1.40891 -1.40805,-3.75596 z"
           fill="#ffffff"
           id="path208"
           style="stroke-width:0.124309" />
        <path
           d="m 426.75933,657.74596 -0.46906,-3.75597 7.04199,-3.75595 2.81698,2.81696 7.04199,-3.75596 -20.18786,-18.30902 -7.04201,3.7551 3.75597,27.23071 z m -3.28603,-17.83997 5.63393,6.10302 -4.22587,2.3479 z"
           fill="#ffffff"
           id="path210"
           style="stroke-width:0.124309" />
        <path
           d="m 460.09306,637.08987 -3.28604,-5.16402 -9.85982,6.10386 -10.32804,-15.96282 -6.57293,4.22502 14.08399,21.59678 z"
           fill="#ffffff"
           id="path212"
           style="stroke-width:0.124309" />
        <path
           d="m 522.06554,589.20224 -4.22588,-5.16488 -8.91997,7.04285 -11.26788,-15.49291 -6.57209,4.69495 15.49292,20.65694 z"
           fill="#ffffff"
           id="path218"
           style="stroke-width:0.124309" />
        <path
           d="m 532.86266,583.09922 c 6.57293,-4.22503 8.45092,-8.91998 4.69494,-15.023 l -7.98098,-13.61492 -6.57294,4.22503 7.042,12.20687 c 1.40891,2.34705 2.81697,5.16402 0,7.042 -3.28604,1.87798 -5.16402,-0.93899 -6.103,-3.28605 l -7.04201,-12.20686 -6.57293,4.22503 7.98099,13.61578 c 2.81697,5.63309 7.98185,6.57208 14.55393,2.81612 z"
           fill="#ffffff"
           id="path220"
           style="stroke-width:0.124309" />
        <path
           d="m 557.27639,571.36227 c 4.22503,-1.40891 7.51108,-5.63394 5.6331,-10.32889 -1.40806,-3.75596 -3.75511,-4.69495 -6.57209,-4.69495 1.40806,-1.40807 2.34707,-3.28604 1.40806,-5.63394 -0.93899,-2.34706 -3.75595,-5.63394 -9.85896,-3.28605 l -13.14586,4.69496 8.45091,23.94297 z m -1.87797,-8.45091 c 0.46906,1.87798 -0.46993,2.81697 -1.87798,3.28604 l -4.22588,1.40891 -1.40805,-4.69495 4.69494,-1.87798 c 1.40806,0 2.34704,0.46907 2.81697,1.87798 z m -7.04286,-9.3899 c 1.40891,-0.46907 2.81697,-0.46907 3.28689,0.93899 0.46908,1.40891 -0.46992,2.3479 -1.87798,2.81697 l -3.75596,1.40891 -1.40891,-3.75597 z"
           fill="#ffffff"
           id="path222"
           style="stroke-width:0.124309" />
        <path
           d="m 236.61852,629.57795 4.22589,-5.16487 -8.91998,-6.57293 11.73694,-15.49291 -6.57293,-4.69495 -15.49292,20.18786 z"
           fill="#ffffff"
           id="path196"
           style="stroke-width:0.124309" />
        <path
           d="m 477.4648,624.41308 -3.75596,-5.63394 -8.91999,7.04286 -11.73781,-15.49376 -6.103,4.69494 15.49291,20.65778 z"
           fill="#ffffff"
           id="path214"
           style="stroke-width:0.124309" />
        <path
           d="m 496.71282,609.86001 c 5.63394,-4.69495 5.63394,-11.73695 2.3479,-15.49291 l -6.10387,4.69495 c 0.93899,2.3479 1.40891,4.22588 -0.46907,6.10301 -2.81697,2.3479 -6.10386,0 -7.98184,-2.34705 -2.34705,-2.81697 -3.28604,-6.10301 -0.46907,-8.45091 2.34706,-1.87798 4.69496,-0.46907 5.63394,0.46992 l 6.10302,-4.69495 c -4.69495,-4.69495 -9.85897,-5.16402 -15.49291,-0.93899 -6.10301,4.69495 -7.042,12.20687 -1.87798,18.77895 4.69495,5.16487 12.20687,7.04285 18.30988,1.87798 z"
           fill="#ffffff"
           id="path216"
           style="stroke-width:0.124309" />
        <path
           d="m 207.04161,606.10405 8.91998,-10.79796 -2.81696,15.49291 6.10386,5.16402 15.96198,-20.18701 -5.6331,-4.69495 -8.92083,10.79796 2.81698,-15.49291 -6.10302,-5.16403 -16.43189,20.18702 z"
           fill="#ffffff"
           id="path194"
           style="fill:#ffffff;stroke-width:0.124309" />
        <path
           d="m 175.11679,558.21641 -7.042,-3.28605 -6.57293,14.08401 c -2.81696,6.57293 -0.93899,11.26788 6.10387,14.55392 7.04199,3.28689 12.20601,1.87798 15.02299,-4.69495 l 6.57293,-14.084 -7.04201,-3.28689 -6.10385,12.67679 c -0.939,2.34705 -2.34705,5.16402 -6.10302,3.75511 -3.28603,-1.40806 -1.87798,-4.6941 -0.93898,-7.04201 z"
           fill="#ffffff"
           id="path190"
           style="fill:#ffffff;stroke-width:0.124309" />
        <path
           d="m 186.38467,592.95819 4.6941,-7.98184 3.75597,1.87798 c 2.81696,1.40891 1.40891,3.75596 0.46992,6.10386 -0.46992,1.40806 -0.93899,2.34705 -1.40891,3.75511 l 7.04285,3.75596 c 0,-1.40806 1.40805,-4.22503 1.87798,-5.16402 1.40805,-2.81697 1.40805,-5.63394 0,-7.51192 2.81696,0.46992 5.16402,-1.40806 6.57207,-3.75596 2.34791,-4.22503 0.46992,-8.45006 -3.75511,-10.32804 l -13.14586,-7.51192 -12.67594,22.06584 z m 9.85898,-16.90182 3.28604,1.87798 c 2.81696,1.40806 2.81696,2.81697 1.87798,4.22503 -0.93899,1.87798 -2.81697,1.40891 -4.22504,0.46993 l -3.75596,-1.87799 z"
           fill="#ffffff"
           id="path192"
           style="fill:#ffffff;stroke-width:0.124309" />
      </g>
    </g>
    <g
       id="g8457">
      <path
         id="path238"
         style="fill:#ffffff;stroke-width:0.124309"
         d="m 340.375,66.667969 c 0,0 -12.20703,2.817825 -12.20703,19.71875 0,0 6.5e-4,2.347111 -0.9375,5.164062 -1.40891,0.938987 -1.87891,1.876953 -1.87891,1.876953 0.46906,-0.469057 0.93914,-0.46875 1.40821,-0.46875 -0.46907,0.938977 -0.93799,2.348123 -1.87696,3.28711 -2.81696,3.755946 -5.16406,10.328976 -5.16406,15.962886 v 0.46875 l 0.46875,-0.46875 c 0,0 4.69578,-3.28864 5.63477,-7.51367 0.46992,-1.87798 1.87662,-3.28562 2.3457,-4.22461 0.46991,1.87798 0.93945,6.10398 0.93945,7.04297 v 0.46875 h 0.4707 c 0.939,-0.93899 4.69343,-6.10255 0.9375,-13.144529 -0.46992,-0.938987 -0.46874,-2.347813 -0.46874,-3.75586 6.10383,-1.408904 10.32904,0.937966 12.20703,1.876953 0.93898,0.938977 1.87663,1.879043 2.3457,3.28711 0.93899,2.816951 0.47173,6.102636 -1.40625,9.388676 -1.40806,3.28602 -3.2864,5.63344 -4.69531,7.98046 -3.75595,6.10385 -6.57374,10.32887 -5.63477,19.71875 1.40891,10.79793 8.45077,15.96382 12.67578,17.8418 2.34789,2.3479 3.75633,6.1025 4.69532,7.98047 1.4089,2.81698 0,2.34766 0,2.34766 -7.98096,0.46907 -10.79773,-3.75562 -16.43165,-6.10352 -1.40805,-0.46907 -2.81655,-0.93945 -4.22461,-0.93945 -3.28603,-1.40891 -7.98118,-1.40891 -12.20703,0 -7.98099,2.34705 -13.14555,8.92077 -11.26757,14.55468 0.46907,1.87798 1.87756,3.7544 4.2246,4.69336 1.87799,0.93899 4.226,1.41016 7.04297,1.41016 1.87795,0 4.22521,-0.47038 6.57227,-0.93945 6.57292,-2.34705 11.26725,-7.04142 11.73633,-11.73633 2.81695,0.93899 10.79852,7.04077 16.90234,9.38867 6.57292,2.81612 8.91992,-4.69531 8.91992,-4.69531 1.87796,3.28605 -2.81584,14.08562 -5.63281,20.18945 l -2.81836,1.87695 -1.4082,-7.04296 -6.57227,8.91992 c -2.34705,-0.93899 -9.39062,-9.38867 -9.39062,-9.38867 -0.93899,8.91995 -3.75437,11.2664 -4.69336,11.73632 l -15.49414,-10.32812 c 0,7.04197 -7.04094,11.26758 -10.79688,11.26758 l -10.33008,-5.16407 c 0.93899,7.51107 -5.16303,8.91993 -7.04101,8.91993 h -17.83984 c -7.04284,0 -13.14649,5.63349 -13.14649,13.14453 0,4.88177 3.47138,9.76588 7.75781,12.20703 h -75.83203 v 208.91992 c 0.93898,84.03709 71.83108,163.38116 160.09403,180.75195 88.26295,-17.37079 159.15449,-96.71486 160.09347,-180.75195 V 223.47461 h -72.77929 c 3.78111,-2.25723 6.58203,-6.40803 6.58203,-11.26758 0,-7.04197 -5.63457,-13.14453 -13.14649,-13.14453 h -18.30859 c -7.51189,-0.93899 -8.91992,-8.45117 -8.91992,-8.45117 -8.91995,9.38987 -17.8418,-5.16406 -17.8418,-5.16406 l -15.49219,5.16406 -3.75586,-7.04102 c 1.87795,-3.75593 4.22521,-7.51264 6.57227,-9.39062 4.22586,-3.75596 5.63476,-4.22461 5.63476,-4.22461 -1.87798,-4.22589 -2.81836,-7.98256 -2.81836,-9.39063 0.46992,-0.46991 3.75694,-1.8782 7.04297,-3.28711 1.40888,-0.46907 2.8157,-0.93913 4.22461,-1.4082 h 1.87891 0.46875 l -1.87695,-1.87695 c 0.46992,0 1.40787,0.93945 1.87695,0.93945 0.93899,0.46907 1.87741,0.9375 2.81641,0.9375 0.93897,0 2.34882,0.001 1.8789,-0.9375 0.46992,0 1.40787,0.46875 1.87695,0.46875 h 1.87891 c 0.46906,-0.46907 0.93914,-0.47038 1.4082,-0.93945 0.46992,-0.46993 0.93829,-0.46844 1.40821,-0.9375 0,-0.46992 0.46875,-0.47039 0.46875,-0.93946 0,-0.46992 3.3e-4,-0.93945 -0.46875,-0.93945 -0.93899,-0.93899 -1.87742,-0.93828 -2.81641,-1.4082 l -3.28516,-0.93945 c -0.93897,-0.46908 -1.41064,-0.46955 -2.3496,-0.93946 -2.34706,-0.939 4.7e-4,0 0.93945,0 h 2.34765 c 0.93899,0 1.40867,-0.46875 2.34766,-0.46875 l 2.34766,-0.93945 c 0,0 -2.34771,0.93955 -7.51172,-2.81641 -1.87799,-1.40891 -2.81766,-3.28726 -4.22656,-4.69531 -2.81696,-3.28604 -5.63391,-6.57169 -8.91993,-9.38867 -3.28604,-2.81696 -6.57216,-5.63571 -10.32812,-7.51367 -3.28602,-1.87713 -7.04254,-3.28516 -11.26758,-3.28516 h -0.46875 c 0,-0.46908 -0.93875,-7.98122 3.28711,-17.37109 2.34705,-5.164018 2.81579,-10.32772 0.46875,-14.552738 -1.87797,-3.286031 -4.69639,-5.164529 -7.98242,-6.103516 -0.46992,0 -6.10373,-0.939078 -12.67578,3.75586 -1.87797,0.938997 -3.75484,1.878279 -5.63282,2.816406 5.63392,-6.572062 17.83961,-13.145317 20.1875,-13.615234 v -0.46875 c -0.46991,0 -8.45122,0.468978 -13.61523,3.755859 0.93899,-1.877974 1.87844,-5.166072 0.93945,-10.330078 v -0.46875 z M 366.25586,197.7207 c 10.82721,-0.0658 20.59766,4.15821 20.59766,4.15821 5.6339,2.34701 8.92132,4.69508 11.73828,7.04297 0.939,0.93895 1.40787,1.40703 1.87695,1.87695 1.87798,1.87798 5.16544,4.69499 7.98242,5.16406 2.34701,0.46992 -1.87825,5.16577 -8.45117,1.87891 -0.46991,-0.46907 -1.40867,-0.93992 -2.34766,-1.87891 -6.57206,-5.16398 -12.20703,-5.16406 -12.20703,-5.16406 -6.10386,-0.46992 -4.69336,3.28711 -4.69336,3.28711 3.28602,6.57289 -5.16477,4.69491 -9.39062,0 -6.5729,-7.042 -12.67568,-9.3896 -16.43164,-11.26758 -4.22503,-1.40891 -1.40923,-2.81719 0.46875,-3.28711 3.52098,-1.291 7.24836,-1.7886 10.85742,-1.81055 z m -51.8125,2.07422 c 9.70501,1.2e-4 18.41992,3.96289 18.41992,3.96289 12.6759,5.63309 14.55469,11.73633 14.55469,11.73633 0,0 1.87789,6.57308 -5.16406,1.4082 -5.63392,-4.22499 -9.85938,-3.28515 -9.85938,-3.28515 -4.22583,0 -5.16319,10.32815 -14.08398,1.4082 -6.10297,-6.10297 -11.7374,-8.45018 -15.02344,-10.32812 -3.28686,-1.87798 -0.46978,-2.34812 1.4082,-3.28711 3.16896,-1.17374 6.51306,-1.61528 9.74805,-1.61524 z m -39.34961,3.95899 c 3.89573,-0.039 7.56542,1.92459 9.41406,4.69726 6.10383,8.92079 14.08408,10.32891 10.32813,10.79883 -2.34705,0.46908 -9.38975,-1.87839 -12.67578,-4.69531 -4.22588,-3.75597 -10.79844,-0.9376 -6.10352,2.81836 0.46907,0.46907 -0.46921,0.9375 -1.4082,0.9375 -8.91994,0 -11.73777,-8.45079 -5.63477,-12.67578 1.93664,-1.29111 4.03948,-1.86045 6.08008,-1.88086 z m 149.45117,0.29687 c 5.14977,0 8.31836,1.58399 8.31836,1.58399 2.81696,1.40802 3.75703,3.28608 3.28711,5.16406 -0.46908,3.75593 -5.63445,7.98181 -6.10351,5.63476 -0.939,-5.16483 -6.57227,-7.51171 -6.57227,-7.51171 0,0 -7.51196,-3.75554 -5.16406,-4.22461 h 0.46875 c 2.11272,-0.4695 4.04906,-0.64649 5.76562,-0.64649 z M 199.53125,320.6582 h 148.82617 148.82617 v 111.73633 c 0.10203,21.12141 -2.2247,29.57813 -4.69531,29.57813 h -8.22851 v -19.24805 h -15.02344 v -18.31055 h -21.12695 v -21.12695 h -20.65626 v -18.7793 H 406.32617 V 364.78906 H 381.91211 V 344.13281 H 358.9082 l -10.55078,-16.90234 -10.55078,16.90234 h -23.00391 v 20.65625 h -24.41406 v 19.71875 h -21.12695 v 18.7793 h -20.65625 v 21.12695 h -21.12695 v 18.31055 h -15.02344 v 19.24805 h -8.22852 c -2.47061,0 -4.79735,-8.45672 -4.69531,-29.57813 z m 137.08789,46.00977 h 11.73828 11.73438 v 20.6582 h 18.77929 v 20.65625 h 20.1875 v 20.65625 h 20.65821 v 20.1875 h 20.1875 v 21.59766 h 25.82226 v 23.94336 h 16.43164 c -9.2821,21.21474 -24.00785,39.74856 -40.02343,56.38281 -25.76531,25.05433 -58.43416,43.21202 -93.7793,50.18945 -35.34518,-6.97743 -68.01398,-25.13512 -93.7793,-50.18945 -16.01557,-16.63425 -30.73938,-35.16807 -40.02148,-56.38281 h 16.43164 v -23.94336 h 25.82031 v -21.59766 h 20.1875 v -20.1875 h 20.6582 v -20.65625 h 20.1875 v -20.65625 h 18.7793 z"
         sodipodi:nodetypes="ccccccsccccscccccccccccccccccscccccccccccccssscccccccssccccccccccccccscscscsccccssccccscsccccccccccccscccccccccccsscccccccssccccscssccccccsccccscccccccccccccccccccccccccccsccccccccccccccccccccccccccccccccc" />
      <g
         id="g1878">
        <path
           d="m 349.88673,522.06571 c 2.81695,-5.16486 -1.878,-9.85982 -1.878,-8.92083 0.46909,1.40891 -2.34789,1.87799 -2.34789,1.87799 -2.81698,0.46991 -8.91997,-1.40806 -8.91997,-1.40806 -20.65694,-3.75596 -14.08486,22.06584 -12.67595,27.69978 0.939,3.28603 -1.40891,10.79796 -13.14586,9.85896 -8.91999,-0.93898 -9.38905,3.75597 -9.38905,3.75597 4.22503,-3.28689 7.04199,-0.93899 7.04199,-0.93899 -4.69495,0.46907 -6.103,5.63394 -6.103,5.63394 4.69409,-4.22588 8.91997,-1.40891 8.91997,-1.40891 -3.75595,0.93899 -3.75595,6.10301 -3.75595,6.10301 2.81696,-3.75511 5.63393,-1.87713 5.63393,-1.87713 0,0 5.63394,2.34705 7.042,-3.75596 0.46993,-1.87798 3.75596,0.93899 3.75596,0.93899 -0.46991,-2.3479 0.46907,-4.69495 0.939,-5.63394 0.46907,-0.93899 4.22502,2.81697 4.22502,2.81697 1.87798,-1.87798 0.939,-4.22588 0.939,-4.69495 0,-0.939 -1.40807,-4.22588 -0.46908,-6.10302 2.81698,-3.75595 6.57293,2.81612 6.57293,2.81612 0.93899,-5.16401 -4.22588,-15.02298 -4.69494,-15.4929 -2.34791,-2.81698 -3.2869,-9.38905 7.04199,-1.40806 3.75596,3.28604 8.45091,1.40806 8.45091,1.40806 -1.4089,-5.16402 2.81699,-11.26704 2.81699,-11.26704 z"
           fill="#ffffff"
           id="path226"
           style="fill:#ffffff;stroke-width:0.124309" />
        <path
           d="m 335.27995,463.91927 c 0,0 1.87797,2.34704 0,5.63308 0,0 5.63393,1.40892 8.4509,-1.40806 0,0 -1.40891,3.75596 0.93899,7.981 0,0 4.22503,-2.34706 5.16402,-5.16402 0,0 1.87797,0.46906 3.28689,3.75595 1.40807,3.28604 2.81698,3.75596 2.81698,3.75596 0,0 0,-4.69495 3.28604,-5.63394 0,0 3.75595,4.69496 8.91997,2.81698 0,0 -8.45091,-4.69495 0,-6.57293 0,0 -6.10301,-1.87799 -5.63394,-4.69495 0,0 -3.28603,5.16401 -10.32804,3.75595 0,0 1.87798,-2.34704 0.93899,-5.16402 0,0 -5.63394,3.28604 -10.32888,0.939 0,0 0,-5.16488 3.28604,-7.04285 0,0 -7.51108,-0.93899 -9.85897,1.40891 0,0 -1.40807,-3.2869 0.93898,-6.10387 0,0 -7.04199,2.3479 -8.91998,13.61579 -0.46992,0.46906 4.69495,0.93898 7.04201,-1.87798 z"
           fill="#ffffff"
           id="path228"
           style="fill:#ffffff;stroke-width:0.124309" />
        <path
           d="m 290.26298,492.95787 c 0,0 -6.57293,5.16402 -1.40891,10.79796 0,0 0.46992,-7.04284 4.69495,-5.16486 0,0 -7.042,5.16486 0,9.38989 0,0 -0.46907,-7.04199 5.16487,-5.63394 3.28604,0.939 5.63309,-3.28603 5.63309,-3.28603 0,0 3.75596,-2.3479 6.10386,0.93899 2.34705,3.75595 5.63394,4.22503 6.10301,4.69494 0,0 -2.34706,-3.28689 0,-4.69494 0,0 3.75596,3.75595 6.57292,3.75595 0,0 -3.28689,-3.75595 0,-4.22587 0,0 1.87798,0 2.34706,1.87797 0.46992,2.3479 6.10386,3.28689 6.57293,3.28689 0,0 -3.28603,-2.81696 -1.40806,-5.63393 0,0 0,0 0,-0.46992 1.87798,-2.81698 3.75511,-1.87798 3.75511,-1.87798 7.04285,-1.87713 6.57293,-9.38905 6.57293,-11.26704 0.46992,0 0.93899,0.46908 0.93899,0.93899 0.93898,2.34706 1.4089,7.981 -6.57293,12.67595 0,0 0.46992,6.57293 11.26788,11.26787 0,0 -1.40806,-8.4509 5.16402,3.75511 0,0 2.34789,4.69495 -0.46907,9.38991 -2.34706,4.69495 -5.16403,12.67594 3.75595,17.84081 8.91999,5.63309 14.55393,11.73695 10.3289,27.69893 0,0 -2.81698,5.63394 -8.45092,4.22588 -5.63393,-1.40891 -7.98099,-3.75596 -12.67594,2.34705 0,0 5.63394,-2.81697 8.91998,0.93899 0,0 -6.57293,-1.87798 -8.91998,6.57293 0,0 6.57209,-3.75596 9.38905,-0.93899 0,0 -3.75511,0.93899 -3.75511,5.63394 0,0 3.75511,-2.81697 6.57209,-1.40891 4.69494,1.87798 5.63393,-0.93898 7.04284,-3.28604 1.40806,-2.3479 4.69495,0.93899 9.38905,0 0,0 -6.57207,-5.16402 -2.81697,-7.51192 2.3479,-1.40806 6.57293,1.40891 8.45091,-0.93899 0,0 -8.45091,-3.28604 -4.22503,-8.91998 1.87799,-2.3479 5.16402,0.46907 7.04201,-0.93899 0,0 -5.63394,-1.87798 -4.69496,-7.04201 0.46993,-3.28688 1.87798,-2.81696 2.81697,-2.34789 0.93901,0.46992 3.2869,0.93899 4.69495,0 0,0 -2.34704,-0.46907 -2.81696,-3.28604 -0.46908,-2.81697 0,-6.57293 -3.28604,-8.91998 -1.87798,-1.40891 -3.28688,-1.40891 -3.28688,-6.10386 0,-5.63395 2.34789,-6.10301 3.75594,-6.57294 1.40891,0 4.69495,-0.46906 6.57293,-1.87713 0,0 12.20687,-7.51192 5.63394,-23.00482 -6.57293,-15.49291 -9.85897,-16.4319 -8.91997,-28.63877 0.93899,-12.20688 3.75511,-17.83996 6.57207,-22.06585 1.87798,-3.28603 6.10387,-5.63394 8.92084,-6.10301 0,0 7.04201,-1.40891 6.103,7.042 0,0 0,2.34791 -4.22503,5.63394 -4.22588,3.75597 -5.63393,7.51192 -5.63393,7.51192 0,0 4.69494,-3.28689 5.63393,-2.3479 0.93901,0.939 0.46909,2.3479 -1.4089,4.69495 -1.87799,1.87798 -4.22503,6.57293 -3.75596,10.3289 0,0 1.40891,-2.3479 3.28688,-2.3479 0,0 -0.93898,7.51192 3.75597,10.32888 0,0 -1.40891,-8.4509 1.87713,-13.145 2.3479,-3.2869 7.98184,-14.08486 4.69494,-21.59678 0,0 0,-9.85896 -6.10301,-10.79796 0,0 0.93899,1.87799 0.46907,1.40806 -0.46907,-0.46906 -19.24801,-1.87713 -23.00398,27.69978 0,1.40891 -0.93899,5.63394 -0.93899,5.63394 0,0 -0.46992,7.51192 -5.16487,1.87799 0,0 -0.46907,6.10301 5.63394,9.85896 6.10302,4.22503 -5.63394,3.75597 -7.98098,-0.46906 0,0 0,4.69409 6.103,7.51107 6.10387,2.3479 5.16488,5.63394 -4.69495,3.28689 0,0 2.81698,4.22503 10.79882,4.22503 7.98098,0 8.45006,12.20687 5.63308,15.02384 -4.22503,3.75596 -6.57207,3.28604 -8.45006,2.81697 -2.3479,-0.46992 -3.28689,0 -3.28689,0 0,0 -4.69495,-4.69495 -5.63394,-8.92084 -0.46906,-3.28603 -7.04199,-8.91997 -7.04199,-8.91997 0,0 -3.75597,-4.69496 -2.34706,-14.08401 1.40807,-9.38989 1.87798,-12.20687 1.40807,-13.61492 0,0 -2.34706,-0.46992 -3.28605,-1.87799 0,0 -1.40891,3.75512 -1.40891,6.10302 0,0 -4.69495,-0.93899 -6.57293,-4.69495 -1.40806,-3.75597 -2.81612,-2.81697 -2.81612,-2.81697 0,0 -2.81697,3.75595 -6.10386,4.69494 0,0 -1.40806,-0.46906 -1.40806,-4.22503 0,-0.93899 0,-1.87798 0,-2.3479 0,-0.46906 0,-0.93899 0,-1.40805 0,0 -5.16487,1.40805 -8.45091,0 0,0 0.939,-2.3479 0,-3.75597 0,0 -2.34705,1.40807 -7.042,0.46908 0,0 -0.93899,-4.22503 3.28604,-10.79796 0,0 0.46992,-1.87799 -1.87797,-6.10302 -2.34706,-3.75595 -6.10302,-12.20686 -2.81698,-17.8408 2.3479,-3.75597 1.40891,-8.91999 -1.87798,-10.79796 -2.81697,-1.87799 -4.69495,-1.87799 -8.91998,-0.46908 0,0 5.63394,-0.46991 5.63394,4.22503 0,0 -6.10301,-6.10301 -11.26788,0 0,0 7.04285,-0.93899 5.63394,4.69495 0,0 -5.16402,-7.04199 -10.32889,1.40807 0,0 7.04285,-0.939 7.04285,5.16486 -0.46992,4.22503 5.16403,5.63394 5.16403,5.63394 0,0 1.40805,12.20602 -5.63395,11.73695 0,0 4.22588,2.81697 6.10301,2.34706 0,0 0.46992,4.69494 -3.75511,5.16402 0,0 2.34705,2.3479 5.63309,2.3479 0,0 0.46992,1.40805 -1.40806,2.34704 -2.34705,1.40891 -2.34705,5.16488 -2.34705,5.63394 0,0 2.34705,-1.87798 6.10301,0 3.75596,1.87799 8.45092,0.46992 9.3899,0 0,0 0.93899,-0.46906 1.87798,-0.46906 -0.46992,0.46906 -0.93899,1.40805 -1.87798,2.81696 -1.40891,1.87799 -3.28689,4.22503 -5.16487,6.57209 -5.16402,5.16486 -14.084,10.32888 -27.22986,4.22587 -3.28604,-1.40891 -8.91998,-1.87797 -11.26788,0.46908 -2.34705,2.3479 -3.28604,5.16486 -0.93899,8.45091 0.93899,2.81696 0.93899,-2.34706 5.16488,-1.40807 z"
           fill="#ffffff"
           id="path230"
           style="fill:#ffffff;stroke-width:0.124309" />
        <path
           d="m 349.76384,456.80719 c -4.22501,1.87798 -3.75511,6.10301 -3.75511,6.10301 6.57208,-0.46908 7.981,-3.28605 7.981,-3.28605 3.75595,0.93899 1.40805,6.10301 0.93898,6.57293 0.46907,0 0.46907,0 0.93899,0 1.40807,0 4.22503,-1.40891 7.042,-5.16486 0,0.93899 0.939,7.04284 10.32889,6.57293 0,0 -6.10386,-2.81698 -4.69495,-6.57293 v -0.46908 c 3.75597,3.75597 8.91998,-0.93899 8.91998,-0.93899 -5.16401,0 -5.63394,-2.81696 -5.63394,-4.22503 6.10387,3.75511 9.38991,-2.3479 8.45091,-3.28689 0,0 -10.79795,4.22588 -1.87797,-15.02299 0.93899,-2.3479 4.22503,-6.10386 0.93899,-9.38989 -3.28605,-3.2869 -4.69494,-8.91999 -0.93899,-11.73695 0,0 -4.22503,-1.87799 -9.85897,1.87797 -2.81696,1.87798 -5.16402,0.93899 -5.16402,0.93899 0,0 -4.69494,-2.3479 -8.92084,-0.46992 -3.28604,1.40891 -4.22503,3.28689 -4.69495,4.22503 -2.34705,-0.93814 -6.57208,1.87798 -7.04199,1.87798 -0.46906,0 0,1.87799 -0.46906,2.81697 -0.46993,0.93899 -0.93899,4.22588 3.28604,4.22588 4.22501,-0.46992 7.04199,-1.40891 7.04199,-1.40891 0,0 0.93899,0.93899 1.40892,3.28689 0.46906,2.81697 1.87797,7.04201 -3.75597,7.51107 0,0 0,0 1.40807,1.40891 1.40891,0.93899 6.10385,0.93899 6.57293,-1.87797 0.93898,-2.34706 2.3479,-2.81698 2.3479,-2.81698 0,0 2.34704,6.57293 -7.04286,7.51193 -9.38905,0.93899 -15.02299,4.22502 -16.90097,11.26787 11.26703,-2.81696 13.14501,0.46908 13.145,0.46908 z m 8.92084,-32.39474 c -1.87799,1.40891 -3.75597,0.939 -6.10386,-1.40806 2.34789,-2.81697 5.63395,-3.75596 10.32889,-0.46992 0,0 -2.34704,0.46992 -4.22503,1.87798 z"
           fill="#ffffff"
           id="path232"
           style="fill:#ffffff;stroke-width:0.124309" />
      </g>
      <g
         id="g1601"
         style="fill:#ff2a2a"
         transform="translate(-2.111585)">
        <path
           d="m 258.2153,360.09461 -15.023,-25.35273 -15.49291,25.8218 15.49291,29.10784 z"
           fill="#ffffff"
           id="path234"
           style="fill:#ffffff;stroke-width:0.124309" />
        <path
           d="m 476.05504,360.09461 -15.49291,-25.35273 -15.49293,25.8218 15.96284,29.10784 z"
           fill="#ffffff"
           id="path236"
           style="fill:#ffffff;stroke-width:0.124309" />
      </g>
      <g
         id="g8371">
        <g
           id="g1140"
           style="fill:#5f0041;fill-opacity:1"
           transform="translate(-1.4077017)">
          <path
             style="fill:#5f0041;fill-opacity:1;stroke-width:0.124309"
             d="m 351.1736,239.43822 h 0.46907 c 3.75597,0.93813 3.28689,23.00397 2.3479,25.82094 -1.40891,0 -2.81697,0 -4.22588,0.46992 -0.46906,-0.93899 -0.46906,-1.87798 -0.46906,-3.28689 0,-2.34705 0,-16.90097 0.46906,-20.18785 -0.46906,-2.34706 0.93899,-2.81612 1.40891,-2.81612 z"
             id="path600" />
          <path
             style="fill:#5f0041;fill-opacity:1;stroke-width:0.124309"
             d="m 357.27661,253.52221 c 0,-4.22503 0,-9.85896 2.81697,-9.85896 1.87799,0 1.87799,3.75595 1.87799,6.10301 0,2.81696 0,9.38989 0,9.85897 -0.93899,1.4089 -1.40807,5.63393 -1.40807,6.57293 -0.93899,-0.46908 -1.87798,-0.46908 -3.28689,-0.46908 -0.46906,-0.93899 0,-7.98184 0,-12.20687 z"
             id="path598" />
          <path
             style="fill:#5f0041;fill-opacity:1;stroke-width:0.124309"
             d="m 346.47865,261.50321 c 0,2.34789 0,3.75595 -0.46992,4.69495 -1.87713,0 -3.28603,0.46991 -4.6941,0.46991 -0.93899,-4.22588 -0.93899,-9.3899 -0.93899,-9.3899 l 0.46907,-8.91998 c 0,-0.46992 0,-5.63394 2.81698,-5.63394 2.34704,0 2.34704,6.10302 2.34704,6.10302 0,0 0,6.57293 0.46992,12.67594 z"
             id="path596" />
          <path
             style="fill:#5f0041;fill-opacity:1;stroke-width:0.124309"
             d="m 359.15459,298.12297 c 0.46992,0.46992 1.87799,3.28688 -0.46907,8.92083 0,0 -7.51192,4.22503 -18.30988,0.46906 0,-0.46906 0,-7.98098 -0.46992,-9.38989 -0.46907,-1.40807 -4.69495,-4.22504 -4.69495,-4.22504 0,-0.46992 -4.22503,-26.29087 -0.93899,-36.61976 0,0 0,-8.4509 2.81698,-9.3899 1.87797,-0.46907 1.40891,8.92084 1.40891,8.92084 0,0 0,10.32804 0,10.79795 -3.75597,2.81697 -0.939,3.28604 -0.939,3.28604 11.73696,-1.87798 17.83997,-2.34704 20.65693,-1.87798 0.46992,0 0.46992,0 0.93899,0 1.87799,0.46993 1.87799,1.40891 1.87799,1.40891 0,0 0.46991,2.34706 -7.981,3.75511 0,0 -4.69495,0.93899 -5.63394,2.81697 -0.93899,1.87799 -1.40891,7.98184 0.93899,11.73781 0,0 1.40806,-0.46993 0.939,-2.3479 -0.46992,-1.87798 0,-6.57293 1.40805,-7.51192 1.40891,-1.40807 13.61493,-2.81698 13.61493,-6.10301 0,0 -1.40806,-5.63394 1.40891,-11.73696 2.34705,-4.22502 5.16402,1.40806 4.69495,8.91998 0,0 -0.46992,11.73695 -0.46992,14.08485 0,2.34706 -1.40805,9.85897 -9.38905,11.26704 0,0 -2.81697,0.93899 -3.28689,2.3479 -0.46906,0 1.40891,0 1.87798,0.46907 z"
             id="path594" />
        </g>
        <g
           id="g8200"
           transform="translate(-0.01427679)">
          <path
             id="path3288"
             style="fill:#5f0041;fill-opacity:1;stroke:none;stroke-width:0.124309"
             d="m 238.68945,242.50195 c -0.36724,-0.0352 -0.71482,0.16029 -1.11328,0.69141 -0.63013,0.83991 1.87827,3.75696 2.34766,4.22656 1.40773,1.40839 3.7553,5.63254 6.57226,11.26563 -0.46992,0.46992 -0.46843,0.47116 -0.9375,1.41015 -15.02382,-2.81696 -26.63757,-2.31439 -27.70117,1.40821 -0.81574,2.85508 7.51348,7.04255 15.02539,11.26757 -7.51191,4.22502 -15.96458,8.4507 -15.02539,11.26758 1.40871,4.2251 12.20749,4.69392 27.23047,1.87696 l 0.57031,4.1582 c 0,0 -5.26591,8.98771 -8.08203,11.80469 -0.93899,0.93899 -0.46875,1.4082 -0.46875,1.4082 0,0.46908 0.47039,0.4707 0.93946,0.4707 0.46991,0 1.51061,-0.18635 2.8164,-0.93945 0.90925,-0.5244 2.81585,-3.28551 5.63281,-7.98047 0.42142,1.60607 3.27029,12.74317 10.32813,12.67578 7.05784,0.0674 9.9067,-11.06971 10.32812,-12.67578 2.81697,4.69496 4.72552,7.45607 5.63477,7.98047 1.30579,0.7531 2.34649,0.93945 2.81641,0.93945 0.46907,0 0.93945,-0.002 0.93945,-0.4707 0,0 0.46828,-0.46921 -0.4707,-1.4082 -2.81612,-2.81698 -8.08204,-11.80469 -8.08204,-11.80469 l 0.57227,-4.1582 c 15.02298,2.81696 25.81981,2.34814 27.22852,-1.87696 0.93918,-2.81688 -7.51153,-7.04256 -15.02344,-11.26758 7.51191,-4.22502 15.83917,-8.41249 15.02344,-11.26757 -1.0636,-3.7226 -12.6754,-4.22517 -27.69922,-1.40821 -0.46907,-0.93899 -0.46954,-0.94023 -0.93946,-1.41015 2.81697,-5.63309 5.16649,-9.85724 6.57422,-11.26563 0.46939,-0.4696 2.97583,-3.38665 2.34571,-4.22656 -0.79692,-1.06223 -1.38644,-0.78038 -2.34571,0 -1.85551,1.50949 -7.81093,7.8079 -8.45117,10.79883 -2.34705,-5.16486 -5.16512,-8.45117 -8.45117,-8.45117 -3.28605,0 -6.10217,3.28631 -8.44922,8.45117 -0.64024,-2.99093 -6.59566,-9.28934 -8.45117,-10.79883 -0.47964,-0.39019 -0.86714,-0.65618 -1.23438,-0.69141 z" />
          <g
             id="g8192">
            <path
               id="path242"
               style="fill:#ffffff;stroke-width:0.124309"
               d="m 256.82521,250.23438 c -1.87797,0 -4.34536,1.84335 -5.63477,6.57226 -0.12339,0.45254 -0.20863,0.55795 -0.4707,1.4082 2.23324,-1.01484 4.2615,-1.41504 6.10547,-1.46679 1.84396,0.0518 3.87026,0.45195 6.10351,1.46679 -0.26207,-0.85025 -0.34731,-0.95566 -0.4707,-1.4082 -1.28941,-4.72891 -3.75485,-6.57226 -5.63281,-6.57226 z" />
            <path
               style="fill:#ffffff;fill-opacity:1;stroke:none;stroke-width:0.1;stroke-dasharray:none"
               d="m 251.16603,297.19531 c 0.52239,1.11397 1.12196,2.21303 1.81445,3.29297 1.19948,0.47449 2.56598,0.69336 3.84375,0.69336 1.27777,0 2.64427,-0.21887 3.84375,-0.69336 0.69249,-1.07994 1.29206,-2.179 1.81445,-3.29297 -1.53067,0.34069 -3.1892,0.17578 -5.6582,0.17578 -2.469,0 -4.12754,0.16491 -5.6582,-0.17578 z"
               id="path8178" />
            <path
               style="fill:#ffffff;fill-opacity:1;stroke:none;stroke-width:0.1;stroke-dasharray:none"
               d="m 248.90821,290.22852 c 0.27548,1.40026 0.64303,2.78321 1.11328,4.14453 1.8299,0.68132 3.92351,0.99804 6.80274,0.99804 2.87923,0 4.97283,-0.31672 6.80273,-0.99804 0.47025,-1.36132 0.8378,-2.74427 1.11328,-4.14453 -2.00037,0.71047 -4.88602,0.84375 -7.91601,0.84375 -3.02999,0 -5.91564,-0.13328 -7.91602,-0.84375 z"
               id="path8176" />
            <path
               style="fill:#ffffff;fill-opacity:1;stroke:none;stroke-width:0.1;stroke-dasharray:none"
               d="m 256.82423,283.45703 c -2.72261,1.0787 -5.62813,1.52084 -8.52539,1.98828 0.0496,0.77493 0.12419,1.54462 0.21875,2.31055 2.0444,0.74825 5.26464,1.11719 8.30664,1.11719 3.042,0 6.26224,-0.36894 8.30664,-1.11719 0.0946,-0.76593 0.16915,-1.53562 0.21875,-2.31055 -2.89726,-0.46744 -5.80278,-0.90958 -8.52539,-1.98828 z"
               id="path8136" />
          </g>
        </g>
        <g
           id="g8266"
           transform="translate(183.08066)">
          <path
             id="path8254"
             style="fill:#5f0041;fill-opacity:1;stroke:none;stroke-width:0.124309"
             d="m 238.68945,242.50195 c -0.36724,-0.0352 -0.71482,0.16029 -1.11328,0.69141 -0.63013,0.83991 1.87827,3.75696 2.34766,4.22656 1.40773,1.40839 3.7553,5.63254 6.57226,11.26563 -0.46992,0.46992 -0.46843,0.47116 -0.9375,1.41015 -15.02382,-2.81696 -26.63757,-2.31439 -27.70117,1.40821 -0.81574,2.85508 7.51348,7.04255 15.02539,11.26757 -7.51191,4.22502 -15.96458,8.4507 -15.02539,11.26758 1.40871,4.2251 12.20749,4.69392 27.23047,1.87696 l 0.57031,4.1582 c 0,0 -5.26591,8.98771 -8.08203,11.80469 -0.93899,0.93899 -0.46875,1.4082 -0.46875,1.4082 0,0.46908 0.47039,0.4707 0.93946,0.4707 0.46991,0 1.51061,-0.18635 2.8164,-0.93945 0.90925,-0.5244 2.81585,-3.28551 5.63281,-7.98047 0.42142,1.60607 3.27029,12.74317 10.32813,12.67578 7.05784,0.0674 9.9067,-11.06971 10.32812,-12.67578 2.81697,4.69496 4.72552,7.45607 5.63477,7.98047 1.30579,0.7531 2.34649,0.93945 2.81641,0.93945 0.46907,0 0.93945,-0.002 0.93945,-0.4707 0,0 0.46828,-0.46921 -0.4707,-1.4082 -2.81612,-2.81698 -8.08204,-11.80469 -8.08204,-11.80469 l 0.57227,-4.1582 c 15.02298,2.81696 25.81981,2.34814 27.22852,-1.87696 0.93918,-2.81688 -7.51153,-7.04256 -15.02344,-11.26758 7.51191,-4.22502 15.83917,-8.41249 15.02344,-11.26757 -1.0636,-3.7226 -12.6754,-4.22517 -27.69922,-1.40821 -0.46907,-0.93899 -0.46954,-0.94023 -0.93946,-1.41015 2.81697,-5.63309 5.16649,-9.85724 6.57422,-11.26563 0.46939,-0.4696 2.97583,-3.38665 2.34571,-4.22656 -0.79692,-1.06223 -1.38644,-0.78038 -2.34571,0 -1.85551,1.50949 -7.81093,7.8079 -8.45117,10.79883 -2.34705,-5.16486 -5.16512,-8.45117 -8.45117,-8.45117 -3.28605,0 -6.10217,3.28631 -8.44922,8.45117 -0.64024,-2.99093 -6.59566,-9.28934 -8.45117,-10.79883 -0.47964,-0.39019 -0.86714,-0.65618 -1.23438,-0.69141 z" />
          <g
             id="g8264">
            <path
               id="path8256"
               style="fill:#ffffff;stroke-width:0.124309"
               d="m 256.82521,250.23438 c -1.87797,0 -4.34536,1.84335 -5.63477,6.57226 -0.12339,0.45254 -0.20863,0.55795 -0.4707,1.4082 2.23324,-1.01484 4.2615,-1.41504 6.10547,-1.46679 1.84396,0.0518 3.87026,0.45195 6.10351,1.46679 -0.26207,-0.85025 -0.34731,-0.95566 -0.4707,-1.4082 -1.28941,-4.72891 -3.75485,-6.57226 -5.63281,-6.57226 z" />
            <path
               style="fill:#ffffff;fill-opacity:1;stroke:none;stroke-width:0.1;stroke-dasharray:none"
               d="m 251.16603,297.19531 c 0.52239,1.11397 1.12196,2.21303 1.81445,3.29297 1.19948,0.47449 2.56598,0.69336 3.84375,0.69336 1.27777,0 2.64427,-0.21887 3.84375,-0.69336 0.69249,-1.07994 1.29206,-2.179 1.81445,-3.29297 -1.53067,0.34069 -3.1892,0.17578 -5.6582,0.17578 -2.469,0 -4.12754,0.16491 -5.6582,-0.17578 z"
               id="path8258" />
            <path
               style="fill:#ffffff;fill-opacity:1;stroke:none;stroke-width:0.1;stroke-dasharray:none"
               d="m 248.90821,290.22852 c 0.27548,1.40026 0.64303,2.78321 1.11328,4.14453 1.8299,0.68132 3.92351,0.99804 6.80274,0.99804 2.87923,0 4.97283,-0.31672 6.80273,-0.99804 0.47025,-1.36132 0.8378,-2.74427 1.11328,-4.14453 -2.00037,0.71047 -4.88602,0.84375 -7.91601,0.84375 -3.02999,0 -5.91564,-0.13328 -7.91602,-0.84375 z"
               id="path8260" />
            <path
               style="fill:#ffffff;fill-opacity:1;stroke:none;stroke-width:0.1;stroke-dasharray:none"
               d="m 256.82423,283.45703 c -2.72261,1.0787 -5.62813,1.52084 -8.52539,1.98828 0.0496,0.77493 0.12419,1.54462 0.21875,2.31055 2.0444,0.74825 5.26464,1.11719 8.30664,1.11719 3.042,0 6.26224,-0.36894 8.30664,-1.11719 0.0946,-0.76593 0.16915,-1.53562 0.21875,-2.31055 -2.89726,-0.46744 -5.80278,-0.90958 -8.52539,-1.98828 z"
               id="path8262" />
          </g>
        </g>
      </g>
    </g>
  </g>
</svg>
