<?xml version="1.0" encoding="UTF-8" standalone="no"?>
<svg
   class="logo_logo__3GoRi icon"
   focusable="false"
   width="563.22656"
   height="700"
   role="img"
   aria-label="Crystal Palace logo"
   version="1.1"
   id="svg1364"
   sodipodi:docname="Logo Crystal Palace FC - 2022 copie.svg"
   inkscape:version="1.1.1 (c3084ef, 2021-09-22)"
   xmlns:inkscape="http://www.inkscape.org/namespaces/inkscape"
   xmlns:sodipodi="http://sodipodi.sourceforge.net/DTD/sodipodi-0.dtd"
   xmlns="http://www.w3.org/2000/svg"
   xmlns:svg="http://www.w3.org/2000/svg">
  <defs
     id="defs1368" />
  <sodipodi:namedview
     id="namedview1366"
     pagecolor="#ffffff"
     bordercolor="#666666"
     borderopacity="1.0"
     inkscape:pageshadow="2"
     inkscape:pageopacity="0.0"
     inkscape:pagecheckerboard="0"
     showgrid="false"
     inkscape:zoom="0.55768839"
     inkscape:cx="320.96777"
     inkscape:cy="575.59026"
     inkscape:window-width="1440"
     inkscape:window-height="900"
     inkscape:window-x="0"
     inkscape:window-y="0"
     inkscape:window-maximized="0"
     inkscape:current-layer="svg1364" />
  <g
     id="g12768">
    <path
       d="m 520.13003,92.986258 c -1.03433,-3.171945 -6.41285,-5.619859 -28.23721,-5.619859 -8.51598,0 -16.41136,0.344777 -16.5148,0.344777 -0.34477,0 -0.68955,0.06896 -0.99985,0.172388 -13.51524,0.999852 -26.40989,4.102842 -38.06334,9.171058 15.44599,-18.617938 39.5114,-30.271388 54.06098,-36.029158 0.75851,-0.310299 2.89612,-1.275673 3.37881,-1.999704 0.72403,-1.103285 1.89627,-2.137615 0.89642,-3.930454 -1.68941,-3.10299 -8.30912,-3.895976 -12.72226,-3.895976 -4.75792,0 -11.48106,0.655076 -19.92809,1.930749 -3.99941,0.44821 -7.99882,1.103286 -11.79136,1.930749 -0.17239,0.03448 -0.34478,0.06896 -0.51717,0.137911 -16.75614,3.758065 -32.61587,11.274196 -45.85529,21.720928 -1.86179,1.448062 -3.65463,2.999557 -5.37851,4.551052 L 409.11195,63.30099 c 5.75777,-9.412402 11.99823,-18.135251 18.61794,-25.892725 0.44821,-0.517165 0.72403,-1.137763 0.86194,-1.792839 0.24135,-1.310151 1.75836,-3.378811 0.89642,-4.447618 -0.55164,-0.655076 -1.75836,-1.758361 -3.93045,-1.758361 -1.93075,0 -8.30912,0.655075 -32.75378,19.204058 -22.9966,16.066592 -42.71783,36.8911 -57.09501,60.301435 -5.79225,10.3433 -15.85973,29.54736 -19.23854,43.0626 -0.20686,-1.37911 -0.37925,-2.72374 -0.55164,-4.03389 -0.58612,-5.44747 -0.9309,-11.06733 -1.03433,-17.75599 -0.10343,-7.99882 0.24134,-15.1357 0.58612,-19.72123 0.13791,-1.93075 -0.24134,-6.44732 -2.10314,-6.93001 -1.86179,-0.44821 -4.72344,3.27538 -5.48195,5.06822 -11.86031,27.40974 -15.03226,50.165 -15.65286,63.7492 l -4.37866,39.92513 c -0.48269,2.75822 -2.58582,16.10107 -2.58582,16.10107 -3.30986,-5.75777 -5.65434,-10.06748 -8.20569,-16.30793 -0.0689,-0.20687 -0.17239,-0.41373 -0.3103,-0.6206 l -3.75806,-6.03359 c -0.10343,-0.17239 -0.20687,-0.3103 -0.34478,-0.44821 -5.68881,-6.7921 -11.44658,-10.27434 -18.13525,-14.30823 -9.34345,-5.68882 -20.9969,-12.72226 -38.30468,-32.75378 -9.55032,-11.03285 -20.61765,-33.37438 -24.20332,-48.75142 -7.06792,-30.443774 -6.41285,-66.852187 1.72388,-99.5370119 0.75851,-2.1720928 1.27567,-6.1715018 0.27582,-7.5161306 -0.75851,-1.0343299 -2.13761,-1.75836087 -3.41329,-1.75836087 -2.55134,0 -4.86135,2.24104817 -20.82451,27.61660837 -0.0345,0.06895 -0.069,0.137911 -0.13791,0.206866 -10.48121,16.687189 -17.8939,35.787815 -21.41063,55.267694 -0.7585,4.240753 -1.34462,8.481506 -1.75836,12.687781 -3.72358,-9.205537 -6.7921,-18.755849 -9.17105,-28.47855 -5.1027,-20.858987 -6.7921,-41.993794 -4.89583,-61.1633753 0.13791,-1.2067182 0.37925,-4.4131409 -0.48269,-5.2406048 C 131.11855,0.44820962 129.98079,0 128.77407,0 125.25735,0 119.84436,4.5510516 108.60464,34.581096 97.916564,63.197557 94.468798,89.435059 97.813131,118.086 85.642516,102.26075 80.195045,80.022657 75.264739,59.956657 74.058021,54.991873 72.851303,50.096045 71.575629,45.44156 c -0.620598,-2.344481 -2.310003,-7.998818 -4.447618,-6.93001 -0.137911,0.06896 -0.275822,0.172388 -0.413732,0.241344 -0.03448,0 -0.03448,0.03448 -0.06896,0.03448 -0.06896,0.03448 -0.13791,0.103433 -0.241343,0.172389 -0.103433,0.06895 -0.206866,0.172388 -0.275822,0.241343 -0.448209,0.413732 -1.965226,5.344038 -2.241048,5.895681 -0.689553,1.275673 -1.103285,3.171945 -1.379106,5.861203 0,0.13791 -0.03448,0.241343 -0.03448,0.379254 0,0.930897 -0.06896,1.861794 -0.103433,2.792691 -0.06895,1.034329 -0.137911,2.068659 -0.137911,3.102989 -1.448061,15.032261 -2.585824,53.923066 17.376743,94.572226 l 0.448209,1.06881 c 0.275822,0.6206 0.551643,1.2412 0.827464,1.86179 2.172093,4.58553 4.620007,8.79181 6.964488,12.82569 0.792987,1.34463 1.551495,2.65478 2.310004,3.96494 2.758213,4.82687 5.171649,7.79195 7.654041,10.58464 -11.274196,-2.31001 -27.926907,-5.61986 -35.960203,-6.82658 -1.861794,-0.24134 -3.620155,0.75851 -4.309708,2.51687 -0.655075,1.72388 -0.03448,3.72359 1.551495,4.72344 6.723144,4.37866 18.962715,15.44599 31.788406,27.37526 l -0.172389,0.0345 22.824214,21.23824 2.06866,1.96523 c 7.44717,6.99897 15.17017,14.23927 22.54839,20.92794 l -15.61838,-1.55149 c -1.72389,-0.20687 -3.37882,0.82746 -4.06837,2.44791 -0.65507,1.62045 -0.20686,3.48224 1.17224,4.58553 l 36.37394,29.44392 h -0.0345 l 15.92868,12.65331 c 0.10343,0.10343 0.20687,0.24134 0.34478,0.34477 l 27.30631,21.96228 c 0.68955,0.55164 1.51701,0.86194 2.37895,0.86194 l 6.99897,0.17239 c -14.8254,6.1715 -28.37512,6.37836 -44.23484,1.03433 -12.23957,-4.10285 -23.9275,-10.48121 -33.85707,-18.44555 -1.41358,-1.13777 -5.03374,-3.24091 -6.4818,-2.1721 -1.44806,1.06881 -0.37925,5.06822 0.3103,6.75762 3.10299,7.58509 8.79181,14.23928 14.54957,20.27287 -18.8248,-2.48239 -35.9602,-7.68852 -55.509029,-16.61823 -1.62045,-0.72403 -4.551052,-2.65478 -5.723292,-1.31015 -1.137763,1.34462 -0.206866,5.58538 0.724031,7.06792 8.860759,13.72211 15.92868,23.13451 22.9966,30.47825 7.41269,7.68852 17.16987,15.5839 21.96227,18.48003 0.9309,0.55164 3.37881,2.03418 15.10122,2.03418 4.44761,0 9.34344,-0.24134 13.48076,-0.6206 0.51717,-0.0345 1.03433,-0.10343 1.51702,-0.13791 -11.68793,4.13732 -22.44496,5.68882 -31.71945,4.51658 -1.99971,-0.27583 -6.58524,-0.10344 -7.06792,1.86179 -0.48269,1.96523 3.30985,5.10269 5.20612,5.79225 13.92898,4.96478 27.54766,8.34359 40.61469,10.10195 4.30971,1.20672 16.5148,4.41314 29.68527,5.55091 0.89642,0.0689 1.72388,0.10343 2.51687,0.0689 1.06881,0.10343 2.17209,0.20687 3.20642,0.3103 5.06822,0.48269 9.82614,0.9309 14.92883,0.9309 4.1718,0 8.3436,-0.3103 12.61883,-0.96538 0.0345,0.51717 0.17238,1.03433 0.41373,1.48254 l 2.31,4.51658 c -0.82746,0.13791 -1.65493,0.55164 -2.24105,1.20671 -1.13776,1.2412 -1.41358,3.06852 -0.58612,4.58553 l 4.93031,9.24002 c 0.10343,0.20686 0.24134,0.41373 0.41373,0.6206 0.0345,0.0345 0.13791,0.17238 0.37925,0.44821 -0.20686,0.10343 -0.41373,0.20686 -0.62059,0.34477 -1.34463,0.9309 -1.96523,2.6203 -1.5515,4.20628 2.55135,10.27434 7.51613,13.8945 11.17076,16.54928 2.4824,1.79283 3.99941,2.89612 4.75792,5.68881 0.51717,1.86179 1.37911,3.96493 2.27553,6.20598 1.89627,4.72344 4.72344,11.82584 2.96508,14.65301 -2.37896,3.79254 -4.03389,4.89582 -6.75762,6.68866 -1.68941,1.13777 -3.82703,2.55135 -6.37837,4.86135 -6.1715,5.55091 -6.61971,12.92913 -1.27568,21.9278 l 0.3103,0.51716 c 0.82747,1.44806 2.44792,2.20657 4.10284,1.93075 1.62045,-0.27582 2.93061,-1.51702 3.24091,-3.13747 1.24119,-6.34389 11.68792,-11.37762 13.72211,-11.51554 3.58567,-0.24134 6.99896,-0.48268 9.34344,-2.82716 3.79254,-3.79255 24.41019,-4.03389 24.41019,-4.03389 0,0 2.44791,0.10343 6.20598,0.86194 0.72403,0.37926 1.48254,0.68955 2.13761,1.13776 0.65508,0.41374 1.34463,0.65508 2.13762,0.6206 0.44821,0 7.37822,2.79269 7.92986,3.44777 1.03433,1.20672 12.72226,7.68852 14.06689,8.41255 0.79298,0.41373 7.61956,9.48136 8.58493,9.48136 1.58598,2.34448 2.1721,1.6894 2.20658,-0.68956 4.44761,-2.6203 8.41255,-8.44703 9.96404,-14.68748 1.51702,-6.20598 0.6206,-12.10166 -2.65478,-17.06645 -0.17239,-0.27582 -0.41373,-0.51716 -0.65508,-0.7585 -0.68955,-0.6206 -2.48239,-2.06866 -4.62,-3.72359 -2.86165,-2.27553 -7.68852,-6.03359 -8.6539,-7.17136 -2.9306,-3.34433 -4.34418,-6.96448 -5.75777,-11.1018 1.13777,-0.069 2.1721,-0.6206 2.86165,-1.48254 0.75851,-0.9309 1.03433,-2.1721 0.75851,-3.34434 l -0.51717,-2.27552 c -0.82746,-3.48225 -1.72388,-7.44718 -2.48239,-11.79136 l -0.0345,-0.20687 c 0.17239,0.0345 0.3103,0.0345 0.48269,0.0345 0.0345,0 0.0345,0 0.069,0 2.17209,0 3.96493,-1.75836 3.96493,-3.96493 0,-0.72403 -0.20687,-1.41359 -0.55164,-2.03418 L 320.15957,415.973 c 0.37926,0.44821 0.68956,0.79299 0.82747,0.9309 1.0688,1.13776 3.68911,3.06851 5.17165,2.55134 1.48254,-0.51716 1.51701,-3.41329 1.65492,-4.96478 0.6206,-7.92986 6.65419,-15.92868 13.17047,-20.61764 0.37926,1.0688 0.72403,1.79284 0.82746,1.96522 0.68956,1.31015 0.75851,4.20628 2.24105,4.20628 0.0345,0 0.069,0 0.069,0 1.51702,-0.0345 2.65478,-2.10314 4.79239,-4.34419 2.72374,-2.82717 5.03374,-5.30956 7.89539,-6.13702 l 13.68763,5.51642 c 0.82746,2.44792 2.51687,6.44733 5.48195,8.82629 2.55135,2.06866 5.06822,3.65463 9.58479,6.51628 0.48269,0.31029 0.99985,0.62059 1.51702,0.96537 -0.41373,0.20687 -0.86194,0.41373 -1.37911,0.58612 -1.55149,0.55164 -6.03359,2.03418 -6.06807,3.72359 0,1.65493 4.44762,3.13746 6.03359,3.72359 3.03404,1.13776 6.37837,1.72388 9.65375,1.72388 6.72314,0 12.61882,-2.41344 16.2045,-6.61971 2.9306,-3.44777 4.06836,-7.82643 3.2409,-12.65331 -0.58612,-3.58567 -2.03418,-12.48091 -2.48239,-15.34256 l 3.68911,-12.13613 c 0.13791,-0.37926 0.17239,-0.79299 0.17239,-1.17224 -0.0345,-5.75777 -1.65493,-12.13614 -4.86135,-19.06615 l -0.13791,-0.44821 c -0.13791,-0.48269 -0.37926,-0.89642 -0.68956,-1.27567 -0.17239,-0.34478 -0.34477,-0.68956 -0.48268,-0.96538 -0.86195,-1.89627 -1.93075,-3.79254 -3.27538,-5.82672 -9.82614,-16.17003 -23.75511,-29.3405 -24.37571,-29.89214 -1.17224,-1.10328 -3.51672,-3.03403 -4.99926,-2.37896 -1.44806,0.68956 -1.75836,3.8615 -1.68941,5.48195 l 0.069,0.86194 c -0.96538,-2.27552 -4.62001,-6.06807 -5.413,-7.27478 -1.75836,-2.65478 -3.06851,-5.34404 -3.55119,-7.27479 11.79136,-54.50919 47.82051,-90.77969 48.16529,-91.12447 0.65508,-0.65507 1.06881,-1.51701 1.13776,-2.41343 7.79196,-77.954 96.84776,-112.293749 97.74418,-112.638525 0.34478,-0.137911 2.65478,-0.861942 2.9306,-1.068808 3.17195,-2.344481 3.65463,-4.13732 3.41329,-4.930306 z M 317.84958,432.6602 c 0.10343,0.069 0.24134,0.10343 0.34478,0.17239 l -1.72389,0.27582 z"
       fill="#ffffff"
       id="path1170"
       style="fill:#ffffff;stroke-width:3.44777" />
    <g
       id="g12470">
      <path
         d="m 407.62941,355.56814 c -0.13791,-0.44821 -0.24134,-0.68955 -0.24134,-0.68955 0,0 0.0345,0.17239 0.10343,0.44821 -0.34477,-0.75851 -0.72403,-1.51702 -1.10328,-2.27553 -0.86194,-1.93075 -1.93075,-3.68911 -3.03404,-5.41299 -9.65374,-15.8942 -23.68615,-29.06467 -23.68615,-29.06467 l 0.20687,3.8615 c 0,0 0.0689,0.0345 0.0689,0.0345 l 0.41373,6.03359 c 0,0 -45.26917,-26.27198 -64.54218,-50.50978 -14.96331,-18.79033 -32.20214,-39.27006 -42.40753,-64.43875 l -3.75806,-6.03359 C 256.61725,192.00611 242.99857,194.93671 213.24435,160.49352 203.03896,148.66768 191.76476,125.42974 188.17909,110.0527 180.62848,77.574743 181.97311,40.58021 190.0064,8.3435945 c 0,0 3.75807,-10.9983746 -16.8251,21.7209275 v 0 C 162.87248,46.441413 155.63217,65.093828 152.18441,84.125499 150.42605,93.8482 149.63306,103.63986 149.94336,113.2936 142.94439,99.364626 137.35901,84.194454 133.49751,68.541595 128.4293,47.923952 126.46407,26.513323 128.53273,6.0335911 c 0,0 -3.62016,-3.5511993 -16.13555,29.8921339 C 99.881791,69.369059 97.916564,97.916564 103.63986,129.87736 80.643255,110.39748 75.437128,74.678619 67.783086,46.441413 c 0,0 0,0 0,0 0,0 0,0 0,0 0,0 -0.03448,0 -0.03448,0.03448 0,0 0,0 0,0 -0.06896,0.06896 -0.172389,0.172389 -0.275822,0.413732 -0.275821,0.551643 -0.689553,1.792839 -0.930897,4.413141 0,2.034182 -0.241343,4.068364 -0.241343,6.102547 -1.379107,14.135842 -2.689258,52.578437 17.031965,92.779387 0.413732,0.9309 0.827464,1.89627 1.241196,2.82717 2.792691,5.89568 6.102547,11.23972 9.136581,16.54928 4.999261,8.7918 8.860764,10.9639 14.480624,18.72137 -0.58612,-0.069 -34.443191,-7.20583 -46.820672,-9.03315 7.481653,4.89583 21.203763,17.37674 36.822144,31.99527 0,0 46.682758,3.75807 83.366998,30.85751 0,0 -31.75393,-15.51495 -69.85175,-18.16973 2.24105,2.10314 4.4821,4.24076 6.72314,6.34389 10.86047,10.20539 21.78989,20.41078 31.47811,28.96124 h -0.13791 l -27.54765,-2.72373 39.58035,32.02974 7.1024,0.24135 c 0,0 13.30838,-0.44821 26.47885,2.51687 14.03241,3.17194 21.51406,7.72299 21.51406,7.72299 -7.86091,-2.65478 -20.89346,-3.06851 -28.75437,-2.55134 -5.61986,0.37925 -9.27449,1.93075 -13.34286,2.48239 l 2.31001,1.86179 24.9963,20.10048 22.2381,0.58612 c -18.79033,11.68793 -37.23588,16.30794 -60.85308,8.37807 -12.54987,-4.20627 -24.72048,-10.79151 -35.06378,-19.1351 4.17179,10.27434 13.89449,19.06615 21.4451,26.8581 -24.89287,-1.93075 -44.95887,-7.68852 -67.714131,-18.10077 8.688371,13.51524 15.618381,22.6863 22.513921,29.89213 6.89553,7.17135 16.41136,14.96331 21.16928,17.82495 3.03404,1.82732 16.92853,1.72389 26.13407,0.86194 1.72388,-0.17238 3.30986,-0.34477 4.62001,-0.58612 2.10313,-0.34477 4.75791,-0.93089 7.55061,-1.55149 9.44688,-2.17209 20.85898,-5.37852 20.23838,-4.96478 -4.10284,2.68925 -8.58493,5.30956 -13.30837,7.72299 -2.79269,1.44806 -5.65434,2.79269 -8.58494,4.06837 -13.23943,5.68881 -27.65109,9.20553 -40.82156,7.5506 14.72197,5.24061 30.099,9.10211 45.68291,10.55017 5.37851,0.51716 7.30926,0.44821 11.96375,-1.72388 6.96449,-3.20643 12.68778,-5.86121 18.23868,-8.51599 2.79269,-1.34462 5.58538,-2.72373 8.41255,-4.13732 3.89598,-1.96522 7.89539,-4.06836 12.343,-6.55075 -2.58582,2.41343 -5.17164,4.68896 -7.82642,6.93001 -1.48254,1.24119 -2.99956,2.51687 -4.55106,3.75806 -5.37851,4.41314 -11.13628,8.9642 -17.68704,14.72197 17.58361,1.24119 27.75452,4.13732 51.13038,-3.17195 0,0 -4.7924,3.58568 -11.48106,7.48165 l 6.93001,13.5842 -7.51614,-3.37881 4.93031,9.24002 c 0,0 3.51672,4.34418 8.51598,7.99881 l 1.68941,5.44748 c -3.8615,-1.13777 -8.82628,-5.27509 -11.2742,-6.93002 3.89598,15.68734 13.23943,12.61883 15.92868,22.13466 1.82732,6.41285 8.61942,17.92839 4.75792,24.03094 -4.51657,7.20583 -7.48165,6.68866 -13.82554,12.41195 -7.37822,6.61972 -1.68941,14.89436 -0.17239,17.54914 1.51702,-7.75748 7.30926,-12.79122 10.55016,-13.75659 5.13718,-1.51702 11.30868,-0.34478 13.5842,-2.6203 8.13673,-8.10226 25.61691,-10.17092 37.68409,-2.58583 -5.58538,-9.03315 -8.4815,-8.75733 -19.61779,-11.99823 19.68675,1.31015 20.96242,5.58539 30.61616,16.8251 0.79299,-6.37836 -4.51657,-14.51509 -9.03314,-18.37659 -1.41359,-1.20672 -17.03197,-3.41329 -32.23662,-4.72344 -5.34404,-0.44821 -7.48165,-7.34374 -8.27464,-11.03285 0.9309,0.51716 5.24061,2.79269 9.4124,2.72373 -1.0688,-5.34404 -2.55134,-11.44658 -3.41328,-15.10121 1.48254,0.68955 3.03403,1.62045 6.41284,1.75836 l -2.20657,-8.99867 c -1.03433,-7.17136 -3.37881,-12.37748 3.51672,-23.34138 3.79255,2.68926 5.48195,3.82702 7.20583,5.75777 0,0 1.41359,6.86105 2.99956,10.51569 0.3103,0.68955 7.06792,6.4818 7.30927,7.17135 l -11.65345,-3.37881 c 0,0 3.89597,8.86076 11.58449,13.96345 4.55105,1.62045 8.61942,3.44777 9.96405,5.20613 1.3791,1.86179 3.68911,6.82658 2.58582,9.48136 -0.86194,2.17209 -7.06792,-7.03345 -20.13496,3.93045 8.89524,0.13791 19.58332,2.58582 21.89332,5.30956 2.99956,3.51672 5.10269,6.72314 7.27479,8.0333 9.48136,5.68881 10.13643,8.65389 9.37792,19.82465 5.8612,-4.51657 4.20628,-16.30793 3.34434,-19.16958 7.75747,9.30897 6.06806,21.96227 3.68911,26.92706 5.82672,-3.2409 12.89464,-16.10107 6.20597,-26.27198 -1.79283,-1.65493 -11.65345,-8.99867 -13.58419,-11.20524 -4.93031,-5.61986 -6.17151,-11.99823 -8.61942,-18.44555 1.72388,0.069 3.8615,0.79298 5.58538,0.75851 -0.86194,-3.82703 -2.10314,-8.79181 -3.03403,-14.27376 -0.10344,-0.48268 -0.17239,-0.99985 -0.24135,-1.48254 -0.0345,-0.20686 -0.069,-0.41373 -0.10343,-0.62059 -0.13791,-0.82747 -0.24134,-1.62046 -0.34478,-2.4824 -0.0345,-0.20686 -0.0345,-0.41373 -0.0689,-0.58612 -0.10343,-0.82746 -0.20687,-1.6894 -0.27582,-2.55134 3.20642,2.03418 5.41299,2.9306 5.41299,2.9306 l -5.48195,-14.85988 c 0,0 0,0 0,-0.0345 0.10343,-1.13777 0.24135,-2.24105 0.41373,-3.37881 0,-0.069 0.0345,-0.13791 0.0345,-0.20687 0.17239,-1.03433 0.37926,-2.03418 0.6206,-3.03403 0.0345,-0.17239 0.069,-0.34478 0.10343,-0.48269 0.24135,-0.9309 0.51717,-1.82732 0.79299,-2.75822 0.0689,-0.20686 0.13791,-0.4482 0.20686,-0.65507 0.37926,-1.10329 0.82747,-2.17209 1.31016,-3.2409 -2.4824,5.30956 4.79239,12.99808 4.79239,12.99808 0.9309,-11.75689 11.44658,-22.75526 20.27287,-26.72019 -0.48269,3.27538 1.20671,6.55075 1.20671,6.55075 2.62031,-5.5509 7.92987,-7.75747 11.75689,-8.61941 l 7.13687,2.86165 7.58509,3.03403 1.96523,0.79299 c 0,0 1.3791,6.03359 4.72344,8.72284 3.2409,2.62031 6.58523,4.51658 14.61853,9.68823 -0.58612,1.9997 -2.41344,3.8615 -6.03359,5.17165 11.44658,4.27523 25.85824,-0.86194 23.78958,-13.13599 -0.72403,-4.34419 -2.6203,-16.30794 -2.6203,-16.30794 v -0.0345 l 2.68926,-8.82629 0.79298,-2.6203 0.10344,-0.27582 0.37925,-1.20672 c -0.17239,-5.79225 -1.9997,-11.82584 -4.75792,-17.72152 z m -40.61468,18.13525 -6.06807,-10.92942 -15.51495,-7.82643 12.68778,14.72197 c -6.68867,-3.82702 -18.0663,-9.86061 -30.4093,-12.17062 0,0 10.48121,9.79166 15.48047,14.68749 0.96538,0.62059 1.13776,1.10328 1.13776,1.10328 -0.34477,-0.3103 -0.72403,-0.72403 -1.13776,-1.10328 -1.48254,-0.96538 -4.82687,-2.24105 -12.48091,-2.68926 -7.1024,-0.72403 -15.54943,-2.58583 -23.20347,-6.89553 0,0 1.51702,2.24104 4.65448,4.9303 0.0345,0.0345 0.10344,0.069 0.13792,0.10343 0,0 0.0345,0.0345 0.0345,0.0345 2.9306,2.48239 7.24031,5.34404 13.06704,7.24031 0.44821,0.13791 6.27493,2.55135 6.72314,2.68926 -4.1718,1.65493 -7.68852,3.68911 -10.61912,5.93016 -5.65434,4.37866 -9.17106,9.61927 -11.27419,14.99778 -3.62016,9.27449 -6.96449,25.99616 -4.37867,35.51199 -8.03329,-10.7915 -15.13569,-24.686 -11.20524,-40.44229 -12.23957,6.89553 -20.10048,4.65448 -28.58198,3.41328 -3.93046,5.27509 -9.1021,17.92839 -9.75718,28.78885 -0.72403,-1.13776 -1.37911,-2.37896 -1.9997,-3.68911 -3.17195,-6.72314 -4.7924,-14.44614 -5.17165,-21.85884 -0.17239,-2.96507 -0.17239,-5.79224 0.069,-8.41255 v -0.0345 l 27.96139,-19.82466 -40.68365,-3.41329 c 0,0 0,0 0,0 0.65508,-0.51716 1.37911,-0.99985 2.06866,-1.48254 15.65286,-11.03285 34.96035,-18.61794 54.37128,-17.75599 1.51702,0.0689 2.99955,0.17238 4.48209,0.34477 -12.48091,-6.99896 -34.4087,-6.65419 -47.40678,-2.58582 -17.65257,5.51642 -24.65153,5.82672 -43.51081,2.51687 19.82465,-4.03389 19.10062,-4.55105 30.8575,-10.10196 9.65375,-5.41299 27.99587,-15.37704 51.13038,-11.13628 -5.65434,-2.4824 -10.51569,-4.82688 -17.41122,-6.44733 -6.72314,-1.55149 -17.68704,-3.03403 -29.44392,-0.51716 0,0 7.99881,-8.55046 22.92764,-10.6536 -20.3763,-18.37659 -80.53982,-47.16544 -80.53982,-47.16544 85.40117,20.16943 121.74063,60.26695 127.15362,66.74875 0.37926,0.27582 0.72403,0.58612 1.06881,0.86194 -3.20642,-7.30926 -22.16914,-51.50962 -74.0925,-83.84967 -7.20583,-4.4821 -15.13569,-7.65404 -22.47944,-11.8948 -11.7224,-6.82657 -22.54839,-14.37718 -32.409,-22.61734 l 0.0345,0.17238 C 86.676846,136.22125 122.63705,30.650643 122.63705,30.650643 c -3.10299,24.513618 1.03433,48.475595 8.13673,69.817267 4.51657,13.54972 10.20539,26.03064 15.99763,36.8911 6.4818,12.20509 13.10152,22.34153 18.27316,29.65079 12.03271,14.68749 26.30646,27.23736 42.82126,36.30498 0,0 -72.92026,-49.64783 -31.4781,-155.494261 -1.62045,4.516574 -30.27139,89.366101 77.43683,163.217261 2.06866,1.3791 3.58567,1.34463 4.20627,2.86164 14.34271,34.51214 69.54145,89.43506 79.81579,115.87943 -0.44821,-5.41299 -0.93089,-10.79151 -1.3791,-16.2045 6.1715,6.61971 10.99837,14.85987 13.54972,23.58272 0.44821,-5.34404 0.9309,-13.44629 1.37911,-18.75585 8.92971,4.89583 22.16913,15.1357 33.06407,26.92706 0,0 -0.13791,-0.13791 -0.31029,-0.3103 -0.37926,-0.41373 -0.75851,-0.82747 -1.06881,-1.17224 0.17239,0.17239 0.34477,0.34477 0.48269,0.51716 0.10343,0.10344 0.17238,0.17239 0.24134,0.27582 0.13791,0.13791 0.27582,0.27582 0.34478,0.37926 0.10343,0.10343 0.17238,0.20686 0.31029,0.3103 l -0.48268,-7.82643 -0.24135,-3.65464 c 0,0 16.48033,20.27287 22.10019,35.96021 0.31029,0.89642 0.58612,1.75836 0.86194,2.6203 -0.10344,4.41314 -0.72403,7.37822 -1.44806,9.30897 -0.6206,1.65493 -3.13747,4.41314 -3.68911,4.82687 -0.41374,0.3103 -0.65508,0.37926 -0.65508,0.37926 0.75851,-0.58612 0.9309,-2.03419 0.96537,-3.34434 0,-1.65492 -0.34477,-3.37881 -0.96537,-5.37851 -0.58612,-1.8618 -1.27567,-3.62016 -1.86179,-4.99926 -0.6206,-1.48254 -1.10329,-2.4824 -1.10329,-2.4824 0.34478,3.65464 0.17239,6.30942 -0.24134,8.24017 0,0.069 0,0.13791 -0.0345,0.17238 -0.82746,3.65464 -2.48239,4.58553 -2.9306,4.7924 -0.069,0.0345 -0.10343,0.0345 -0.13791,0.0345 -0.13791,-0.58612 -0.24135,-1.13777 -0.37926,-1.65493 -0.44821,-1.31015 -0.96537,-2.6203 -1.48254,-3.89598 -1.86179,-4.65448 -8.68837,-17.54913 -10.92942,-22.0657 -1.93074,2.75821 0.65508,9.13658 0.65508,9.13658 0.86194,1.68941 2.89612,5.99911 2.89612,5.99911 -1.89627,4.30971 0.89642,9.06763 4.68897,10.89494 -1.06881,0.48269 -4.58553,-0.0345 -7.06792,-1.48253 0.93089,1.86179 4.24075,6.34389 5.89568,7.61956 -4.86136,-1.13776 -15.85973,-9.86061 -21.85884,-14.8254 z m 24.72048,32.44348 -4.75792,-3.86149 -3.41328,-2.75822 -0.86195,-2.6203 -0.20686,-0.68955 -1.17224,-3.58568 -0.0345,-0.10343 c 3.82702,2.24105 6.86105,6.34389 8.82628,9.58479 0.41373,0.68955 2.55135,4.79239 2.55135,4.79239 z m 14.75644,2.7927 c -1.44806,1.82731 -3.75806,3.44776 -6.20598,4.51657 -2.72373,1.20672 -5.61986,1.75836 -7.82643,1.20672 0.069,-0.0345 0.10344,-0.069 0.17239,-0.069 0.24134,-0.10343 0.44821,-0.24134 0.65508,-0.34477 0.17238,-0.069 0.34477,-0.17239 0.48268,-0.24135 5.51643,-3.41329 2.55135,-9.86061 -3.20642,-16.44584 l -0.10343,-0.0345 -13.13599,-11.41211 -0.72403,-0.6206 -0.20687,-0.17238 0.13791,-0.0345 0.41373,-0.13791 0.10344,-0.0345 0.48268,-0.17239 1.96523,1.10329 6.68867,3.75806 0.48269,0.27582 2.96507,1.65493 3.20643,1.82732 c 0,0 0.0345,0 0.0345,0 0.0345,0 0.0345,0 0.069,0 2.99956,-0.68956 6.41285,-1.5515 6.89553,-1.68941 2.24105,-0.58612 3.51672,-1.24119 4.20628,-1.75836 0.10343,0.48269 5.75777,14.61853 2.44791,18.82481 z"
         fill="#0055a5"
         id="path1194"
         style="stroke-width:3.44777" />
      <path
         d="m 475.55041,91.676107 0.65508,0.06896 c -18.41108,1.103286 -36.61528,6.447323 -51.78545,16.066593 12.48091,-24.341232 40.09752,-40.821555 64.5077,-50.475301 0,0 3.03404,-4.688962 -26.47884,-0.275821 -3.82702,0.413732 -7.61956,1.068807 -11.41211,1.896271 -0.0689,0 -0.10343,0 -0.17239,0.03448 h 0.069 c -16.2045,3.585677 -31.61602,10.791509 -44.6141,21.031375 -7.34374,5.792247 -13.92897,12.549869 -19.47988,20.169436 -24.85839,33.06408 -33.27094,61.99084 -33.27094,61.99084 0,0 -3.58568,-42.68335 50.95798,-98.985376 5.99912,-10.033 12.75674,-19.61779 20.20392,-28.340639 0,0 1.24119,-6.378368 -29.61632,17.066443 -22.34152,15.618382 -41.8214,36.098114 -55.88829,58.991282 -5.06822,9.03315 -15.85972,29.34049 -18.99719,42.78678 0.0345,0.37926 0.0689,0.79299 0.0689,1.20672 0,0 0.34478,8.06777 1.82732,18.75585 1.79284,12.92912 7.1024,30.82303 7.1024,30.82303 -3.62016,-7.37822 -10.06748,-23.6172 -12.2051,-31.09885 -1.03432,-3.65463 -1.89627,-7.1024 -2.58582,-10.44673 -0.44821,-2.06866 -0.79299,-4.03389 -1.13776,-5.99912 -0.17239,-1.03433 -0.34478,-2.13761 -0.51717,-3.2409 -0.27582,-1.75836 -0.51716,-3.51672 -0.72403,-5.20612 -0.68955,-6.27494 -0.96537,-12.17062 -1.03433,-18.10078 -0.10343,-7.8609 0.20687,-14.92883 0.58612,-20.066 -14.17032,32.51244 -15.51495,57.54322 -15.54942,67.54175 -0.72404,6.37836 -1.06881,11.17076 -1.34463,15.17017 3.68911,10.44673 10.20539,24.37571 21.89331,42.02827 0,0 -10.51568,-5.8612 -22.89317,-27.4787 -0.48268,4.75792 -1.3791,10.20539 -3.27537,18.65242 14.03241,23.82406 28.09929,42.1317 40.78707,56.12963 V 253.928 c 4.55105,4.55105 7.68852,8.10225 9.86061,10.82599 2.03419,-9.24002 4.86135,-20.30735 8.82629,-32.09871 24.72048,-73.54085 54.02649,-95.95133 54.02649,-95.95133 -26.96153,42.1317 -51.71649,127.32601 -50.68216,167.11323 5.20613,4.44762 9.89509,8.0333 13.75659,10.75703 -2.10314,-3.13747 -3.8615,-6.72314 -4.30971,-9.51583 11.99823,-56.85367 49.44097,-93.91716 49.44097,-93.91716 8.13673,-81.43624 100.29552,-115.948384 100.29552,-115.948384 7.51613,-5.481949 -36.8911,-3.516722 -36.8911,-3.516722 z"
         fill="#0055a5"
         id="path1196"
         style="stroke-width:3.44777" />
    </g>
  </g>
  <path
     d="m 314.40181,162.90696 c -0.82746,-3.99941 -1.72388,-8.92972 -2.37896,-14.48062 0.51717,4.55105 1.27568,9.34345 2.37896,14.48062 z"
     fill="#ffffff"
     id="path1192"
     style="fill:#008000;stroke-width:3.44777" />
  <g
     id="g13128">
    <path
       id="path1148"
       style="fill:#ffffff;stroke-width:3.44777"
       d="m 50.785156,420.35156 c -4.482096,0 -5.068359,3.44727 -5.068359,3.44727 v 3.93164 l -17.513672,16.58398 v 14.37696 l 5.34375,2 v 8.41211 l -5.34375,2.3789 v 12.06641 l 5.34375,2 v 89.19336 l 26.492187,-5.13281 c -0.0019,0.0486 -0.04883,1.51367 -0.04883,1.51367 l 118.328128,23.26953 v 36.54883 h 208.41797 v -36.61524 l 117.98242,-23.20312 c 0,0 -0.063,-1.842 -0.0664,-1.92383 l 28.61328,5.54297 v -89.19336 l 5.34376,-2 v -12.06641 l -5.34376,-2.3789 v -8.41211 l 5.34376,-2 V 444.31445 L 521.0957,427.73047 v -3.93164 c 0,0 -0.58627,-3.44727 -5.06836,-3.44727 h -5.17187 c 0,0 -4.0332,0.58562 -4.0332,3.44727 v 3.65429 l -17.92969,16.92969 0.17383,14.37696 5.34375,1.89648 v 8.37695 l -5.44727,2.34571 v 5.82812 c -39.01132,47.39585 -98.08933,75.7901 -102.22656,77.73828 v -19.1289 h -42.6211 c -3.53444,-30.40484 -29.67503,-54.02539 -61.39843,-54.02539 -31.7234,0 -57.864,23.62055 -61.39844,54.02539 h -43 v 18.20898 C 175.8238,552.76124 117.46528,522.90073 77.849609,475.7793 v -4.40039 l -5.273437,-2.27149 c -0.05707,-0.0736 -0.116862,-0.14503 -0.173828,-0.21875 v -8.23242 l 5.345703,-1.89648 0.171875,-14.37696 -17.929688,-16.92969 v -3.65429 c 0,-2.86165 -4.033203,-3.44727 -4.033203,-3.44727 z" />
    <g
       id="g12296">
      <path
         d="m 77.298921,544.47126 v -29.7887 c 4.826873,3.72359 9.343447,7.03344 13.653155,10.033 v 13.5842 h 6.964488 v -8.82628 c 29.926616,19.79018 44.752006,21.85884 44.752006,21.85884 -20.16943,-10.30883 -34.5811,-20.41078 -44.752006,-29.0302 v -12.41196 -5.17165 c 35.236176,30.27139 67.024576,46.47589 80.401916,52.57844 0,2.34448 0,8.06777 0,8.06777 0,0 -53.64725,0.27583 -54.9574,0 -15.65286,-3.34433 -31.409152,-3.58567 -46.062159,-2.13761"
         fill="#e4e4e4"
         id="path1240"
         style="stroke-width:3.44777" />
      <path
         d="M 90.952076,511.61405 V 498.44358 L 77.298921,484.65251 v 12.17062 3.27538 c 1.861794,2.89612 5.999114,8.55046 13.653155,15.8942 z"
         fill="#e4e4e4"
         id="path1252"
         style="stroke-width:3.44777" />
      <path
         d="m 489.37595,560.74472 v -42.02827 -4.03389 c -4.82687,3.72359 -9.34344,7.03344 -13.65315,10.033 v 4.58553 6.03359 2.96508 h -6.96449 v -8.82628 c -29.92661,19.79018 -44.75201,21.85884 -44.75201,21.85884 20.16944,-10.30883 34.5811,-20.41078 44.75201,-29.0302 v -11.34315 -6.24046 c -36.78767,31.61602 -69.81727,47.88948 -82.05684,53.30247 0,0.86194 0,3.5512 0,7.30927 h 54.23337 c 0,0 7.48165,0 8.82628,0 12.58435,-2.10314 26.06511,-3.10299 39.58036,-2.51687"
         fill="#e4e4e4"
         id="path1198"
         style="stroke-width:3.44777" />
      <path
         d="m 489.37595,500.09851 c -1.86179,2.89612 -5.99911,8.55046 -13.65315,15.8942 v -6.7921 -10.79151 l 13.65315,-13.79106 v 10.58464 z"
         fill="#e4e4e4"
         id="path1254"
         style="stroke-width:3.44777" />
    </g>
    <g
       id="g11899">
      <path
         style="fill:#b7b7b7;fill-opacity:1;stroke-width:3.44777"
         d="m 63.956066,478.23967 c 2.034182,0.37925 3.999409,0.86194 5.861202,1.44806 v 26.30646 c -1.861793,-0.58612 -3.82702,-1.06881 -5.861202,-1.44806 z"
         id="path1260" />
      <path
         style="fill:#b7b7b7;fill-opacity:1;stroke-width:3.44777"
         d="m 60.542777,504.02896 c -1.896272,-0.24134 -3.861498,-0.37925 -5.861203,-0.44821 v -26.30646 c 0.965375,0.0345 1.930749,0.069 2.861646,0.13792 0.999852,0.0689 2.034182,0.17238 2.999557,0.31029 z"
         id="path1262" />
      <path
         style="fill:#b7b7b7;fill-opacity:1;stroke-width:3.44777"
         d="m 45.372605,504.02896 c 1.896272,-0.24134 3.861498,-0.37925 5.89568,-0.44821 v -26.30646 c -1.999704,0.069 -3.964931,0.20687 -5.89568,0.44821 z"
         id="path1264" />
      <path
         style="fill:#b7b7b7;fill-opacity:1;stroke-width:3.44777"
         d="m 36.098114,506.02867 c 1.861793,-0.58612 3.82702,-1.06881 5.861202,-1.44807 v -26.30645 c -2.034182,0.37925 -3.999409,0.86194 -5.861202,1.44806 z"
         id="path1266" />
      <path
         style="fill:#b7b7b7;fill-opacity:1;stroke-width:3.44777"
         d="m 30.788553,456.86352 c 1.275674,-0.58612 2.585825,-1.10329 3.999409,-1.58597 v 3.17194 z"
         id="path1268" />
      <path
         style="fill:#b7b7b7;fill-opacity:1;stroke-width:3.44777"
         d="m 51.268285,466.10353 c -1.999704,0.069 -3.964931,0.20687 -5.89568,0.44821 v -13.68763 c 1.896272,-0.24134 3.861498,-0.37926 5.89568,-0.44821 z"
         id="path1270" />
      <path
         style="fill:#b7b7b7;fill-opacity:1;stroke-width:3.44777"
         d="m 60.542777,452.82963 c -1.896272,-0.24134 -3.861498,-0.37925 -5.861203,-0.44821 v 13.68763 c 1.999705,0.069 3.964931,0.20687 5.861203,0.44821 z"
         id="path1272" />
      <path
         style="fill:#b7b7b7;fill-opacity:1;stroke-width:3.44777"
         d="m 63.956066,453.38127 c 2.034182,0.37926 3.999409,0.86195 5.861202,1.44807 v 13.68763 c -1.861793,-0.58612 -3.82702,-1.06881 -5.861202,-1.44806 z"
         id="path1274" />
      <path
         style="fill:#b7b7b7;fill-opacity:1;stroke-width:3.44777"
         d="m 41.959316,467.06891 c -2.034182,0.37925 -3.999409,0.86194 -5.861202,1.44806 v -13.68763 c 1.861793,-0.58612 3.82702,-1.06881 5.861202,-1.44807 z"
         id="path1276" />
      <path
         style="fill:#b7b7b7;fill-opacity:1;stroke-width:3.44777"
         d="m 71.12742,455.24307 c 1.413584,0.48268 2.758213,1.03433 4.033886,1.62045 l -4.033886,1.55149 z"
         id="path1278" />
      <path
         style="fill:#b7b7b7;fill-opacity:1;stroke-width:3.44777"
         d="m 30.788553,481.72191 c 1.275674,-0.58612 2.585825,-1.10328 3.999409,-1.58597 v 3.17195 z"
         id="path1280" />
      <path
         style="fill:#b7b7b7;fill-opacity:1;stroke-width:3.44777"
         d="m 71.12742,480.13594 c 1.413584,0.48269 2.758213,1.03433 4.033886,1.62045 l -4.033886,1.5515 z"
         id="path1282" />
      <path
         style="fill:#b7b7b7;fill-opacity:1;stroke-width:3.44777"
         d="m 75.195784,447.96828 c -6.102547,-2.82717 -13.825543,-4.51657 -22.203615,-4.51657 -8.378073,0 -16.066591,1.6894 -22.169138,4.48209 v 5.7233 c 6.102547,-2.82717 13.791065,-4.4821 22.169138,-4.4821 8.41255,0 16.135546,1.6894 22.238093,4.51657 z"
         id="path1284" />
      <path
         style="fill:#b7b7b7;fill-opacity:1;stroke-width:3.44777"
         d="m 75.195784,473.06802 c -6.102547,-2.82717 -13.825543,-4.51657 -22.203615,-4.51657 -8.378073,0 -16.066591,1.6894 -22.169138,4.48209 v 5.72329 c 6.102547,-2.82716 13.791065,-4.48209 22.169138,-4.48209 8.41255,0 16.135546,1.6894 22.238093,4.51657 z"
         id="path1286" />
      <path
         style="fill:#b7b7b7;fill-opacity:1;stroke-width:3.44777"
         d="m 75.195784,445.45141 c -6.102547,-2.82717 -13.825543,-4.51657 -22.203615,-4.51657 -8.378073,0 -16.066591,1.6894 -22.169138,4.48209 l 17.583608,-16.79062 c 1.48254,-0.10343 3.034035,-0.17239 4.58553,-0.17239 1.551494,0 3.068512,0.069 4.551051,0.17239 z"
         id="path1288" />
      <path
         style="fill:#b7b7b7;fill-opacity:1;stroke-width:3.44777"
         d="m 48.406639,423.97183 c 0,1.10328 0,2.75821 0,2.75821 1.48254,-0.10343 3.034035,-0.17239 4.58553,-0.17239 1.551494,0 3.068512,0.069 4.551051,0.17239 0,0 0,-1.62045 0,-2.75821 0,-1.03433 -2.275526,-1.06881 -2.861646,-1.10329 -0.551642,0 -1.137763,-0.0345 -1.689405,-0.0345 -0.586121,0 -1.137763,0 -1.723884,0.0345 -0.620597,0.0345 -2.861646,0 -2.861646,1.10329 z"
         id="path1290" />
      <path
         style="fill:#b7b7b7;fill-opacity:1;stroke-width:3.44777"
         d="m 69.817268,534.54169 c -1.861793,-0.58612 -3.82702,-1.0688 -5.861202,-1.44806 v -25.6169 c 2.034182,0.37925 3.999409,0.86194 5.861202,1.44806 z"
         id="path1292" />
      <path
         style="fill:#b7b7b7;fill-opacity:1;stroke-width:3.44777"
         d="m 60.542777,532.57647 c -1.896272,-0.24135 -3.861498,-0.37926 -5.861203,-0.44821 v -25.61691 c 1.999705,0.069 3.964931,0.20687 5.861203,0.44821 z"
         id="path1294" />
      <path
         style="fill:#b7b7b7;fill-opacity:1;stroke-width:3.44777"
         d="m 51.268285,532.12826 c -1.999704,0.069 -3.964931,0.20686 -5.89568,0.44821 v -25.61691 c 1.896272,-0.24134 3.861498,-0.37925 5.89568,-0.44821 z"
         id="path1296" />
      <path
         style="fill:#b7b7b7;fill-opacity:1;stroke-width:3.44777"
         d="m 41.959316,533.09363 c -2.034182,0.37926 -3.999409,0.86194 -5.861202,1.44806 v -25.6169 c 1.861793,-0.58612 3.82702,-1.06881 5.861202,-1.44806 z"
         id="path1298" />
      <path
         style="fill:#b7b7b7;fill-opacity:1;stroke-width:3.44777"
         d="m 41.924839,569.70891 c -1.999705,0.55164 -3.964932,1.13776 -5.826725,1.72388 0,-3.41329 0,-12.89464 0,-12.89464 v -20.85899 c 0,0 3.82702,-1.06881 5.861202,-1.44806 v 19.99704 z"
         id="path2780" />
      <path
         style="fill:#b7b7b7;fill-opacity:1;stroke-width:3.44777"
         d="m 51.302763,567.29547 c -2.034182,0.48269 -4.033886,0.96538 -5.999113,1.48254 0,-1.41358 0.03448,-13.30837 0.03448,-13.30837 v -19.75571 c 0,0 3.861499,-0.37925 5.895681,-0.44821 l 0.06895,20.20392 z"
         id="path2778" />
      <path
         style="fill:#b7b7b7;fill-opacity:1;stroke-width:3.44777"
         d="m 60.542777,535.67946 c -1.896272,-0.24135 -5.861203,-0.44821 -5.861203,-0.44821 v 20.20391 c 0,0 -0.03448,9.4124 -0.03448,11.06733 1.93075,-0.41373 3.861499,-0.82747 5.861203,-1.20672 z"
         id="path2776" />
      <path
         style="fill:#b7b7b7;fill-opacity:1;stroke-width:3.44777"
         d="m 69.817268,554.57322 v -16.89406 c -1.861793,-0.58612 -5.861202,-1.44806 -5.861202,-1.44806 v 18.37659 l -0.03448,10.13644 c 0,0 3.895976,-0.6206 5.861203,-0.9309 z"
         id="path2774" />
    </g>
    <g
       id="g12324">
      <path
         d="m 432.41885,569.01936 c -9.86061,2.55134 -18.8248,5.72329 -26.37541,9.17106 v -9.17106 z"
         fill="#b7b7b7"
         id="path1200"
         style="stroke-width:3.44777" />
      <path
         d="m 353.18918,607.63434 c -2.44791,1.10328 -6.86105,3.03403 -8.68837,3.79254 l 0.0345,-9.34344 v -19.20406 h 8.65389 v 19.20406 z"
         fill="#b7b7b7"
         id="path1202"
         style="stroke-width:3.44777" />
      <rect
         x="344.53528"
         y="557.74518"
         width="8.6538935"
         height="21.720928"
         fill="#b7b7b7"
         id="rect1204"
         style="stroke-width:3.44777" />
      <path
         d="m 383.21923,589.70595 v -6.79209 h -7.723 v 6.79209 6.27494 c 2.55135,-1.48254 5.13717,-3.03403 7.75748,-4.58553 z"
         fill="#b7b7b7"
         id="path1206"
         style="stroke-width:3.44777" />
      <rect
         x="375.49625"
         y="557.74518"
         width="7.7229967"
         height="21.720928"
         fill="#b7b7b7"
         id="rect1208"
         style="stroke-width:3.44777" />
      <path
         d="m 362.60159,597.39447 v -14.48061 h -5.96464 v 14.48061 8.68837 c 1.9997,-0.96537 3.96493,-1.96522 5.96464,-2.99955 z"
         fill="#b7b7b7"
         id="path1210"
         style="stroke-width:3.44777" />
      <rect
         x="356.63696"
         y="557.74518"
         width="5.9646358"
         height="21.720928"
         fill="#b7b7b7"
         id="rect1212"
         style="stroke-width:3.44777" />
      <rect
         x="366.01489"
         y="557.74518"
         width="5.9646358"
         height="21.720928"
         fill="#b7b7b7"
         id="rect1214"
         style="stroke-width:3.44777" />
      <path
         d="m 371.94503,595.84298 v -12.92912 h -5.96463 v 12.92912 5.44747 c 1.96522,-1.06881 3.96493,-2.13762 5.96463,-3.27538 z"
         fill="#b7b7b7"
         id="path1216"
         style="stroke-width:3.44777" />
      <rect
         x="344.53528"
         y="539.26514"
         width="38.752892"
         height="14.997784"
         fill="#b7b7b7"
         id="rect1218"
         style="stroke-width:3.44777" />
      <path
         d="m 190.28222,592.08491 c -2.82716,-1.3791 -5.65433,-2.75821 -8.51598,-4.13732 v -1.6894 -3.34433 h 8.51598 v 3.34433 z"
         fill="#b7b7b7"
         id="path1220"
         style="stroke-width:3.44777" />
      <rect
         x="181.76625"
         y="557.74518"
         width="8.6538935"
         height="21.720928"
         fill="#b7b7b7"
         id="rect1222"
         style="stroke-width:3.44777" />
      <path
         d="m 212.52032,602.84194 c 2.6203,1.2412 5.2406,2.44792 7.8609,3.62016 l 0.069,-16.85958 v -6.68866 h -7.92986 v 6.68866 z"
         fill="#b7b7b7"
         id="path1224"
         style="stroke-width:3.44777" />
      <rect
         x="212.6927"
         y="557.74518"
         width="7.7574744"
         height="21.720928"
         fill="#b7b7b7"
         id="rect1226"
         style="stroke-width:3.44777" />
      <rect
         x="193.72998"
         y="557.74518"
         width="5.9301581"
         height="21.720928"
         fill="#b7b7b7"
         id="rect1228"
         style="stroke-width:3.44777" />
      <rect
         x="203.24583"
         y="557.74518"
         width="5.8612027"
         height="21.720928"
         fill="#b7b7b7"
         id="rect1230"
         style="stroke-width:3.44777" />
      <rect
         x="181.76625"
         y="539.26514"
         width="38.752892"
         height="14.997784"
         fill="#b7b7b7"
         id="rect1232"
         style="stroke-width:3.44777" />
      <path
         d="m 203.14239,598.35985 c 1.79284,0.86194 4.06837,2.06866 5.96464,2.99956 v -4.37867 -14.06688 h -5.96464 v 14.06688 z"
         fill="#b7b7b7"
         id="path1234"
         style="stroke-width:3.44777" />
      <path
         d="m 172.35384,583.49998 c 1.9997,0.93089 3.96493,1.86179 5.96464,2.79269 v -5.7233 -11.51554 h -5.96464 v 11.51554 z"
         fill="#b7b7b7"
         id="path1236"
         style="stroke-width:3.44777" />
      <path
         d="m 193.72999,593.73984 c 0.34478,0.17239 0.65508,0.3103 0.99985,0.48269 1.65493,0.82746 3.30986,1.62045 4.96479,2.41344 v -4.51658 -9.20553 h -5.93016 v 9.20553 z"
         fill="#b7b7b7"
         id="path1238"
         style="stroke-width:3.44777" />
      <path
         d="m 159.49367,577.94907 c -7.51613,-3.10299 -17.61809,-7.17135 -23.20347,-9.06762 h 23.20347 z"
         fill="#b7b7b7"
         id="path1242"
         style="stroke-width:3.44777" />
      <path
         d="m 162.94144,577.43191 v -8.37808 h 5.96463 v 8.37808 4.48209 c -0.58612,-0.27582 -2.82717,-1.24119 -5.96463,-2.55134 z"
         fill="#b7b7b7"
         id="path1244"
         style="stroke-width:3.44777" />
      <path
         d="m 393.25223,582.91386 v -13.86003 h -6.51628 v 13.86003 6.37836 c 2.17209,-1.34463 4.34419,-2.68925 6.51628,-4.10284 z"
         fill="#b7b7b7"
         id="path1246"
         style="stroke-width:3.44777" />
      <path
         d="m 402.66463,578.19042 v -9.13659 H 396.7 v 9.13659 l 0.069,4.82687 c 1.82732,-1.06881 3.79254,-2.13762 5.89568,-3.17195 v -1.65492 z"
         fill="#b7b7b7"
         id="path1248"
         style="stroke-width:3.44777" />
      <path
         d="m 341.122,554.29739 v -10.61912 c 0,-32.37452 -26.2375,-58.61202 -58.61203,-58.61202 -32.37452,0 -58.61202,26.2375 -58.61202,58.61202 v 10.61912 h 9.99852 c -0.6206,-3.17194 -0.96538,-6.41284 -0.96538,-9.75717 0,-27.20288 22.06571,-49.26859 49.26858,-49.26859 27.20288,0 49.26859,22.06571 49.26859,49.26859 0,3.34433 -0.34478,6.61971 -0.96538,9.79165 z"
         fill="#b7b7b7"
         id="path1250"
         style="stroke-width:3.44777" />
      <path
         d="m 329.60646,557.81412 c -5.79225,20.75555 -24.85839,35.9602 -47.44126,35.9602 -22.61735,0 -41.64902,-15.23913 -47.44127,-35.99468 l -10.82598,-0.0345 v 40.47678 l -0.0345,9.75718 c 20.34182,8.82628 40.71812,15.30808 62.85278,15.30808 0.13791,0 0.3103,0 0.44821,0 19.30749,-0.069 36.68423,-3.79254 53.88859,-10.44673 l 0.10343,-55.16426 z"
         fill="#b7b7b7"
         id="path1342"
         style="stroke-width:3.44777" />
    </g>
    <g
       id="g1477">
      <path
         d="m 263.23696,561.33084 c 7.92986,4.34418 15.51495,6.34389 20.51421,7.27478 0.10343,0 0.20687,0.0345 0.27582,0.0345 0.34478,0 0.68955,-0.13791 0.96538,-0.34477 0.34477,-0.27583 0.58612,-0.68956 0.58612,-1.17224 0.34477,-8.44703 -1.5515,-15.92869 -2.34449,-18.75585 -0.13791,-0.41374 -0.41373,-0.79299 -0.82746,-0.96538 -10.10195,-4.89583 -18.27316,-10.23986 -24.27227,-15.96316 -4.41315,-4.17179 -7.58509,-8.41255 -9.48136,-12.6533 -0.24135,-0.51716 -0.72403,-0.86194 -1.27568,-0.9309 -0.55164,-0.069 -1.10328,0.20687 -1.41358,0.65508 -3.34433,4.7924 -5.79225,10.3433 -7.06792,16.06659 -0.069,0.34478 -0.0345,0.68955 0.10343,0.99985 4.99926,11.03286 13.17047,19.68675 24.2378,25.75482 z"
         fill="#ee2e24"
         id="path1344"
         style="stroke-width:3.44777" />
      <path
         d="m 260.20293,528.99079 c 0.31029,0.27582 0.68955,0.41373 1.0688,0.41373 h 0.13791 c 0.44821,-0.0345 0.86195,-0.27582 1.13777,-0.6206 11.79136,-15.8942 24.686,-21.82436 33.44333,-23.96197 0.68955,-0.17239 1.17224,-0.75851 1.20672,-1.44806 0.0345,-0.68956 -0.41373,-1.34463 -1.06881,-1.5515 -4.44762,-1.44806 -9.06762,-2.17209 -13.79106,-2.17209 -5.99912,0 -11.82584,1.20672 -17.41122,3.5512 -5.30956,2.24105 -10.033,5.44747 -14.06689,9.51583 -0.37926,0.37926 -0.55164,0.9309 -0.41373,1.48254 0.62059,2.6203 2.72373,8.06778 9.75718,14.79092 z"
         fill="#ee2e24"
         id="path1346"
         style="stroke-width:3.44777" />
      <path
         d="m 264.82293,531.05945 c -0.48268,0.68955 -0.37925,1.65493 0.3103,2.17209 4.86135,3.79255 10.79151,7.4127 17.65257,10.82599 0.20686,0.10343 0.4482,0.17239 0.68955,0.17239 0.44821,0 0.89642,-0.20687 1.17224,-0.55165 4.10284,-4.75791 15.75629,-16.13554 35.27065,-19.1351 0.51716,-0.069 0.96537,-0.41373 1.17224,-0.86194 0.20687,-0.44821 0.20687,-0.99985 -0.0345,-1.44806 -3.44776,-6.06807 -8.30912,-11.30868 -14.10136,-15.1357 -0.24135,-0.17239 -0.51717,-0.24134 -0.82747,-0.27582 -1.75836,-0.0345 -8.37807,0.069 -16.79062,3.75807 -9.27449,4.03388 -17.51465,10.92942 -24.51362,20.47973 z"
         fill="#ee2e24"
         id="path1348"
         style="stroke-width:3.44777" />
      <path
         d="m 323.91765,528.37019 c -0.27582,-0.68955 -0.9309,-1.10328 -1.65493,-0.99985 -3.44777,0.41373 -6.86106,1.13776 -10.10196,2.17209 -0.41373,0.13791 -0.72403,0.41373 -0.93089,0.75851 -0.17239,0.37926 -0.24135,0.79299 -0.10344,1.20672 1.13777,3.5512 3.13747,10.75703 3.48225,19.23854 0.20686,5.37851 -0.24135,10.51568 -1.37911,15.23912 -0.75851,3.13747 -1.82731,6.1715 -3.17194,8.99867 -0.3103,0.68956 -0.13791,1.48254 0.48268,1.93075 0.27583,0.20687 0.6206,0.3103 0.9309,0.3103 0.37926,0 0.75851,-0.13791 1.06881,-0.41373 4.82687,-4.44762 8.55046,-9.82614 11.03285,-15.99764 4.24075,-10.37777 4.34419,-21.92779 0.34478,-32.44348 z"
         fill="#ee2e24"
         id="path1350"
         style="stroke-width:3.44777" />
      <path
         d="m 284.61311,572.46712 c -0.24134,-0.34477 -0.58612,-0.58612 -0.99985,-0.65507 -4.86135,-0.89642 -12.343,-2.79269 -20.30734,-6.89554 -9.44688,-4.86135 -17.03197,-11.51553 -22.5484,-19.72122 -0.37925,-0.58612 -1.13776,-0.82746 -1.79283,-0.6206 -0.65508,0.24135 -1.10329,0.86194 -1.06881,1.5515 0.20686,5.30956 1.3791,10.51569 3.48224,15.48047 3.10299,7.34374 8.13673,13.68763 14.54958,18.41107 6.13702,4.51658 13.37733,7.37822 20.96241,8.3436 0.069,0 0.13792,0 0.20687,0 0.44821,0 0.86194,-0.20687 1.17224,-0.55165 3.30986,-3.82702 5.55091,-8.58493 6.61971,-14.17032 0.0345,-0.41373 -0.0345,-0.82746 -0.27582,-1.17224 z"
         fill="#ee2e24"
         id="path1352"
         style="stroke-width:3.44777" />
      <path
         d="m 308.23031,532.78333 c -0.13791,-0.41373 -0.44821,-0.75851 -0.86194,-0.96537 -0.41373,-0.17239 -0.86194,-0.17239 -1.27567,0 -10.61912,4.75792 -17.1354,11.61897 -19.44541,14.37718 -0.34477,0.41374 -0.44821,0.96538 -0.3103,1.44807 0.86195,2.9306 2.34449,8.96419 2.51687,16.10106 0.10344,4.4821 -0.34477,8.68838 -1.31015,12.5154 -0.93089,3.65463 -2.34448,6.99896 -4.24075,9.96404 -0.3103,0.48269 -0.3103,1.13776 -0.0345,1.65493 0.27582,0.48269 0.79299,0.75851 1.34463,0.75851 h 0.10343 c 4.4821,-0.24135 8.92972,-1.20672 13.2739,-2.86165 0.20687,-0.0689 0.37926,-0.17239 0.51717,-0.3103 4.62001,-4.30971 8.0333,-9.48136 10.20539,-15.37704 1.82731,-4.9303 2.75821,-10.41225 2.82717,-16.30793 0.069,-9.13658 -2.03419,-17.06644 -3.30986,-20.9969 z"
         fill="#ee2e24"
         id="path1354"
         style="stroke-width:3.44777" />
    </g>
    <g
       id="g1485">
      <path
         d="m 272.68384,600.84224 c -1.58597,0 -2.65478,1.03433 -2.65478,2.82717 0,1.72388 0.86194,2.65478 2.65478,2.65478 1.10329,0 2.06866,-0.34478 3.03403,-1.06881 v -0.10343 c -0.0345,-2.75822 -1.24119,-4.30971 -3.03403,-4.30971 z"
         fill="#b7b7b7"
         id="path1256"
         style="stroke-width:3.44777" />
      <path
         d="m 287.47476,600.9112 c -2.03418,0 -3.17195,1.96522 -3.17195,5.5509 0,3.58568 1.13777,5.5509 3.17195,5.5509 2.03418,0 3.13746,-1.96522 3.13746,-5.5509 0,-3.58568 -1.0688,-5.5509 -3.13746,-5.5509 z"
         fill="#b7b7b7"
         id="path1258"
         style="stroke-width:3.44777" />
      <path
         d="m 264.61607,614.77122 v -13.23943 l -3.30986,1.27568 -0.34478,-2.41344 3.99941,-1.86179 h 2.72374 v 16.23898 z"
         fill="#ffffff"
         id="path1356"
         style="stroke-width:3.44777" />
      <path
         d="m 271.2013,602.53165 c 0,-2.58583 2.24105,-4.30971 5.48195,-4.30971 3.30985,0 5.34404,1.75836 5.34404,4.10284 0,1.68941 -1.06881,2.96508 -2.65478,3.89598 2.03418,0.99985 3.17194,2.10313 3.17194,4.27523 0,2.6203 -2.27552,4.58553 -5.96463,4.58553 -3.89598,0 -5.96464,-2.06866 -5.96464,-4.51658 0,-1.82732 1.2412,-3.27538 3.13747,-4.30971 -1.51702,-0.79298 -2.55135,-1.89627 -2.55135,-3.72358 z m 2.37896,7.82643 c 0,1.55149 1.31015,2.44791 3.10299,2.44791 1.72388,0 2.96508,-0.89642 2.96508,-2.31 0,-1.48254 -0.9309,-2.10314 -3.72359,-3.2409 -1.41358,0.7585 -2.34448,1.82731 -2.34448,3.10299 z m 5.61986,-7.86091 c 0,-1.2412 -0.96538,-2.03418 -2.58583,-2.03418 -1.65492,0 -2.55134,0.89642 -2.55134,2.03418 0,1.20672 0.86194,1.86179 3.17194,2.79269 1.2412,-0.75851 1.96523,-1.65493 1.96523,-2.79269 z"
         fill="#ffffff"
         id="path1358"
         style="stroke-width:3.44777" />
      <path
         d="m 291.61208,604.66926 c 2.79269,0 4.79239,1.79284 4.79239,4.93031 0,3.27537 -2.48239,5.48195 -5.79225,5.48195 -3.51672,0 -6.03359,-2.37896 -6.03359,-6.86106 0,-5.72329 3.82702,-8.82628 9.06763,-9.99852 l 0.37925,2.55134 c -3.17194,0.75851 -5.72329,2.20658 -6.44732,5.1027 1.17224,-0.72403 2.44791,-1.20672 4.03389,-1.20672 z m -0.96538,8.0333 c 1.68941,0 2.82717,-1.10329 2.82717,-2.93061 0,-1.75836 -0.89642,-2.72373 -2.82717,-2.72373 -1.17224,0 -2.24105,0.41373 -3.2409,1.17224 0.0345,2.86165 1.34463,4.4821 3.2409,4.4821 z"
         fill="#ffffff"
         id="path1360"
         style="stroke-width:3.44777" />
      <path
         d="m 300.92105,614.77122 v -13.23943 l -3.30986,1.27568 -0.34478,-2.41344 3.99941,-1.86179 h 2.72374 v 16.23898 z"
         fill="#ffffff"
         id="path1362"
         style="stroke-width:3.44777" />
    </g>
    <g
       id="g12011"
       transform="matrix(-1,0,0,1,566.76107,0)">
      <path
         style="fill:#b7b7b7;fill-opacity:1;stroke-width:3.44777"
         d="m 63.956066,478.23967 c 2.034182,0.37925 3.999409,0.86194 5.861202,1.44806 v 26.30646 c -1.861793,-0.58612 -3.82702,-1.06881 -5.861202,-1.44806 z"
         id="path11963" />
      <path
         style="fill:#b7b7b7;fill-opacity:1;stroke-width:3.44777"
         d="m 60.542777,504.02896 c -1.896272,-0.24134 -3.861498,-0.37925 -5.861203,-0.44821 v -26.30646 c 0.965375,0.0345 1.930749,0.069 2.861646,0.13792 0.999852,0.0689 2.034182,0.17238 2.999557,0.31029 z"
         id="path11965" />
      <path
         style="fill:#b7b7b7;fill-opacity:1;stroke-width:3.44777"
         d="m 45.372605,504.02896 c 1.896272,-0.24134 3.861498,-0.37925 5.89568,-0.44821 v -26.30646 c -1.999704,0.069 -3.964931,0.20687 -5.89568,0.44821 z"
         id="path11967" />
      <path
         style="fill:#b7b7b7;fill-opacity:1;stroke-width:3.44777"
         d="m 36.098114,506.02867 c 1.861793,-0.58612 3.82702,-1.06881 5.861202,-1.44807 v -26.30645 c -2.034182,0.37925 -3.999409,0.86194 -5.861202,1.44806 z"
         id="path11969" />
      <path
         style="fill:#b7b7b7;fill-opacity:1;stroke-width:3.44777"
         d="m 30.788553,456.86352 c 1.275674,-0.58612 2.585825,-1.10329 3.999409,-1.58597 v 3.17194 z"
         id="path11971" />
      <path
         style="fill:#b7b7b7;fill-opacity:1;stroke-width:3.44777"
         d="m 51.268285,466.10353 c -1.999704,0.069 -3.964931,0.20687 -5.89568,0.44821 v -13.68763 c 1.896272,-0.24134 3.861498,-0.37926 5.89568,-0.44821 z"
         id="path11973" />
      <path
         style="fill:#b7b7b7;fill-opacity:1;stroke-width:3.44777"
         d="m 60.542777,452.82963 c -1.896272,-0.24134 -3.861498,-0.37925 -5.861203,-0.44821 v 13.68763 c 1.999705,0.069 3.964931,0.20687 5.861203,0.44821 z"
         id="path11975" />
      <path
         style="fill:#b7b7b7;fill-opacity:1;stroke-width:3.44777"
         d="m 63.956066,453.38127 c 2.034182,0.37926 3.999409,0.86195 5.861202,1.44807 v 13.68763 c -1.861793,-0.58612 -3.82702,-1.06881 -5.861202,-1.44806 z"
         id="path11977" />
      <path
         style="fill:#b7b7b7;fill-opacity:1;stroke-width:3.44777"
         d="m 41.959316,467.06891 c -2.034182,0.37925 -3.999409,0.86194 -5.861202,1.44806 v -13.68763 c 1.861793,-0.58612 3.82702,-1.06881 5.861202,-1.44807 z"
         id="path11979" />
      <path
         style="fill:#b7b7b7;fill-opacity:1;stroke-width:3.44777"
         d="m 71.12742,455.24307 c 1.413584,0.48268 2.758213,1.03433 4.033886,1.62045 l -4.033886,1.55149 z"
         id="path11981" />
      <path
         style="fill:#b7b7b7;fill-opacity:1;stroke-width:3.44777"
         d="m 30.788553,481.72191 c 1.275674,-0.58612 2.585825,-1.10328 3.999409,-1.58597 v 3.17195 z"
         id="path11983" />
      <path
         style="fill:#b7b7b7;fill-opacity:1;stroke-width:3.44777"
         d="m 71.12742,480.13594 c 1.413584,0.48269 2.758213,1.03433 4.033886,1.62045 l -4.033886,1.5515 z"
         id="path11985" />
      <path
         style="fill:#b7b7b7;fill-opacity:1;stroke-width:3.44777"
         d="m 75.195784,447.96828 c -6.102547,-2.82717 -13.825543,-4.51657 -22.203615,-4.51657 -8.378073,0 -16.066591,1.6894 -22.169138,4.48209 v 5.7233 c 6.102547,-2.82717 13.791065,-4.4821 22.169138,-4.4821 8.41255,0 16.135546,1.6894 22.238093,4.51657 z"
         id="path11987" />
      <path
         style="fill:#b7b7b7;fill-opacity:1;stroke-width:3.44777"
         d="m 75.195784,473.06802 c -6.102547,-2.82717 -13.825543,-4.51657 -22.203615,-4.51657 -8.378073,0 -16.066591,1.6894 -22.169138,4.48209 v 5.72329 c 6.102547,-2.82716 13.791065,-4.48209 22.169138,-4.48209 8.41255,0 16.135546,1.6894 22.238093,4.51657 z"
         id="path11989" />
      <path
         style="fill:#b7b7b7;fill-opacity:1;stroke-width:3.44777"
         d="m 75.195784,445.45141 c -6.102547,-2.82717 -13.825543,-4.51657 -22.203615,-4.51657 -8.378073,0 -16.066591,1.6894 -22.169138,4.48209 l 17.583608,-16.79062 c 1.48254,-0.10343 3.034035,-0.17239 4.58553,-0.17239 1.551494,0 3.068512,0.069 4.551051,0.17239 z"
         id="path11991" />
      <path
         style="fill:#b7b7b7;fill-opacity:1;stroke-width:3.44777"
         d="m 48.406639,423.97183 c 0,1.10328 0,2.75821 0,2.75821 1.48254,-0.10343 3.034035,-0.17239 4.58553,-0.17239 1.551494,0 3.068512,0.069 4.551051,0.17239 0,0 0,-1.62045 0,-2.75821 0,-1.03433 -2.275526,-1.06881 -2.861646,-1.10329 -0.551642,0 -1.137763,-0.0345 -1.689405,-0.0345 -0.586121,0 -1.137763,0 -1.723884,0.0345 -0.620597,0.0345 -2.861646,0 -2.861646,1.10329 z"
         id="path11993" />
      <path
         style="fill:#b7b7b7;fill-opacity:1;stroke-width:3.44777"
         d="m 69.817268,534.54169 c -1.861793,-0.58612 -3.82702,-1.0688 -5.861202,-1.44806 v -25.6169 c 2.034182,0.37925 3.999409,0.86194 5.861202,1.44806 z"
         id="path11995" />
      <path
         style="fill:#b7b7b7;fill-opacity:1;stroke-width:3.44777"
         d="m 60.542777,532.57647 c -1.896272,-0.24135 -3.861498,-0.37926 -5.861203,-0.44821 v -25.61691 c 1.999705,0.069 3.964931,0.20687 5.861203,0.44821 z"
         id="path11997" />
      <path
         style="fill:#b7b7b7;fill-opacity:1;stroke-width:3.44777"
         d="m 51.268285,532.12826 c -1.999704,0.069 -3.964931,0.20686 -5.89568,0.44821 v -25.61691 c 1.896272,-0.24134 3.861498,-0.37925 5.89568,-0.44821 z"
         id="path11999" />
      <path
         style="fill:#b7b7b7;fill-opacity:1;stroke-width:3.44777"
         d="m 41.959316,533.09363 c -2.034182,0.37926 -3.999409,0.86194 -5.861202,1.44806 v -25.6169 c 1.861793,-0.58612 3.82702,-1.06881 5.861202,-1.44806 z"
         id="path12001" />
      <path
         style="fill:#b7b7b7;fill-opacity:1;stroke-width:3.44777"
         d="m 41.924839,569.70891 c -1.999705,0.55164 -3.964932,1.13776 -5.826725,1.72388 0,-3.41329 0,-12.89464 0,-12.89464 v -20.85899 c 0,0 3.82702,-1.06881 5.861202,-1.44806 v 19.99704 z"
         id="path12003" />
      <path
         style="fill:#b7b7b7;fill-opacity:1;stroke-width:3.44777"
         d="m 51.302763,567.29547 c -2.034182,0.48269 -4.033886,0.96538 -5.999113,1.48254 0,-1.41358 0.03448,-13.30837 0.03448,-13.30837 v -19.75571 c 0,0 3.861499,-0.37925 5.895681,-0.44821 l 0.06895,20.20392 z"
         id="path12005" />
      <path
         style="fill:#b7b7b7;fill-opacity:1;stroke-width:3.44777"
         d="m 60.542777,535.67946 c -1.896272,-0.24135 -5.861203,-0.44821 -5.861203,-0.44821 v 20.20391 c 0,0 -0.03448,9.4124 -0.03448,11.06733 1.93075,-0.41373 3.861499,-0.82747 5.861203,-1.20672 z"
         id="path12007" />
      <path
         style="fill:#b7b7b7;fill-opacity:1;stroke-width:3.44777"
         d="m 69.817268,554.57322 v -16.89406 c -1.861793,-0.58612 -5.861202,-1.44806 -5.861202,-1.44806 v 18.37659 l -0.03448,10.13644 c 0,0 3.895976,-0.6206 5.861203,-0.9309 z"
         id="path12009" />
    </g>
  </g>
  <g
     id="g15166">
    <path
       id="path13484"
       style="fill:#ffffff;stroke-width:3.44777"
       d="M 91.498047,562.39648 C 47.960838,562.99284 10.34405,581.00911 8.2753906,582.01758 L 0,586.05078 l 6.5859375,6.44727 c 0.206866,0.17238 19.1691265,19.06693 20.6171875,53.13086 0.172389,4.13732 1.964094,7.5846 5.101563,9.99804 6.550755,4.96478 17.135787,3.517 20.859374,2.79297 l 0.378907,15.06641 9.447265,-5.48242 c 2.137615,-1.2412 7.62089,-1.79206 13.06836,-0.6543 0.965375,0.20687 1.96499,0.48199 2.964844,0.75781 4.585528,1.2412 10.274524,2.79287 14.894531,-0.58594 1.896272,-1.41358 4.204648,-4.13762 4.480469,-9.34375 0.206866,-3.96493 -1.344195,-7.54893 -4.34375,-10.13476 -0.687291,-0.58807 -1.465546,-1.09997 -2.292969,-1.56836 -1.562767,-1.66378 -4.009527,-4.37978 -5.945313,-7.06836 11.939698,-0.0106 25.698674,1.76606 41.027344,6.91211 18.75585,6.30941 34.75323,14.89333 50.19922,23.16797 C 206.24555,685.13919 233.93111,700 277.26953,700 c 3.89598,0 7.89596,-0.13824 12.13672,-0.41406 46.37245,-2.75822 79.09074,-18.92742 107.91406,-33.20117 12.10166,-5.96464 23.54849,-11.61879 35.33985,-16.06641 0.86194,-0.3103 1.86096,-0.72562 3.0332,-1.17383 8.38205,-3.29631 24.37848,-9.55451 42.86719,-10.23633 -0.19695,0.20772 -0.44915,0.36968 -0.59766,0.61719 -2.79269,4.68896 -9.41211,11.0332 -9.41211,11.0332 l 0.043,0.002 c -2.13434,2.30792 -3.35156,5.22416 -3.35156,8.48047 0,5.20612 2.20588,8.06824 4.0332,9.55078 4.44762,3.58568 10.20616,2.30844 14.82617,1.30859 1.03433,-0.24134 2.06783,-0.48123 3.03321,-0.61914 5.51642,-0.89642 10.92938,-0.0348 12.99804,1.27539 l 9.20508,5.92969 1.07031,-15.03321 c 3.89597,0.93093 14.27227,2.82705 20.96094,-1.79296 3.2409,-2.27552 5.17153,-5.61855 5.55078,-9.75586 3.10299,-34.20185 21.47997,-55.9572 21.65235,-56.16407 l 4.65429,-5.3789 -5.79101,-4.13672 c -51.19933,-36.61528 -132.22333,-19.61898 -163.21875,0.13672 -37.47722,23.9275 -68.54016,38.78855 -107.39649,38.96094 h -0.44922 c -32.68482,0 -61.5068,-14.13564 -92.01953,-29.06446 -18.30764,-8.9642 -37.23764,-18.24008 -58.4414,-25.37695 -14.73059,-4.94755 -29.89971,-6.68316 -44.412113,-6.48438 z" />
    <path
       style="fill:#0055a5;fill-opacity:1;stroke-width:3.44777"
       d="m 397.73432,589.80939 c -39.06319,24.92735 -70.85159,39.78722 -110.84568,39.95961 -54.06098,0.20687 -95.95134,-35.61543 -152.9774,-54.78501 -57.060528,-19.16958 -122.740477,12.82569 -122.740477,12.82569 0,0 20.962419,20.47974 22.548392,57.47427 0,0 38.097818,-24.82392 95.158355,-5.68882 57.06053,19.16958 86.60789,57.37084 160.04531,52.95769 63.92159,-3.82702 100.29552,-33.44333 141.35842,-48.88932 12.75673,-4.7924 59.71531,-26.61676 100.36448,4.20627 3.72359,-36.06363 23.06555,-58.47411 23.06555,-58.47411 -48.6135,-34.68453 -127.25705,-17.89391 -155.97695,0.41373 z"
       id="path1182" />
    <g
       id="g2620"
       style="fill:#ffffff">
      <path
         style="fill:#ffffff;stroke-width:3.44777"
         d="m 512.95868,623.01138 c -2.68926,0.20686 -5.03374,-1.75836 -5.24061,-4.44762 -0.20686,-2.68926 1.75836,-5.03374 4.44762,-5.24061 2.68926,-0.20686 5.03374,1.75837 5.2406,4.44762 0.24135,2.68926 -1.75836,5.03374 -4.44761,5.24061 z"
         id="path1521" />
      <path
         style="fill:#ffffff;stroke-width:3.44777"
         d="m 505.37359,595.56716 c -1.68941,-1.65493 -3.68911,-2.96508 -6.37837,-3.2409 -4.72344,-0.51717 -8.1712,2.68925 -8.82628,8.55046 -0.65508,5.96463 2.31,9.75718 7.1024,10.27434 2.37896,0.27582 4.62001,-0.34478 7.20583,-1.48254 l 0.41373,8.37807 c -2.9306,1.10329 -5.96463,1.65493 -9.99852,1.2412 -10.48121,-1.13776 -16.03211,-8.51598 -14.85987,-19.4454 1.13776,-10.61912 8.51598,-17.03197 19.16958,-15.89421 3.48224,0.37926 6.24046,1.37911 8.55046,2.89613 z"
         id="path1519" />
      <path
         style="fill:#ffffff;stroke-width:3.44777"
         d="m 473.20593,618.15003 c -2.68926,0.20686 -5.03374,-1.75836 -5.2406,-4.44762 -0.20687,-2.68926 1.75836,-5.03374 4.44761,-5.24061 2.68926,-0.20686 5.03374,1.75836 5.24061,4.44762 0.20686,2.68926 -1.79284,5.03374 -4.44762,5.24061 z"
         id="path1517" />
      <path
         style="fill:#ffffff;stroke-width:3.44777"
         d="m 458.86322,620.3566 -9.92956,2.06866 -7.06793,-33.75364 21.34168,-4.48209 1.72388,8.20568 -11.41211,2.37896 1.13777,5.44747 8.20568,-1.72388 3.06851,7.89538 -9.58479,1.99971 z"
         id="path1515" />
      <path
         style="fill:#ffffff;stroke-width:3.44777"
         d="m 414.52495,635.87155 -13.03256,-31.92632 21.06585,-8.58494 3.03404,7.44718 -11.79136,4.82687 1.86179,4.58553 8.92971,-3.65463 4.1718,6.89553 -10.10195,4.10284 2.06866,5.1027 12.20509,-4.99927 3.03403,7.44718 z"
         id="path1513" />
      <path
         style="fill:#ffffff;stroke-width:3.44777"
         d="m 402.2509,642.49126 c -9.48136,4.62 -18.10077,1.31015 -22.92765,-8.58494 -4.68896,-9.61927 -1.82731,-18.96272 7.79195,-23.65168 3.13747,-1.51702 6.0336,-2.13761 8.75733,-2.10314 l 2.65478,8.6539 c -2.31,-0.48269 -4.72344,-0.55164 -7.13688,0.65507 -4.27523,2.06866 -5.51642,6.61972 -2.9306,11.92928 2.62031,5.41299 7.13688,7.03344 11.48107,4.9303 2.17209,-1.03433 3.72358,-2.75821 5.30956,-5.10269 l 4.79239,6.89553 c -1.89627,2.51687 -4.13732,4.62001 -7.79195,6.37837 z"
         id="path1511" />
      <path
         id="path1509"
         style="fill:#ffffff;stroke-width:3.44777"
         d="m 360.70508,623.63281 -10.44727,4.72266 3.41407,36.47656 9.0332,-4.06836 -0.82813,-5.99805 9.89649,-4.44726 4.34375,4.79102 8.75781,-5.75782 z m -1.55078,11.92774 7.30859,8.65429 -5.79297,2.6211 z" />
      <path
         style="fill:#ffffff;stroke-width:3.44777"
         d="m 329.15825,672.55578 -10.20539,-32.96065 9.79166,-3.03403 7.61956,24.65153 9.30897,-2.89613 3.89598,7.89539 z"
         id="path1507" />
      <path
         id="path1505"
         style="fill:#ffffff;stroke-width:3.44777"
         d="m 306.12695,641.97461 -11.34375,1.55078 -7.10156,35.96094 9.82617,-1.34571 0.89649,-5.96484 10.75781,-1.48242 2.82617,5.82812 10.0332,-3 z m -4.82617,10.96289 4.55078,10.41211 -6.31054,0.86328 z" />
      <path
         id="path1503"
         style="fill:#ffffff;stroke-width:3.44777"
         d="m 260.47852,644.11133 -1.17188,34.47851 10.20508,0.34375 0.3457,-10.34179 1.58594,0.0684 c 8.68838,0.27583 14.61871,-3.7246 14.89453,-11.86133 0.27583,-7.92986 -5.03445,-11.96314 -13.92969,-12.27344 z m 9.82617,7.79297 1.24219,0.0332 c 3.41329,0.10343 5.10147,1.65475 4.99804,4.6543 -0.10343,3.27538 -1.99882,4.68936 -5.41211,4.58593 l -1.13867,-0.0332 z" />
      <path
         style="fill:#ffffff;stroke-width:3.44777"
         d="m 239.99901,675.21056 -20.34182,-6.58523 10.58465,-32.82274 9.75717,3.13747 -7.92986,24.54809 9.27449,2.99956 z"
         id="path1501" />
      <path
         id="path1499"
         style="fill:#ffffff;stroke-width:3.44777"
         d="m 208.79688,625.25195 -26.20313,25.61719 8.82617,4.44727 4.13672,-4.41211 9.68945,4.86132 -0.96679,6.37696 9.96484,3.20703 4.79297,-34.96094 z m 0.0352,11.37891 -2.13867,11.13476 -5.68945,-2.86132 z" />
      <path
         style="fill:#ffffff;stroke-width:3.44777"
         d="m 167.56144,642.49126 12.06719,-23.03108 -8.20569,-4.30971 3.93046,-7.51613 24.58257,12.86017 -2.72374,8.1712 -8.55046,-4.48209 -12.06718,23.03108 z"
         id="path1497" />
      <path
         style="fill:#ffffff;stroke-width:3.44777"
         d="m 156.9768,613.18524 c 6.1715,5.48195 8.10225,9.2745 5.8612,14.48062 -3.20642,7.48166 -9.89509,7.99882 -16.30793,5.24061 -4.65449,-1.99971 -7.99882,-4.55105 -10.9639,-7.68852 l 4.65449,-7.06792 c 2.9306,3.44776 6.34389,6.30941 9.48135,7.65404 1.82732,0.79298 3.30986,0.65507 3.89598,-0.72403 0.58612,-1.34463 0.069,-2.31001 -3.58568,-5.68882 -5.48195,-5.06821 -7.51613,-8.44702 -5.13717,-13.99793 2.79269,-6.51628 9.27449,-7.58508 15.54943,-4.9303 4.58553,1.96522 7.06792,3.93045 9.55031,6.75762 l -4.65448,7.03344 c -2.55135,-3.20642 -5.413,-5.51643 -7.79196,-6.55075 -1.86179,-0.79299 -3.06851,-0.55165 -3.5512,0.55164 -0.51716,1.24119 -0.069,2.20657 2.99956,4.9303 z"
         id="path1495" />
      <path
         style="fill:#ffffff;stroke-width:3.44777"
         d="m 125.84347,624.66631 -9.89509,-2.68926 3.17195,-11.68793 -5.79225,-23.72063 10.86046,1.55149 2.79269,14.48062 9.51584,-10.79151 10.27434,2.79269 -17.72152,18.16973 z"
         id="path1493" />
      <path
         id="path1491"
         style="fill:#ffffff;stroke-width:3.44777"
         d="m 81.988281,583.43164 -2.068359,34.44336 10.134766,0.61914 0.65625,-10.6875 1.550781,0.10352 5.689453,11.41211 10.859378,-1 -6.92969,-12.34375 c 3.9994,-1.75836 6.31012,-4.9295 6.58594,-9.58399 0.44821,-7.37822 -4.41336,-11.65276 -13.308597,-12.16992 z m 9.654297,8.06641 2.033203,0.13867 c 3.275378,0.17239 5.034395,1.89685 4.896485,4.79297 -0.172389,3.06851 -2.069051,4.65412 -5.378907,4.44726 l -2.103515,-0.13867 z" />
      <path
         style="fill:#ffffff;stroke-width:3.44777"
         d="m 66.093681,620.39108 c -10.377777,1.96522 -17.824952,-3.48225 -19.893612,-14.27376 -1.999705,-10.51568 3.206423,-18.79032 13.72211,-20.79003 3.447766,-0.65507 6.378368,-0.51716 8.99867,0.27582 l 0.310299,9.06763 c -2.103137,-1.06881 -4.413141,-1.75836 -7.067921,-1.2412 -4.654484,0.89642 -7.033443,4.96479 -5.930158,10.75703 1.137763,5.89568 5.068217,8.6539 9.791656,7.75748 2.344482,-0.44821 4.309708,-1.68941 6.447323,-3.51672 l 2.827169,7.89538 c -2.482392,1.86179 -5.206127,3.30986 -9.205536,4.06837 z"
         id="path1489" />
    </g>
    <path
       id="path1186"
       style="fill:#ee2e24;fill-opacity:1;stroke-width:3.44777"
       d="m 91.378906,566.17773 c -42.536818,0.62868 -79.371261,18.2713 -81.4140622,19.25391 l -3.4492188,1.68945 2.7246094,2.6543 c 0.206866,0.20687 20.2388426,20.13517 21.7558596,55.68164 0.137911,2.99955 1.378092,5.44604 3.61914,7.16992 6.068069,4.62001 17.54982,2.17231 18.791016,1.89649 1.068807,-0.20686 2.240548,-0.41227 3.447266,-0.61914 l 0.310546,13.13476 3.929688,-2.27539 c 3.206422,-1.8618 9.826976,-2.30956 15.722656,-1.06836 1.03433,0.20687 2.103068,0.51715 3.171875,0.79297 4.171797,1.13776 8.482352,2.31 11.654297,0 1.792839,-1.31015 2.791777,-3.48218 2.929688,-6.44726 0.11778,-2.38508 -0.669455,-4.49282 -2.21875,-6.20313 l 0.115234,-0.14062 c -7.378903,-6.03535 -11.99456,-11.98553 -14.455078,-15.67579 14.04376,-0.9882 30.947698,0.29996 50.037108,6.71094 19.06615,6.41285 35.20126,15.06657 50.78516,23.41016 28.75437,15.41152 56.02547,30.03125 98.50195,30.03125 3.79255,0 7.72392,-0.10368 11.75781,-0.31055 45.61395,-2.72374 77.91862,-18.72285 106.43164,-32.82422 12.17062,-6.03359 23.68732,-11.72171 35.68555,-16.23828 0.86194,-0.34478 1.86029,-0.72366 2.99805,-1.17187 9.82971,-3.88071 29.74314,-11.71829 52.20312,-10.52344 -1.49299,3.80939 -5.04209,10.24913 -13.26953,16.58789 -0.23829,0.15514 -0.51366,0.28075 -0.73242,0.45117 -0.16561,0.12938 -0.28361,0.28716 -0.4375,0.42383 -0.0267,0.0195 -0.0513,0.0391 -0.0781,0.0586 l 0.008,0.01 c -1.84881,1.67646 -2.8711,3.85668 -2.8711,6.4375 0,2.96508 0.89721,5.20683 2.6211,6.58594 3.06851,2.44791 7.41353,1.48168 11.65429,0.55078 1.10328,-0.24134 2.20591,-0.48191 3.24024,-0.6543 5.93015,-0.96537 12.51487,-0.20605 15.65234,1.82813 l 3.82813,2.44726 0.89648,-13.16992 c 1.17225,0.27582 2.30942,0.51715 3.34375,0.79297 1.27567,0.37926 12.6528,3.34291 18.92774,-0.9668 2.31,-1.58597 3.65582,-3.99781 3.93164,-6.96289 3.2409,-35.51199 22.40964,-58.09586 22.58203,-58.30273 l 1.93164,-2.24024 -2.41406,-1.72461 C 506.64949,552.5388 427.17782,568.70968 396.32031,587.5 c -39.92513,24.34123 -72.16196,39.44217 -109.46679,39.58008 h -0.44727 c -33.54677,0 -62.74932,-14.30767 -93.67578,-29.44336 -18.20421,-8.89524 -37.02977,-18.13647 -57.99219,-25.16992 -14.36857,-4.81826 -29.18043,-6.49863 -43.359374,-6.28907 z m 4.931641,5.54688 c 12.181393,0.17616 24.679723,1.87156 36.738283,5.91406 20.61765,6.93001 39.26964,16.06629 57.33594,24.89258 31.4781,15.41151 61.268,29.99609 96.02148,29.99609 h 0.48242 c 42.71782,-0.17239 78.88471,-20.03122 112.22461,-40.37304 29.27154,-17.85943 103.8473,-33.30512 150.66797,-2.06836 -4.83182,6.42081 -17.4165,25.61721 -21.26172,53.68164 -38.20296,-25.93561 -80.13356,-9.50792 -96.27344,-3.13867 -1.10329,0.44821 -2.06901,0.82837 -2.89648,1.13867 -12.23957,4.58553 -23.89265,10.34277 -36.20117,16.44531 -29.40945,14.54958 -59.85262,29.61671 -104.36328,32.27149 -47.855,2.86165 -76.78228,-12.65309 -107.39844,-29.06446 -15.79077,-8.4815 -32.13214,-17.23831 -51.64649,-23.78906 -48.327988,-16.22502 -82.723157,-1.86973 -93.593746,3.82422 -2.209092,-27.96339 -14.91954,-45.98118 -20.49414,-52.61133 10.420874,-4.49933 44.114036,-17.64762 80.658203,-17.11914 z m 395.644533,63.89844 c 11.72096,1.41587 23.93265,5.52288 35.66015,14.04101 -0.22226,1.03946 -0.65209,1.87193 -1.48632,2.44727 -3.5512,2.44791 -11.82569,0.93106 -14.48047,0.20703 -2.15403,-0.53851 -16.33451,-3.93533 -27.70313,-3.33984 4.75,-5.37253 6.98304,-10.29298 8.00977,-13.35547 z m -419.964846,0.96679 c 1.302616,2.21212 3.848466,6.08962 7.964844,10.64063 -11.299545,-1.09072 -25.473598,1.59049 -27.6875,2.05273 -2.620303,0.6206 -10.929187,1.72382 -14.376953,-0.89648 -0.442429,-0.34411 -0.768074,-0.76041 -1.011719,-1.24024 4.181475,-2.30167 16.596485,-8.28178 35.111328,-10.55664 z m 5.501954,15.75391 c 4.63517,0.21243 8.502055,0.99435 10.49414,2.63477 0.05065,0.0428 0.10339,0.0861 0.154297,0.1289 0.812677,0.71166 1.188166,1.55159 1.121094,2.6582 -0.06896,1.20672 -0.343402,2.06794 -0.722657,2.34376 -1.103286,0.75851 -4.552168,-0.17177 -7.103515,-0.86133 -1.172241,-0.3103 -2.344659,-0.62194 -3.482422,-0.86328 -2.310004,-0.48269 -5.101923,-0.82618 -7.998047,-0.82618 -2.585825,0 -5.2063,0.27462 -7.550781,0.92969 l -0.136719,-5.37695 c 5.050978,-0.6206 10.522718,-0.98307 15.22461,-0.76758 z m 408.849612,1.83594 c 4.72344,0 10.2397,0.62048 15.27343,1.48242 l -0.3789,5.37891 c -4.99926,-1.62045 -11.13568,-1.55216 -15.54883,-0.82813 -1.13776,0.17238 -2.31086,0.41363 -3.51758,0.68945 -2.55134,0.58616 -6.06723,1.34505 -7.10156,0.51758 -0.37925,-0.31029 -0.58594,-1.17219 -0.58594,-2.3789 0,-1.0309 0.36059,-1.76991 1.04102,-2.40821 0.2534,-0.18755 0.50585,-0.37638 0.75195,-0.56445 2.1059,-1.34583 5.73892,-1.88867 10.06641,-1.88867 z" />
  </g>
</svg>
