<?xml version="1.0" encoding="UTF-8"?><svg id="Calque_2" xmlns="http://www.w3.org/2000/svg" viewBox="0 0 1002.34 1027.58"><defs><style>.cls-1{fill:none;}.cls-2{fill:#00019f;}.cls-3{fill:#fff;}</style></defs><g id="svg34"><path class="cls-2" d="m0,640.05l.39,1.08-.39.17v-1.25Z"/><path class="cls-2" d="m1002.34,640.05v1.25l-.39-.17.39-1.08Z"/><path class="cls-1" d="m265.11,797.85c63.11,44.16,136.32,70.68,212.09,74.46l-24-23.97c-87.11-10.1-167.9-47.97-227.24-108.59-29.01-30.29-53.01-64.36-69.41-100.98l-21.47,8.85c30.29,59.31,74.49,111.08,130.03,150.23Z"/><path class="cls-1" d="m776.38,739.75c-59.34,60.62-140.13,98.49-227.24,108.59l-24,23.97c75.77-3.78,148.98-30.3,212.09-74.46,55.54-39.15,99.74-90.92,130.03-150.23l-21.47-8.85c-16.4,36.62-40.4,70.69-69.41,100.98Z"/><path class="cls-2" d="m463.31,830.67l37.86,37.85,37.86-37.85c175.47-16.43,318.13-152.75,318.13-318.12,0-9.48-.62-20.86-1.73-32.07-1.12-11.18-2.69-22.26-4.59-31.08-3.78-22.72-11.35-47.97-16.4-61.83l-5.05-13.91c-3.8-10.09-7.57-20.19-10.09-29.01-8.86-31.57-15.15-61.87-15.15-80.82,0-17.67,7.24-38.82,18.75-59.5,11.54-20.66,27.31-40.86,44.36-56.63l-130.03-119.93c-31.57,20.2-70.68,32.82-114.88,32.82-46.72,0-89.64-15.18-121.18-36.62-31.54,21.44-74.46,36.62-121.18,36.62-44.2,0-83.31-12.62-114.88-32.82l-130.03,119.93c17.05,15.77,32.82,35.97,44.36,56.63,11.51,20.68,18.75,41.83,18.75,59.5,0,18.95-6.29,49.25-15.15,80.82-2.52,8.82-6.29,18.92-10.09,29.01l-5.05,13.91c-5.05,13.86-12.62,39.11-16.4,61.83-1.9,8.82-3.47,19.9-4.59,31.08-1.11,11.21-1.73,22.59-1.73,32.07,0,165.37,142.66,301.69,318.13,318.12Z"/><path class="cls-2" d="m886.21,607.2l-3.8-1.25-3.77-1.28h-1.28c-2.53,3.81-8.82,11.38-15.15,12.66h-7.57c-.66,1.28-1.58,3.77-2.53,6.33-.95,2.49-1.9,5.05-2.52,6.29l22.72,8.82c5.05-10.1,10.1-22.72,13.9-31.57Z"/><path class="cls-2" d="m858.41,602.15h1.28c1.9,0,3.77-1.25,5.37-2.85,1.58-1.58,2.82-3.45,3.48-4.72,2.52-3.77,5.05-5.05,8.82-5.05,1.28,0,2.52,1.28,3.8,1.28l45.44,17.67,7.58-17.67-30.3-13.91-6.33-2.52c-2.81-.92-4.26-4-4.26-7.08,0-1.02.17-2.07.49-3.02v-1.24c2.53-6.33,3.77-13.91,2.53-20.2,0-5.05-2.53-8.85-5.05-10.1l-3.8-1.28c-6.3,0-11.35,6.33-17.67,15.15-2.53,20.2-6.33,39.15-12.63,55.54h1.25Z"/><path class="cls-2" d="m980.86,602.15c2.53-3.77,7.58-15.15,5.05-22.72,0-3.77-3.77-6.3-7.57-8.82l-73.21-34.1,1.28,3.81v1.24c1.24,7.57,0,15.15-2.53,24l-2.52,2.53,78.26,35.34,1.24-1.28Z"/><path class="cls-2" d="m98.46,565.56c-2.53-8.85-3.77-16.43-2.53-24v-1.24l1.28-3.81-73.21,34.1c-3.8,2.52-7.57,5.05-7.57,8.82-2.53,7.57,2.52,18.95,5.05,22.72l1.24,1.28,78.26-35.34-2.52-2.53Z"/><path class="cls-2" d="m895.03,613.53c-31.57,78.26-83.31,146.45-151.47,194.42-68.19,47.96-147.7,74.45-231.04,76.98h-1.25l-10.1,10.1-10.1-10.1h-1.25c-83.34-2.53-162.85-29.02-231.04-76.98-68.16-47.97-119.9-116.16-151.47-194.42l-1.28-2.53-92.13,36.62,1.25,2.53c37.87,97.18,103.5,179.24,186.84,239.83,79.54,56.81,172.95,89.63,270.16,94.68l29.02,29.05,29.02-29.05c97.21-5.05,190.62-37.87,270.16-94.68,83.34-60.59,148.97-142.65,186.84-239.83l1.25-2.53-92.13-36.62-1.28,2.53Z"/><path class="cls-2" d="m68.16,590.81l7.58,17.67,45.44-17.67c1.28,0,2.52-1.28,3.8-1.28,3.77,0,6.3,1.28,8.82,5.05.66,1.27,1.9,3.14,3.48,4.72,1.6,1.6,3.47,2.85,5.37,2.85h2.53c-6.3-16.39-10.1-35.34-12.63-55.54-6.32-8.82-11.37-15.15-17.67-15.15l-3.8,1.28c-2.52,1.25-5.05,5.05-5.05,10.1-1.24,6.29,0,13.87,2.53,20.2v1.24c.32.95.49,2,.49,3.02,0,3.08-1.45,6.16-4.26,7.08l-6.33,2.52-30.3,13.91Z"/><path class="cls-2" d="m147.7,617.33h-7.57c-6.33-1.28-12.62-8.85-15.15-12.66h-1.28l-3.77,1.28-3.8,1.25c3.8,8.85,8.85,21.47,13.9,31.57l22.72-8.82c-.62-1.24-1.57-3.8-2.52-6.29-.95-2.56-1.87-5.05-2.53-6.33Z"/><path class="cls-3" d="m1001.95,641.13l.39.17v-1.25l-.39,1.08Z"/><path class="cls-3" d="m0,640.38v.92l.39-.17-.39-1.08v.33Z"/><path class="cls-3" d="m936.28,702.97c-.16,0-.49.39-1.02,1.44l-40.39-22.72q-1.25,0-2.52,1.28l-2.52,3.77c-1.25,1.28-1.25,2.52,0,3.8l20.2,29.02-35.34-3.77q-2.52,0-3.77,1.25l-2.52,3.8s0,1.25,1.25,2.52l36.62,25.24q1.25,0,2.52-1.28l5.05-6.3c1.25-1.28,1.25-2.52,0-3.8l-21.47-13.87,27.77,3.77q1.28,0,2.52-1.25l1.28-2.52s1.25-1.28,0-2.52l-16.43-22.72,21.47,12.62c1.25,1.25,2.52,1.25,3.77,0l3.8-6.33c0-.72,0-1.44-.26-1.44Zm-56.56,48.16l-18.95-16.43q-1.25-1.25-2.52,0l-5.05,5.05q-1.25,1.28,0,2.52l18.95,18.95c8.85,6.33,8.85,11.38,5.05,16.43-3.77,5.05-8.85,6.29-17.67-1.28l-18.95-16.39q-1.25-1.28-2.52,0l-5.05,5.05c-1.25,0-1.25,1.25,0,2.52l18.95,15.15c11.34,10.1,22.72,10.1,31.57-1.28,8.82-10.1,8.82-21.44-3.8-30.29Zm-54.29,24q-1.25-1.28-2.52,0l-3.77,3.77c-1.28,1.28-1.28,2.52-1.28,3.8l11.38,34.06-34.1-12.62c-1.25-1.25-2.52-1.25-3.77,0l-3.8,3.8c-1.25,1.25-1.25,2.52,0,3.77l29.05,34.1c1.25,1.25,2.52,1.25,3.77,0l3.8-3.8c1.25-1.25,1.25-2.52,0-3.77l-16.43-18.95,26.52,11.38q1.25,0,1.25-1.28l2.52-1.25c1.28,0,1.28-1.28,1.28-2.52l-10.1-26.52,17.67,17.67c1.25,1.28,2.52,1.28,3.77,0l5.05-5.05c.66-.62.95-.92,1.28-1.57.3-.62.62-1.57,1.25-3.48l-32.82-31.54Zm-25.24,76.98c-1.25,0-1.25-1.25-2.52,0l-2.52,2.52-20.2-27.77,2.52-2.52c1.28,0,1.28-1.25,0-3.77l-2.52-2.52s-1.25-1.28-2.52,0l-15.15,11.34v2.52l2.52,3.8c1.28,0,1.28,1.25,2.52,0l2.52-2.52,20.2,27.77-2.52,2.52s-1.25,1.25,0,2.52l2.52,2.52s1.28,1.25,2.52,0l15.15-11.38v-2.52l-2.52-2.52Zm-41.64,34.1l-20.2-32.82,11.34-6.33c1.28,0,1.28-1.25,1.28-2.52l-2.52-5.05c-1.28,0-1.28-1.25-2.52,0l-2.52,1.28-30.33,17.67q-1.25,1.25-1.25,2.52l2.52,5.05c0,1.25,1.25,2.52,2.52,1.25l11.38-6.29,20.2,32.82q1.25,1.25,2.52,0l7.57-5.05q1.25-1.28,0-2.52Zm-46.72-11.38c-1.28-2.52-3.8-6.29-7.57-7.57-3.8-2.52-10.1-1.25-17.67,2.52l-10.1,5.05c-1.28,0-2.52,1.28-1.28,2.52l18.95,41.67c0,1.28,1.25,1.28,2.52,1.28l6.29-2.52c1.28,0,1.28-1.28,1.28-2.52l-6.33-13.9c1.28,0,2.52-1.25,3.8-1.25,10.1-3.8,15.15-12.66,10.1-25.28Zm-13.9,17.67c-1.25,0-2.52,1.28-3.77,1.28l-6.33-13.9,3.8-1.25c5.05-2.52,8.82-1.28,10.1,3.77,2.52,3.8,1.25,7.57-3.8,10.1Zm-23.97,12.66c-3.8-13.9-15.15-22.75-29.05-17.7-13.87,3.8-18.92,16.43-13.87,31.57s15.15,22.72,29.02,17.67c12.62-5.05,17.67-17.67,13.9-31.54Zm-17.67,22.72c-6.33,1.25-11.38-2.52-15.15-12.62-2.52-10.1-1.28-16.43,5.05-18.95,6.29-2.52,11.34,1.28,15.15,12.62,2.52,11.38,1.25,16.43-5.05,18.95Zm-59.34,18.92q-1.25-1.25-2.52-1.25h-3.77l-6.33-34.1,3.8-1.25q1.25,0,2.52-1.28l-1.28-3.77q-1.25-1.28-2.52-1.28l-18.95,3.8q-1.25,0-1.25,1.25l1.25,3.8q1.28,1.25,2.52,1.25l3.8-1.25,6.3,34.06h-3.77c-1.28,0-1.28,1.28-1.28,2.52l1.28,3.8q1.25,1.25,2.52,1.25l17.67-2.52q1.28,0,1.28-1.25l-1.28-3.8Zm-40.39-3.77c0-6.33-3.8-10.1-10.1-12.62l-8.85-2.52c-2.52,0-5.05-1.28-5.05-3.8,0-3.77,3.8-5.05,6.33-5.05s6.29,0,10.1,1.28h1.25s1.28,0,1.28-1.28v-7.57s0-1.25-1.28-1.25c-3.77-1.28-8.82-1.28-13.87-1.28-8.85,0-17.67,6.33-16.43,15.15,1.28,6.33,5.05,10.1,10.1,12.62l10.1,3.8c2.52,1.25,5.05,2.52,5.05,5.05s-3.77,5.05-6.29,5.05c-3.8,0-7.57,0-11.38-1.28h-1.25q-1.28,0-1.28,1.28l-1.25,6.29v1.28s0,1.25,1.25,1.25c5.05,1.28,10.1,1.28,15.15,1.28,10.1,0,17.67-7.57,16.43-17.67Zm-51.77-24q1.28,0,1.28-1.25v-3.8s0-1.25-1.28-1.25h-18.92q-1.28,0-1.28,1.25v3.8s0,1.25,1.28,1.25h3.77v35.34h-3.77s-1.28,0-1.28,1.28v3.77s0,1.28,1.28,1.28h18.92q1.28,0,1.28-1.28v-3.77s0-1.28-1.28-1.28h-3.77v-35.34h3.77Zm-39.11-8.82l-6.33-1.28c-1.25-1.25-2.52,0-2.52,1.28l-3.77,27.77-17.7-31.57s-1.25-1.25-2.52-1.25l-6.29-1.28c-1.28,0-2.52,1.28-2.52,2.52l-5.05,45.44c0,1.28,1.25,2.52,2.52,2.52l6.29,1.28c1.28,1.25,2.52,0,2.52-1.28l3.8-27.77,17.67,30.29c0,1.28,1.28,2.52,2.52,2.52l6.33,1.28c1.25,0,1.25-1.28,1.25-2.52l5.05-45.44c0-1.28,0-2.52-1.25-2.52Zm-78.29-12.62c-3.77-2.56-7.57-5.08-12.62-6.33-8.82-2.52-18.92,0-21.44,8.85-2.52,6.29,0,11.34,3.77,13.87l7.57,7.57c1.28,1.28,3.8,3.8,2.52,6.33-1.25,2.52-5.05,3.77-7.57,2.52-3.77-1.28-7.57-2.52-10.1-5.05h-1.25l-1.28,1.25-3.77,5.05v1.28l1.25,1.25c3.8,2.52,8.85,5.05,13.9,6.33,8.82,3.77,18.92,0,20.2-10.1,2.52-6.33,0-11.38-5.05-15.15l-6.33-6.33c-1.25-1.25-3.77-2.52-2.52-5.05,1.28-3.77,5.05-3.77,7.57-2.52,2.52,1.28,6.33,2.52,8.85,5.05,0,1.28,1.25,1.28,1.25,1.28,0,0,1.28,0,1.28-1.28l5.05-5.05v-1.25q0-1.28-1.28-2.52Zm-44.16-13.9l-17.67-7.57c-1.28,0-2.52,0-2.52,1.25l-1.28,3.8c0,1.25,0,2.52,1.28,2.52l3.77,1.25-12.62,32.85-2.52-1.28c-1.25,0-2.52,0-2.52,1.28l-1.25,3.77c0,1.28,0,2.52,1.25,2.52l16.43,6.33c1.25,0,2.52,0,2.52-1.28l1.25-3.77c0-1.28,0-2.52-1.25-2.52l-3.8-1.28,12.62-32.82,3.8,1.25h2.52l1.25-3.77c0-1.28,0-2.52-1.25-2.52Zm-31.57-15.15l-3.77-1.28-30.33-16.39c-1.25,0-2.52,0-2.52,1.25l-2.52,5.05q0,1.28,1.28,2.52l11.34,6.33-17.67,34.1q0,1.25,1.28,2.52l7.57,3.77q1.25,1.28,2.52,0l17.67-35.34,11.38,6.29q1.25,1.28,2.52,0l2.52-6.29c0-1.28,0-2.52-1.28-2.52Zm-50.49-27.77l-6.33-3.8q-1.25-1.25-2.52,0l-39.11,29.05v1.25c-1.28,0-1.28,1.28,0,1.28l6.29,3.77c1.28,1.28,1.28,0,2.52,0l7.57-5.05,2.52,1.28,10.1,7.57,2.52,1.25-2.52,8.85c0,1.25,0,2.52,1.28,3.77l6.3,3.8c1.28,0,2.52,0,2.52-1.28v-1.25l10.1-47.97q0-1.28-1.25-2.52Zm-10.1,12.62l-3.8,13.87-10.1-6.29,11.38-8.85c1.25-1.25,2.52-1.25,3.77-2.52,0,1.28-1.25,2.52-1.25,3.8Zm-26.52-42.92c-6.29-5.05-16.39-7.57-22.72,0-3.77,3.77-3.77,10.1-1.25,15.15l5.05,10.1c1.25,1.25,1.25,3.77,0,6.3-2.52,2.52-6.33,1.28-8.85,0-2.52-2.52-6.29-5.05-7.57-8.82l-1.25-1.28c-1.28-1.25-2.52,0-2.52,0l-5.05,3.8-1.28,1.25c0,1.28-1.25,1.28,0,2.52,2.52,3.8,6.33,8.85,10.1,11.38,7.57,6.3,17.67,6.3,24-1.28,5.05-5.05,3.77-11.34,1.25-16.39l-3.77-7.57c-1.28-1.28-2.52-5.05-1.28-6.33,2.52-2.52,5.05-1.25,7.57,0,2.52,1.28,5.05,5.05,6.33,7.57l1.25,1.28h2.52l5.05-2.52,1.28-1.28v-2.52c-2.52-5.05-5.05-7.57-8.85-11.34Zm-55.54-47.97l-5.05-5.05c0-1.28-1.28-1.28-2.52,0l-32.82,30.29c-1.28,1.25-1.28,2.52,0,3.77l18.92,20.2c0,1.28,1.28,1.28,2.52-1.25l3.8-3.8c1.25,0,1.25-1.25,0-2.52l-12.62-13.87,27.77-25.25c1.28,0,1.28-1.28,0-2.52Zm-16.43-20.23l-11.34-15.15h-2.52l-2.52,2.52c0,1.28-1.28,1.28,0,2.52l2.52,2.52-27.77,21.47-2.52-2.52s-1.28-1.28-2.52,0l-2.52,2.52s-1.28,1.28,0,2.52l11.34,15.15h2.52l2.52-2.52c0-1.25,1.28-1.25,0-2.52l-2.52-2.52,27.77-21.47,2.52,2.52c0,1.28,1.28,1.28,2.52,0l2.52-2.52s1.28-1.25,0-2.52Zm-23.97-26.49l-3.8-6.33c0-1.25-1.25-2.52-2.52-1.25l-23.97,15.15,12.62-32.82c1.25-1.28,1.25-2.52,0-3.8l-2.52-5.05c0-1.25-1.28-2.52-2.52-1.25l-39.15,23.97c-1.25,0-1.25,1.28,0,2.52l3.8,5.05c0,1.28,1.25,2.52,2.52,1.28l23.97-15.15-12.62,32.82c-1.25,1.25-1.25,2.52,0,3.77l3.8,5.05c1.25,1.28,2.52,1.28,1.25,2.52l37.87-23.97c1.28,0,2.52-1.28,1.28-2.52Z"/><path class="cls-3" d="m374.76,209.56c-3.79-1.26-8.84,0-13.89,3.79s-8.84,7.57-10.1,11.36c3.79,1.26,8.84,0,13.89-3.79,5.05-2.52,8.84-6.31,10.1-11.36Z"/><path class="cls-3" d="m353.3,138.86c0-3.79-1.26-10.1-3.79-15.15-3.79-5.05-7.57-8.84-11.36-10.1,0,3.79,1.26,10.1,3.79,15.15,3.79,5.05,7.57,8.84,11.36,10.1Z"/><path class="cls-3" d="m353.3,156.54c0,3.79,0,8.84,3.79,13.89,2.52,5.05,6.31,8.84,10.1,8.84,0-3.79,0-8.84-3.79-13.89-2.52-3.79-6.31-7.57-10.1-8.84Z"/><path class="cls-3" d="m360.88,145.17c2.52-3.79,3.79-8.84,3.79-15.15s-2.52-11.36-5.05-15.15c-2.52,3.79-3.79,8.84-3.79,15.15,1.26,6.31,2.52,11.36,5.05,15.15Z"/><path class="cls-3" d="m368.45,175.47c3.79-1.26,7.57-5.05,10.1-11.36,2.52-5.05,3.79-11.36,2.52-15.15-3.79,1.26-7.57,5.05-10.1,11.36-2.52,5.05-2.52,10.1-2.52,15.15Z"/><path class="cls-3" d="m349.52,150.22c3.79,3.79,8.84,5.05,12.62,5.05,0-3.79-2.52-8.84-7.57-11.36-3.79-3.79-8.84-5.05-12.62-5.05,1.26,3.79,3.79,7.57,7.57,11.36Z"/><path class="cls-3" d="m365.93,162.85c2.52-2.52,5.05-7.57,6.31-13.89s0-12.62-2.52-16.41c-2.52,2.52-5.05,7.57-6.31,13.89,0,7.57,0,12.62,2.52,16.41Z"/><path class="cls-3" d="m383.6,191.88c-3.79-1.26-8.84,0-13.89,3.79-5.05,3.79-8.84,7.57-10.1,11.36,3.79,1.26,8.84,0,13.89-3.79,6.31-2.52,8.84-7.57,10.1-11.36Z"/><path class="cls-3" d="m376.03,186.83c3.79-5.05,5.05-10.1,5.05-15.15-3.79,1.26-8.84,3.79-12.62,8.84-3.79,5.05-5.05,10.1-5.05,15.15,5.05-1.26,8.84-3.79,12.62-8.84Z"/><path class="cls-3" d="m354.57,210.82c2.52-2.52,5.05-7.57,6.31-13.89s0-12.62-2.52-16.41c-2.52,2.52-5.05,7.57-6.31,13.89-1.26,6.31,0,12.62,2.52,16.41Z"/><path class="cls-3" d="m353.3,228.49c-5.05,1.26-10.1,3.79-12.62,7.57,3.79,2.52,8.84,2.52,13.89,2.52,5.05-1.26,10.1-3.79,12.62-7.57-2.52-2.52-8.84-3.79-13.89-2.52Z"/><path class="cls-3" d="m249.79,207.03c-1.26-3.79-5.05-8.84-10.1-11.36-5.05-3.79-10.1-3.79-13.89-3.79,1.26,3.79,5.05,8.84,10.1,11.36,5.05,3.79,10.1,5.05,13.89,3.79Z"/><path class="cls-3" d="m259.89,225.97c-1.26-3.79-5.05-8.84-10.1-11.36-5.05-3.79-10.1-3.79-13.89-3.79,1.26,3.79,5.05,8.84,10.1,11.36s10.1,3.79,13.89,3.79Z"/><path class="cls-3" d="m269.98,236.07c-2.52-3.79-7.57-6.31-12.62-7.57s-11.36,0-13.89,2.52c2.52,3.79,7.57,6.31,12.62,7.57,5.05,0,10.1,0,13.89-2.52Z"/><path class="cls-3" d="m348.25,222.18c2.52-6.31,3.79-11.36,2.52-16.41-3.79,1.26-7.57,6.31-10.1,11.36-2.52,6.31-3.79,11.36-2.52,16.41,3.79-2.52,7.57-6.31,10.1-11.36Z"/><path class="cls-3" d="m257.36,246.17c3.79,2.52,8.84,3.79,13.89,2.52,6.31-1.26,10.1-3.79,12.62-6.31-3.79-2.52-8.84-3.79-13.89-2.52s-10.1,3.79-12.62,6.31Z"/><path class="cls-3" d="m283.87,241.12c5.05,3.79,10.1,5.05,13.89,5.05-1.26-3.79-3.79-8.84-8.84-12.62-5.05-3.79-10.1-5.05-13.89-5.05,1.26,3.79,5.05,8.84,8.84,12.62Z"/><path class="cls-3" d="m259.89,205.77c-1.26,3.79,0,10.1,2.52,16.41s6.31,10.1,10.1,11.36c1.26-3.79,0-10.1-2.52-16.41-3.79-5.05-7.57-10.1-10.1-11.36Z"/><path class="cls-3" d="m267.46,128.76c3.79-5.05,5.05-11.36,3.79-15.15-3.79,1.26-7.57,5.05-11.36,10.1-3.79,5.05-5.05,11.36-3.79,15.15,3.79-1.26,8.84-5.05,11.36-10.1Z"/><path class="cls-3" d="m259.89,150.22c3.79-3.79,6.31-7.57,7.57-11.36-3.79,0-7.57,1.26-12.62,5.05-3.79,3.79-6.31,7.57-7.57,11.36,3.79,0,8.84-1.26,12.62-5.05Z"/><path class="cls-3" d="m339.42,249.95c6.31,1.26,11.36,0,13.89-2.52-2.52-3.79-7.57-6.31-12.62-6.31-6.31-1.26-11.36,0-13.89,2.52,1.26,2.52,6.31,5.05,12.62,6.31Z"/><path class="cls-3" d="m287.66,247.43c-5.05,1.26-10.1,5.05-12.62,7.57,3.79,2.52,8.84,2.52,13.89,1.26s10.1-3.79,12.62-7.57l2.52,2.52c-6.31,3.79-11.36,8.84-16.41,15.15,1.26,2.52,2.52,3.79,5.05,7.57,3.79-7.57,7.57-15.15,12.62-20.2,5.05,5.05,8.84,12.62,12.62,20.2,1.26-2.52,2.52-3.79,5.05-7.57-5.05-6.31-10.1-11.36-15.15-13.89l2.52-2.52c2.52,3.79,6.31,6.31,12.62,7.57,5.05,1.26,11.36,1.26,13.89-1.26-2.52-3.79-6.31-6.31-12.62-7.57-5.05-1.26-8.84-1.26-12.62,0s-5.05,2.52-5.05,2.52c-1.26-1.26-2.52-1.26-5.05-2.52h0c-5.05-2.52-8.84-2.52-13.89-1.26Z"/><path class="cls-3" d="m240.95,175.47c1.26-3.79,0-10.1-2.52-15.15-2.52-5.05-6.31-10.1-10.1-11.36-1.26,3.79,0,10.1,2.52,15.15,2.52,5.05,6.31,8.84,10.1,11.36Z"/><path class="cls-3" d="m325.53,241.12c5.05-3.79,7.57-8.84,8.84-12.62-3.79,0-8.84,1.26-13.89,5.05-5.05,3.79-7.57,8.84-8.84,12.62,3.79,0,8.84-2.52,13.89-5.05Z"/><path class="cls-3" d="m256.1,210.82c2.52-3.79,2.52-10.1,2.52-16.41-1.26-6.31-3.79-11.36-6.31-13.89-2.52,3.79-2.52,10.1-2.52,16.41,0,5.05,2.52,10.1,6.31,13.89Z"/><path class="cls-3" d="m228.33,171.69c0,3.79,1.26,10.1,5.05,15.15,3.79,5.05,8.84,7.57,12.62,8.84,0-3.79-1.26-10.1-5.05-15.15-5.05-5.05-8.84-7.57-12.62-8.84Z"/><path class="cls-3" d="m252.31,170.42c2.52-5.05,3.79-10.1,3.79-13.89-3.79,1.26-7.57,5.05-10.1,8.84-2.52,5.05-3.79,10.1-3.79,13.89,3.79,0,7.57-3.79,10.1-8.84Z"/><path class="cls-3" d="m253.57,130.03c0-6.31-1.26-12.62-3.79-15.15-2.52,2.52-5.05,8.84-5.05,15.15s1.26,12.62,3.79,15.15c2.52-3.79,5.05-8.84,5.05-15.15Z"/><path class="cls-3" d="m243.47,162.85c2.52-3.79,2.52-10.1,2.52-16.41-1.26-6.31-3.79-11.36-6.31-13.89-2.52,3.79-2.52,10.1-2.52,16.41,1.26,6.31,3.79,11.36,6.31,13.89Z"/><path class="cls-3" d="m364.66,222.18c-5.05,3.79-10.1,3.79-13.89,3.79,1.26-3.79,5.05-8.84,10.1-11.36,5.05-3.79,10.1-3.79,13.89-3.79-1.26,3.79-5.05,7.57-10.1,11.36Z"/><path class="cls-3" d="m367.19,231.02c-2.52,3.79-7.57,6.31-12.62,7.57s-11.36,0-13.89-2.52c2.52-3.79,7.57-6.31,12.62-7.57,5.05-1.26,11.36,0,13.89,2.52Z"/><path class="cls-3" d="m367.19,180.52c-3.79-1.26-7.57-5.05-10.1-8.84-2.52-5.05-3.79-10.1-3.79-13.89,3.79,1.26,7.57,5.05,10.1,8.84,2.52,5.05,3.79,10.1,3.79,13.89Z"/><path class="cls-3" d="m369.71,180.52c3.79-5.05,8.84-7.57,12.62-8.84,0,3.79-1.26,10.1-5.05,15.15-3.79,5.05-8.84,7.57-12.62,8.84,0-5.05,1.26-10.1,5.05-15.15Z"/><path class="cls-3" d="m358.35,180.52c2.52,3.79,2.52,10.1,2.52,16.41-1.26,6.31-3.79,11.36-6.31,13.89-2.52-3.79-2.52-10.1-2.52-16.41,1.26-6.31,3.79-11.36,6.31-13.89Z"/><path class="cls-3" d="m360.88,207.03c1.26-3.79,5.05-8.84,10.1-11.36,5.05-3.79,10.1-3.79,13.89-3.79-1.26,3.79-5.05,8.84-10.1,11.36-5.05,3.79-10.1,5.05-13.89,3.79Z"/><path class="cls-3" d="m382.34,147.7c1.26,3.79,0,10.1-2.52,15.15-2.52,5.05-6.31,10.1-10.1,11.36-1.26-3.79,0-10.1,2.52-15.15,2.52-5.05,6.31-10.1,10.1-11.36Z"/><path class="cls-3" d="m370.98,132.55c2.52,3.79,2.52,10.1,2.52,16.41-1.26,6.31-3.79,11.36-6.31,13.89-2.52-3.79-2.52-10.1-2.52-16.41,0-5.05,2.52-11.36,6.31-13.89Z"/><path class="cls-3" d="m359.62,114.88c2.52,2.52,5.05,8.84,5.05,15.15s-1.26,12.62-3.79,15.15c-2.52-2.52-5.05-8.84-5.05-15.15s1.26-12.62,3.79-15.15Z"/><path class="cls-3" d="m362.14,155.27c-3.79,0-7.57-1.26-12.62-5.05-3.79-3.79-6.31-7.57-7.57-11.36,3.79,0,7.57,1.26,12.62,5.05,3.79,3.79,6.31,7.57,7.57,11.36Z"/><path class="cls-3" d="m338.15,113.61c3.79,1.26,7.57,5.05,11.36,10.1,3.79,5.05,5.05,11.36,3.79,15.15-3.79-1.26-7.57-5.05-11.36-10.1-2.52-5.05-3.79-11.36-3.79-15.15Z"/><path class="cls-3" d="m340.68,217.13c2.52-6.31,6.31-10.1,10.1-11.36,1.26,3.79,0,10.1-2.52,16.41s-6.31,10.1-10.1,11.36c-1.26-5.05,0-10.1,2.52-16.41Z"/><path class="cls-3" d="m339.42,239.85c6.31,1.26,10.1,3.79,12.62,6.31-3.79,2.52-8.84,3.79-13.89,2.52-6.31-1.26-10.1-3.79-12.62-6.31,3.79-1.26,8.84-2.52,13.89-2.52Z"/><path class="cls-3" d="m320.48,232.28c5.05-3.79,10.1-5.05,13.89-5.05-1.26,3.79-3.79,8.84-8.84,12.62-5.05,3.79-10.1,5.05-13.89,5.05,1.26-3.79,3.79-8.84,8.84-12.62Z"/><path class="cls-3" d="m300.28,247.43h0c1.26,1.26,3.79,1.26,5.05,2.52,0,0,2.52-1.26,5.05-2.52,3.79-1.26,7.57-1.26,12.62,0s10.1,5.05,12.62,7.57c-3.79,2.52-8.84,2.52-13.89,1.26s-10.1-3.79-12.62-7.57c-1.26,0-1.26,1.26-2.52,2.52,6.31,3.79,11.36,8.84,15.15,13.89-1.26,2.52-2.52,3.79-5.05,7.57-3.79-7.57-7.57-15.15-12.62-20.2-5.05,5.05-10.1,12.62-12.62,20.2-1.26-2.52-2.52-3.79-5.05-7.57,5.05-6.31,10.1-11.36,16.41-15.15t-1.26-1.26c-2.52,3.79-6.31,6.31-12.62,7.57-5.05,1.26-11.36,1.26-13.89-1.26,2.52-3.79,6.31-6.31,12.62-7.57,5.05-1.26,8.84-1.26,12.62,0h0Z"/><path class="cls-3" d="m288.92,232.28c5.05,3.79,7.57,8.84,8.84,12.62-3.79,0-8.84-1.26-13.89-5.05s-7.57-8.84-8.84-12.62c3.79,0,8.84,1.26,13.89,5.05Z"/><path class="cls-3" d="m283.87,243.64c-2.52,3.79-7.57,6.31-12.62,6.31-6.31,1.26-11.36,0-13.89-2.52,2.52-3.79,7.57-6.31,12.62-6.31,6.31-1.26,11.36,0,13.89,2.52Z"/><path class="cls-3" d="m271.25,233.54c-3.79-1.26-7.57-6.31-10.1-11.36-2.52-6.31-3.79-11.36-2.52-16.41,3.79,1.26,7.57,6.31,10.1,11.36,3.79,6.31,3.79,11.36,2.52,16.41Z"/><path class="cls-3" d="m261.15,122.45c3.79-5.05,7.57-8.84,11.36-10.1,0,3.79-1.26,10.1-3.79,15.15-3.79,5.05-7.57,8.84-11.36,10.1-1.26-3.79,0-8.84,3.79-15.15Z"/><path class="cls-3" d="m254.84,143.91c3.79-3.79,8.84-5.05,12.62-5.05,0,3.79-2.52,8.84-7.57,11.36-3.79,3.79-8.84,5.05-12.62,5.05,1.26-3.79,3.79-7.57,7.57-11.36Z"/><path class="cls-3" d="m243.47,180.52c0-3.79,0-8.84,3.79-13.89,2.52-5.05,6.31-8.84,10.1-8.84,0,3.79,0,8.84-3.79,13.89-3.79,3.79-7.57,7.57-10.1,8.84Z"/><path class="cls-3" d="m246,195.67c-3.79-1.26-8.84-3.79-12.62-8.84-3.79-5.05-5.05-10.1-5.05-15.15,3.79,1.26,8.84,3.79,12.62,8.84,2.52,5.05,5.05,10.1,5.05,15.15Z"/><path class="cls-3" d="m251.05,180.52c2.52,2.52,5.05,7.57,6.31,13.89,1.26,6.31,0,12.62-2.52,16.41-2.52-2.52-5.05-7.57-6.31-13.89,0-7.57,1.26-12.62,2.52-16.41Z"/><path class="cls-3" d="m244.74,128.76c0-6.31,2.52-11.36,5.05-15.15,2.52,3.79,3.79,8.84,3.79,15.15s-2.52,11.36-5.05,15.15c-2.52-2.52-3.79-7.57-3.79-15.15Z"/><path class="cls-3" d="m239.69,132.55c2.52,2.52,5.05,7.57,6.31,13.89,1.26,6.31,0,12.62-2.52,16.41-2.52-2.52-5.05-7.57-6.31-13.89-1.26-6.31,0-12.62,2.52-16.41Z"/><path class="cls-3" d="m228.33,147.7c3.79,1.26,7.57,5.05,10.1,11.36,2.52,5.05,3.79,11.36,2.52,15.15-3.79-1.26-7.57-5.05-10.1-11.36-2.52-5.05-3.79-10.1-2.52-15.15Z"/><path class="cls-3" d="m225.8,191.88c3.79-1.26,8.84,0,13.89,3.79,5.05,3.79,8.84,7.57,10.1,11.36-3.79,1.26-8.84,0-13.89-3.79-5.05-2.52-8.84-7.57-10.1-11.36Z"/><path class="cls-3" d="m235.9,209.56c3.79-1.26,8.84,0,13.89,3.79,5.05,3.79,8.84,7.57,10.1,11.36-3.79,1.26-8.84,0-13.89-3.79-5.05-2.52-8.84-6.31-10.1-11.36Z"/><path class="cls-3" d="m242.21,231.02c3.79-2.52,8.84-2.52,13.89-2.52,5.05,1.26,10.1,3.79,12.62,7.57-3.79,2.52-8.84,2.52-13.89,2.52-5.05-1.26-10.1-5.05-12.62-7.57Z"/><path class="cls-3" d="m445.46,786.48h-10.1c1.26-5.05,1.26-10.1,1.26-15.15v-29.04c0-7.57-1.26-8.84-3.79-8.84h-2.52l-3.79,1.26c-1.26,0-2.52,0-2.52,1.26h0l-1.26-1.26h0c0-1.26,1.26-2.52,1.26-5.05h0c2.52,0,3.79,0,6.31-1.26l8.84-2.52c1.26,0,3.79-1.26,5.05-1.26h0l1.26,1.26h0c-1.26,5.05-1.26,11.36-1.26,13.89v30.3c0,7.57,1.26,12.62,1.26,16.41h0Z"/><path class="cls-3" d="m509.84,786.48h0s-7.57,0-11.36,1.26h0l-1.26-1.26,30.3-50.5h-18.94c-2.52,0-6.31,0-10.1,2.52h-1.26c1.26-2.52,1.26-7.57,2.52-8.84h34.08c0,1.26,1.26,5.05,1.26,5.05h0c-5.05,5.05-10.1,15.15-15.15,23.99-6.31,12.62-8.84,20.2-10.1,27.77Z"/><path class="cls-3" d="m479.54,752.37c5.05-2.52,11.38-7.57,11.38-15.15,0-8.82-6.33-13.87-16.43-13.87s-17.67,7.57-17.67,16.39c0,7.57,5.05,11.38,10.1,15.15-7.57,5.08-12.62,8.85-12.62,17.7s7.57,15.15,17.67,15.15c11.38,0,20.2-7.57,20.2-17.67,0-8.85-6.3-13.9-12.62-17.7Zm-15.15-13.87c0-5.05,3.8-10.1,10.1-10.1s10.1,3.77,10.1,10.1-5.05,10.1-8.82,12.62c-6.33-3.8-11.38-6.33-11.38-12.62Zm8.85,44.2c-6.33,0-11.38-5.05-11.38-11.38,0-7.57,5.05-11.34,11.38-13.87,7.57,3.77,12.62,7.57,12.62,13.87-1.28,6.33-6.33,11.38-12.62,11.38Z"/><path class="cls-3" d="m562.85,753.65c5.05-2.52,11.38-7.57,11.38-15.15,0-8.85-6.33-13.9-16.43-13.9s-17.67,7.57-17.67,16.43c0,7.57,5.05,11.34,10.1,15.15-7.57,5.05-12.62,8.85-12.62,17.67s7.57,15.15,17.67,15.15c11.38,0,20.2-7.57,20.2-17.67,0-8.82-6.29-13.87-12.62-17.67Zm-15.15-13.9c0-5.05,3.8-10.1,10.1-10.1s10.1,3.8,10.1,10.1-5.05,10.1-8.82,12.62c-6.33-3.77-11.38-6.29-11.38-12.62Zm8.85,44.2c-6.33,0-11.38-5.05-11.38-11.34,0-7.57,5.05-11.38,11.38-13.9,7.57,3.8,12.62,7.57,12.62,13.9-1.28,6.3-6.33,11.34-12.62,11.34Z"/><path class="cls-3" d="m320.48,662.76c-1.26,3.79-5.05,16.41-5.05,17.67-17.67,0-30.3-1.26-40.4-1.26h-29.04c1.26-8.84,2.52-17.67,2.52-30.3v-50.5c0-7.57,0-23.99-3.79-30.3h69.43c-2.52,7.57-3.79,15.15-5.05,18.94-1.26,2.52-2.52,1.26-2.52,0-5.05-7.57-13.89-7.57-23.99-7.57h-10.1c0,2.52-1.26,10.1-1.26,17.67v16.41h12.62c10.1,0,18.94-1.26,22.72-1.26,1.26,0,1.26,1.26,1.26,1.26-1.26,3.79-2.52,10.1-3.79,13.89-10.1-1.26-16.41-1.26-22.72-1.26h-11.36v22.72c0,15.15,1.26,18.94,18.94,18.94,10.1,0,15.15,0,25.25-7.57,5.05-2.52,7.57-1.26,6.31,2.52Z"/><path class="cls-3" d="m368.45,662.76c-2.52,5.05-2.52,10.1-5.05,16.41h-18.94c-1.26-7.57-2.52-11.36-5.05-18.94l-10.1-31.56c-3.79-10.1-7.57-20.2-13.89-27.77,10.1,0,18.94,0,29.04-1.26,1.26,7.57,2.52,15.15,5.05,22.72l6.31,20.2c1.26,5.05,5.05,15.15,5.05,15.15,1.26-3.79,2.52-6.31,3.79-10.1l8.84-23.99c1.26-3.79,3.79-10.1,3.79-17.67v-7.57h10.1c3.79,0,8.84,0,11.36-1.26,2.52,0,1.26,1.26,1.26,2.52-5.05,7.57-10.1,16.41-13.89,26.51l-17.67,36.61Z"/><path class="cls-3" d="m497.22,679.17h-25.25c1.26-8.84,2.52-17.67,2.52-29.04v-18.94c0-7.57-1.26-21.46-3.79-30.3,6.31,0,15.15,0,22.72-1.26v18.94l6.31-7.57c7.57-10.1,12.62-12.62,20.2-12.62,2.52,0,3.79,0,6.31,1.26-2.52,7.57-5.05,16.41-6.31,21.46,0,1.26-1.26,2.52-2.52,1.26-2.52-3.79-3.79-5.05-7.57-5.05-5.05,0-8.84,2.52-11.36,6.31s-3.79,6.31-3.79,13.89v12.62c-1.26,16.41,0,21.46,2.52,29.04Z"/><path class="cls-3" d="m586.85,600.9c0,2.52-2.52,8.84-3.79,11.36-6.31-1.26-10.1-1.26-13.89-1.26h-7.57v35.35c0,12.62,1.26,21.46,12.62,21.46,3.79,0,6.31-1.26,10.1-2.52,1.26,0,2.52,0,1.26,1.26-1.26,3.79-2.52,6.31-2.52,11.36-10.1,2.52-13.89,3.79-18.94,3.79-13.89,0-22.72-6.31-22.72-25.25v-44.18c-3.79,0-8.84,0-11.36,1.26,0,0-1.26,0-1.26-1.26,0,0,2.52-7.57,2.52-10.1h10.1c0-6.31,0-10.1-1.26-15.15,6.31-1.26,16.41-6.31,20.2-8.84,1.26-1.26,2.52,0,2.52,2.52,0,1.26-1.26,7.57-1.26,21.46h11.36c3.79,0,8.84,0,12.62-1.26,0-1.26,1.26-1.26,1.26,0Z"/><path class="cls-3" d="m743.39,679.17h-12.62c1.26-8.84,2.52-18.94,2.52-30.3v-13.89c0-8.84-1.26-20.2-13.89-20.2-5.05,0-10.1,2.52-12.62,5.05-3.79,3.79-5.05,7.57-5.05,17.67v11.36c0,15.15,1.26,23.99,3.79,30.3h-25.25c1.26-8.84,2.52-18.94,2.52-30.3v-20.2c0-7.57-1.26-20.2-3.79-27.77,7.57,0,17.67,0,23.99-1.26v13.89l6.31-5.05c7.57-6.31,15.15-8.84,22.72-8.84,18.94,0,25.25,10.1,25.25,29.04v21.46c0,15.15,1.26,23.99,3.79,30.3-6.31-1.26-12.62-1.26-17.67-1.26Z"/><path class="cls-3" d="m459.34,662.77c-5.05,3.77-10.1,5.05-16.43,5.05-17.67,0-27.77-11.38-27.77-30.29h45.47c2.52,0,2.52-6.33,2.52-8.85,0-18.95-12.62-30.29-31.57-30.29-22.72,0-39.15,17.67-39.15,41.67s15.15,41.64,40.39,41.64c8.85,0,17.7-2.52,25.28-5.05,1.25-5.05,1.25-6.3,3.77-11.34,1.28-2.52-1.25-3.8-2.52-2.52Zm-29.05-54.29c7.57,0,12.62,5.05,12.62,12.62,0,5.05-2.52,7.57-10.1,7.57h-17.67c1.28-12.62,5.05-20.2,15.15-20.2Z"/><path class="cls-3" d="m632.29,598.38c-29.02,0-44.16,17.67-44.16,42.92s15.15,40.39,40.39,40.39c26.49,0,42.92-17.67,42.92-44.16s-13.9-39.15-39.15-39.15Zm-2.52,74.49c-12.62,0-18.92-11.38-18.92-34.1,0-18.92,5.05-31.57,18.92-31.57,12.62,0,18.95,11.38,18.95,34.1,0,20.2-6.33,31.57-18.95,31.57Z"/><path class="cls-3" d="m609.57,289.08c0-8.82-6.3-16.39-20.2-22.72l-79.54-167.9c2.52-6.29-2.52-13.87-8.82-13.87s-11.38,7.57-7.57,13.87l-79.54,169.18c-16.43,8.82-18.95,18.92-16.43,26.49,0,0,1.28,5.05,8.85,7.57v137.6c-3.8,0-6.33,1.28-6.33,7.57v30.33c0,6.29,6.33,8.82,6.33,8.82,0,0,151.47,54.29,156.52,55.54,7.57,2.52,13.9,5.05,20.2,7.57,2.52,1.28,2.52,2.52,2.52,6.33v7.57h6.33c15.15,0,12.62-7.57,13.9-30.29,0-24,0-30.29-6.33-31.57,0-61.87,1.28-170.42,0-200.72,5.05-2.52,8.85-6.33,10.1-11.38Zm-107.31-172.95c2.52,6.33,5.05,12.62,8.85,18.95-2.52,0-8.85,0-11.38,1.25-2.52,0-2.52,1.28-2.52,2.52s1.28,1.28,2.52,1.28h13.9c1.25,2.52,1.25,3.77,2.52,6.29-2.52,1.28-5.05,1.28-6.33,2.52-1.25,0-2.52,1.28-2.52,2.52s1.28,1.28,2.52,1.28h8.85c1.25,3.77,2.52,6.29,3.77,8.82,1.28,2.52-2.52,2.52-5.05,2.52s-11.34,0-15.15,1.28c-1.25,0-2.52,1.25-2.52,1.25,0,1.28,1.28,1.28,2.52,1.28,5.05,0,11.38,1.25,15.15,1.25,2.52,0,6.33,1.28,8.85,2.52,1.25,2.52,2.52,3.8,2.52,6.33,0,1.25-1.28,1.25-2.52,2.52h-15.15c-2.52,0-2.52,1.25-2.52,1.25q0,1.28,2.52,1.28c3.77,0,11.34,1.25,13.87,1.25s6.33,1.28,8.85,2.52c1.25,3.8,2.52,6.33,3.77,8.85,1.28,1.28,0,2.52-1.25,2.52h-18.95c-1.25,0-3.77,0-3.77,2.52,0,1.28,1.25,2.52,5.05,2.52s17.67,1.28,25.25,6.33c2.52,3.77,3.77,8.82,6.29,12.62-5.05,0-25.24-2.52-32.82-1.28-7.57,0-10.1,0-11.34,1.28,0,1.25,1.25,2.52,6.29,2.52s29.05,2.52,42.92,7.57c2.52,5.05,5.05,10.1,6.33,15.15-7.57-1.28-22.72-3.8-32.82-3.8-3.8,0-5.05,1.28-5.05,2.52s3.77,1.28,6.29,2.52c12.62,1.28,29.05,5.05,36.62,7.57,1.25,1.28,1.25,2.52,1.25,3.8-22.72-5.05-54.26-6.33-68.16-6.33s-44.16,2.52-65.64,7.57c6.29-15.15,46.72-99.73,68.16-145.18Zm-60.59,371.17c-7.57-1.28-11.38-2.52-18.95-5.05-1.25,0-1.25-1.28-1.25-1.28v-29.05q0-1.25,1.25-1.25c6.33,2.52,10.1,3.77,17.67,6.3,1.28,0,1.28,1.28,1.28,1.28v29.05Zm29.05,10.1c-7.57-1.28-11.38-2.52-18.95-5.05-1.25,0-1.25-1.28-1.25-1.28v-27.77q0-1.28,1.25-1.28c6.33,2.52,10.1,3.8,17.67,6.33,1.28,0,1.28,1.25,1.28,1.25v27.8Zm29.02,10.1c-7.57-1.28-11.34-2.52-18.92-5.05-1.28,0-1.28-1.28-1.28-1.28v-27.77q0-1.28,1.28-1.28c6.29,2.56,10.1,3.8,17.67,6.33,1.25,0,1.25,1.28,1.25,1.28v27.77Zm29.05,10.1c-7.57-1.28-11.38-2.52-18.95-5.05-1.25,0-1.25-1.28-1.25-1.28v-29.02q0-1.28,1.25-1.28c6.33,2.52,10.1,3.8,17.67,5.05,1.28,0,1.28,1.28,1.28,1.28v30.29Zm29.02,10.1c-7.57-1.28-11.34-2.52-18.92-5.05-1.28,0-1.28-1.28-1.28-1.28v-29.02q0-1.28,1.28-1.28c6.29,2.52,10.1,2.52,17.67,5.05,1.25,0,1.25,1.28,1.25,1.28v30.29Zm27.77,10.1c-7.57-1.28-11.34-2.52-18.92-5.05-1.28,0-1.28-1.28-1.28-1.28v-30.29q0-1.25,1.28-1.25c6.29,2.52,10.1,2.52,17.67,5.05,1.25,0,1.25,1.25,1.25,1.25v31.57Zm0-69.44s-6.29-2.52-17.67-3.8c-3.77,0-12.62-1.25-15.15-1.25s-3.77,0-3.77,2.52,3.77,2.52,6.3,2.52c1.28,0,6.33,0,15.15,1.25,6.33,1.28,15.15,3.8,15.15,3.8v20.2c-34.06-7.57-78.26-21.47-113.6-34.1-34.1-11.34-49.24-17.67-49.24-27.77,0-6.3-1.25-31.54,0-37.87l-1.25-94.69c0-2.52,5.05-5.05,8.82-5.05,3.8-1.25,29.05-6.29,70.72-6.29s70.69,5.05,78.26,7.57c1.25,1.25,3.77,1.25,5.05,2.52v7.57c-7.57-1.28-34.1-5.05-45.44-5.05-5.05,0-12.62,0-18.95-1.28q0-1.25-1.25-2.52s-1.28-1.25-2.52-1.25h-35.34q-1.28,0-2.52,1.25s-1.28,1.28-1.28,2.52l2.52,36.62h-1.25c-7.57,0-36.62,5.05-39.15,5.05-2.52,1.28-3.8,1.28-2.52,2.52,0,1.28,2.52,1.28,5.05,1.28,15.15-1.28,27.77-2.52,39.15-2.52v6.29c0,1.28,1.25,2.52,2.52,2.52h29.02c1.28,0,2.52-1.25,3.8-2.52v-6.29h7.57c21.44,1.25,47.97,6.29,60.59,12.62v8.82c-6.33-1.25-24-5.05-31.57-5.05h-13.87c-1.28,0-2.52,1.28-2.52,2.52s1.25,1.28,2.52,1.28,27.77,1.25,44.16,12.62v8.82c-8.82-1.25-40.39-7.57-60.59-8.82-27.77-1.28-61.83,2.52-65.64,2.52-2.52,0-3.77,1.25-3.77,2.52s1.25,2.52,5.05,1.25c2.52,0,53.01-2.52,79.51,1.28,21.47,2.52,36.62,6.29,45.44,11.34v11.38c-8.82-1.28-27.77-5.05-36.59-6.33-20.2-1.25-32.82-1.25-34.1-1.25-2.52,0-2.52,1.25-2.52,2.52s1.28,1.25,2.52,1.25c2.52,0,17.67,0,32.82,2.52,10.1,1.28,26.52,3.8,37.87,10.1v11.38c-6.29-1.28-16.39-1.28-21.44-2.52h-13.9c-1.25,0-2.52,1.25-1.25,2.52,0,1.25,1.25,1.25,2.52,1.25s11.34,0,17.67,1.28c5.05,1.25,12.62,2.52,16.39,5.05v13.87s-12.62-3.77-23.97-5.05c-11.38-1.25-21.47,0-29.05,0-1.25,0-2.52,0-2.52,2.52s2.52,1.28,3.8,1.28c6.29,0,11.34,0,22.72,1.25,16.39,1.28,31.54,6.33,31.54,7.57v13.9Zm-40.39-146.45c1.28,0,27.77,1.28,39.15,10.1v11.38c-7.57-1.25-24-5.05-44.2-7.57-5.05,0-10.1-1.25-16.39-1.25h-6.33l1.28-30.33c7.57,0,16.39,1.28,22.72,2.52,11.34,1.28,32.82,5.05,41.64,8.85v7.57c-5.05-1.28-13.87-3.8-21.44-3.8-8.85-1.25-16.43-1.25-17.67-1.25s-3.8,0-3.8,2.52c2.52,1.25,3.8,1.25,5.05,1.25Zm-32.82-17.67l-2.52,39.15h-20.2l-2.52-39.15h25.25Zm78.29-16.39c-1.28,2.52-5.08,1.25-8.85,0-3.8-1.28-32.82-12.62-82.06-12.62s-75.74,10.1-79.54,10.1c-3.77,1.25-8.82,3.77-11.34-1.28-1.28-3.77,0-6.3,6.3-8.82,5.05-2.52,45.47-11.38,84.59-11.38s77.01,7.57,87.11,15.15c3.8,2.52,6.33,6.33,3.8,8.85Z"/><path class="cls-3" d="m628.51,203.25c5.05,3.79,10.1,3.79,13.89,3.79-1.26-3.79-5.05-8.84-10.1-11.36-5.05-3.79-10.1-3.79-13.89-3.79,1.26,3.79,5.05,8.84,10.1,11.36Z"/><path class="cls-3" d="m652.49,205.77c-1.26,3.79,0,10.1,2.52,16.41,2.52,6.31,6.31,10.1,10.1,11.36,1.26-3.79,0-10.1-2.52-16.41-2.52-5.05-6.31-10.1-10.1-11.36Z"/><path class="cls-3" d="m633.56,175.47c1.26-3.79,0-10.1-2.52-15.15-2.52-5.05-6.31-10.1-10.1-11.36-1.26,3.79,0,10.1,2.52,15.15,2.52,5.05,7.57,8.84,10.1,11.36Z"/><path class="cls-3" d="m660.07,128.76c3.79-5.05,5.05-11.36,3.79-15.15-3.79,1.26-7.57,5.05-11.36,10.1-3.79,5.05-5.05,11.36-3.79,15.15,3.79-1.26,8.84-5.05,11.36-10.1Z"/><path class="cls-3" d="m652.49,150.22c3.79-3.79,6.31-7.57,7.57-11.36-3.79,0-7.57,1.26-12.62,5.05-3.79,3.79-6.31,7.57-7.57,11.36,5.05,0,8.84-1.26,12.62-5.05Z"/><path class="cls-3" d="m637.34,162.85c2.52-3.79,2.52-10.1,2.52-16.41-1.26-6.31-3.79-11.36-6.31-13.89-2.52,3.79-2.52,10.1-2.52,16.41s2.52,11.36,6.31,13.89Z"/><path class="cls-3" d="m646.18,130.03c0-6.31-1.26-12.62-3.79-15.15-2.52,2.52-5.05,8.84-5.05,15.15s1.26,12.62,3.79,15.15c2.52-3.79,5.05-8.84,5.05-15.15Z"/><path class="cls-3" d="m743.39,150.22c3.79,3.79,8.84,5.05,12.62,5.05,0-3.79-2.52-8.84-7.57-11.36-3.79-3.79-8.84-5.05-12.62-5.05,0,3.79,2.52,7.57,7.57,11.36Z"/><path class="cls-3" d="m732.02,249.95c6.31,1.26,11.36,0,13.89-2.52-2.52-3.79-7.57-6.31-12.62-6.31-6.31-1.26-11.36,0-13.89,2.52,1.26,2.52,6.31,5.05,12.62,6.31Z"/><path class="cls-3" d="m747.17,138.86c0-3.79-1.26-10.1-3.79-15.15-3.79-5.05-7.57-8.84-11.36-10.1,0,3.79,1.26,10.1,3.79,15.15,2.52,5.05,7.57,8.84,11.36,10.1Z"/><path class="cls-3" d="m740.86,222.18c2.52-6.31,3.79-11.36,2.52-16.41-3.79,1.26-7.57,6.31-10.1,11.36-2.52,6.31-3.79,11.36-2.52,16.41,3.79-2.52,7.57-6.31,10.1-11.36Z"/><path class="cls-3" d="m754.75,145.17c2.52-3.79,3.79-8.84,3.79-15.15s-2.52-11.36-5.05-15.15c-2.52,3.79-3.79,8.84-3.79,15.15,0,6.31,1.26,11.36,5.05,15.15Z"/><path class="cls-3" d="m758.53,162.85c2.52-2.52,5.05-7.57,6.31-13.89s0-12.62-2.52-16.41c-2.52,2.52-5.05,7.57-6.31,13.89,0,7.57,1.26,12.62,2.52,16.41Z"/><path class="cls-3" d="m759.8,180.52c0-3.79,0-8.84-3.79-13.89-2.52-5.05-6.31-8.84-10.1-8.84,0,3.79,0,8.84,3.79,13.89,2.52,3.79,6.31,7.57,10.1,8.84Z"/><path class="cls-3" d="m762.32,175.47c3.79-1.26,7.57-5.05,10.1-11.36,2.52-5.05,3.79-11.36,2.52-15.15-3.79,1.26-7.57,5.05-10.1,11.36-3.79,5.05-3.79,10.1-2.52,15.15Z"/><path class="cls-3" d="m744.65,194.41c-1.26,6.31,0,12.62,2.52,16.41,2.52-2.52,5.05-7.57,6.31-13.89s0-12.62-2.52-16.41c-2.52,2.52-5.05,7.57-6.31,13.89Z"/><path class="cls-3" d="m620.93,171.69c0,3.79,1.26,10.1,5.05,15.15,3.79,5.05,8.84,7.57,12.62,8.84,0-3.79-1.26-10.1-5.05-15.15-3.79-5.05-8.84-7.57-12.62-8.84Z"/><path class="cls-3" d="m647.44,237.33c5.05,1.26,11.36,0,13.89-2.52-2.52-3.79-7.57-6.31-12.62-7.57s-11.36,0-13.89,2.52c2.52,3.79,7.57,7.57,12.62,7.57Z"/><path class="cls-3" d="m718.14,241.12c5.05-3.79,7.57-8.84,8.84-12.62-3.79,0-8.84,1.26-13.89,5.05-5.05,3.79-7.57,8.84-8.84,12.62,3.79,0,8.84-2.52,13.89-5.05Z"/><path class="cls-3" d="m628.51,209.56c1.26,3.79,5.05,8.84,10.1,11.36,5.05,3.79,10.1,3.79,13.89,3.79-1.26-3.79-5.05-8.84-10.1-11.36s-10.1-3.79-13.89-3.79Z"/><path class="cls-3" d="m646.18,170.42c2.52-5.05,3.79-10.1,3.79-13.89-3.79,1.26-7.57,5.05-10.1,8.84-2.52,5.05-3.79,10.1-3.79,13.89,3.79,0,7.57-3.79,10.1-8.84Z"/><path class="cls-3" d="m648.71,210.82c2.52-3.79,2.52-10.1,2.52-16.41-1.26-6.31-3.79-11.36-6.31-13.89-2.52,3.79-2.52,10.1-2.52,16.41,1.26,5.05,3.79,10.1,6.31,13.89Z"/><path class="cls-3" d="m649.97,246.17c3.79,2.52,8.84,3.79,13.89,2.52,6.31-1.26,10.1-3.79,12.62-6.31-3.79-2.52-8.84-3.79-13.89-2.52-5.05,1.26-10.1,3.79-12.62,6.31Z"/><path class="cls-3" d="m680.27,247.43c-5.05,1.26-10.1,5.05-12.62,7.57,3.79,2.52,8.84,2.52,13.89,1.26,5.05-1.26,10.1-3.79,12.62-7.57,1.26,0,1.26,1.26,2.52,2.52-6.31,3.79-11.36,8.84-15.15,13.89,1.26,2.52,2.52,3.79,5.05,7.57,3.79-7.57,7.57-15.15,12.62-20.2,5.05,5.05,10.1,12.62,12.62,20.2,1.26-2.52,2.52-3.79,5.05-7.57-5.05-6.31-10.1-11.36-16.41-15.15q1.26-1.26,2.52-2.52c2.52,3.79,6.31,6.31,12.62,7.57,5.05,1.26,11.36,1.26,13.89-1.26-2.52-3.79-6.31-6.31-12.62-7.57-5.05-1.26-8.84-1.26-12.62,0h0c-1.26,1.26-2.52,1.26-5.05,2.52l-5.05-2.52c-5.05,0-8.84,0-13.89,1.26Z"/><path class="cls-3" d="m677.74,241.12c5.05,3.79,10.1,5.05,13.89,5.05-1.26-3.79-3.79-8.84-8.84-12.62s-10.1-5.05-13.89-5.05c0,3.79,3.79,8.84,8.84,12.62Z"/><path class="cls-3" d="m769.9,186.83c3.79-5.05,5.05-10.1,5.05-15.15-3.79,1.26-8.84,3.79-12.62,8.84-3.79,5.05-5.05,10.1-5.05,15.15,3.79-1.26,8.84-3.79,12.62-8.84Z"/><path class="cls-3" d="m753.48,213.34c-5.05,3.79-8.84,7.57-10.1,11.36,3.79,1.26,8.84,0,13.89-3.79,5.05-3.79,8.84-7.57,10.1-11.36-3.79,0-8.84,1.26-13.89,3.79Z"/><path class="cls-3" d="m762.32,195.67c-5.05,3.79-8.84,7.57-10.1,11.36,3.79,1.26,8.84,0,13.89-3.79,5.05-3.79,8.84-7.57,10.1-11.36-2.52-1.26-8.84,0-13.89,3.79Z"/><path class="cls-3" d="m745.91,228.49c-5.05,1.26-10.1,3.79-12.62,7.57,3.79,2.52,8.84,2.52,13.89,2.52,5.05-1.26,10.1-3.79,12.62-7.57-2.52-2.52-7.57-3.79-13.89-2.52Z"/><path class="cls-3" d="m774.95,147.7c1.26,3.79,0,10.1-2.52,15.15-2.52,5.05-6.31,10.1-10.1,11.36-1.26-3.79,0-10.1,2.52-15.15,2.52-5.05,6.31-10.1,10.1-11.36Z"/><path class="cls-3" d="m749.7,170.42c-2.52-5.05-3.79-10.1-3.79-13.89,3.79,1.26,7.57,5.05,10.1,8.84,2.52,5.05,3.79,10.1,3.79,13.89-3.79,0-7.57-3.79-10.1-8.84Z"/><path class="cls-3" d="m753.48,195.67c-1.26,6.31-3.79,11.36-6.31,13.89-2.52-3.79-2.52-10.1-2.52-16.41,1.26-6.31,3.79-11.36,6.31-13.89,2.52,5.05,3.79,10.1,2.52,16.41Z"/><path class="cls-3" d="m762.32,180.52c3.79-5.05,8.84-7.57,12.62-8.84,0,3.79-1.26,10.1-5.05,15.15-3.79,5.05-8.84,7.57-12.62,8.84,0-5.05,1.26-10.1,5.05-15.15Z"/><path class="cls-3" d="m763.58,132.55c2.52,3.79,2.52,10.1,2.52,16.41-1.26,6.31-3.79,11.36-6.31,13.89-2.52-3.79-2.52-10.1-2.52-16.41,1.26-5.05,3.79-11.36,6.31-13.89Z"/><path class="cls-3" d="m752.22,114.88c2.52,2.52,5.05,8.84,5.05,15.15s-1.26,12.62-3.79,15.15c-2.52-2.52-5.05-8.84-5.05-15.15s1.26-12.62,3.79-15.15Z"/><path class="cls-3" d="m754.75,155.27c-3.79,0-7.57-1.26-12.62-5.05-3.79-3.79-6.31-7.57-7.57-11.36,3.79,0,7.57,1.26,12.62,5.05,5.05,3.79,7.57,7.57,7.57,11.36Z"/><path class="cls-3" d="m730.76,113.61c3.79,1.26,7.57,5.05,11.36,10.1,3.79,5.05,5.05,11.36,3.79,15.15-3.79-1.26-7.57-5.05-11.36-10.1-2.52-5.05-3.79-11.36-3.79-15.15Z"/><path class="cls-3" d="m733.29,217.13c2.52-6.31,6.31-10.1,10.1-11.36,1.26,3.79,0,10.1-2.52,16.41s-6.31,10.1-10.1,11.36c-1.26-5.05,0-10.1,2.52-16.41Z"/><path class="cls-3" d="m733.29,239.85c6.31,1.26,10.1,3.79,12.62,6.31-2.52,2.52-8.84,3.79-13.89,3.79-6.31-1.26-10.1-3.79-12.62-6.31,2.52-2.52,7.57-3.79,13.89-3.79Z"/><path class="cls-3" d="m713.09,232.28c5.05-3.79,10.1-5.05,13.89-5.05-1.26,3.79-3.79,8.84-8.84,12.62-5.05,3.79-10.1,5.05-13.89,5.05,1.26-3.79,5.05-8.84,8.84-12.62Z"/><path class="cls-3" d="m697.94,249.95c1.26-1.26,2.52-1.26,5.05-2.52h0c3.79-1.26,7.57-1.26,12.62,0s10.1,5.05,12.62,7.57c-3.79,2.52-8.84,2.52-13.89,1.26-5.05-1.26-10.1-3.79-12.62-7.57q-1.26,1.26-2.52,2.52c6.31,3.79,11.36,8.84,16.41,15.15-1.26,2.52-2.52,3.79-5.05,7.57-3.79-7.57-7.57-15.15-12.62-20.2-5.05,5.05-8.84,12.62-12.62,20.2-1.26-2.52-2.52-3.79-5.05-7.57,5.05-6.31,10.1-11.36,15.15-13.89q0-2.52-1.26-3.79c-2.52,3.79-6.31,6.31-12.62,7.57-5.05,1.26-11.36,1.26-13.89-1.26,2.52-3.79,6.31-6.31,12.62-7.57,5.05-1.26,8.84-1.26,12.62,0,2.52,1.26,5.05,2.52,5.05,2.52Z"/><path class="cls-3" d="m681.53,232.28c5.05,3.79,7.57,8.84,8.84,12.62-3.79,0-8.84-1.26-13.89-5.05-5.05-3.79-7.57-8.84-8.84-12.62,5.05,0,10.1,1.26,13.89,5.05Z"/><path class="cls-3" d="m676.48,243.64c-2.52,3.79-7.57,6.31-12.62,6.31-6.31,1.26-11.36,0-13.89-2.52,2.52-3.79,7.57-6.31,12.62-6.31,6.31-1.26,11.36,0,13.89,2.52Z"/><path class="cls-3" d="m636.08,180.52c0-3.79,0-8.84,3.79-13.89,2.52-5.05,6.31-8.84,10.1-8.84,0,3.79,0,8.84-3.79,13.89-2.52,3.79-6.31,7.57-10.1,8.84Z"/><path class="cls-3" d="m638.61,195.67c-3.79-1.26-8.84-3.79-12.62-8.84-3.79-5.05-5.05-10.1-5.05-15.15,3.79,1.26,8.84,3.79,12.62,8.84,2.52,5.05,5.05,10.1,5.05,15.15Z"/><path class="cls-3" d="m644.92,180.52c2.52,2.52,5.05,7.57,6.31,13.89,1.26,6.31,0,12.62-2.52,16.41-2.52-2.52-5.05-7.57-6.31-13.89-1.26-7.57,0-12.62,2.52-16.41Z"/><path class="cls-3" d="m652.49,225.97c-3.79,1.26-8.84,0-13.89-3.79-5.05-3.79-8.84-7.57-10.1-11.36,3.79-1.26,8.84,0,13.89,3.79,5.05,2.52,8.84,6.31,10.1,11.36Z"/><path class="cls-3" d="m649.97,228.49c5.05,1.26,10.1,3.79,12.62,7.57-3.79,2.52-8.84,2.52-13.89,2.52-5.05-1.26-10.1-3.79-12.62-7.57,2.52-2.52,7.57-3.79,13.89-2.52Z"/><path class="cls-3" d="m665.12,233.54c-3.79-1.26-7.57-6.31-10.1-11.36-2.52-6.31-3.79-11.36-2.52-16.41,3.79,1.26,7.57,6.31,10.1,11.36,2.52,6.31,2.52,11.36,2.52,16.41Z"/><path class="cls-3" d="m653.76,122.45c3.79-5.05,7.57-8.84,11.36-10.1,0,3.79-1.26,10.1-3.79,15.15-3.79,5.05-7.57,8.84-11.36,10.1-1.26-3.79,0-8.84,3.79-15.15Z"/><path class="cls-3" d="m648.71,143.91c3.79-3.79,8.84-5.05,12.62-5.05,0,3.79-2.52,8.84-7.57,11.36-3.79,3.79-8.84,5.05-12.62,5.05,0-3.79,2.52-7.57,7.57-11.36Z"/><path class="cls-3" d="m637.34,128.76c0-6.31,2.52-11.36,5.05-15.15,2.52,3.79,3.79,8.84,3.79,15.15s-2.52,11.36-5.05,15.15c-2.52-2.52-3.79-7.57-3.79-15.15Z"/><path class="cls-3" d="m632.29,132.55c2.52,2.52,5.05,7.57,6.31,13.89,1.26,6.31,0,12.62-2.52,16.41-2.52-2.52-5.05-7.57-6.31-13.89,0-6.31,0-12.62,2.52-16.41Z"/><path class="cls-3" d="m620.93,147.7c3.79,1.26,7.57,5.05,10.1,11.36,2.52,5.05,3.79,11.36,2.52,15.15-3.79-1.26-7.57-5.05-10.1-11.36-2.52-5.05-3.79-10.1-2.52-15.15Z"/><path class="cls-3" d="m747.17,237.33c-5.05,1.26-11.36,0-13.89-2.52,2.52-3.79,7.57-6.31,12.62-7.57s11.36,0,13.89,2.52c-1.26,3.79-6.31,7.57-12.62,7.57Z"/><path class="cls-3" d="m757.27,222.18c-5.05,3.79-10.1,3.79-13.89,3.79,1.26-3.79,5.05-8.84,10.1-11.36,5.05-3.79,10.1-3.79,13.89-3.79-1.26,3.79-5.05,7.57-10.1,11.36Z"/><path class="cls-3" d="m767.37,203.25c-5.05,3.79-10.1,3.79-13.89,3.79,1.26-3.79,5.05-8.84,10.1-11.36,5.05-3.79,10.1-3.79,13.89-3.79-1.26,3.79-5.05,8.84-10.1,11.36Z"/><path class="cls-3" d="m632.29,195.67c5.05,3.79,8.84,7.57,10.1,11.36-3.79,1.26-8.84,0-13.89-3.79-5.05-3.79-8.84-7.57-10.1-11.36,3.79-1.26,10.1,0,13.89,3.79Z"/></g><g id="Calque_2-2"><path class="cls-3" d="m946.8,599.63l32.82,15.14c1.24,0,2.52,1.28,3.77,1.28,2.52,0,5.05-1.28,7.57-3.8,1.28-1.25,3.81-5.05,5.05-11.35,3.8-8.85,3.8-16.42,2.53-22.72-2.53-6.32-6.3-11.37-13.87-15.14l-85.84-40.4c-1.8-1.18-4.98-2.39-9.05-2.39-4.55,0-10.19,1.51-16.19,6.16v-11.34c0-21.47-3.8-49.24-6.33-66.92-3.8-22.72-11.38-49.24-16.42-64.39l-5.05-13.87c-3.77-8.85-6.3-18.95-8.82-27.77-8.86-30.32-15.15-58.09-15.15-74.48,0-27.77,25.24-73.22,58.06-102.26l15.15-13.91L735.99,2.53l-12.66,7.57c-29.01,18.92-65.64,29.02-103.5,29.02-40.4,0-78.26-11.35-107.31-31.54l-11.35-7.58-11.35,7.58c-29.05,20.19-66.91,31.54-107.31,31.54-37.86,0-74.49-10.1-103.5-29.02l-12.66-7.57L107.31,151.47l15.15,13.91c32.82,29.04,58.06,74.49,58.06,102.26,0,16.39-6.29,44.16-15.15,74.48-2.52,8.82-5.05,18.92-8.82,27.77l-5.05,13.87c-5.04,15.15-12.62,41.67-16.42,64.39-2.53,17.68-6.33,45.45-6.33,66.92v11.34c-6-4.65-11.64-6.16-16.19-6.16-4.07,0-7.25,1.21-9.05,2.39l-85.84,40.4c-7.57,3.77-11.34,8.82-13.87,15.14-1.27,6.3-1.27,13.87,2.53,22.72,1.24,6.3,3.77,10.1,5.05,11.35,2.52,2.52,5.05,3.8,7.57,3.8,1.25,0,2.53-1.28,3.77-1.28l32.82-15.14c3.8,6.32,6.33,12.62,7.57,16.42L.39,641.13l3.41,9.02c39.12,100.98,106.03,185.57,191.87,247.43,39.77,29.02,83.31,51.77,129.08,68,45.76,16.26,93.76,26.03,142.35,29.18l34.07,32.82,34.07-32.82c48.59-3.15,96.59-12.92,142.35-29.18,45.77-16.23,89.31-38.98,129.08-68,85.84-61.86,152.75-146.45,191.87-247.43l3.41-9.02-62.72-25.08c1.24-3.8,3.77-10.1,7.57-16.42Zm-42.92-34.07c2.53-8.85,3.77-16.43,2.53-24v-1.24l-1.28-3.81,73.21,34.1c3.8,2.52,7.57,5.05,7.57,8.82,2.53,7.57-2.52,18.95-5.05,22.72l-1.24,1.28-78.26-35.34,2.52-2.53Zm-34.09-18.95c6.32-8.82,11.37-15.15,17.67-15.15l3.8,1.28c2.52,1.25,5.05,5.05,5.05,10.1,1.24,6.29,0,13.87-2.53,20.2v1.24c-.32.95-.49,2-.49,3.02,0,3.08,1.45,6.16,4.26,7.08l6.33,2.52,30.3,13.91-7.58,17.67-45.44-17.67c-1.28,0-2.52-1.28-3.8-1.28-3.77,0-6.3,1.28-8.82,5.05-.66,1.27-1.9,3.14-3.48,4.72-1.6,1.6-3.47,2.85-5.37,2.85h-2.53c6.3-16.39,10.1-35.34,12.63-55.54Zm-20.2,83.34c.62-1.24,1.57-3.8,2.52-6.29.95-2.56,1.87-5.05,2.53-6.33h7.57c6.33-1.28,12.62-8.85,15.15-12.66h1.28l3.77,1.28,3.8,1.25c-3.8,8.85-8.85,21.47-13.9,31.57l-22.72-8.82Zm17.67,17.67c-30.29,59.31-74.49,111.08-130.03,150.23-63.11,44.16-136.32,70.68-212.09,74.46l24-23.97c87.11-10.1,167.9-47.97,227.24-108.59,29.01-30.29,53.01-64.36,69.41-100.98l21.47,8.85ZM146.91,480.48c1.12-11.18,2.69-22.26,4.59-31.08,3.78-22.72,11.35-47.97,16.4-61.83l5.05-13.91c3.8-10.09,7.57-20.19,10.09-29.01,8.86-31.57,15.15-61.87,15.15-80.82,0-17.67-7.24-38.82-18.75-59.5-11.54-20.66-27.31-40.86-44.36-56.63L265.11,27.77c31.57,20.2,70.68,32.82,114.88,32.82,46.72,0,89.64-15.18,121.18-36.62,31.54,21.44,74.46,36.62,121.18,36.62,44.2,0,83.31-12.62,114.88-32.82l130.03,119.93c-17.05,15.77-32.82,35.97-44.36,56.63-11.51,20.68-18.75,41.83-18.75,59.5,0,18.95,6.29,49.25,15.15,80.82,2.52,8.82,6.29,18.92,10.09,29.01l5.05,13.91c5.05,13.86,12.62,39.11,16.4,61.83,1.9,8.82,3.47,19.9,4.59,31.08,1.11,11.21,1.73,22.59,1.73,32.07,0,165.37-142.66,301.69-318.13,318.12l-37.86,37.85-37.86-37.85c-175.47-16.43-318.13-152.75-318.13-318.12,0-9.48.62-20.86,1.73-32.07Zm9.64,158.29c16.4,36.62,40.4,70.69,69.41,100.98,59.34,60.62,140.13,98.49,227.24,108.59l24,23.97c-75.77-3.78-148.98-30.3-212.09-74.46-55.54-39.15-99.74-90.92-130.03-150.23l21.47-8.85Zm-26.52,0c-5.05-10.1-10.1-22.72-13.9-31.57l3.8-1.25,3.77-1.28h1.28c2.53,3.81,8.82,11.38,15.15,12.66h7.57c.66,1.28,1.58,3.77,2.53,6.33.95,2.49,1.9,5.05,2.52,6.29l-22.72,8.82Zm-25.24-64.39c2.81-.92,4.26-4,4.26-7.08,0-1.02-.17-2.07-.49-3.02v-1.24c-2.53-6.33-3.77-13.91-2.53-20.2,0-5.05,2.53-8.85,5.05-10.1l3.8-1.28c6.3,0,11.35,6.33,17.67,15.15,2.53,20.2,6.33,39.15,12.63,55.54h-2.53c-1.9,0-3.77-1.25-5.37-2.85-1.58-1.58-2.82-3.45-3.48-4.72-2.52-3.77-5.05-5.05-8.82-5.05-1.28,0-2.52,1.28-3.8,1.28l-45.44,17.67-7.58-17.67,30.3-13.91,6.33-2.52Zm-82.07,29.05l-1.24-1.28c-2.53-3.77-7.58-15.15-5.05-22.72,0-3.77,3.77-6.3,7.57-8.82l73.21-34.1-1.28,3.81v1.24c-1.24,7.57,0,15.15,2.53,24l2.52,2.53-78.26,35.34Zm965.72,44.19l-1.25,2.53c-37.87,97.18-103.5,179.24-186.84,239.83-79.54,56.81-172.95,89.63-270.16,94.68l-29.02,29.05-29.02-29.05c-97.21-5.05-190.62-37.87-270.16-94.68-83.34-60.59-148.97-142.65-186.84-239.83l-1.25-2.53,92.13-36.62,1.28,2.53c31.57,78.26,83.31,146.45,151.47,194.42,68.19,47.96,147.7,74.45,231.04,76.98h1.25l10.1,10.1,10.1-10.1h1.25c83.34-2.53,162.85-29.02,231.04-76.98,68.16-47.97,119.9-116.16,151.47-194.42l1.28-2.53,92.13,36.62Z"/></g></svg>