<?xml version="1.0" encoding="UTF-8"?><svg id="Calque_2" xmlns="http://www.w3.org/2000/svg" viewBox="0 0 1064.79 1064.79"><defs><style>.cls-1{fill:#00308f;}.cls-2{fill:#fff;}.cls-3{fill:#fdb912;}.cls-4{fill:#20419a;}</style></defs><g id="Calque_1-2"><path id="path18" class="cls-2" d="m532.39,1064.79c294.03,0,532.39-238.36,532.39-532.39S826.43,0,532.39,0,0,238.36,0,532.39h0c0,294.03,238.36,532.39,532.39,532.39h0"/><path id="path20" class="cls-1" d="m532.39,1045.74c283.51,0,513.34-229.83,513.34-513.34S815.91,19.05,532.39,19.05,19.05,248.88,19.05,532.39h0c0,283.51,229.83,513.34,513.34,513.34"/><path id="path24" class="cls-2" d="m532.39,1012.7c265.26,0,480.3-215.04,480.3-480.3S797.66,52.09,532.39,52.09,52.09,267.13,52.09,532.39h0c0,265.26,215.04,480.3,480.3,480.3"/><path id="path28" class="cls-2" d="m532.39,865.52c183.98,0,333.13-149.15,333.13-333.13s-149.15-333.13-333.13-333.13-333.13,149.15-333.13,333.13h0c0,183.98,149.15,333.13,333.13,333.13"/><path id="path30" class="cls-1" d="m523.63,223.88c-6.91,37.76-52.26,37.59-77.38,57.66-13.11,10.42-22.17,25.09-25.63,41.47-23.77-12.14-46.87-30.01-71.65-39.79,50.02-38.64,111.45-59.57,174.66-59.51"/><path id="path32" class="cls-1" d="m709.92,278.84l-60.02,39.45c-6.91-42.82-54.45-55.46-87.16-68.95-6.57-7.08-16.86-15.68-12.64-25.46,57.45,2.56,112.94,21.65,159.82,54.96"/><path id="path34" class="cls-1" d="m553.97,259.12c30.68,16.86,79.24,22.42,85.81,66.25-1.35,4.72-6.91,6.57-9.78,8.77-2.7-57.82-70.81-46.7-92.72-90.53-22.76,44.34-96.09,35.91-95.08,96.94-5.23-2.36-14.5-7.92-9.27-16.86,12.64-49.06,70.81-45.69,98.79-79.24l4.21-16.86c2.18,12.51,8.61,23.88,18.21,32.2"/><path id="path42" class="cls-1" d="m316.6,364.82c-29.33,16.86-37.59,63.22-74.85,59.51,16.81-46.33,45.19-87.59,82.44-119.86-8.66,18.86-11.31,39.93-7.59,60.35"/><path id="path36" class="cls-1" d="m538.13,278.34v4.72c0,1.01-2.36-1.85-3.71-2.36,0-3.2,3.71-6.91,4.72-2.36"/><path id="path38" class="cls-1" d="m550.1,289.46c1.01,1.85-1.01,3.2-1.85,4.72h-1.35v-6.91c1.85,0,2.36,1.35,3.2,2.36"/><path id="path40" class="cls-1" d="m526.83,289.46c0,1.52,1.01,3.71,0,4.72h-2.36v-5.56h3.2"/><path id="path44" class="cls-1" d="m541.33,339.87h-13.49l9.27-33.72c-.32,11.39,1.1,22.76,4.21,33.72"/><path id="path46" class="cls-1" d="m818.82,417.25c-32.2-1.85-43.33-41.47-71.48-55.97,4.7-15.21,6.19-31.22,4.38-47.04,30.28,28.55,53.38,63.84,67.43,103.01"/><path id="path48" class="cls-1" d="m823.37,427.03l1.01,1.35c-44.84,30.35,1.85,98.45-46.7,126.44-14.83,8.04-31.83,11.17-48.55,8.94,2.87-10.79,20.06-6.57,29.33-12.14,54.96-16.86,26.64-84.29,54.62-118.01-27.14-7.42-48.55-31.19-70.47-48.89l1.35-7.92c25.63,18.21,44.84,54.62,79.24,50.58"/><path id="path50" class="cls-1" d="m325.37,381.68c-21.92,23.77-42.48,50.58-72.49,55.97,3.2,8.94,11.13,15.85,14.5,24.78,9.78,37.76,10.79,90.02,59.17,101.15,7.08,2.87,16.86-1.35,21.41,5.56-22.36,5.42-45.94-.94-62.55-16.86-33.72-32.71-1.01-95.08-49.4-118.01,40.63,8.94,56.48-39.62,84.29-57.32l5.06,4.72Z"/><path id="path62" class="cls-1" d="m751.72,750.88l-21.24,19.72c-6.07-45.69,47.04-74.51,33.72-124.08-6.57-26.13-35.07-47.04-58.33-55.97,0-32.2,34.9-8.94,51.76-15.85,21.86-3.22,40.76-16.95,50.58-36.75,16.86-30.35-7.25-70.97,18.88-97.95,35.08,109.56,5.99,229.54-75.36,310.87"/><path id="path66" class="cls-1" d="m266.2,546.72c11.49,19.11,30.77,32.24,52.77,35.91,13.69.19,27.38-.6,40.97-2.36l3.71,8.77c-26.52,8.56-47.65,28.82-57.32,54.96-11.63,48.55,32.2,79.74,40.63,123.07l-3.54,10.96c-95.53-72.96-140.27-194.57-114.81-312.05l6.24-20.06c40.12,16.86,11.46,70.47,31.53,101.15"/><path id="path52" class="cls-1" d="m756.28,429.39c0,1.35,0,3.71-1.01,4.72h-1.35v-6.91c.97-.34,2.02.18,2.36,1.14.14.39.14.82,0,1.22"/><path id="path56" class="cls-1" d="m745.99,443.72c-1.01,0-1.35,2.87-3.2,2.36-1.82-.73-2.7-2.79-1.97-4.6.36-.9,1.07-1.61,1.97-1.97,2.87,0,2.36,2.7,3.2,4.21"/><path id="path58" class="cls-1" d="m768.41,439.67c0,1.85,1.01,4.21-1.01,5.56-2.02,1.35-2.36-1.85-3.2-2.36-.84-.51,1.01-4.21,4.21-3.2"/><path id="path68" class="cls-1" d="m764.2,499.69c-6.57-2.36-7.92,5.56-10.28,8.94-1.35-2.87-1.35-6.57-4.21-8.94l-6.91,1.52,13.49-42.99c.89,14.1,3.55,28.03,7.92,41.47"/><path id="path54" class="cls-1" d="m320.31,433.94c0,1.01,0,1.35-1.01,1.85s-3.2,0-4.55-1.85c-.38-1.54.56-3.09,2.09-3.47s3.09.56,3.47,2.09c.11.45.11.93,0,1.38"/><path id="path60" class="cls-1" d="m331.95,445.24s-1.35,2.36-3.2,1.85l-2.36-1.85,3.71-4.72c1.08,1.35,1.72,3,1.85,4.72"/><path id="path64" class="cls-1" d="m308.68,445.24c0,1.85-1.01,2.87-2.36,4.21h0v-6.57c1.35,0,2.36,1.35,3.2,2.36"/><path id="path70" class="cls-1" d="m330.09,502.05c-6.07-1.35-8.43,3.71-10.28,7.92v2.36c-1.52-4.72-5.23-14.5-12.14-9.27,4.96-13.93,9.18-28.11,12.64-42.48.24,14.42,3.76,28.61,10.28,41.47"/><path id="path72" class="cls-1" d="m369.2,607.42v4.21c-18.54,8.94-40.63,25.12-40.63,48.05-2.87,42.32,37.76,66.09,33.72,108.57,6.57,5.23,12.64-4.21,20.06-3.2,24.44-1.85,94.75,5.56,110.93-14.5,3.72-.35,7.42.81,10.28,3.2-7.37,14.08-21.42,23.43-37.26,24.78-38.27,3.71-82.1-28.49-112.78,6.57,23.26-54.62-56.81-90.02-30.35-147.85,8.93-17.63,24.72-30.8,43.66-36.41l2.36,6.57Z"/><path id="path74" class="cls-1" d="m752.9,653.1c5.56,48.05-50.58,74.18-34.9,122.22-47.04-26.97-108.57,37.76-148.69-18.21,0-3.71,4.21-6.57,6.91-7.92,8.43,2.36,11.13,10.28,18.71,14.84,36.41,26.13,75.02-7.92,114.13,1.85,2.36-4.72,0-13.99,2.36-20.06,15-33.72,51.76-77.38,16.86-114.3-9.25-7.52-19.83-13.24-31.19-16.86-3.2-5.06,1.85-8.77,3.2-13.49,21.41,7.92,50.58,26.97,52.77,52.6"/><path id="path76" class="cls-1" d="m664.4,662.04c-2.87,1.35-2.87-1.85-4.21-3.2,1.35-1.35,1.35-4.72,4.21-3.2v6.41Z"/><path id="path78" class="cls-1" d="m414.89,658.67c0,1.35,0,3.71-1.01,4.72-1.01,1.01-2.36-1.85-3.71-2.36-2.36-4.21,4.72-6.57,4.72-2.36"/><path id="path80" class="cls-1" d="m677.04,672.15c-1.35,0-1.85,0-2.36,1.01s-2.87-6.57,1.01-6.57,1.01,3.71,1.35,5.56"/><path id="path82" class="cls-1" d="m427.03,670.8c0,1.35,0,1.85-1.01,2.36h-2.36v-4.89c3.2-1.35,2.36,2.36,3.2,3.2"/><path id="path84" class="cls-1" d="m404.61,670.8c0,1.85,0,3.71-1.01,4.72-1.01,1.01-2.36-1.35-3.71-2.36s4.72-7.08,4.72-2.36"/><rect id="rect86" class="cls-1" x="649.9" y="668.95" width="3.37" height="5.56"/><path id="path88" class="cls-1" d="m422.98,728.12c-4.72-3.2-9.78,4.72-10.28,7.92-.53-4.97-4.97-8.58-9.95-8.09h-1.18c6.08-13.18,10.34-27.14,12.64-41.47,1.74,14.06,4.73,27.94,8.94,41.47"/><path id="path90" class="cls-1" d="m673.33,729.13c0-1.85-2.7,0-4.21-1.01l-5.56,8.94c-.41-3.46-2.09-6.65-4.72-8.94l-5.56,1.01,11.13-42.32c2.24,14.25,5.22,28.38,8.94,42.32"/><path id="path92" class="cls-1" d="m621.07,793.03c30.85,1.85,58.33-19.89,88.17-5.9-91.51,62.49-209.03,72.59-309.86,26.64l-35.91-21.24c8.11-8.72,19.63-13.46,31.53-12.98,38.27,6.07,94.24,25.63,120.71-16.86,13.26,5.07,28.05,4.21,40.63-2.36,14.12,21.32,38.34,33.72,63.89,32.71"/><path id="path94" class="cls-2" d="m800.11,612.98c-19.98,1.9-39.95-3.75-55.97-15.85-1.01-6.07,5.06-8.43,9.78-8.94,17.83,2.57,34.19,11.34,46.19,24.78"/><path id="path96" class="cls-2" d="m317.45,599.49c1.01,11.63-12.64,12.98-20.06,16.86-9.88,2.68-20.12,3.76-30.35,3.2,11.63-14.68,29.32-23.25,48.05-23.26l2.36,3.2Z"/><path id="path98" class="cls-2" d="m546.89,775.33c-.03,13.99-2.54,27.86-7.42,40.97-3.71-13.99-16.86-35.91-1.85-48.89,4.68.11,8.7,3.36,9.78,7.92"/><path id="path100" class="cls-1" d="m158.98,640.63c.84,3.8,2.51,7.37,4.89,10.45l-13.15-4.21c-3.4-1.02-5.98-3.79-6.74-7.25l-7.42-31.36-18.54,4.38c-5.86.62-10.74,4.77-12.31,10.45l-7.92-33.72c3.2,4.38,8.09,5.23,15.51,3.54l53.44-12.48c7.42-1.69,11.3-4.72,12.31-10.12l18.21,77.72c-1.15-.39-2.39-.39-3.54,0-5.78,2.73-11.41,5.76-16.86,9.1,3.02-10.23,3.02-21.12,0-31.36l-5.9-24.95-20.4,4.72,8.43,35.07Z"/><path id="path102" class="cls-1" d="m140.77,729.13c-14.16-27.82-7.25-50.58,16.02-63.05,21.33-11.64,48.06-3.79,59.7,17.54,1.03,1.9,1.93,3.86,2.67,5.89,14.16,27.82,7.75,50.58-16.86,63.56-21.71,11.12-48.33,2.52-59.44-19.19-.79-1.54-1.49-3.13-2.09-4.75Zm52.6,4.05c12.61-4.56,19.14-18.47,14.58-31.08-.59-1.63-1.35-3.19-2.27-4.66-5.32-13.61-20.67-20.34-34.29-15.01-1.81.71-3.55,1.62-5.16,2.71-12.56,4.68-18.95,18.66-14.27,31.22.57,1.52,1.28,2.97,2.14,4.35,5.37,13.59,20.75,20.26,34.34,14.89,1.73-.68,3.39-1.55,4.94-2.58v.17Z"/><path id="path104" class="cls-1" d="m207.02,825.23c-21.07-23.26-20.57-47.54-1.18-65.07,17.61-16.75,45.46-16.06,62.21,1.55,1.4,1.47,2.7,3.04,3.88,4.69,21.07,23.26,20.9,47.37,0,65.75-18.24,16.2-46.15,14.55-62.36-3.69,0,0-.01-.02-.02-.02l-2.53-3.2Zm51.76-9.95c10.99-7.68,13.67-22.82,5.99-33.81-1.01-1.44-2.17-2.77-3.46-3.96-8.56-11.85-25.1-14.52-36.95-5.96-1.95,1.41-3.69,3.07-5.19,4.95-10.91,7.79-13.44,22.95-5.65,33.86.97,1.35,2.07,2.6,3.29,3.73,8.87,11.62,25.47,13.86,37.1,4.99,1.48-1.13,2.83-2.4,4.04-3.81h.84Z"/><path id="path106" class="cls-1" d="m286.6,880.36l2.53-3.88,31.19-45.35-3.37-2.19c-8.51-6.41-18.7-10.22-29.33-10.96,8.09-7.25,13.32-10.62,14.33-12.14.32-1.16.32-2.38,0-3.54l68.95,45.69c-1.21.31-2.28,1.03-3.03,2.02-1.01,1.35-2.19,7.42-5.73,17.87-4.77-9.55-12.21-17.51-21.41-22.93l-3.54-2.36-30.18,44.84c-4.04,4.7-4.78,11.4-1.85,16.86l-29-19.39c4.05.48,8.05-1.26,10.45-4.55Z"/><path id="path108" class="cls-1" d="m358.08,917.61l16.86-51.42c2.83-5.51,2.03-12.18-2.02-16.86l44.17,15c24.78,8.43,36.75,16.86,31.53,32.54-2.76,8.22-10.97,13.32-19.56,12.14,13.15,6.41,16.86,14.67,13.99,25.79-5.73,16.86-21.41,19.39-48.55,10.28l-48.38-16.86c6.07.51,9.44-3.37,11.97-10.62Zm44.68,15.68c10.96,3.71,17.87,2.02,20.23-5.06,2.36-7.08-2.36-11.97-13.66-15.68l-25.12-8.26-6.91,20.57,25.46,8.43Zm5.73-35.74c10.79,3.71,16.86,2.36,19.22-4.55,2.36-6.91-1.69-10.45-11.13-13.66l-21.24-7.25-6.41,18.71,19.56,6.74Z"/><path id="path110" class="cls-1" d="m548.24,969.2h-31.19c1.92-1.72,3.02-4.17,3.03-6.74.31-1.67.31-3.39,0-5.06l-1.85-5.73-47.88-4.21-2.19,3.88c-.85,1.68-1.36,3.52-1.52,5.39-.26,3.32.83,6.6,3.03,9.1l-31.36-7.25c4.29-2.83,7.96-6.5,10.79-10.79l33.72-60.35c.83-1.16,1.4-2.48,1.69-3.88.18-1,.18-2.03,0-3.03l33.72,3.03c-.59.94-1.04,1.97-1.35,3.03-.22,1.28-.22,2.59,0,3.88l22.59,64.4c1.96,5.3,4.94,10.17,8.77,14.33Zm-35.4-33.72l-14.5-40.46-20.23,37.43,34.73,3.03Z"/><path id="path112" class="cls-1" d="m543.18,886.42l33.72-4.89c-4.82,3.41-6.98,9.48-5.39,15.17l7.59,54.28,23.43-3.37c11.75-.92,22.77-6.07,31.02-14.5-2.11,7.09-3.8,14.29-5.06,21.58.39,1.31,1.15,2.48,2.19,3.37l-76.88,10.79c4.68-3.51,6.63-9.59,4.89-15.17l-7.59-54.28c0-7.25-2.7-11.97-7.92-12.98Z"/><path id="path114" class="cls-1" d="m614.5,877.32l33.72-11.8c-4.05,4.33-4.93,10.75-2.19,16.02l18.54,51.59,22.25-7.92c11.09-3.56,20.54-10.98,26.64-20.9-.44,7.35-.44,14.73,0,22.08.65,1.22,1.65,2.22,2.87,2.87l-73,25.63c3.91-4.36,4.65-10.7,1.85-15.85l-18.54-51.59c-2.87-6.24-6.74-9.78-12.14-10.12Z"/><path id="path116" class="cls-1" d="m813.93,866.19c-5.06,3.54-11.63,11.8-22.25,19.39-24.28,16.86-47.2,14.5-62.88-7.42-15.68-21.92-10.28-47.88,15.17-66.09,8.45-5.28,17.17-10.12,26.13-14.5,1.19-1.01,2.26-2.14,3.2-3.37l6.07,21.24c-9.34.1-18.41,3.11-25.96,8.6-13.08,7.87-17.3,24.85-9.44,37.93l1.85,2.7c6.62,12.3,21.96,16.9,34.25,10.28,1.95-1.05,3.75-2.35,5.36-3.87,8.89-6.84,16.05-15.68,20.9-25.79l13.15,18.38c-1.98.53-3.86,1.38-5.56,2.53Z"/><path id="path118" class="cls-1" d="m773.14,793.7l23.1-26.3c-1.4,5.75.96,11.75,5.9,15l40.8,36.08,15.68-17.87c8.4-8.31,13.49-19.4,14.33-31.19,3.03,6.72,6.47,13.25,10.28,19.56,1.15.77,2.5,1.18,3.88,1.18l-50.58,58.33c1.55-5.7-.94-11.73-6.07-14.67l-41.3-36.08c-6.41-4.89-11.13-6.41-16.02-4.05Z"/><path id="path120" class="cls-1" d="m917.95,742.62c-13.49,24.28-29.5,30.85-49.06,20.06l-33.72-18.21c-4.95-3.88-11.91-3.88-16.86,0l16.86-30.35c0,5.73,2.53,9.44,9.44,13.15l32.03,17.87c10.27,5.08,22.7.87,27.78-9.4,4.75-9.6,1.4-21.23-7.72-26.85l-30.68-18.71c-5.01-3.71-11.85-3.71-16.86,0l16.86-30.51c.19,5.92,3.81,11.19,9.27,13.49l33.72,18.21c19.39,10.62,22.42,27.48,8.94,51.25Z"/><path id="path122" class="cls-1" d="m936.16,665.58l-52.94-12.14c-7.42-1.69-12.48-1.01-15.85,3.54l10.45-45.35c5.9-25.63,13.15-38.27,29.17-33.72,8.42,1.93,14.29,9.57,13.99,18.21,5.06-13.82,12.81-19.05,24.28-16.86,16.86,4.05,21.41,19.39,15,47.2l-11.46,50.58c-1.01-6.91-4.72-9.78-12.64-11.46Zm-25.79-47.88c2.53-11.13,0-16.86-6.41-18.54s-10.28,2.87-12.48,12.48l-5.06,21.92,19.22,4.38,4.72-20.23Zm36.08,2.02c2.53-11.3,0-17.87-7.08-19.56s-11.63,3.54-14.33,15.17l-5.9,25.79,21.24,4.89,6.07-26.3Z"/><path id="path124" class="cls-1" d="m101.15,475.41l7.59-33.72c1.49,5.7,6.43,9.83,12.31,10.28l53.61,11.8,5.06-23.1c3.16-11.2,2.2-23.16-2.7-33.72,5.87,4.46,12.01,8.57,18.38,12.31,1.27.37,2.61.37,3.88,0l-16.86,75.7c-1.18-5.23-5.23-8.26-12.48-9.95l-51.92-13.32c-5.86-2.25-12.49-.79-16.86,3.71Z"/><path id="path126" class="cls-1" d="m191.35,398.54l-48.89-24.95c-4.78-3.46-11.24-3.46-16.02,0l40.12-77.89c.44,1.2,1.27,2.21,2.36,2.87,1.52,0,7.59,1.35,18.54,3.71-8.94,5.8-16.02,14.05-20.4,23.77l-15.34,29.67,16.86,9.1,16.86-33.72c1.79-3.4,2.88-7.13,3.2-10.96l7.25,11.63c1.85,3.06,1.85,6.89,0,9.95l-14.67,28.66,18.71,9.61,16.02-32.03c5.94-10.17,8.03-22.13,5.9-33.72,4.35,5.92,9.08,11.55,14.16,16.86,1.26.39,2.61.39,3.88,0l-40.46,79.07c1.85-3.71-1.35-7.75-8.09-11.63Z"/><path id="path128" class="cls-1" d="m210.06,263.67l42.82,33.72c6.07,4.72,10.96,5.9,15.85,3.37l-21.41,26.97c1.35-5.39-1.01-9.78-7.08-14.5l-42.82-33.72c-6.07-4.72-10.96-6.07-15.85-3.54l20.74-26.97c-.17,5.91,2.78,11.48,7.75,14.67Z"/><path id="path130" class="cls-1" d="m322.5,246.81c-4.55,4.21-10.12,12.98-19.72,21.92-21.92,20.06-45.18,20.06-63.22,0-18.04-20.06-15.85-46.36,7.25-67.43,7.8-6.03,15.9-11.66,24.28-16.86,1.09-1.13,2.05-2.37,2.87-3.71l8.43,20.4c-9.21,1.24-17.81,5.31-24.61,11.63-12,9.41-14.11,26.76-4.72,38.77l2.02,2.36c8.02,11.44,23.79,14.21,35.22,6.19,1.83-1.28,3.47-2.79,4.9-4.51,7.72-7.95,13.49-17.59,16.86-28.15l15.17,16.86c-1.69.61-3.28,1.46-4.72,2.53Z"/><path id="path132" class="cls-1" d="m328.57,225.91l-25.12-48.38c-3.54-6.74-7.59-9.61-12.98-9.44l77.38-40.97c-.42,1.2-.42,2.51,0,3.71,0,1.52,5.39,5.56,12.98,13.49-10.67-.33-21.2,2.42-30.35,7.92l-30.18,15.68,9.1,16.86,32.54-16.86c3.44-1.79,6.48-4.25,8.94-7.25v13.66c-.14,3.54-2.21,6.71-5.39,8.26l-28.49,15.17,9.78,18.54,31.02-16.86c10.65-4.91,19.2-13.46,24.11-24.11.42,7.36,1.32,14.68,2.7,21.92.73,1.13,1.79,2.02,3.03,2.53l-78.56,41.64c3.37-3.71,3.03-8.77-.51-15.51Z"/><path id="path134" class="cls-1" d="m444.73,177.18c13.6-3.37,19.56-8.6,17.87-15.68-2.02-8.6-11.8-6.74-28.32-5.06-20.57,2.19-32.2-2.7-35.23-15.34-3.03-12.64,7.42-28.83,30.68-33.72,14.84-3.54,26.47-3.71,33.72-5.23,1.16-.27,2.26-.79,3.2-1.52v21.75c-11-3.25-22.71-3.25-33.72,0-9.95,2.36-14.5,6.57-13.15,11.8,1.85,7.92,11.13,4.72,29.17,3.71,18.04-1.01,31.53,3.2,34.9,16.86,4.21,16.86-7.92,31.19-34.9,37.76-12.31,3.03-21.92,3.37-26.97,4.55-1.4.36-2.72.99-3.88,1.85l-10.62-21.75c12.25,2.91,25.01,2.91,37.26,0Z"/><path id="path136" class="cls-1" d="m508.96,170.1v-4.55l-3.2-54.62h-4.05c-10.72-.19-21.26,2.74-30.35,8.43,2.36-10.62,4.55-16.86,4.38-18.38-.18-1.24-.71-2.41-1.52-3.37l82.44-3.37c-.75.96-1.17,2.15-1.18,3.37,0,1.69,2.53,7.42,5.9,17.87-9.5-4.91-20.21-6.96-30.85-5.9h-4.38l2.19,54.62c-.37,6,2.89,11.64,8.26,14.33l-34.73.84c3.9-1.54,6.62-5.11,7.08-9.27Z"/><path id="path138" class="cls-1" d="m561.73,163.87l9.95-53.95c1.99-5.52.22-11.7-4.38-15.34l86.15,15.85c-1,.76-1.71,1.82-2.02,3.03,0,1.69,0,7.75,1.85,18.71-8.37-7.03-18.64-11.43-29.5-12.64l-32.03-5.9-3.54,19.22,36.25,6.57c3.78.77,7.68.77,11.46,0l-9.1,10.28c-2.3,2.74-5.94,3.98-9.44,3.2l-31.69-5.9-3.88,20.74,33.72,6.41c11.34,2.73,23.29,1.36,33.72-3.88-4.23,6.04-8.06,12.34-11.46,18.88-.39,1.26-.39,2.61,0,3.88l-87.33-16.86c6.91-.67,9.95-4.89,11.3-12.31Z"/><path id="path140" class="cls-1" d="m675.69,208.54l-31.19-15.17c5.56,0,9.27-3.2,12.64-10.12l23.77-49.06c3.88-4.95,3.88-11.91,0-16.86l44,22.42c7.92,3.29,15.35,7.66,22.08,12.98,7.25,6.88,9.17,17.68,4.72,26.64-5.78,11.12-19.12,15.96-30.68,11.13,4.3,5.39,6.78,12,7.08,18.88.08,9.18,2.03,18.24,5.73,26.64l-32.2-15.68c1.88-.45,3.47-1.67,4.38-3.37,2.02-6.13,2.02-12.75,0-18.88-1.97-7.67-7.48-13.93-14.84-16.86l-8.77-4.21-7.42,15.34c-3.04,5.04-2.78,11.41.67,16.18Zm33.72-34.9c11.97,5.73,18.21,5.9,22.08-2.19,3.88-8.09,0-12.81-11.97-18.54l-20.06-9.78-10.12,20.9,20.06,9.61Z"/><path id="path142" class="cls-1" d="m805.17,302.95c-4.38-4.38-13.49-9.44-22.93-18.54-21.24-20.9-22.42-44-3.54-63.22,18.88-19.22,45.35-18.38,67.43,3.71,6.7,7.42,13,15.19,18.88,23.26,1.19,1.04,2.49,1.94,3.88,2.7l-19.89,9.61c-1.75-9.13-6.29-17.49-12.98-23.94-10.01-11.4-27.37-12.54-38.77-2.53l-2.53,2.53c-11.08,8.5-13.17,24.38-4.67,35.46,1.35,1.75,2.91,3.32,4.67,4.67,8.2,7.83,18.13,13.61,29,16.86l-15.85,16.86c-.36-2.64-1.28-5.17-2.7-7.42Z"/><path id="path144" class="cls-1" d="m884.74,297.39l-44.51,32.03c-6.41,4.38-8.94,8.77-7.92,14.16l-19.89-28.32c4.72,2.87,9.61,1.85,16.86-2.7l44.51-31.19c6.41-4.38,8.94-8.77,7.92-14.16l19.89,28.32c-5.43-3.08-12.22-2.33-16.86,1.85Z"/><path id="path146" class="cls-1" d="m855.91,364.82l4.21-2.02,49.23-23.43-1.69-3.71c-4-9.92-10.79-18.47-19.56-24.61,10.79-2.02,16.86-2.36,18.54-3.03,1.02-.66,1.84-1.6,2.36-2.7l35.07,75.36c-1.2-.42-2.51-.42-3.71,0-1.52,0-5.73,5.23-14.16,12.48.77-10.66-1.58-21.32-6.74-30.68l-1.85-3.88-48.72,23.1c-5.64,2.01-9.55,7.17-9.95,13.15l-15-31.36c3.4,2.72,8.05,3.24,11.97,1.35Z"/><path id="path148" class="cls-1" d="m959.42,464.62c2.11-.37,3.85-1.85,4.55-3.88l6.74,32.54c-6.15-4.03-12.64-7.53-19.39-10.45l-44.17-20.74-12.81,2.7c-7.59,1.52-11.8,5.06-12.81,10.12l-7.08-33.72c3.54,4.89,8.26,5.39,15.68,3.88l12.31-2.53,35.57-37.76c5.04-4.52,8.72-10.36,10.62-16.86l7.42,36.08c-1.16-1.8-3.31-2.67-5.39-2.19-2.82.73-5.32,2.4-7.08,4.72l-22.42,22.59,30.85,13.15c2.13,1.6,4.75,2.44,7.42,2.36Z"/><path id="path150" class="cls-3" d="m719.02,395.5l1.01-1.01v-2.02c.19-13.07,3-25.97,8.26-37.93,5.97-10.29,6.72-22.79,2.02-33.72v-2.87c-1.19-4.45-2.89-8.75-5.06-12.81l-2.02-3.71-4.05,1.35c-37.77,12.74-71.03,36.17-95.76,67.43l-11.8,9.1c.05-.67.05-1.35,0-2.02-1.3-4.64-4.85-8.31-9.44-9.78-22.57-7.45-46.2-11.15-69.96-10.96-25.72-.41-51.23,4.65-74.85,14.84l-5.06,2.19,1.52,2.7c-30.35-25.96-87.5-73-103.85-73h-2.87l-1.35,1.85c-2.18,3.07-3.84,6.49-4.89,10.12l-1.18,1.52c-5.39,5.56-6.91,11.8,0,30.51,5.67,13.76,9.14,28.32,10.28,43.16,1.87,11.62,5.21,22.95,9.95,33.72,1.35,5.39,10.45,42.48,14.84,52.77,3.3,5.97,1.19,13.47-4.72,16.86h-1.18c-9.66,4.15-16.83,12.57-19.39,22.76-.47,8.99,3.12,17.71,9.78,23.77,1.58,2.82,2.83,5.82,3.71,8.94h0c-2.7,4.38,0,7.08,2.87,9.78l1.69,1.69c2.58,2.47,5.4,4.68,8.43,6.57,2.94,1.73,5.57,3.95,7.75,6.57.92,1.3,1.77,2.65,2.53,4.05,1.83,3.81,4.77,6.98,8.43,9.1v5.73c-1.67,14.73,6.47,28.82,20.06,34.73l12.64,5.73q7.92,3.37,10.45,7.92c6.35,10.3,14.79,19.14,24.78,25.96,6.96,5.03,12.71,11.53,16.86,19.05l8.09,2.36h0l1.18-1.69h0c-2.62,5.88-4.28,12.14-4.89,18.54,0,7.42,3.03,24.61,30.35,29.17h0l7.25,5.06,9.1,7.75h8.94l6.57-1.52h1.69l1.18-1.35,4.05-5.06,3.37-3.71c7.36-.58,14.36-3.41,20.06-8.09h0c5.76-6.27,9.77-13.95,11.63-22.25,0-1.69-1.01-8.77-1.52-12.81v-1.01l-2.87-7.92c.92,1.44,1.71,2.97,2.36,4.55l2.87,8.94,5.9-7.08,13.49-16.86c1.18-1.18,8.26-8.26,12.81-12.31,3.56-3.56,6.37-7.81,8.26-12.48l1.52-3.03c9.18-8.65,19.43-16.07,30.51-22.08,12.93-6.44,20.33-20.41,18.38-34.73v-2.19l-1.69-1.01c1.52-3.49,2.76-7.1,3.71-10.79,9.75-5.97,18.61-13.29,26.3-21.75l2.02-2.53-2.02-2.87c-1.61-7.5.82-15.31,6.41-20.57,9.78-11.8,10.45-14.5,8.77-18.21-.71-1.52-2.08-2.63-3.71-3.03-7.97-4.92-14.8-11.47-20.06-19.22v-3.54c-2.73-8.86-1.82-18.45,2.53-26.64,3.91-5.96,6.02-12.93,6.07-20.06-.09-.78-.09-1.58,0-2.36,2.97-12.94,6.62-25.72,10.96-38.27Z"/><path id="path152" class="cls-2" d="m562.4,647.03l4.55,13.99,2.02,18.88-12.31,9.27-44.51-1.35-16.86-15.17,7.42-6.41,4.21-19.22c-55.63-41.64-80.25-46.19-80.25-46.19-10.7-4.73-22.08-7.74-33.72-8.94v1.01c-1.67,14.73,6.47,28.82,20.06,34.73l12.64,5.73q7.92,3.37,10.45,7.92c6.35,10.3,14.79,19.14,24.78,25.96,6.96,5.03,12.71,11.53,16.86,19.05l8.09,2.36h0l1.18-1.69h0c-2.62,5.88-4.28,12.14-4.89,18.54,0,7.42,3.03,24.61,30.35,29.17h0l7.25,5.06,9.1,7.75h10.62l6.57-1.52h1.69l1.18-1.35,4.05-5.06,3.37-3.88c7.36-.58,14.36-3.41,20.06-8.09h0c5.76-6.27,9.77-13.95,11.63-22.25,0-1.69-1.01-8.77-1.52-12.81v-1.01l-2.87-7.92c.93,1.44,1.72,2.96,2.36,4.55l3.03,8.94,5.9-7.08,13.49-16.86c1.18-1.18,8.26-8.26,12.81-12.31,3.57-3.56,6.37-7.8,8.26-12.48l1.52-3.03c9.17-8.65,19.43-16.07,30.51-22.08,12.93-6.44,20.33-20.41,18.38-34.73l-1.69-6.57v-1.35l-15.34,8.43c-100.98,39.11-100.48,57.99-100.48,57.99Z"/><path id="path154" class="cls-1" d="m430.74,535.6s3.03-4.05,10.62,2.02c11.43,10.6,26.38,16.61,41.98,16.86,0,0,3.54,5.56-8.6,5.06-5.26-.05-10.51-.56-15.68-1.52-8.56-5.15-16.25-11.64-22.76-19.22-1.55-1.52-3.47-2.62-5.56-3.2Z"/><path id="path156" class="cls-4" d="m543.69,418.43l-5.56-4.55c-1.53-4.2-2.05-8.71-1.52-13.15,7.99-7.59,17.01-14,26.81-19.05-2.93,5.57-6.88,10.54-11.63,14.67-3.52,2.35-6.46,5.46-8.6,9.1-.8,4.31-.63,8.75.51,12.98Z"/><path id="path158" class="cls-4" d="m525.99,416.91s6.57-11.13,3.03-14.16-25.29-19.72-25.29-19.72c0,0,0,10.62,5.56,14.16,5.56,3.54,9.61,3.54,10.12,6.07v2.53c-.58,1.75-.19,3.67,1.01,5.06l5.56,6.07Z"/><path id="path160" class="cls-4" d="m581.62,479.96c11.29-6.12,23.01-11.41,35.07-15.85,8.94-2.02,0-4.21-2.02-4.89-2.75-.27-5.51-.27-8.26,0l-8.26,3.37-4.05,2.02-6.24,4.89-4.89,2.02-2.7,1.35s-2.87,9.95,1.35,7.08Z"/><path id="path162" class="cls-4" d="m450.12,461.42c0-3.37,3.37,1.35,6.24,2.7,2.87,1.35,15.85,5.56,15.85,5.56l4.21,2.7,6.91,5.56-1.35,3.37c-2.25.04-4.44-.67-6.24-2.02-2.02-2.02-8.77-6.57-9.27-5.39-.51,1.18-4.55,0-8.09-2.19-4.24-1.9-7.32-5.73-8.26-10.28Z"/><path id="path164" class="cls-2" d="m423.15,407.64c-1.06-2.06-1.96-4.21-2.7-6.41v-2.7c-1.37-4.55-2.21-9.25-2.53-13.99-.99-7.73-4.62-14.88-10.28-20.23l-1.52-1.52c-1.03-2.02-2.98-3.4-5.23-3.71-1.35,0-3.88,0-10.28-6.91-7.94-7.36-16.45-14.07-25.46-20.06l-11.13-6.91,4.38,13.32c1.61,4.58,2.97,9.26,4.05,13.99-.28,3.14-.28,6.3,0,9.44.67,3.96,1.06,7.96,1.18,11.97,0,1.85,2.87,22.59,3.37,26.13h0c2.33,4.86,4.92,9.58,7.75,14.16h0c1.26,1.47,2.18,3.19,2.7,5.06h0c-1.91,6.22-1.55,12.91,1.01,18.88,2.7,8.6,7.42,10.28,10.96,10.28,4.94-.56,9.38-3.28,12.14-7.42,1.01-1.18,3.54-4.21,4.89-5.56l1.69-1.69c3.89-4.26,8.06-8.25,12.48-11.97,2.99-2.17,4.85-5.58,5.06-9.27-.42-1.82-1.29-3.5-2.53-4.89Z"/><path id="path166" class="cls-1" d="m630.34,528.52s-2.87,0-2.87,4.55-16.86,16.86-21.58,20.06c-5.44,1.71-11.2,2.23-16.86,1.52-5.73,0-7.59,7.59-7.59,7.59h0c-1.55,2.94-2.91,5.98-4.05,9.1-1.47,9.7-3.67,19.28-6.57,28.66-2.52,11.85-1.7,24.16,2.36,35.57,2.07,5.04,4.67,9.84,7.75,14.33,1.49,4.51,2.23,9.24,2.19,13.99l3.71-13.32c0-2.59-.46-5.16-1.35-7.59-2.35-3.43-4.33-7.11-5.9-10.96-2-6.97-3.52-14.07-4.55-21.24,0-3.37,3.2-22.59,3.88-25.96,2.2-6.44,3.62-13.12,4.21-19.89.05-.9.05-1.8,0-2.7,17.89,1.59,35.36-6.04,46.36-20.23,2.28-4.27,4.04-8.8,5.23-13.49h-4.38Z"/><path id="path168" class="cls-2" d="m700.81,331.1c-6.03,5.76-12.84,10.64-20.23,14.5-14.16,8.26-30.18,16.86-31.53,37.76v1.69l1.01,1.35c3.2,4.72,1.52,8.26-2.36,14.5-2.09,3.17-3.68,6.64-4.72,10.28v3.03l2.53,2.02c3.75,3.09,7.19,6.54,10.28,10.28,5.76,8.62,14.65,14.67,24.78,16.86h2.87l1.69-2.36c4.77-7.77,7.65-16.54,8.43-25.63.69-7.77,3.18-15.27,7.25-21.92l1.18-1.69v-2.02c-.65-10.59.61-21.21,3.71-31.36,1.99-7.63,3.34-15.41,4.05-23.26v-13.66l-8.94,9.61Z"/><path id="path170" class="cls-1" d="m486.54,569.31c1.85,21.58,21.24,37.93,8.43,59.34,1.52,12.14-9.95,18.21-13.15,28.15-5.23,0-2.87-8.26-2.02-11.8,12.42-20.51,13.5-45.94,2.87-67.43,0-3.54,0-7.42,4.05-8.26"/><path id="path172" class="cls-1" d="m709.24,317.62c-18.38,15.85-41.64,21.58-58.67,40.97-16.86,15,2.7,40.12-20.74,51.92,15.33,16.55,32.72,31.05,51.76,43.16,14.33-8.77,14.84-25.12,15.68-40.12,14.84-25.96,7.42-56.81,18.88-84.29-2.36-4.05.51-13.32-6.91-11.63Zm-11.97,70.97c-10.62,14.5-6.07,34.73-16.86,49.4-14.84-1.69-21.24-16.86-33.72-26.47,2.36-9.61,14.33-18.04,6.41-29.5,1.85-27.82,34.73-32.54,50.58-50.58.51,17.53-9.27,39.95-6.41,57.15Z"/><path id="path174" class="cls-1" d="m426.02,403.76c-1.35-3.37-4.89,0-3.54-10.28,3.03-22.08,0-11.97-10.96-31.02-3.07-3.5-5.73-7.35-7.92-11.46,0-2.36-2.36-1.01-5.73-3.03s-5.56-2.7-10.28-5.56c-4.7-2.99-8.91-6.68-12.48-10.96-5.82-4.77-12.29-8.69-19.22-11.63-1.62-1.33-3.95-1.33-5.56,0-3.37,0,1.35,14.5,1.35,16.86.92,11.78,2.56,23.49,4.89,35.07,2.23,14.04,5.67,27.86,10.28,41.3,3.21,8.6,5.08,17.64,5.56,26.81.59,8.6,5.38,16.36,12.81,20.74,8.25-8.02,17.1-15.41,26.47-22.08,5.79-3.55,10.55-8.55,13.82-14.5,2.76-3.49,5.29-7.15,7.59-10.96,3.2-5.06-5.73-5.73-7.08-9.27Zm-7.59,17.87c-5.35,4.51-10.42,9.36-15.17,14.5-2.02,2.02-5.56,6.24-5.56,6.24,0,0-10.28,13.82-15.17-1.35-2.93-6.31-2.93-13.59,0-19.89-.82-2.81-2.26-5.4-4.21-7.59-2.02-2.7-7.59-13.82-7.59-13.82,0,0-3.37-22.08-3.37-26.13s-2.02-19.22-2.02-22.08c-1.11-5.72-2.63-11.35-4.55-16.86,9.11,6,17.74,12.7,25.79,20.06,11.63,10.96,13.82,6.91,15.17,9.61,6.01,5.48,10.09,12.75,11.63,20.74.44,5.74,1.57,11.4,3.37,16.86.92,2.83,2.04,5.59,3.37,8.26,0,0,5.23,4.38-1.69,10.79v.67Z"/><circle id="circle176" class="cls-1" cx="470.52" cy="539.81" r="11.63"/><circle id="circle178" class="cls-2" cx="465.63" cy="535.43" r="2.36"/><circle id="circle180" class="cls-1" cx="599.15" cy="539.81" r="11.63"/><path id="path182" class="cls-1" d="m444.9,519.75c-11.2,1.08-22.47,1.42-33.72,1.01,10.79,4,22.21,6,33.72,5.9,6.87-1.82,14.02-2.33,21.07-1.52,18.71,2.36,27.31,21.92,41.98,29.17l2.36-7.25c-11.82-24.28-39.84-35.98-65.41-27.31Z"/><path id="path184" class="cls-1" d="m717.5,492.78c-21.75-16.86-8.6-29.33-4.05-38.44,3.92-9.84,6.14-20.27,6.57-30.85,0-4.55,1.01-22.25,6.57-27.31,5.56-5.06,6.57-32.37,9.1-38.94,2.07-6.38,3.26-13.02,3.54-19.72-.09-4.07.25-8.14,1.01-12.14-4.55-12.93-10.19-25.45-16.86-37.43-24.28,2.53-85.98,55.63-92.05,62.21-3.76,4.04-8.01,7.61-12.64,10.62-28.42-7.17-57.69-10.4-86.99-9.61-27.85.32-55.52,4.4-82.27,12.14-33.72-43.83-103.85-70.81-103.85-70.81-25.29,25.79-8.43,87.5-5.06,93.06,4.85,8.14,7.62,17.34,8.09,26.81,1.92,15.71,4.96,31.26,9.1,46.53,2.18,8.38,5.59,16.39,10.12,23.77,0,0-5.56,6.07-15.17,15.68-9.61,9.61-6.07,5.06-11.63,7.59-3.53,2.04-5.95,5.58-6.57,9.61,4.07,7.34,8.81,14.28,14.16,20.74,6.57,7.08-2.02,13.15-2.02,13.15,0,0,11.63,9.61,18.71,15.17,7.08,5.56,3.03,5.06,8.09,9.61,5.06,4.55,1.52,8.09,1.52,8.09l4.05,3.54c3.03,35.91,33.72,49.06,46.02,55.63,7.52,4.41,14.2,10.11,19.72,16.86l9.61,7.59c24.28,16.86,24.28,33.72,24.28,33.72-4.55,27.31,14.67,32.37,14.67,32.37,25.79,8.6,24.28,10.62,24.28,10.62,19.72,15.68,25.29,7.59,32.37,5.56,5.57-1.98,10.84-4.7,15.68-8.09,20.24-5.93,33.26-25.58,30.85-46.53,3.24-4.61,6.79-9.01,10.62-13.15,3.51-4.11,6.41-8.71,8.6-13.66,13-11.89,26.99-22.67,41.81-32.2,19.67-9.9,33.26-28.78,36.41-50.58,3.01-16.77,14.89-30.58,31.02-36.08-3.79-6.03-3.79-13.69,0-19.72,5.56-8.09,14.67-20.57,14.67-20.74s-1.18.84-22.08-14.67Zm-172.8,249.68l-6.57,1.52h-4.55l-10.12-6.07c3.48-.78,7.05-1.12,10.62-1.01h14.16l-3.54,5.56Zm166.73-219.16c-7.02,6.59-9.75,16.55-7.08,25.79-13.16,14.06-29.13,25.2-46.87,32.71-2.02,0-5.56,4.55-7.59,6.57-2.02,2.02-12.64,14.16-12.64,14.16h5.06l-1.85,6.41s7.42-8.43,9.95-11.97c2.53-3.54,9.1-1.52,9.1-1.52l7.08-3.54,4.55-3.03c1.29-.54,2.75-.54,4.05,0,1.29,11.94-4.96,23.42-15.68,28.83-11.86,6.35-22.76,14.35-32.37,23.77-2.25,5.34-5.32,10.28-9.1,14.67-5.06,4.55-13.15,12.64-13.15,12.64l-13.66,16.86c-1.01-2.7-2.37-5.25-4.05-7.59-3.54-5.56-1.52-5.06-2.02-8.09-.71-3.59-2.08-7.02-4.05-10.12-2.53-4.55-5.56-2.02-7.59-3.54-2.6-3.1-3.87-7.1-3.54-11.13,0-5.06-12.14-62.71-13.15-67.43l-1.01-5.06c5.5-11.17,12.47-21.54,20.74-30.85,2.92-3.5,6.33-6.56,10.12-9.1h0c7.71-5.53,17.53-7.21,26.64-4.55h0c5.5,1.55,11.15,2.45,16.86,2.7,11.2.23,21.92-4.6,29.17-13.15-7.75,1.69-23.1,3.37-23.1,3.37-73.84-6.57-55.63,3.2-55.63,3.2-11.43,5.64-20.16,15.59-24.28,27.65,0,0-5.06,6.57-7.08,9.61-1.75,5.9-2.27,12.1-1.52,18.21.29,3.73.8,7.45,1.52,11.13-1.65,22.12,1.99,44.31,10.62,64.74,0,1.52,5.39,23.77,5.39,23.77h2.7l4.05-4.21h2.53l1.01,2.53,5.56,15.17s1.52,10.62,1.52,12.14c-1.77,6.84-4.99,13.23-9.44,18.71-7.11,6.09-16.57,8.69-25.79,7.08h-1.18l-5.56-1.18h-2.7l-2.02-2.02v-8.77c3.11-.54,6.09-1.68,8.77-3.37,9.85-4.52,15.88-14.65,15.17-25.46,0-3.88-6.07-6.91-6.07-6.91-13.08-3.57-26.88-3.57-39.95,0-8.6,2.02-5.56,14.16-5.56,14.16,0,7.25,14.16,18.71,14.16,18.71,2.9,2.25,6.45,3.49,10.12,3.54v2.7c-.49,1.92-1.17,3.78-2.02,5.56,0,1.85-5.06,2.7-7.59,3.2h-2.36c-25.79-2.53-30.85-15.68-30.85-24.78,1.89-10.23,5.3-20.12,10.12-29.33l3.03,2.53c2.4.07,4.79-.28,7.08-1.01,1.52-1.01,1.01-3.54,0-5.06s-2.53-5.06-2.53-5.06c11.63-12.14,18.71-92.55,19.22-94.58.36-1.84.36-3.73,0-5.56l-1.52-3.54-2.53-2.53s-6.57-5.06-9.61-3.54,3.03,9.61,3.03,9.61l3.54,4.55c-3.49,10.95-5.69,22.26-6.57,33.72l-7.25,34.05c-2.79,6.36-4.99,12.96-6.57,19.72-2.02,9.61-11.13,2.53-11.13,2.53,1.73,7.96-.12,16.28-5.06,22.76-4.25-8.88-10.69-16.54-18.71-22.25-9.37-6.37-17.3-14.64-23.26-24.28-4.55-8.09-5.06-6.07-25.29-15.68-11.41-5.06-18.23-16.93-16.86-29.33,0,0,14.16,5.56,16.86,6.07,5.16,1.35,10.23,3.04,15.17,5.06,3.54,1.52,18.71,11.13,3.54-5.56-15.17-16.69-22.76-11.13-32.37-14.67-9.61-3.54-9.1-7.59-13.66-13.66-4.55-6.07-11.13-8.09-16.86-13.66-5.73-5.56-4.05-3.54-3.03-6.57s-4.55-13.15-4.55-13.15c-21.24-22.76,1.01-34.9,8.09-39.45,8.18-4.44,11.22-14.67,6.78-22.86-.01-.02-.03-.05-.04-.07h0c-4.55-10.62-14.67-52.6-14.67-52.6-4.71-10.21-8.11-20.97-10.12-32.03-1.22-15.29-4.81-30.31-10.62-44.51-9.1-25.79,0-22.76,1.52-28.83.88-3.06,2.25-5.97,4.05-8.6,18.71-1.01,118.01,85.98,118.01,85.98-1.67-6.42-4.16-12.6-7.42-18.38,45.04-17.63,94.82-19,140.77-3.88,14.16,5.56,1.52,20.74,1.52,20.74l25.79-19.22c30.85-45.52,93.57-65.75,93.57-65.75,1.94,3.7,3.47,7.6,4.55,11.63,4.87,10.06,4.87,21.8,0,31.86-5.68,12.75-8.77,26.5-9.1,40.46-4.85,13.19-8.73,26.71-11.63,40.46.41,7.65-1.53,15.24-5.56,21.75-5.43,10.42-6.35,22.61-2.53,33.72,1.52,8.09,23.26,23.26,23.26,23.26,0,0,3.54-1.69-8.6,12.98l-.17-1.18Z"/><circle id="circle186" class="cls-2" cx="594.1" cy="535.43" r="2.36"/><path class="cls-1" d="m532.39,63.37c-259.03,0-469.01,210.01-469.01,469.01s209.98,469.01,469.01,469.01,469.01-209.98,469.01-469.01S791.42,63.37,532.39,63.37Zm0,932.25c-255.84,0-463.25-207.4-463.25-463.25S276.55,69.13,532.39,69.13s463.25,207.4,463.25,463.25-207.4,463.25-463.25,463.25Z"/></g></svg>