<?xml version="1.0" encoding="utf-8"?>
<!-- Generator: Adobe Illustrator 25.4.1, SVG Export Plug-In . SVG Version: 6.00 Build 0)  -->
<svg version="1.1" id="Calque_1" xmlns="http://www.w3.org/2000/svg" xmlns:xlink="http://www.w3.org/1999/xlink" x="0px" y="0px"
	 viewBox="0 0 249.24 339.1" style="enable-background:new 0 0 249.24 339.1;" xml:space="preserve">
<style type="text/css">
	.st0{stroke:#000000;stroke-width:5.3731;}
	.st1{fill:#FFFFFF;}
	.st2{fill:#FFD500;}
	.st3{fill:#C51315;}
	.st4{fill:none;stroke:#000000;stroke-width:5.0799;}
	.st5{fill:#FFFFFF;stroke:#000000;stroke-width:1.9539;}
	.st6{stroke:#000000;stroke-width:1.563;}
	.st7{fill:none;stroke:#000000;stroke-width:1.9539;}
</style>
<path class="st0" d="M124.62,336.04l-1.23-0.68C45.56,292.37,2.69,225.9,2.69,148.18V13.84L124.39,2.7l122.16,11.14v134.34
	c0,77.72-42.87,144.19-120.71,187.18L124.62,336.04z"/>
<polygon class="st1" points="124.62,5.21 5.22,16.14 5.22,60.77 243.96,60.77 244.01,16.14 "/>
<path class="st2" d="M170.19,302.08c51.75-43.65,73.82-98.51,73.82-153.9V60.77H84.93L170.19,302.08z"/>
<path class="st3" d="M84.93,60.77H5.22v87.41c0,69.53,34.79,138.23,119.39,184.95c17.21-9.5,32.35-19.91,45.57-31.05L84.93,60.77z"
	/>
<line class="st4" x1="170.19" y1="302.08" x2="84.93" y2="60.77"/>
<path d="M124.62,336.04l-1.23-0.68C45.56,292.37,2.69,225.9,2.69,148.18V13.84L124.39,2.7l122.16,11.14v134.34
	c0,77.72-42.87,144.19-120.71,187.18L124.62,336.04z M7.77,18.48v129.7c0,75.38,41.48,139.98,116.85,182.05
	c75.37-42.07,116.86-106.67,116.86-182.05V18.48L124.39,7.75L7.77,18.48z"/>
<line class="st4" x1="5.22" y1="60.77" x2="243.96" y2="60.77"/>
<g>
	<path class="st5" d="M133.15,148.01l-0.69,1.83c-1.34,2.77-0.29,4.6-0.29,4.6s1.72,0.16,3.38-1.79c0.35,3.2,2.24,4.21,2.24,4.21
		s1.89-1.02,2.25-4.24c1.65,1.99,3.4,1.83,3.4,1.83s1.04-1.83-0.3-4.6l-0.68-1.83H133.15z"/>
	<path class="st5" d="M141.96,146.1c0,0,0.21-1.36,0.77-2.33c1.06-1.82,2.95-1.23,2.95-1.23c0.89,0.22,2.01,0.9,2.97,2.76
		c0,0,1.87-3.62-0.1-6.89c-0.88-1.32-2.01-2.01-3.07-2.26c0,0-4.8-1.45-5.96,7.04h-3.5c-1.16-8.48-5.96-7.04-5.96-7.04
		c-1.06,0.25-2.2,0.94-3.06,2.26c-1.97,3.27-0.11,6.89-0.11,6.89c0.97-1.86,2.09-2.54,2.98-2.76c0,0,1.88-0.59,2.94,1.23
		c0.56,0.97,0.77,2.33,0.77,2.33H141.96z"/>
	<path class="st5" d="M137.79,124.98c0,0-6.18,5.76-1.18,20.7h1.18h1.19C143.98,130.74,137.79,124.98,137.79,124.98z"/>
	<path class="st6" d="M142.44,145.69h-9.3c-0.77,0-1.39,0.66-1.39,1.48c0,0.81,0.62,1.48,1.39,1.48h9.3c0.77,0,1.4-0.66,1.4-1.48
		C143.84,146.36,143.21,145.69,142.44,145.69z"/>
</g>
<g>
	<path class="st5" d="M220.74,148.01l-0.68,1.83c-1.35,2.77-0.3,4.6-0.3,4.6s1.73,0.16,3.38-1.79c0.36,3.2,2.24,4.21,2.24,4.21
		s1.89-1.02,2.25-4.24c1.66,1.99,3.4,1.83,3.4,1.83s1.05-1.83-0.29-4.6l-0.69-1.83H220.74z"/>
	<path class="st5" d="M229.56,146.1c0,0,0.21-1.36,0.77-2.33c1.06-1.82,2.95-1.23,2.95-1.23c0.88,0.22,2,0.9,2.96,2.76
		c0,0,1.86-3.62-0.11-6.89c-0.87-1.32-2-2.01-3.05-2.26c0,0-4.8-1.45-5.97,7.04h-3.5c-1.16-8.48-5.95-7.04-5.95-7.04
		c-1.06,0.25-2.2,0.94-3.06,2.26c-1.97,3.27-0.11,6.89-0.11,6.89c0.97-1.86,2.1-2.54,2.98-2.76c0,0,1.89-0.59,2.95,1.23
		c0.55,0.97,0.77,2.33,0.77,2.33H229.56z"/>
	<path class="st5" d="M225.38,124.98c0,0-6.19,5.76-1.18,20.7h1.18h1.19C231.57,130.74,225.38,124.98,225.38,124.98z"/>
	<path class="st6" d="M230.03,145.69h-9.29c-0.77,0-1.4,0.66-1.4,1.48c0,0.81,0.62,1.48,1.4,1.48h9.29c0.77,0,1.4-0.66,1.4-1.48
		C231.43,146.36,230.8,145.69,230.03,145.69z"/>
</g>
<g>
	<path class="st5" d="M200.99,196.03V182.3c0-2.43,1.83-4.41,4.1-4.41c2.26,0,4.09,1.98,4.09,4.41v13.73h10.93l-9.66-46.33
		l-0.05-29.35l3.71-4.67v-7.65h-4.01v3.47h-3.39v-3.47h-3.94v3.47h-3.49v-3.47h-3.9v3.62h-27.55v-3.62h-3.91v3.47h-3.49v-3.47h-3.94
		v3.47h-3.39v-3.47h-4.01v7.65l3.72,4.67l-0.05,29.35l-9.67,46.33h10.93V182.3c0-2.43,1.84-4.41,4.1-4.41c2.26,0,4.1,1.98,4.1,4.41
		v13.73H200.99z"/>
	<path d="M198.42,138.66v-8.1c0-1.87,1.41-3.39,3.15-3.39c1.75,0,3.16,1.53,3.16,3.39v8.1H198.42z"/>
	<line class="st7" x1="210.29" y1="149.7" x2="152.84" y2="149.7"/>
	<path d="M198.36,199.72l-2.99-21.65c1.18-0.72,1.99-2.08,1.99-3.65c0-1.79-1.05-3.32-2.51-3.92l-2.29-69.2l6.19-0.4l-0.05-1.57
		L181.6,88.35l-17.2,10.98v1.57l6.18,0.4l-2.45,69.27c-1.38,0.66-2.34,2.13-2.34,3.85c0,1.57,0.8,2.92,1.98,3.65l-2.99,21.65v1.73
		h33.54L198.36,199.72z"/>
	<rect x="173.67" y="101.88" class="st2" width="2.97" height="7.06"/>
	<rect x="180.13" y="101.88" class="st2" width="2.97" height="7.06"/>
	<rect x="186.68" y="101.88" class="st2" width="2.98" height="7.06"/>
	<path d="M177.18,85.67c0,2.6,1.97,4.71,4.39,4.71c2.42,0,4.38-2.12,4.38-4.71c0-2.6-1.96-4.72-4.38-4.72
		C179.16,80.95,177.18,83.07,177.18,85.67z M179.17,85.68c0-1.42,1.08-2.58,2.4-2.58c1.32,0,2.39,1.16,2.39,2.58
		c0,1.42-1.07,2.57-2.39,2.57C180.25,88.26,179.17,87.1,179.17,85.68z"/>
	<rect x="172.55" y="157.21" class="st1" width="3.28" height="12.95"/>
	<rect x="187.24" y="157.21" class="st1" width="3.28" height="12.95"/>
	<rect x="179.9" y="157.21" class="st1" width="3.28" height="12.95"/>
	<line class="st5" x1="149.18" y1="115.8" x2="213.91" y2="115.8"/>
	<line class="st5" x1="152.72" y1="120.49" x2="210.29" y2="120.49"/>
	<line class="st5" x1="152.72" y1="145" x2="210.29" y2="145"/>
	<path d="M164.79,138.66v-8.1c0-1.87-1.41-3.39-3.15-3.39c-1.75,0-3.16,1.53-3.16,3.39v8.1H164.79z"/>
</g>
<path class="st1" d="M26.4,86.12h28.65c9.26,0,15.66,2.43,19.72,6.58c3.54,3.46,5.36,8.13,5.36,14.1v0.17
	c0,9.26-4.93,15.4-12.46,18.61l14.46,21.1H62.74l-12.2-18.34h-0.17h-7.18v18.34H26.4V86.12z M54.27,115.2c5.71,0,9-2.78,9-7.19
	v-0.17c0-4.75-3.46-7.18-9.08-7.18H43.19v14.55H54.27z"/>
<path class="st1" d="M44.23,192.41v-0.17c0-17.65,13.59-31.49,31.92-31.49c12.37,0,20.33,5.19,25.69,12.63l-12.63,9.78
	c-3.46-4.33-7.44-7.1-13.24-7.1c-8.48,0-14.45,7.18-14.45,16.01v0.17c0,9.08,5.97,16.18,14.45,16.18c6.32,0,10.03-2.94,13.67-7.36
	l12.62,9c-5.71,7.87-13.41,13.67-26.81,13.67C58.16,223.73,44.23,210.48,44.23,192.41z"/>
<path class="st1" d="M93.04,231.76h16.78v45.85h29.33v14.72H93.04V231.76z"/>
<g>
	<path d="M110.11,15.41h1.54v10.91h-2.23v-8.49l-1.79,0.46l-0.47-1.95L110.11,15.41z"/>
	<path d="M117.69,26.5c-1.5,0-2.51-0.53-3.38-1.28l1.19-1.81c0.75,0.63,1.38,0.93,2.25,0.93c1.26,0,1.94-1.01,2.09-2.46
		c-0.5,0.45-1.19,0.74-2.09,0.74c-2.23,0-3.67-1.3-3.67-3.51c0-2.2,1.6-3.81,3.92-3.81c1.38,0,2.19,0.36,2.97,1.18
		c0.73,0.77,1.22,1.95,1.22,4.1C122.19,24.1,120.62,26.5,117.69,26.5z M118.07,17.34c-1.12,0-1.75,0.68-1.75,1.66
		c0,0.97,0.68,1.64,1.79,1.64c1.12,0,1.76-0.68,1.76-1.62C119.88,18.04,119.21,17.34,118.07,17.34z"/>
	<path d="M127.82,26.5c-2.75,0-4.55-2.43-4.55-5.59c0-3.16,1.84-5.62,4.58-5.62c2.75,0,4.56,2.43,4.56,5.59
		C132.4,24.04,130.57,26.5,127.82,26.5z M127.82,17.45c-1.37,0-2.23,1.44-2.23,3.44c0,2,0.9,3.47,2.26,3.47
		c1.37,0,2.23-1.45,2.23-3.43C130.08,18.94,129.18,17.45,127.82,17.45z"/>
	<path d="M140.01,18.33c-0.68-0.54-1.22-0.87-2.1-0.87c-1.28,0-1.92,1.08-2.07,2.51c0.51-0.36,1.12-0.7,2.13-0.7
		c2.04,0,3.61,1.19,3.61,3.47c0,2.23-1.69,3.76-3.92,3.76c-1.34,0-2.25-0.4-2.97-1.16c-0.75-0.79-1.22-1.95-1.22-4.12
		c0-3.36,1.44-5.93,4.51-5.93c1.4,0,2.31,0.43,3.22,1.19L140.01,18.33z M137.55,21.26c-1.12,0-1.76,0.65-1.76,1.58
		c0,0.94,0.68,1.62,1.79,1.62c1.12,0,1.76-0.66,1.76-1.61C139.34,21.92,138.66,21.26,137.55,21.26z"/>
</g>
<path d="M15.99,30.81h6.24c2.26,0,3.7,0.9,4.6,2.34c0.76,1.23,1.17,2.75,1.17,4.85v0.06c0,2.98-0.97,5.06-2.51,6.25l2.97,6.96h-4.87
	l-2.41-5.85h-0.03h-0.89v5.85h-4.26V30.81z M22.1,40.55c1.02,0,1.64-0.73,1.64-1.98V38.5c0-1.32-0.63-1.96-1.62-1.96h-1.87v4.01
	H22.1z"/>
<path d="M33.99,30.66h4.23l5.38,20.62h-4.63l-0.67-2.74h-4.48l-0.65,2.74h-4.57L33.99,30.66z M37.23,43.69l-1.16-4.98l-1.16,4.98
	H37.23z"/>
<path d="M42.76,41.11v-0.06c0-6.11,2.98-10.67,6.79-10.67c2.81,0,4.7,2.19,5.78,5.32L51.81,39c-0.47-1.45-1.15-2.48-2.31-2.48
	c-1.45,0-2.39,2.01-2.39,4.47v0.06c0,2.66,0.98,4.54,2.39,4.54c1.2,0,1.87-1.06,2.41-2.58l3.52,3.19c-1.08,3.04-2.86,5.53-6.04,5.53
	C45.86,51.73,42.76,47.46,42.76,41.11z"/>
<path d="M56.37,30.81h4.27v20.47h-4.27V30.81z"/>
<path d="M62.44,30.81h4l4.54,9.04v-9.04h4.24v20.47h-3.79l-4.74-9.44v9.44h-4.24V30.81z"/>
<path d="M76.15,41.11v-0.06c0-6.11,3.01-10.67,7.04-10.67c2.19,0,3.96,1.16,5.35,3.1l-2.39,4.62c-0.83-1.15-1.77-1.78-2.83-1.78
	c-1.66,0-2.86,2.05-2.86,4.82v0.06c0,2.9,1.26,4.89,3.05,4.89c0.73,0,1.13-0.18,1.45-0.46v-2.05h-2.19v-4.39h6.19v9.48
	c-1.38,1.81-3.33,3.07-5.64,3.07C79.35,51.73,76.15,47.46,76.15,41.11z"/>
<path d="M95.28,41.11v-0.06c0-6.11,2.97-10.67,6.79-10.67c2.8,0,4.7,2.19,5.78,5.32l-3.52,3.3c-0.47-1.45-1.15-2.48-2.32-2.48
	c-1.44,0-2.39,2.01-2.39,4.47v0.06c0,2.66,0.99,4.54,2.39,4.54c1.21,0,1.88-1.06,2.4-2.58l3.52,3.19c-1.07,3.04-2.86,5.53-6.03,5.53
	C98.36,51.73,95.28,47.46,95.28,41.11z"/>
<path d="M108.87,30.81h4.28v14.62h6v5.85h-10.27V30.81z"/>
<path d="M119.8,42.1V30.81h4.35v11.2c0,2.54,0.81,3.62,1.97,3.62c1.15,0,1.97-0.99,1.97-3.48V30.81h4.34v11.14
	c0,7-2.54,9.75-6.35,9.75C122.27,51.7,119.8,48.89,119.8,42.1z"/>
<path d="M134.14,30.81h7.15c1.77,0,2.88,0.63,3.63,1.84c0.46,0.72,0.78,1.78,0.78,3.18v0.06c0,2.43-0.91,3.92-2.28,4.68
	c1.64,0.75,2.7,2.17,2.7,4.97v0.06c0,3.27-1.68,5.67-4.91,5.67h-7.08V30.81z M140.16,38.86c0.91,0,1.35-0.5,1.35-1.41v-0.06
	c0-0.9-0.46-1.4-1.37-1.4h-1.85v2.87H140.16z M140.43,46.11c0.93,0,1.41-0.62,1.41-1.49v-0.06c0-0.87-0.46-1.49-1.39-1.49h-2.16
	v3.04H140.43z"/>
<path d="M152.43,30.81h4.88c5.07,0,7.62,4,7.62,10.06v0.05c0,6.06-2.59,10.36-7.76,10.36h-4.74V30.81z M157.4,45.31
	c1.96,0,3.21-1.28,3.21-4.23v-0.06c0-2.95-1.26-4.24-3.21-4.24h-0.71v8.54H157.4z"/>
<path d="M165.82,30.81h10.89v5.62h-6.69v2.07h6.24v4.95h-6.24v2.22h6.79v5.61h-10.98V30.81z"/>
<path d="M183.33,30.81h4.26v14.62h6.01v5.85h-10.27V30.81z"/>
<path d="M195.11,30.81H206v5.62h-6.69v2.07h6.24v4.95h-6.24v2.22h6.78v5.61h-10.98V30.81z"/>
<path d="M207.67,30.81h3.99l4.55,9.04v-9.04h4.23v20.47h-3.79l-4.74-9.44v9.44h-4.24V30.81z"/>
<path d="M221.18,48.22l2.28-4.36c1.38,1.7,2.97,2.39,4.46,2.39c0.77,0,1.09-0.32,1.09-0.87v-0.07c0-0.58-0.39-0.9-1.77-1.34
	c-2.87-0.93-5.38-2.25-5.38-6.59v-0.05c0-3.9,1.9-6.91,5.42-6.91c2.46,0,4.29,0.94,5.76,2.81l-2.08,4.62
	c-1.21-1.41-2.65-2.02-3.83-2.02c-0.63,0-0.93,0.36-0.93,0.86v0.05c0,0.56,0.34,0.91,1.69,1.32c3.27,0.96,5.46,2.48,5.46,6.61v0.06
	c0,4.3-2.21,6.93-5.65,6.93C225.14,51.67,222.8,50.5,221.18,48.22z"/>
</svg>
