<?xml version="1.0" encoding="UTF-8" standalone="no"?>
<svg
   xmlns:dc="http://purl.org/dc/elements/1.1/"
   xmlns:cc="http://creativecommons.org/ns#"
   xmlns:rdf="http://www.w3.org/1999/02/22-rdf-syntax-ns#"
   xmlns:svg="http://www.w3.org/2000/svg"
   xmlns="http://www.w3.org/2000/svg"
   xmlns:sodipodi="http://sodipodi.sourceforge.net/DTD/sodipodi-0.dtd"
   xmlns:inkscape="http://www.inkscape.org/namespaces/inkscape"
   version="1.1"
   id="emblema-scp"
   x="0px"
   y="0px"
   width="454.54547"
   height="600"
   viewBox="0 0 454.54547 600"
   enable-background="new 0 0 75 99"
   xml:space="preserve"
   sodipodi:docname="Logo Sporting Clube Portugal.svg"
   inkscape:version="1.0 (4035a4f, 2020-05-01)"><metadata
   id="metadata860"><rdf:RDF><cc:Work
       rdf:about=""><dc:format>image/svg+xml</dc:format><dc:type
         rdf:resource="http://purl.org/dc/dcmitype/StillImage" /></cc:Work></rdf:RDF></metadata><defs
   id="defs858" /><sodipodi:namedview
   inkscape:document-rotation="0"
   pagecolor="#ffffff"
   bordercolor="#666666"
   borderopacity="1"
   objecttolerance="10"
   gridtolerance="10"
   guidetolerance="10"
   inkscape:pageopacity="0"
   inkscape:pageshadow="2"
   inkscape:window-width="1440"
   inkscape:window-height="756"
   id="namedview856"
   showgrid="false"
   inkscape:zoom="6"
   inkscape:cx="221.25373"
   inkscape:cy="140.22671"
   inkscape:window-x="0"
   inkscape:window-y="25"
   inkscape:window-maximized="0"
   inkscape:current-layer="emblema-scp" />

<g
   id="g966"
   transform="scale(6.0606061)"><path
     style="fill:#ffffff"
     d="M 37.5,99 C 49,95.1 58.5,88.6 65.1,80.1 71.4,71.9 75,61.8 75,50.1 75,44.5 74.7,39.6 73.8,35 73,30.7 71.901,26.7 70.2,22.7 c -4.4,-0.2 -7.4,-0.6 -9.8,-1.2 -2.602,-0.7 -4.9,-1.9 -7.301,-3.1 -3.801,-1.9 -7.5,-3.8 -15.601,-3.8 -8.1,0 -11.8,1.9 -15.6,3.8 -2.4,1.2 -4.7,2.4 -7.3,3.1 -2.4,0.7 -5.4,1.1 -9.8,1.2 C 3.2,26.8 2,30.7 1.2,35 0.3,39.6 0,44.5 0,50.1 0,61.8 3.6,72 9.9,80.1 16.5,88.6 26,95 37.5,99 Z"
     fill="#ffffff"
     id="icon-badge-back" /><path
     style="fill:#008863;fill-opacity:1"
     id="icon-badge-v2"
     d="m 73.5,53.8 c 0.1,-1.1 0.1,-2.3 0.1,-3.399 0,-0.5 0,-1 0,-1.5 H 58 c -0.1,-1.1 -0.4,-2.2 -0.6,-3.3 C 57.3,45 57.2,44.5 57.1,43.9 H 73.5 C 73,36.3 71.5,29.9 68.9,23.5 60.1,23.3 57.1,21.8 53.6,20 49.5,18 46,15.8 37.4,15.8 28.7,15.8 25.2,18 21.2,20 17.6,21.8 14.7,23.3 5.9,23.5 3.2,29.9 1.8,36.3 1.3,43.9 h 16.5 c -0.1,0.6 -0.2,1.1 -0.3,1.7 -0.2,1.1 -0.3,2.2 -0.4,3.3 H 1.2 c 0,0.5 0,1 0,1.5 0,1.1 0,2.3 0.1,3.398 H 17 c 0,1.7 0.2,3.4 0.5,5 H 1.9 c 0.3,1.7 0.6,3.301 1.1,4.9 h 16 c 0.7,1.8 1.6,3.398 2.7,5 h -17 c 5.5,13.699 17.3,23.699 33,29 15.6,-5.301 27.5,-15.301 33,-29 h -17 c 1.1,-1.5 2,-3.2 2.7,-5 h 16 c 0.398,-1.602 0.8,-3.301 1.1,-4.9 H 57.9 c 0.3,-1.6 0.5,-3.199 0.5,-5 z" /></g><path
   d="m 315.15152,418.18182 c -20.60607,26.66666 -50.30304,46.66666 -86.66667,58.78788 h -1.81818 C 190.30303,464.84848 160.60606,444.84848 140,418.18182 c -20,-25.45455 -30.90909,-57.57576 -30.90909,-93.9394 0,-16.96969 1.21212,-32.12121 3.63636,-46.0606 2.42425,-13.9394 6.66667,-27.27273 12.12121,-40.60606 l 0.60607,-1.81818 c 10.90909,-0.60606 21.81818,-0.60606 32.12121,-3.63637 7.27272,-1.81818 13.93939,-5.45454 20.60606,-8.48485 12.12121,-6.0606 23.63636,-12.12121 49.69697,-12.12121 26.0606,0 37.57576,6.06061 49.69697,12.12121 6.67272,3.63637 13.33333,6.66667 20.60606,8.48485 10.30303,3.03031 21.21212,3.03031 32.12121,3.63637 l 0.60606,1.81818 c 5.45455,13.33333 9.09091,26.0606 12.12121,40.60606 2.42425,13.93939 3.64849,29.09091 3.64849,46.0606 -0.61818,36.9697 -12.13334,68.48485 -31.52727,93.9394 z"
   id="path918"
   style="fill:#ffffff;stroke-width:6.06061" /><path
   d="M 324.84848,241.81818 C 311.52121,241.21212 302.4303,240 295.75758,238.18182 c -7.87879,-1.81818 -14.5394,-5.45455 -21.81819,-9.09091 -11.51515,-6.06061 -22.42424,-11.51515 -46.66666,-11.51515 -24.24243,0 -35.75758,5.45454 -46.66667,11.51515 -7.27273,3.63636 -13.93939,7.27273 -21.81818,9.09091 -7.27273,1.81818 -16.36364,3.0303 -29.09091,3.63636 -4.84849,12.12121 -8.48485,24.24243 -10.90909,36.9697 -2.42424,13.93939 -3.63636,28.48485 -3.63636,45.45454 0,35.15152 10.90909,65.45455 29.69696,90.30303 19.39394,25.44849 47.87879,44.83637 82.42425,56.36364 34.54545,-12.12121 63.0303,-30.91515 82.42424,-56.36364 18.78788,-24.24242 29.69697,-55.15151 29.69697,-90.30303 0,-16.96969 -1.21212,-31.51515 -3.63636,-45.45454 -3.03031,-13.33333 -6.06061,-24.84849 -10.9091,-36.9697 z"
   fill="#008863"
   id="icon-badge-v1"
   style="fill:#008863;fill-opacity:1;stroke-width:6.06061" />
<g
   id="g882"
   transform="scale(6.0606061)"><path
     id="icon-badge-s"
     fill="#008863"
     d="m 14.1,15.1 c 0.7,0 3.3,0.1 5.4,-0.5 1.6,-0.4 3.1,-1.4 2.7,-2.3 -0.3,-0.8 -1.8,-0.8 -3.6,-0.4 -2.2,0.5 -4.5,0.3 -5.2,0 -0.9,-0.4 -1.6,-1.1 -1.9,-2 -0.3,-1 0.1,-2.3 1,-3.4 0.9,-1 2.3,-1.9 4.2,-2.5 1.8,-0.7 3.5,-1 5.4,-1.2 l 1.2,2.5 c -1,0 -2.2,0 -3.5,0.3 -1.3,0.2 -2.7,0.7 -3.5,1.4 -0.7,0.7 -0.4,1.7 0.7,1.6 0.6,-0.1 1.4,-0.1 2,-0.2 1.7,-0.2 3.5,-0.4 5.2,0.1 3.4,1 2.5,4.2 0.5,6.1 -0.8,0.7 -1.7,1.3 -2.5,1.6 -2.1,1 -4.5,1.3 -6.7,1.5 z" /><path
     id="icon-badge-c"
     fill="#008863"
     d="M 44.489204,1.0271295 C 43.698444,0.71244488 42.835376,0.47006838 41.9,0.3 40.9,0.1 39.8,0 38.6,0 37.202,0 35.8,0.2 34.5,0.5 32.4,1.1 30,2.2 28.8,4.1 28.3,4.9 28,5.8 28,6.7 c 0,1.1 0.3,2.1 1,3 1.4,1.9 3.9,2.9 6.1,3.4 1.1,0.2 2.2,0.3 3.4,0.3 1.1,0 2.2,-0.1 3.2,-0.3 1,-0.2 2.3,-0.7 3.2,-1.1 V 8.9 c -1.9,1 -4,1.6 -6.2,1.6 -2.4,0 -6,-0.8 -6,-3.9 0,-3 3.7,-3.8 6,-3.8 2,0 4.399,0.5 6,1.5 V 1.2 Z"
     sodipodi:nodetypes="ccsccsccssccsssccc" /><path
     id="icon-badge-p"
     fill="#008863"
     d="m 52,15.5 1.5,-4.7 3.4,1.1 c 1.1,0.3 2.898,0.6 4.5,0.1 2.199,-0.8 2.898,-3.2 1.5,-5.1 C 62.298,6.1 61.5,5.5 60.7,5.1 59.8,4.7 58.2,4.2 56.599,3.7 L 51.7,2.1 47.9,14.2 Z m 7.5,-6.8 c -0.3,1 -2.3,0.8 -3,0.6 l -2.3,-0.7 0.9,-2.8 2.6,0.8 c 0.9,0.2 2.2,1 1.8,2.1 z" /></g>
<g
   id="g945"
   transform="scale(6.0606061)"><path
     id="icon-badge-l4"
     fill="#f2be4b"
     d="m 49.5,46.9 c 0.1,0.1 0.3,0.2 0.6,0.2 0.4,0 0.9,-0.1 1.102,-0.2 0.202,-0.1 0.398,-0.2 0.6,-0.2 -0.1,0 -0.398,0 -0.6,0.1 -0.4,0.1 -1.301,0 -1.301,-0.5 v 0 c 0,0 0,0 0.101,0 0.3,0.1 0.601,0.2 1,0.2 0.3,0 0.5,-0.1 0.7,-0.2 0.199,-0.1 0.3,-0.2 0.6,-0.2 -0.3,-0.2 -0.6,0 -1,0 -0.3,0 -0.5,-0.1 -0.699,-0.2 -0.101,-0.1 -0.199,-0.1 -0.399,-0.2 -0.3,-0.1 -0.7,-0.2 -1,-0.2 -0.2,0 -0.5,0.1 -0.7,0.2 -0.2,0.1 -0.3,0.3 -0.4,0.5 v 0 C 47.4,46.1 46.9,46.3 46.4,46.6 c -0.5,0.3 -0.9,0.8 -1.2,1.4 -0.4,0.8 -0.4,1.6 -0.3,2.5 0.1,0.8 0.5,1.6 0.898,2.4 0.802,1.5 1.302,2.5 1.602,3.2 0.3,0.699 0.398,1.199 0.398,1.801 0,0.398 -0.1,0.8 -0.3,1.1 -0.2,0.3 -0.5,0.6 -0.899,0.7 -0.399,0.2 -0.801,0.2 -1.199,0.1 -0.5,-0.1 -1,-0.399 -1.5,-0.899 C 43.6,58.6 43.1,57.8 42.7,56.9 42.3,56.2 42,55.4 42,55 c -0.1,-0.7 -0.1,-1.7 -0.1,-2.7 0,-0.1 0,-0.2 0,-0.399 -0.2,0.199 -0.301,0.301 -0.4,0.5 -0.099,0.199 -0.2,0.5 -0.2,0.801 0,0 0,0 -0.1,0 C 41,53 40.8,52.6 40.8,52.3 c -0.1,-0.399 0,-0.8 0.101,-1.3 0.199,-0.6 0.301,-1.1 0.301,-1.6 0,-0.5 -0.102,-1 -0.5,-1.3 V 48 c 0.199,0 0.5,0.2 0.699,0.4 0.199,0.2 0.399,0.4 0.5,0.7 0.101,0.2 0.101,0.4 0.199,0.7 0.2,0.8 0.4,1.601 1.301,1.7 -0.5,-0.5 -0.5,-1.4 -0.5,-2.2 0,-0.4 0,-0.8 0,-1.2 C 42.8,47.6 42.6,47.3 42.4,47 c -0.301,-0.3 -0.7,-0.4 -1,-0.4 0,0 0,0 0,-0.1 0.1,-0.1 0.199,-0.2 0.199,-0.3 C 41.7,46.1 41.9,46 42.1,46 c 0.2,0 0.301,0 0.5,0.1 0.102,0.1 0.2,0.1 0.2,0.2 0.2,0.2 0.3,0.4 0.4,0.7 0.2,0.5 0.5,1 1,1.1 -0.2,-0.3 -0.2,-0.6 -0.2,-1 0,-0.5 -0.1,-1 -0.5,-1.7 -0.2,-0.3 -0.4,-0.5 -0.7,-0.7 -0.3,-0.2 -0.6,-0.2 -1,-0.2 0,0 -0.1,0 0,-0.1 0.101,-0.2 0.3,-0.4 0.5,-0.5 0.2,-0.1 0.4,-0.1 0.601,-0.1 0.5,0.1 0.699,0.4 1,0.7 0.199,0.2 0.301,0.5 0.601,0.6 -0.101,-0.2 -0.2,-0.4 -0.2,-0.6 -0.1,-0.2 -0.1,-0.5 -0.1,-0.8 0,-0.3 -0.2,-0.6 -0.4,-0.8 -0.3,-0.2 -0.6,-0.4 -1,-0.4 -0.199,0 -0.3,0 -0.5,0.1 -0.199,0 -0.398,0.1 -0.6,0.2 0,0 0,0 -0.102,0 0,-0.2 0,-0.4 0.102,-0.6 0.1,-0.1 0.199,-0.2 0.3,-0.3 0.101,-0.1 0.3,-0.1 0.5,-0.1 0.399,0 0.899,0.1 1.3,0.3 0,-0.2 -0.1,-0.4 -0.199,-0.5 -0.199,-0.2 -0.301,-0.3 -0.601,-0.3 -0.399,-0.1 -0.8,-0.1 -1.2,-0.1 -0.398,0 -0.8,0 -1.1,-0.1 V 41 c 0.398,-0.1 0.8,-0.4 1.3,-0.8 v 0 c -0.899,0.1 -1.5,-0.1 -2.101,-0.2 -0.699,-0.2 -1.399,-0.4 -2.399,0.3 v 0 c -0.3,-0.1 -0.6,-0.1 -0.9,-0.2 -0.3,0 -0.5,0 -0.7,0 -0.2,0 -0.4,0.1 -0.4,0.2 0,0.1 -0.1,0.1 -0.1,0.2 0,0.1 0,0.1 0.1,0.2 0.1,0.1 0.2,0.2 0.4,0.3 0.2,0 0.5,0.1 0.8,0.1 0.3,0 0.7,0 1.2,-0.1 0,0 0,0 0,0.1 -0.1,0.2 -0.5,0.3 -0.8,0.5 -0.3,0.1 -0.6,0.2 -0.8,0.3 0,0 0,0 -0.1,0 -0.2,-0.3 -0.5,-0.5 -0.9,-0.5 -0.4,0 -1,0.1 -1.8,0.3 L 33.3,42 c -0.1,0.1 -0.1,0.2 0,0.2 0.1,0.1 0.2,0.1 0.5,0.1 0.1,0 0.1,0 0.2,0 v 0.1 c -0.2,0 -0.3,0.1 -0.4,0.3 -0.1,0.1 -0.1,0.2 -0.1,0.3 0,0.1 0,0.2 0.1,0.3 0.1,0.1 0.2,0.2 0.4,0.3 0.7,-0.6 1.5,-0.8 2.2,-0.7 0.2,0 0.5,0.1 0.6,0.2 0.2,0.1 0.3,0.2 0.5,0.3 0.2,0.2 0.3,0.5 0.2,0.7 -0.1,0.4 -0.2,0.7 -0.7,0.8 -0.4,0.1 -1.1,0.1 -2.2,-0.1 -0.1,0.2 0,0.5 0.1,0.7 0.2,0.3 0.5,0.5 0.9,0.7 0.3,-0.2 0.6,-0.4 0.8,-0.6 0.3,-0.1 0.5,-0.2 0.7,-0.2 0.1,0 0.2,0 0.2,0.1 0.1,0 0.1,0.1 0.1,0.2 0,0.1 0,0.2 0,0.2 0,0.1 -0.1,0.3 -0.2,0.4 -0.3,0.3 -0.9,0.5 -1.4,0.7 -0.2,0.1 -0.3,0.1 -0.5,0.2 -0.4,0.2 -0.8,0.3 -1.1,0.5 -0.3,0.2 -0.4,0.3 -0.5,0.6 0.2,0 0.5,0 0.7,0 0.5,0 0.9,0 1.6,-0.2 v 0 c -0.1,0.5 -0.9,0.8 -1.8,1.1 -0.4,0.1 -0.8,0.3 -1.2,0.5 -0.3,0.2 -0.7,0.399 -0.9,0.7 -0.2,0.3 -0.4,0.699 -0.5,1.1 0.2,0 0.4,0 0.7,-0.1 0.3,-0.1 0.7,-0.3 1.1,-0.6 0.2,-0.1 0.4,-0.2 0.6,-0.2 0.4,-0.1 0.8,-0.199 1.4,-0.7 h 0.1 c -0.1,0.3 -0.2,0.6 -0.3,0.8 -0.2,0.2 -0.4,0.5 -0.6,0.7 -0.2,0.199 -0.7,0.3 -1.1,0.398 -0.1,0 -0.2,0 -0.3,0.102 -0.4,0.1 -0.7,0.199 -1,0.199 -0.3,0 -0.5,-0.101 -0.6,-0.199 -0.5,0.199 -1,0.5 -1.6,0.898 -0.2,0.102 -0.3,0.2 -0.5,0.301 -0.4,0.301 -0.8,0.5 -1.2,0.601 -0.4,0.2 -0.8,0.3 -1.3,0.3 -0.6,0 -1.1,-0.2 -1.5,-0.5 -0.4,-0.2 -0.8,-0.4 -1.2,-0.5 -0.2,0 -0.3,0.1 -0.4,0.2 -0.1,0.1 -0.2,0.3 -0.2,0.5 0.1,0 0.3,0 0.4,0 h 0.1 c 0.2,0 0.4,0 0.5,0.1 0.1,0.101 0.2,0.2 0.3,0.4 v 0.1 c -0.3,0 -1,0 -1.4,0.2 -0.4,0.2 -0.7,0.5 -0.4,1.2 0,-0.101 0.1,-0.2 0.1,-0.2 0,-0.1 0.1,-0.1 0.2,-0.2 0.1,0 0.3,-0.1 0.4,-0.1 0.5,-0.2 0.7,-0.3 1.1,0.2 v 0.1 c -0.1,0 -0.2,0 -0.2,0 -0.4,0.1 -0.7,0.3 -0.8,0.5 -0.2,0.2 -0.2,0.5 -0.2,0.8 0,0.101 0,0.101 0,0.2 0.2,-0.2 0.4,-0.2 0.5,-0.2 0.1,0 0.2,-0.1 0.2,-0.1 0.1,-0.101 0.2,-0.101 0.2,-0.2 0.3,-0.2 0.5,-0.4 1.4,-0.6 0.2,-0.102 0.3,-0.102 0.5,-0.2 0.4,-0.101 0.7,-0.3 1.1,-0.3 0.3,0 0.7,0.1 1,0.199 0.3,0.101 0.7,0.199 1.1,0.301 -0.1,-0.2 -0.2,-0.4 -0.4,-0.5 -0.2,-0.2 -0.4,-0.3 -0.7,-0.4 0,0 0,0 0,-0.1 0.3,-0.301 0.7,-0.301 1,-0.2 0.4,0.1 0.7,0.2 1.1,0.399 0.5,0.199 0.8,0.5 1.2,0.5 0.4,0 0.8,0 1.3,-0.301 -0.5,-0.1 -0.8,-0.398 -1,-0.6 C 32,54.4 31.6,54.1 31,54.2 c 0,0 0,0 0,-0.101 0.1,-0.199 0.3,-0.301 0.5,-0.399 0.2,-0.101 0.4,-0.101 0.7,-0.101 0.3,0 0.7,0.199 1.2,0.5 0.7,0.399 1.4,0.801 2.2,0.801 0,0 0,0 0,0.1 -0.2,0.2 -0.5,0.4 -0.8,0.5 0.1,0.2 0.3,0.5 0.6,0.8 0.3,0.3 0.7,0.601 1,0.8 0.3,0.2 0.7,0.301 1.1,0.5 0.4,0.102 0.8,0.2 1.4,0.301 0.6,0.101 1.1,0.301 1.3,0.5 0.3,0.199 0.3,0.399 0.2,0.601 0.199,0.101 0.1,0.399 0,0.7 C 40.3,59.9 40.2,60.1 40,60.3 c -0.1,0.2 -0.3,0.4 -0.4,0.7 -0.3,0.5 -0.3,1.1 -0.3,1.8 v 0.1 c 0,0.199 0.2,0.398 0.4,0.699 0.2,0.301 0.399,0.5 0.6,0.699 l 0.1,0.102 c 0.5,0.6 0.898,1 0.8,2.1 0.399,-0.3 0.8,-0.4 1.1,-0.4 0.2,0 0.4,0 0.601,0.2 v 0 c 0.101,0.101 0.199,0.3 0.301,0.5 0.1,0.3 0,0.8 -0.102,1.3 -0.2,0.4 -0.4,0.8 -0.7,1.1 -0.3,0.3 -0.6,0.7 -0.9,0.9 -0.3,0.102 -0.7,0 -1,0 -0.5,-0.1 -1,-0.199 -1.3,0.2 -0.1,0.1 -0.1,0.2 -0.2,0.3 0,0.102 0,0.301 0,0.5 0.2,0 0.4,0 0.7,-0.1 0.5,-0.1 1,-0.2 1.2,0.2 v 0 c -0.102,0.1 -0.2,0.2 -0.301,0.3 -0.101,0.1 -0.199,0.2 -0.301,0.3 -0.1,0.2 -0.199,0.5 -0.3,0.9 v 0.1 c 0.101,0 0.3,0 0.399,0 0.399,0 0.801,0 1.101,-0.3 0.101,-0.1 0.2,-0.2 0.3,-0.3 0.2,-0.2 0.4,-0.5 0.602,-0.5 v 0 c 0,0.2 0,0.3 0.1,0.399 0.1,0.301 0.1,0.5 -0.1,0.899 0.398,0 0.8,-0.101 1.1,-0.3 0.2,-0.2 0.4,-0.4 0.4,-0.602 0,-0.199 -0.102,-0.398 -0.102,-0.6 -0.1,-0.3 -0.199,-0.6 -0.1,-1 0.1,-0.3 0.199,-0.6 0.3,-0.8 0.101,-0.2 0.3,-0.4 0.5,-0.5 0.3,-0.101 0.601,-0.3 0.8,-0.5 0.2,-0.2 0.4,-0.4 0.5,-0.7 -0.1,0 -0.3,0.1 -0.398,0.1 -0.2,0 -0.4,0 -0.5,0.102 0,0 0,0 -0.102,0 -0.1,-0.102 -0.1,-0.301 -0.1,-0.4 0,-0.099 0.1,-0.3 0.199,-0.5 v 0 c 0.101,-0.1 0.301,-0.3 0.5,-0.398 0.203,-0.1 0.303,-0.2 0.403,-0.3 0,0 0.101,0 0.2,0 0.2,-0.1 0.7,-0.199 1.4,-0.8 0.199,-0.2 0.398,-0.5 0.398,-0.7 0,-0.199 0,-0.5 -0.199,-0.699 -0.301,0.601 -0.899,0.801 -1.301,1 C 46,65.5 45.7,65.6 45.6,65.8 h -0.1 c -0.1,-0.3 0,-0.7 0.1,-1 0.2,-0.3 0.5,-0.6 0.801,-0.8 0.101,0 0.199,-0.1 0.301,-0.2 0.898,-0.5 1.699,-0.899 1.6,-2 -0.3,0.3 -0.699,0.4 -0.898,0.5 -0.2,0 -0.4,0 -0.602,0 -0.199,-0.1 -0.3,-0.2 -0.398,-0.3 -0.2,-0.2 -0.301,-0.5 -0.301,-0.8 V 61.1 C 46.8,61.2 47.4,61.2 48,61 c 0.4,-0.2 0.8,-0.5 1,-0.9 -0.2,0.102 -0.3,0.2 -0.5,0.301 -0.2,0.101 -0.4,0 -0.6,-0.101 0,0 0,0 0,-0.1 0.6,-0.3 1,-0.7 1.199,-1.101 0.301,-0.5 0.399,-1 0.5,-1.601 0,-0.3 0,-0.601 -0.101,-0.899 -0.101,-0.301 -0.2,-0.699 -0.399,-1 C 48.9,55.3 48.8,55 48.6,54.7 48.4,54.4 48.2,54 48,53.7 c -0.3,-0.5 -0.7,-1.101 -1,-1.601 -0.3,-0.5 -0.6,-1.101 -0.7,-1.601 -0.2,-0.6 -0.3,-1.3 -0.2,-1.9 0.102,-0.6 0.301,-1.1 0.7,-1.5 0.2,-0.2 0.5,-0.5 0.8,-0.6 0.301,-0.1 0.602,-0.2 0.9,-0.1 v 0 c -0.1,0.3 -0.1,0.6 0,0.8 0.1,0.4 0.5,0.7 0.9,0.7 0.699,0.1 1.199,-0.1 1.8,-0.3 0.3,-0.1 0.5,-0.2 0.8,-0.3 -0.3,-0.1 -0.5,0 -0.8,0 -0.2,0 -0.4,0.1 -0.601,0 C 50.4,47.2 50.2,47.1 50.2,46.9 c -0.8,0.1 -0.8,0.1 -0.7,0 -0.1,0 0,0 0,0 z m -11,4.5 c 0.3,-0.2 0.6,-0.5 0.7,-0.9 0.1,-0.3 0.1,-0.7 0,-1.1 0,0 0.1,-0.1 0.1,0 0.4,0.7 0.5,1.3 0.4,1.8 -0.2,0.5 -0.5,0.899 -1.101,1.2 C 38.3,52.6 38,52.6 37.7,52.6 c -0.4,0.102 -0.8,0.102 -1.3,0.5 h -0.1 c 0.2,-0.6 0.8,-0.898 1.4,-1.3 0.2,-0.1 0.5,-0.2 0.8,-0.4 z M 33.7,52 c 0.2,-0.2 0.6,-0.5 1,-0.6 0.2,-0.102 0.4,-0.2 0.7,-0.301 0.8,-0.301 1.4,-0.601 1.8,-1.601 h 0.1 c 0.2,0.601 0.2,1.101 0,1.5 -0.2,0.5 -0.6,0.8 -1.1,1 -0.5,0.2 -0.9,0.2 -1.2,0.3 C 34.6,52.4 34.2,52.4 33.7,52.6 H 33.6 C 33.4,52.3 33.5,52.2 33.7,52 Z m 0.6,1.8 C 34,53.6 33.8,53.4 33.5,53.4 v -0.1 c 0.8,-0.399 1.4,0 2,0.4 0.2,0.2 0.5,0.3 0.8,0.399 V 54.2 c -1,0.4 -1.5,0 -2,-0.4 z m 0.8,1.9 c 0,0 0,-0.1 0,0 0.3,0 0.6,0.1 0.8,0.2 0.3,0 0.6,0.1 0.9,0 0.4,0 0.8,-0.102 1.2,-0.2 0.4,-0.101 0.8,-0.2 1.1,-0.4 0,0 0.102,0 0.102,0.101 C 39,55.7 38.7,56 38.4,56.1 c -0.4,0.2 -0.8,0.3 -1.2,0.3 -0.4,0 -0.7,-0.102 -1.1,-0.2 -0.5,-0.1 -0.8,-0.3 -1,-0.5 z m 3.5,1.7 c -0.398,0 -0.8,0 -1.1,-0.2 -0.3,-0.101 -0.6,-0.3 -0.8,-0.5 v -0.1 c 0.6,0.102 1.1,0.2 1.8,0.102 0.7,0 1.3,-0.102 2,-0.301 0,0 0.1,0.101 0,0.101 -0.1,0 -0.2,0.101 -0.2,0.2 C 39.9,57 39.5,57.4 38.6,57.4 Z m 2.2,7.4 c 0,0 -0.1,0 0,0 -0.3,-0.5 -0.5,-0.899 -0.7,-1.2 -0.2,-0.4 -0.5,-0.7 -0.5,-1.2 0,-0.301 0,-0.7 0.2,-1.102 0.101,-0.398 0.3,-0.699 0.601,-1 h 0.101 c -0.101,0.301 -0.101,0.5 -0.2,0.801 0,0.301 0,0.601 0,0.801 0,0.6 0.2,0.898 0.4,1.3 -0.002,0.5 0.198,0.9 0.098,1.6 z" /><path
     id="icon-badge-l3"
     fill="#f2be4b"
     d="m 25.1,45.9 c 0.2,0.1 0.5,0.1 0.8,0.2 0.4,0.1 0.7,0.2 0.9,0.4 0.2,0.1 0.3,0.2 0.3,0.4 0.1,0.2 0.1,0.3 0,0.5 0,0.2 -0.1,0.4 -0.3,0.6 0.3,0 0.7,-0.1 1,-0.2 0.5,-0.1 0.9,-0.2 1.1,-0.1 v 0.1 c -0.2,0.1 -0.4,0.2 -0.6,0.4 -0.2,0.2 -0.6,0.5 -1.4,0.9 0.3,0.1 0.6,0.2 0.8,0.2 0.3,0 0.6,-0.1 0.9,-0.3 0,0 0.1,-0.1 0.2,-0.1 0.4,-0.2 1,-0.7 1.5,-0.3 v 0.1 c -0.5,0 -0.7,0.3 -1,0.7 -0.2,0.3 -0.5,0.6 -0.9,0.8 0.8,0.1 1.5,0 2,-0.3 0.5,-0.3 0.9,-0.8 1.2,-1.3 0.3,-0.5 0.6,-0.7 0.8,-0.9 0.1,-0.1 0.2,-0.2 0.2,-0.2 -0.3,-0.1 -0.7,-0.1 -1,-0.1 -0.3,0 -0.7,0 -1,-0.1 -0.4,-0.1 -0.7,-0.2 -1,-0.3 -0.3,-0.1 -0.6,-0.3 -0.9,-0.4 -0.5,-0.3 -0.9,-0.7 -1.1,-1 -0.3,-0.3 -0.5,-0.7 -0.6,-0.9 -0.1,-0.1 -0.1,-0.2 -0.1,-0.3 -0.3,-0.7 -0.5,-1.3 -1.5,-1.2 0.2,0.2 0.3,0.5 0.4,0.7 0.1,0.2 0.2,0.5 0.2,0.7 0,0 -0.1,0.1 -0.1,0 -0.2,-0.5 -0.6,-0.9 -0.9,-1.1 -0.2,-0.1 -0.3,-0.2 -0.5,-0.2 -0.2,0 -0.3,0 -0.5,0.1 -0.2,0.1 -0.3,0.2 -0.5,0.5 0.1,0 0.2,0.1 0.3,0.1 l 0.1,0.1 c 0.2,0.1 0.3,0.2 0.5,0.3 0.1,0.1 0.2,0.3 0.3,0.4 v 0.1 c -0.2,0 -0.3,-0.1 -0.5,-0.2 -0.2,-0.2 -0.5,-0.3 -1,-0.2 0.4,1.2 0.8,1.3 1.9,1.4 z" /><path
     id="icon-badge-l2"
     fill="#f2be4b"
     d="m 37.7,61.6 c 0.2,-0.6 0.5,-1.3 0.899,-1.898 -0.301,-0.102 -0.601,-0.102 -1,0.1 -0.3,0.2 -0.7,0.5 -1.2,0.9 h -0.1 c 0.2,-0.5 0.4,-0.9 0.6,-1.2 0.2,-0.3 0.5,-0.399 0.8,-0.601 -0.4,0 -0.8,0 -1.2,0.101 -0.5,0.101 -1.1,0.3 -1.6,0.7 h -0.1 c 0,-0.301 0.2,-0.602 0.5,-0.801 0.2,-0.199 0.6,-0.301 0.8,-0.5 0.2,-0.101 0.4,-0.199 0.5,-0.301 0.1,-0.1 0.2,-0.1 0.3,-0.199 -0.3,0 -0.6,0 -1,0.101 -0.3,0 -0.6,0.101 -0.9,0.101 -0.2,0 -0.3,0 -0.5,0 -0.3,0 -0.6,0 -0.9,0.101 -0.4,0.1 -0.8,0.3 -1.1,0.6 -0.2,0.3 -0.3,0.601 -0.3,1.101 0,0.399 0.2,0.801 0.4,1.101 0.2,0.399 0.5,0.8 0.5,1.399 0,0.601 -0.4,0.899 -0.8,1.101 -0.4,0.2 -1,0.2 -1.4,0.2 -0.3,0 -0.5,0 -0.8,0 -0.2,0 -0.4,-0.102 -0.6,-0.2 -0.2,-0.098 -0.3,-0.2 -0.5,-0.2 -0.2,-0.1 -0.5,-0.3 -0.8,-0.3 -0.3,0 -0.6,0 -0.9,0.2 -0.2,0.199 -0.4,0.398 -0.5,0.6 0.1,0 0.2,0 0.3,0 0.1,0 0.1,0 0.2,0 0.4,-0.1 0.7,-0.1 0.9,0 0.2,0.102 0.3,0.2 0.3,0.4 v 0.1 c -0.2,0 -0.3,0 -0.5,0 -0.4,0 -0.7,0 -0.9,0.102 -0.2,0.1 -0.4,0.199 -0.5,0.398 -0.1,0.2 -0.2,0.4 -0.2,0.602 0,0.1 0,0.199 0,0.3 0,0.101 0.1,0.2 0.1,0.3 0.2,-0.4 0.5,-0.6 0.8,-0.699 0.3,-0.201 0.7,-0.201 1.1,-0.101 0,0 0,0 0,0.101 -0.2,0.1 -0.6,0.399 -0.8,0.699 -0.2,0.2 -0.3,0.5 -0.4,0.7 0.3,-0.101 0.6,0 0.9,0 0.3,0.101 0.6,0.101 0.8,-0.101 0.1,-0.101 0.2,-0.199 0.2,-0.301 0.2,-0.199 0.4,-0.398 0.6,-0.6 0.1,-0.102 0.2,-0.2 0.3,-0.2 0.1,0 0.2,-0.101 0.3,-0.101 0.8,0 1.5,0 2,0 0.4,0.101 0.8,0.199 0.9,0.301 0,-0.2 -0.1,-0.301 -0.2,-0.4 -0.2,-0.199 -0.4,-0.3 -0.7,-0.5 v -0.1 c 0.7,-0.301 1.3,-0.102 2,0.1 0.8,0.301 1.6,0.5 2.3,-0.1 -0.3,0 -0.5,-0.2 -0.7,-0.4 -0.3,-0.199 -0.7,-0.5 -1.3,-0.5 0,0 0,0 0,-0.1 0.1,-0.2 0.3,-0.4 0.5,-0.5 0.2,-0.102 0.5,-0.2 0.8,-0.2 0.3,0 0.7,0.101 0.9,0.2 0.4,0.1 0.7,0.199 1.1,0.199 C 37.6,63 37.6,62.3 37.7,61.6 Z" /><path
     id="icon-badge-l1"
     fill="#f2be4b"
     d="m 30.7,44.3 c 0.3,0.2 0.7,0.3 1.1,0.3 0.4,0 0.8,-0.2 1.3,-0.4 0.7,-0.3 1.5,-0.7 2.5,-0.6 -1.1,-0.3 -2,0 -2.8,0.2 -0.4,0.1 -0.7,0.2 -1,0.2 -0.4,0 -0.8,0 -1,-0.1 -0.3,-0.1 -0.5,-0.2 -0.6,-0.3 0,0.3 0.2,0.5 0.5,0.7 z" /></g>
<g
   id="g939"
   style="fill:#ffffff"
   transform="scale(6.0606061)"><path
     sodipodi:nodetypes="scccccccccccccssccccc"
     d="m 34.898438,21.757812 c -1.135066,0.02712 -2.26476,0.160316 -3.396666,0.247762 -0.367127,0.03135 -0.734254,0.06269 -1.101381,0.09404 L 31,28.900396 c 0.666667,-0.06706 1.333333,-0.134115 2,-0.201172 -0.06641,-0.833333 -0.132813,-1.666667 -0.199219,-2.5 0.366537,-0.0332 0.733073,-0.06641 1.09961,-0.09961 0.814076,0.645555 1.613357,1.3672 2.099609,2.300782 0.766927,-0.0332 1.533854,-0.06641 2.300781,-0.09961 -0.567527,-1.074135 -1.266931,-2.146033 -2.344577,-2.767749 0.01692,-0.124507 0.490722,-0.271487 0.641187,-0.476352 0.46505,-0.37925 0.710162,-0.96909 0.702209,-1.56372 0.03469,-0.446694 -0.116054,-0.931063 -0.513526,-1.177408 -0.475267,-0.357013 -1.080105,-0.493646 -1.661757,-0.531373 -0.07449,-0.01446 -0.150098,-0.02289 -0.225879,-0.02637 z M 34.555206,24.904798 32.5,25.099609 32.300781,23.163281 34.222028,22.979674 c 1.527959,-0.211875 1.623523,1.759922 0.333178,1.925124 z"
     id="path894"
     style="fill:#ffffff" /><path
     sodipodi:nodetypes="ccccccccccccccccc"
     d="m 18.386719,27.037109 c -0.536264,-0.05017 -1.060253,0.151158 -1.534563,0.379398 -1.076859,0.653839 -1.989943,1.53368 -2.955657,2.334968 -0.331595,0.283228 -0.663244,0.566397 -0.996108,0.848134 l 4.298828,5.201172 1.5,-1.5 -1.398438,-1.701172 c 0.736386,-0.626381 1.563011,-1.18562 2.110342,-1.998599 0.327997,-0.506328 0.527464,-1.104597 0.563486,-1.706479 -0.08333,-0.847563 -0.666823,-1.782623 -1.58789,-1.857422 z m -0.286291,2.759587 c 0.02955,0.312355 -0.0217,0.648574 -0.266678,0.869482 -0.250912,0.383163 -0.692507,0.563411 -1.017663,0.873469 -0.105362,0.08704 -0.210725,0.174089 -0.316087,0.261134 l -1.300781,-1.601562 1.336778,-1.122687 c 0.915252,-0.269776 1.241329,-0.02456 1.564431,0.720164 z"
     id="path900"
     style="fill:#ffffff" /><path
     sodipodi:nodetypes="cccccccccccccccccc"
     d="m 25.972656,23.365234 c -1.196667,-0.04996 -2.35553,0.384857 -3.406451,0.919624 -1.121971,0.599742 -2.035051,1.702383 -2.184986,2.991421 -0.08457,0.950753 0.40031,1.848549 0.997565,2.551346 0.773979,0.855049 2.017955,1.173408 3.129895,0.939757 1.070003,-0.220894 2.137363,-0.589211 3.02666,-1.23833 0.958422,-0.718225 1.695711,-1.892747 1.531656,-3.129119 -0.144103,-1.11655 -0.769617,-2.234099 -1.836772,-2.698847 -0.396401,-0.179526 -0.820579,-0.313708 -1.257567,-0.335852 z m -0.1698,1.615845 c 0.346196,0.250163 0.705346,0.522429 0.861743,0.937134 0.199903,0.394403 0.304951,0.840266 0.335401,1.281006 -0.02968,0.473509 -0.150832,0.981603 -0.514771,1.31259 -0.296152,0.321376 -0.623195,0.632955 -1.052624,0.761031 -0.427633,0.16577 -0.911353,0.164337 -1.353079,0.06093 -0.693073,-0.242089 -1.151145,-0.9004 -1.361553,-1.579171 -0.377765,-1.271668 -0.04335,-1.824149 0.692215,-2.570854 0.850174,-0.562238 1.615161,-0.463585 2.392668,-0.202666 z"
     id="path896"
     style="fill:#ffffff" /><path
     d="m 14.5,38.9 c -0.509629,0.756593 -1.169458,1.400011 -1.846875,2.004687 -0.167674,0.253441 -0.353368,0.166878 -0.539312,0.01134 C 11.742542,40.677349 11.371271,40.438674 11,40.2 c 0.634466,-0.357126 1.251179,-0.748393 1.81626,-1.207495 0.348706,-0.311983 0.60698,-0.707047 0.90874,-1.059692 0.18423,-0.360375 0.507829,-0.827613 0.282227,-1.220313 -0.28948,-0.409307 -0.803307,-0.02874 -1.094727,0.184888 -0.533572,0.504724 -1.034915,1.044178 -1.568457,1.548614 -0.484316,0.383994 -1.050245,0.725378 -1.6776123,0.780585 C 9.0098986,39.211888 8.3797587,38.790367 8.1625,38.1625 7.9436495,37.61293 7.9611038,36.994298 8.1785889,36.446948 8.5865457,35.369284 9.2285116,34.363482 10.087582,33.589401 10.431417,33.30132 10.720623,32.946729 11.1,32.7 c 0.333333,0.333333 0.666667,0.666667 1,1 -1.001871,0.591462 -1.852924,1.446999 -2.4375,2.45 -0.1480641,0.336088 -0.2958287,0.888455 0.1869141,1.020312 0.4640349,0.01999 0.7573979,-0.415263 1.1136659,-0.64248 0.486186,-0.452079 0.917729,-0.969613 1.477463,-1.33753 0.445583,-0.340608 0.971672,-0.670681 1.559457,-0.585615 0.913283,-0.0174 1.621287,0.863482 1.618341,1.734961 0.03629,0.727264 -0.384803,1.36084 -0.72975,1.967545 C 14.765298,38.508793 14.635499,38.706399 14.5,38.9 Z"
     id="path898"
     style="fill:#ffffff" /><path
     id="path892"
     d="m 38.1,21.4 7.301,0.8 -0.199,1.4 -2.7,-0.3 -0.602,5.3 -2,-0.2 0.601,-5.3 -2.7,-0.3 z"
     style="fill:#ffffff" /><path
     id="path890"
     d="m 49.1,23.4 -1.9,6.5 -1.9,-0.5 1.9,-6.5 z"
     style="fill:#ffffff" /><path
     id="path888"
     d="m 53.5,25.2 1.8,5.6 2.3,-3.5 1.7,1 -3.7,5.8 -1.5,-1 -1.7,-5.5 -1.7,3.7 -1.7,-0.7 2.8,-6.2 z"
     style="fill:#ffffff" /><path
     id="path886"
     d="m 61.6,31.4 c 1,0.2 1.9,1 2.801,2.1 0.301,0.4 0.601,0.9 0.899,1.3 0.2,0.4 0.4,1.2 0.601,1.9 l -1.301,1 C 64.5,36.9 64.3,35.9 64,35.3 63.9,35 63.7,34.8 63.5,34.5 c -0.4,-0.5 -1,-1 -1.6,-1.2 -0.301,-0.1 -0.602,-0.1 -0.9,0 -0.3,0.1 -0.6,0.2 -0.9,0.4 -0.6,0.4 -0.898,1 -0.898,1.6 0,0.9 0.898,2.3 1.5,3 l 1,-0.7 -0.7,-1 1,-0.7 1.8,2.8 -2.4,1.8 c -0.301,-0.2 -1,-0.9 -1.5,-1.3 -0.5,-0.4 -0.9,-0.9 -1.2,-1.4 -0.9,-1.1 -1.3,-2.2 -1.3,-3.2 0,-1 0.5,-1.9 1.398,-2.5 0.9,-0.8 1.8,-1 2.8,-0.7 z"
     style="fill:#ffffff" /></g><g
   id="g962"
   style="fill:#ffffff"
   transform="scale(6.0606061)"><path
     d="m 54.800781,76.699219 -1.800781,1 0.599609,5.90039 1.5,-0.90039 L 55,81.5 l 2.099609,-1.199219 1,0.699219 1.5,-0.900391 z m -0.201172,1.701172 1.701172,1.298828 L 54.900391,80.5 Z"
     id="path916"
     style="fill:#ffffff" /><path
     id="path914"
     d="m 58.1,74.1 2.9,3.2 2.3,-2.1 0.7,0.8 -3.4,3.2 -3.699,-4 z"
     style="fill:#ffffff" /><path
     sodipodi:nodetypes="cccccccccccccccccccc"
     id="path912"
     d="m 51.3,84.7 c -0.4,0.2 -0.9,0.4 -1.4,0.6 -1.102,0.3 -2,0.3 -2.801,0.101 C 46.298,85.1 45.798,84.502 45.599,83.702 45.4,82.9 45.5,82.1 45.9,81.5 c 1.093891,-1.191498 1.886436,-1.476264 3.598,-1.8 0.399,-0.101 0.899,-0.101 1.399,0 l 0.399,1.2 c -0.5,-0.102 -1.2,-0.2 -1.7,-0.2 -0.569047,-0.0031 -1.066874,0.277289 -1.496,0.5 -0.398,0.3 -0.699,0.7 -0.8,1.2 0,0.199 0,0.5 0.101,0.8 0.199,0.6 0.5,1 1,1.1 0.699,0.3 1.801,0 2.5,-0.3 l -0.301,-1 -0.9,0.3 -0.3,-1 2.398,-0.7 0.801,2.5 z"
     style="fill:#ffffff" /><path
     sodipodi:nodetypes="scccccccscccccs"
     id="path910"
     d="m 43.6,86.4 c -0.5,0.4 -1.2,0.7 -2.1,0.7 -1,0.102 -1.7,0 -2.3,-0.3 C 38.7,86.5 38.4,86 38.3,85.3 L 38,81.8 39.6,81.7 39.9,85 c 0,0.4 0.199,0.7 0.398,0.8 0.2,0.2 0.602,0.2 1,0.2 0.4,0 0.801,-0.2 1,-0.3 0.2,-0.2 0.2385,-0.229167 0.2,-0.9 l -0.298,-3.4 1.7,-0.2 0.3,3.5 c 0.1,0.7 -0.1,1.3 -0.6,1.7 z"
     style="fill:#ffffff" /><path
     id="path908"
     d="m 37.1,83 -2.2,-0.2 -0.4,4.3 -1.4,-0.1 0.4,-4.3 -2.2,-0.2 0.1,-1.1 5.8,0.5 z"
     style="fill:#ffffff" /><path
     sodipodi:nodetypes="cccccccccccccccsccc"
     d="M 26.099609,79.900391 24.400391,85 26,85.5 l 0.599609,-1.900391 0.800782,0.300782 c 0.5,0.799 0.9,1.60039 1,2.40039 l 1.90039,0.59961 c -0.2,-1.101 -0.701172,-2.100782 -1.201172,-2.800782 0.4,0 0.79961,-0.09883 1.09961,-0.298828 0.3,-0.1 0.501562,-0.400781 0.601562,-0.800781 0.1,-0.3 0.1,-0.499172 0,-0.701172 -0.422355,-0.862823 -1.009057,-1.157642 -2,-1.5 z m 1.201172,1.40039 L 28.5,81.699219 c 0.597248,0.213166 0.678821,0.379223 0.599609,0.90039 -0.09616,0.632659 -0.493597,0.682291 -1,0.5 l -1.298828,-0.40039 z"
     id="path906"
     style="fill:#ffffff" /><path
     sodipodi:nodetypes="scccccccsscssssssssscc"
     d="m 20.601562,77.882812 c -0.782521,-0.06047 -1.63277,0.193807 -2.111036,0.849351 -0.484974,0.660334 -0.811041,1.510424 -0.602287,2.333865 0.281598,0.992853 1.067804,1.778043 1.959271,2.25797 0.887101,0.443981 1.922889,0.777726 2.9128,0.501293 0.720261,-0.200814 1.268686,-0.802751 1.504522,-1.499184 0.279828,-0.698008 0.302152,-1.526248 -0.09065,-2.187471 -0.602582,-1.107659 -1.749878,-1.831281 -2.94234,-2.157162 -0.206638,-0.05133 -0.417709,-0.08548 -0.630283,-0.09866 z m 1.410247,1.326999 c 0.327677,0.138503 0.61451,0.372895 0.800157,0.682677 0.100363,0.167472 0.210883,0.318952 0.188034,0.520524 -0.02464,0.217373 -0.0027,0.431413 -0.06106,0.650219 -0.128019,0.479862 -0.350249,0.944442 -0.739721,1.235597 -0.190729,0.142582 -0.419215,0.283865 -0.653546,0.300781 -0.33408,0.02412 -0.677601,0.02774 -0.995343,-0.125903 -0.424905,-0.205463 -0.950721,-0.523001 -0.950721,-0.991685 v -0.68124 c 0,-0.375839 0.2158,-0.723044 0.450196,-1.025921 0.287333,-0.37128 0.559612,-0.621382 0.844189,-0.717788 0.386783,-0.106259 0.765236,0.06129 1.117815,0.152739 z"
     id="path904"
     style="fill:#ffffff" /><path
     sodipodi:nodetypes="cccccsscscccccccccccc"
     d="M 15.5,73.5 11.800781,77.400391 13,78.5 14.199219,77.199219 15,78.099609 c 0.3,0.301 0.7,0.601172 1,0.701172 0.3,0.1 0.7,0.199219 1,0.199219 0.3,0 0.499219,-0.09961 0.699219,-0.09961 0.2,-0.1 0.401562,-0.200391 0.601562,-0.400391 0.2,-0.2 0.398438,-0.399219 0.398438,-0.699219 0.1,-0.5 -0.09844,-1.202562 -0.398438,-1.601562 -0.2,-0.2 -0.401172,-0.498828 -0.701172,-0.798828 z m 0.5,1.800781 0.300781,0.298828 0.5,0.5 L 17.099609,76.5 C 17.774156,77.247377 16.665791,78.212057 16,77.5 l -0.599609,-0.5 -0.5,-0.5 z"
     id="path902"
     style="fill:#ffffff" /></g></svg>
