<?xml version="1.0" encoding="UTF-8"?><svg id="Calque_2" xmlns="http://www.w3.org/2000/svg" viewBox="0 0 2921.74 2775.98"><defs><style>.cls-1{fill:#000040;}</style></defs><g id="Calque_1-2"><path class="cls-1" d="m1944.09,817.82c-1.62,3.31-4.82,5.6-8.49,6.02-83.66,9.71-172.56-1.93-206.83-7.31-57.22-57.16-119.16-120.75-164.82-176.31-4.68-5.69-4.91-13.83-.6-19.83,65.12-90.78,124.75-162.82,149.96-191.35,72.03-15.7,143.85-29.6,192.36-31.58,3.66-.15,7.15,1.54,9.3,4.51,62.52,86.96,107.24,170.29,121.59,200.74-28.71,77.13-63.24,155.05-92.47,215.1Zm-79.82,147.13c-46.12,77.21-81.15,123.76-92.38,137.91-15.24,21.51-54.08,77.56-114.42,134.24-3.85,3.62-8.87,5.7-14.16,5.93-75.57,3.15-145.83-2.15-173.19-8.12-23.17-9.58-77.09-33.83-140.83-69.07-5.56-3.07-8.83-9.06-8.41-15.38,3.33-49.4,19-119.78,32.87-194.2,34.29-60.2,69.83-128.89,106.69-185.32,3.88-5.94,11.15-8.7,18.01-6.82,110.36,30.13,206.12,53,245,61.75,53.23,61.73,104.82,105.13,139.52,132.03,2.16,1.68,2.72,4.7,1.33,7.04Zm-667.69,107.3c-5.59,3.46-12.71,3.28-18.09-.52-48.05-34.01-105.39-77.48-153.14-122.1-28.17-48.14-49.89-109.75-65.06-162.21-.98-3.38-.23-7.04,2-9.76,53.59-65.87,117.9-118,144.78-137.84,60.65,26.16,130.27,49.25,191.17,69.5,6.23,2.07,10.63,7.65,11.14,14.18,8.59,108.34,28.44,195.95,33.74,229.43-22.74,24.29-82.15,79.37-146.54,119.33Zm-266.91-426.28c-7.95-51.14-13.18-104.85-13.75-129.45-1.32-56.8,7.71-107.1,18.19-153.68,1.72-7.62,5.68-14.54,11.45-19.82,30.44-27.88,85.49-77.08,120.24-99.36,32.75-21,123.77-50.38,161.3-61.28,7.27-2.12,15.03,1.11,18.77,7.69,4.51,7.93,9.23,15.8,14.23,23.54,29.55,46,62.11,85.6,75.83,102.75-18.18,72.18-25.9,153.1-29.42,221.37-.33,6.4-4.41,12.01-10.4,14.35-94.96,37.04-166.73,66.02-190.85,77.15-65.25,2.75-127.39,13.87-169.33,21.2-2.97.52-5.78-1.5-6.24-4.46Zm478.7-495.68c2.6-4.03,6.85-6.71,11.61-7.35,97.65-12.9,186.99-14.8,221.33-13.85,62.49,41.55,123.55,96.38,172.29,148.37,3.41,3.64,3.92,9.13,1.23,13.34-34.78,54.38-85.35,106.6-107.57,129.34-82.39,19.5-169.74,47.88-240.64,71.15-6.9,2.26-14.48-.3-18.6-6.28-53.8-78.14-87.98-145.13-101.39-169.98,14.55-65.14,34.9-123.16,61.73-164.74Zm652.29,641.44c-1.75.79-3.76-.44-3.86-2.35-4.09-80.21-11.47-158.15-15.34-186.65.31-69.27-11.18-141.16-22.64-194.16-.41-1.92,1.29-3.63,3.21-3.24,65.55,13.38,86.59,37.92,86.59,37.92-34.7-77.79-84.7-136.41-139.05-180.71-46.46-97.26-99.94-142.24-99.94-142.24,4.33,21.51,1.34,45.84-6.32,70.95-.48,1.6-2.31,2.36-3.82,1.63-89.06-43.53-181.02-63.42-216.59-68.4-53.15-25.83-111.21-42.92-158.42-55.87-1.26-.34-1.6-1.97-.59-2.82C1546.57,13.8,1604.21.57,1604.21.57c-102.04-4.09-189.87,14.36-263.31,42.57-109.73-8.79-179.62,10.29-179.62,10.29,0,0,30.3,36.24,42.08,56.42,1.42,2.44.68,5.57-1.65,7.17-69.02,47.82-118.53,100.36-138.06,122.23-21.75,2.94-59.42,8.14-92.32,16.25-1.31.33-2.42-.99-1.89-2.24,32.95-78.43,68.86-121.85,68.86-121.85,0,0-211.77,150.27-251.91,420.3,0,0,17.44-47.86,76.4-120.41.78-.95,2.28-.76,2.78.36,16.71,36.96,35.81,69.79,45.41,84.85-32.43,52.16-54.82,109.05-68.6,155.59-.48,1.62-1.7,2.92-3.29,3.51-49.05,18.6-61.54,36.35-61.54,36.35,7.63,26.02,22.6,51.39,41.51,75.3,1.64,2.07,2.48,4.65,2.37,7.29-5.21,115.24,32,191.09,32,191.09,8.4-40.25,24.85-79.34,45.63-116.03.83-1.46,2.78-1.83,4.09-.79,48.4,38.41,98.54,72,118.44,83.92,10.26,26.18,39.65,94.13,78.91,163.83.82,1.47.15,3.33-1.43,3.91-47.01,17.11-95.24,24.86-139.47,14.1,0,0,53.33,66.39,217.85,94.69,45.64,53.89,101.19,98.52,166.06,114.02,0,0-19.01-20.88-23.71-98.7-.1-1.58,1.17-2.92,2.75-2.9,40.62.61,95.72,1.49,146.16-2.17,17.87,14.08,56.88,44.99,94.93,64.68,1.89.98,2.01,3.64.19,4.75-66.88,40.39-111.38,43.91-111.38,43.91,302.95,6.45,484.85-190.91,484.85-190.91-49.9,32.79-107.53,53.17-164.89,65.32-1.93.41-3.63-1.3-3.23-3.23,10.65-51.47,7.67-101.24,6.92-118.78,71.88-17.81,134.58-49.89,181-82.68.93-.66,2.19-.67,3.13-.01,19.33,13.43,35.86,28.5,52.37,53.58,0,0,31.43-44.42,42.24-147.33,77.82-101.47,89.39-205.34,89.39-205.34-19.52,30.5-49.01,52.47-83.54,68.22Zm-599.78,1001.94c-129.94,0-247.83,58.02-319.74,143.8l22.81,28.1c65.31-81.09,176.4-136.85,296.93-136.85s231.63,55.76,296.94,136.85l22.81-28.1c-71.92-85.78-189.8-143.8-319.75-143.8Zm-303.95,18.21c-8.55,6.94-18.48,10.32-27.26,9.28-11.12-1.27-17.87-5.82-28.93-19.45l-63.72-78.17-34.36,27.87,69.4,85.2c14.75,18.04,31.56,27.7,51.38,29.52,2.35.22,4.66.34,6.96.36,19.21.17,37.06-6.59,54.35-20.55,19.26-15.7,29.83-33.93,32.31-55.73,2.25-19.75-3.78-38.15-18.49-56.24l-69.39-85.17-34.36,27.87,63.7,78.21h0c11.1,13.59,14.17,21.12,13.14,32.26-.77,8.77-6.13,17.79-14.73,24.75Zm235-246.27l-111.3,22.55c-5.08,1.03-9.1,3.56-11.6,7.35-2.52,3.78-3.3,8.45-2.27,13.52l22.18,109.06c3.61,17.74,11.58,30.51,23.69,37.97,8.01,4.93,17.62,7.39,28.69,7.39,5.64,0,11.66-.66,18.03-1.95l69.57-14.09-8.37-41.17-67.68,13.71c-13.85,2.8-18.35,1.27-21.51-14.25l-2.38-11.7,78.28-15.85-8.27-40.7-78.28,15.85-5.94-29.2,85.55-17.33-8.37-41.16Zm216.43,59.51l66.7,17.24,10.54-40.59-68.58-17.73c-37.59-9.72-63.34,4.33-72.48,39.54l-28.01,107.85c-1.29,5.01-.77,9.71,1.53,13.61,2.3,3.9,6.16,6.65,11.18,7.94l25.46,6.58,18.05-69.75,77.19,19.96,10.43-40.12-77.22-19.97,3-11.53c3.97-15.29,8.54-16.58,22.21-13.04Zm346.08,98.5l23.55-29.01c-11.69-11.67-23.86-23-36.55-33.92-131.76-113.5-302.43-175.99-480.57-175.99s-348.8,62.5-480.57,175.99c-12.67,10.92-24.85,22.24-36.54,33.91l23.55,29.01c11.89-12,24.32-23.65,37.3-34.84,125.02-107.67,287.05-166.97,456.27-166.97s331.25,59.3,456.26,166.97c12.99,11.19,25.41,22.83,37.31,34.84Zm-179.74,143.98l7.64-26.3-32.86-24.5,26.46-18.92,15.32,11.49,17.4-58.56-101,65.17-41.4-23.37,158.42-102.3c6.11-3.95,14.46-7.43,25.04.69l6.77,5.21c10.67,8.2,9.15,17.6,7.06,23.95l-52.58,180.58-36.27-33.13Zm-745.56,855.21h-116.83v-89.53h69.62l28.5,24.26h.95v-91.4h-.95l-28.5,24.26h-69.62v-77.88h112.63l32.72,34.98h.93l-3.74-77.42h-240.22v.95l21.99,26.57v240.61l-21.99,26.57v.93h250.5l6.08-89.06h-.95l-41.12,46.16Zm44.14-595.05l82.73,210.77h46.26l76.65-213.09,13.07,185.56-28.98,26.57v.95h125.71v-.95l-24.28-26.57-17.78-240.61,19.17-26.57v-.92h-104.67l-71.04,197.22-76.65-197.22h-106.08v.92l21.51,26.57-12.63,240.61-25.68,26.57v.95h103.25v-.95l-25.69-26.57,5.13-183.24Zm-347.85,594.58h-101.4v-224.74l27.58-26.57v-.95h-125.27v.95l21.99,26.57v240.61l-21.99,26.1v1.4h235.07l11.23-92.77h-.95l-46.26,49.4Zm-226.38-384.77v.95h119.18v-.95l-21.99-26.57v-240.61l21.99-26.57v-.92h-119.18v.92l21.5,26.57v89.53h-106.08v-89.53l21.5-26.57v-.92h-119.18v.92l21.97,26.57v240.61l-21.97,26.57v.95h119.18v-.95l-21.5-26.57v-103.98h106.08v103.98l-21.5,26.57Zm1861.31,385.24h-116.84v-89.53h69.62l28.51,24.26h.95v-91.4h-.95l-28.51,24.26h-69.62v-77.88h112.64l32.7,34.98h.93l-3.72-77.42h-240.22v.95l21.98,26.57v240.61l-21.98,26.57v.93h250.49l6.08-89.06h-.95l-41.11,46.16Zm-1072.49-75.08l-35.03-117.48-41.14,117.48h76.17Zm104.68,90.47l24.3,26.57v.93h-126.63v-.93l24.3-26.57-13.55-46.16h-104.68l-15.91,46.16,22.9,26.57v.93h-99.07v-.93l23.37-26.57,91.12-240.61-17.3-26.57v-.95h100.47l90.65,268.13Zm-1214.02-438.86c-60.77,0-99.55-61.56-99.55-114.73,0-65.27,35.51-107.69,86.45-107.69,13.55,0,26.65,1.4,38.34,4.64l45.79,56.44h.94l-3.27-93.26c-13.1-5.12-41.59-12.13-76.65-12.13-108.4,0-170.57,73.69-170.57,158.55s59.81,157.6,162.62,157.6c27.58,0,68.23-9.31,96.27-30.29l4.2-48.96h-.93c-23.83,18.64-57.97,29.85-83.65,29.85Zm1701.71,38.22l-21.5-26.57v-240.61l21.5-26.57v-.92h-119.18v.92l21.97,26.57v240.61l-21.97,26.57v.95h119.18v-.95Zm-261.42,289.65l29.43,26.6v55.49c-9.35,10.71-25.71,19.56-47.66,19.56-52.35,0-79.92-63.87-79.92-117.5,0-58.29,29.46-107.24,90.2-107.24,16.82,0,34.58,1.4,49.06,6.51l46.74,50.35h.93l-2.81-81.12c-27.1-13.99-59.81-20.03-92.99-20.03-99.53,0-170.1,61.08-170.1,161.79,0,84.38,54.21,154.35,138.79,154.35,36.93,0,70.57-8.41,101.88-31.24l36.9,31.24h.95v-122.16l23.35-26.6v-.93h-124.75v.93Zm-77.35-432.32c9.35,2.8,20.09,4.19,31.31,4.19,41.14,0,58.89-22.38,58.89-55.49,0-39.18-22.9-57.81-65.44-57.81h-24.76v109.12Zm-75.69,116.09v-240.61l-21.98-26.57v-.92h140.21c85.06,0,123.84,38.67,123.84,97.46s-46.26,98.84-109.35,98.84c-20.56,0-41.59-1.4-57.02-5.12v76.93l30.84,26.57v.95h-128.52v-.95l21.98-26.57Zm706.05-98.86c0-51.28-19.15-132.89-84.6-132.89-52.34,0-67.29,52.22-67.29,87.65,0,51.77,21.51,135.23,84.6,135.23,45.31,0,67.29-42.91,67.29-90Zm-78.52,136.61c-92.53,0-152.34-76.01-152.34-162.24s68.69-153.9,154.69-153.9c94.85,0,155.61,74.16,155.61,159.02,0,96.99-73.37,157.12-157.96,157.12Zm-98.83,122.27l24.31,26.57v168.35c0,48.48-23.83,60.61-62.62,60.61s-63.09-11.2-63.09-60.61v-168.35l24.3-26.57v-.95h-121.98v.95l21.98,26.57v168.35c0,80.64,41.12,110.04,128.97,110.04,79.92,0,120.58-27.52,120.58-107.72v-170.67l21.48-26.57v-.95h-93.92v.95Zm564.41,36.33c0-21.02-15.97-36.9-36.13-36.9s-36.32,15.89-36.32,36.9,15.95,37.23,36.32,37.23,36.13-15.78,36.13-37.23Zm8.96,0c0,25.8-20.82,44.61-45.09,44.61s-45.27-18.82-45.27-44.61,20.79-44.33,45.27-44.33,45.09,18.84,45.09,44.33Zm-45.16-3.07c6.57,0,12.49-.36,12.49-8.28,0-6.38-5.78-7.53-11.26-7.53h-10.62v15.81h9.39Zm7.3,6.27l14.51,22.59h-8.65l-13.51-22.23h-9.04v22.23h-7.73v-51.28h19.57c12.15,0,18.13,4.47,18.13,14.57,0,9.18-5.78,13.14-13.28,14.12Zm-19.43-466.74l28.52,26.57v156.67l-120.12-184.17h-107.95v.92l21.98,26.57v240.61l-21.98,26.57v.95h98.6v-.95l-28.96-26.57v-195.85l149.99,223.38h56.09v-268.14l21.96-26.57v-.92h-98.13v.92Zm301.34,112.85c-53.74-14.92-70.1-21.45-70.1-46.16,0-28.44,36.93-34.05,60.29-34.05,19.63,0,37.86,2.32,54.21,7.46l44.86,48.5h.93l-3.73-83.48c-28.06-10.71-57.49-16.32-91.12-16.32-70.57,0-138.34,24.26-138.34,94.22,0,45.22,31.31,72.26,99.07,90.93,52.35,14.45,78.05,23.76,78.05,50.35,0,30.77-39.26,37.29-65.44,37.29-21.96,0-41.59-3.25-58.42-8.39l-45.31-55.95h-.95l3.27,88.59c30.86,13.99,68.24,19.11,103.27,19.11,75.71,0,139.27-31.69,139.27-95.57,0-60.16-41.59-77.4-109.83-96.52Zm-2051.7,63.87h76.17l-35.03-117.51-41.14,117.51Zm-8.4,117.98h-99.08v-.95l23.38-26.57,91.12-240.61-17.3-26.57v-.92h100.47l90.66,268.1,24.3,26.57v.95h-126.64v-.95l24.31-26.57-13.56-46.16h-104.68l-15.9,46.16,22.9,26.57v.95Z"/></g></svg>