<?xml version="1.0" encoding="utf-8"?>
<!-- Generator: Adobe Illustrator 25.0.1, SVG Export Plug-In . SVG Version: 6.00 Build 0)  -->
<svg version="1.0" id="Layer_1" xmlns="http://www.w3.org/2000/svg" xmlns:xlink="http://www.w3.org/1999/xlink" x="0px" y="0px"
	 viewBox="0 0 1089.9 808" style="enable-background:new 0 0 1089.9 808;" xml:space="preserve">
<style type="text/css">
	.st0{fill:#E30613;}
	.st1{fill:#B71A23;}
	.st2{fill:#CD101B;}
	.st3{fill:#E00714;}
	.st4{fill:#C91A21;}
	.st5{fill:#EA0210;}
	.st6{fill:#B81923;}
	.st7{fill:#C8121D;}
	.st8{fill:#D70B17;}
	.st9{fill:#C01B21;}
	.st10{fill:#E40512;}
	.st11{fill:#AE1D22;}
	.st12{fill:#C11B21;}
	.st13{fill:#B51A25;}
	.st14{fill:#C01521;}
	.st15{fill:#C2141F;}
	.st16{fill:#B51A24;}
	.st17{fill:#C21420;}
	.st18{fill:#D50C18;}
	.st19{fill:#E30512;}
	.st20{fill:#CE0E1B;}
	.st21{fill:#A01E22;}
	.st22{fill:#EA0310;}
	.st23{fill:#D80A17;}
	.st24{fill:#B91C22;}
	.st25{fill:#B61C22;}
	.st26{fill:#DB0916;}
	.st27{fill:#CC0F1C;}
	.st28{fill:#B01D26;}
	.st29{fill:#B91922;}
	.st30{fill:#C5131E;}
	.st31{fill:#BF1520;}
	.st32{fill:#CA101C;}
	.st33{fill:#D30C18;}
	.st34{fill:#6D0A10;}
	.st35{fill:#B31B25;}
	.st36{fill:#B41B24;}
	.st37{fill:#C7121D;}
	.st38{fill:#D60B17;}
	.st39{fill:#B21C22;}
	.st40{fill:#64080D;}
	.st41{fill:#72090F;}
	.st42{fill:#B61A24;}
	.st43{fill:#CA111C;}
	.st44{fill:#DD0814;}
	.st45{fill:#C4131E;}
	.st46{fill:#EB020F;}
	.st47{fill:#D71921;}
</style>
<path class="st0" d="M539.2,47.7c2.1-1.7,3.9-4.4,6.9-4.6c2.2-0.3,4.4,0.5,5.9,2.2c1.6,1.8,4.4,3,4.2,5.7c-0.6,2.8-1.6,5.9-0.4,8.7
	c1.3,4.9,6.5,7.4,7.5,12.4c0.6,4.3-1.8,8.8-5.5,11c-1.6,1.1-3.6,1.4-5,2.8c0.4,2,0.6,4.1,0.5,6.1c8.1,0.5,16.3,2.6,23,7.3
	c3.3,2.1,5.5,5.5,6.1,9.3c-13.9-3.8-28.4-5.4-42.8-4.6c-9.5,0.4-19,1.9-28.1,4.6c0.2-4,2.9-7.2,6-9.3c6.8-4.6,14.9-6.7,22.9-7.2
	c0.3-2.3,0.3-4.6,0-6.9c-5.1-1.3-9.8-5.5-10-11c-0.2-3.3,1.7-6.2,3.8-8.4c2.9-3,5.3-7.4,3.9-11.7C537.8,51.9,537,49.1,539.2,47.7
	 M484.8,128c16.4-8.1,34.6-12,52.8-13.3c8.9-0.2,18-0.6,26.8,0.9c-7.9,3.4-15.9,7.4-21.4,14.3c-2.7,3-4.1,7.3-7.9,9.2
	c-15.3,0.9-30.4,4.7-44.8,9.9c-2.1-6.7-4-13.4-7-19.7L484.8,128 M421.8,158.5c1.3-5.7,3.5-11.2,6.8-16.1c2.2,5.1,4.6,10.1,7,15.1
	c0,2.3-1,4.6-1.2,6.9c-2.5,15.7,0.9,31.7,9.7,44.9c5,7.7,12.8,13.3,21.7,15.7c0.6,4.2,0.9,8.5,0.7,12.7l-2.1,0.4
	c-2.9-0.2-5.7-1-8.2-2.5c-3.4-1.9-7.1-3.5-10.3-5.9c-3-2.1-5.3-5.1-8.6-6.8l-0.5-0.3c-0.1-0.3-0.2-0.9-0.2-1.2
	c-5.3-6.3-9.3-13.6-12-21.4c-0.3-0.9-0.6-1.7-0.9-2.6C419.6,184.9,419,171.4,421.8,158.5 M495.8,159.3c12-4.4,24.5-7.7,37.3-8.4
	c-3.7,19.8,0.3,39.8,3.1,59.4c2.7,17.7,6.2,35.3,8.4,53c-11.4-0.1-22.6,1.7-33.7,3.8c1-4.4,0-8.9-0.5-13.3
	c-1.7-10.4-4.9-20.8-11.2-29.4c1-8.1,0.6-16.2,0.7-24.3c-0.7-13.2-2.1-26.6-6-39.3C493.6,159.7,495.2,159.8,495.8,159.3
	 M653.8,182.7c4.2,10.2,5.4,21.6,2.4,32.3c-4,14.4-13.8,27.5-27.3,34.4c0.2-4.9-1.5-10.4,1.1-14.9c12.2-9.7,19.3-26.7,14.7-42
	C647.2,188.8,651,186.3,653.8,182.7 M527.4,276.1c4.3-0.6,9.2-0.4,12.7,2.4c2.3,1.8,2.8,5,2.7,7.7c0,16.7,0,33.5,0,50.2
	c0,1.3-0.2,2.6-0.4,3.8c-2.7,0-5.5,0.1-8.2,0.4c-3.1,0.7-6.3,0.7-9.4,1.5c-8.1-13.2-10.8-28.8-12.1-44c-0.1-5.3-0.7-11.1,2.3-15.8
	C517.8,278.3,522.8,276.8,527.4,276.1 M524.7,364.4c6.7-0.3,13.3-1.2,20-1.2c-0.7,6.6-1.9,13.1-2.9,19.6c-4.9-0.1-9.9,0.1-14.8,0.6
	c0-6.2,0.2-12.4,0-18.6l-1.7-0.1L524.7,364.4 M523.1,395.7l1.6-0.5c2.2-0.1,4.5-0.2,6.7-0.3c2.6-0.1,5.2,0,7.8,0.2
	c-3.3,15-7.7,29.8-13,44.2c-3.7,0.2-7.3,0.5-11,0.8c5-14.4,8.5-29.2,10.4-44.3L523.1,395.7 M510.5,453.1c3.4-0.3,6.8-0.7,10.1-1.1
	c-3.5,8.1-8,15.8-12.1,23.5l2.6,0.1c-3.7,0.4-7.5,0.6-11.2,1.1C503.5,468.9,507.4,461.2,510.5,453.1L510.5,453.1z"/>
<path class="st1" d="M564.5,115.6c8.4,0.2,16.8,2.2,24.9,4.5c-2.8,2.3-5.7,4.5-7.8,7.4c-2.1,2.9-5,5.2-6.9,8.4c-1,1.9-2.3,3.6-4,5
	c-2.2-0.6-4.4-0.9-6.7-1c-2.8-1-5.8-0.4-8.7-0.9c-5.6-0.8-11.3-0.8-16.9,0c-1.1,0-2.2,0.1-3.2,0.1c3.8-1.9,5.2-6.2,7.9-9.2
	C548.5,123,556.6,119,564.5,115.6z"/>
<path class="st2" d="M589.4,120c5,1.4,9.9,3.1,14.7,5.1c1,0.5,2.3,0.7,2.9,1.8c-1.1,4-4.4,6.6-6.3,10.2c-1.8,3.3-4.4,6.1-6.1,9.5
	l-0.6,0.2c-7.6-2.3-15.2-4.9-23.1-5.9c1.7-1.4,3-3.1,4-5c1.8-3.1,4.7-5.4,6.9-8.4C583.7,124.5,586.6,122.3,589.4,120L589.4,120z"/>
<path class="st3" d="M606.9,127l0.2-0.8c4.6,2.9,9.6,5.2,14,8.5c-4.6,3.1-6.1,9-7.3,14.1c-0.5,2.6-2.5,4.6-4.2,6.6
	c-4.6-3.3-9.7-6.1-15-8.2l-0.1-0.5c1.8-3.3,4.3-6.2,6.1-9.5C602.5,133.6,605.9,131,606.9,127L606.9,127z"/>
<path class="st4" d="M434.5,135.9c6.5-4.5,14.2-6.8,22.1-6.7c5.8,0.4,11.5,2,16.6,4.8c2.6,7.1,5.5,14.2,7.2,21.6
	c-0.8,2.9-2.9,5.1-4.7,7.4c-2.2,2.8-3.7,5.9-5.8,8.7c-2.4,3.2-5.7,5.7-7.8,9.1c-1.5,2.5-3.2,4.9-5,7.1
	C449.8,170.6,442.2,153.2,434.5,135.9L434.5,135.9z"/>
<path class="st5" d="M613.8,148.8c1.3-5.1,2.7-11,7.4-14.1c5.8,4.4,11.1,9.8,13.6,16.8c-5.2,6.8-8.4,14.8-11.3,22.8
	c-7.7,22.8-10.9,47-9.4,71c1.1,13.6,4,27.5,11.3,39.2c-1.8-0.5-3.2-1.7-4.7-2.7c-4.4-2.7-8.9-5-13.7-7c-0.7-1.3-1.3-2.6-1.6-4.1
	c-1-7.6-3.1-15.1-4-22.7c-0.1-0.9,0.5-1.7,0.8-2.5c0.2,0.8,0.6,2.3,0.8,3.1c-0.9-5.3-0.2-10.7-0.8-16c-0.2-3.1-0.1-6.3,0.3-9.4
	c0.1-14.1,2.1-28.2,5.8-41.8c0.4-1.4,0.8-2.8,1.2-4.1c0.5-1.7,0.9-3.4,1.5-5.1c1.4-4,2.7-8,4.1-11.9c-1.7-1.7-3.4-3.4-5.3-4.8
	C611.3,153.4,613.3,151.5,613.8,148.8L613.8,148.8z"/>
<path class="st6" d="M533.1,150.3c4.6-0.1,9.2-0.3,13.8-0.7c7.3,0.7,14.7,0.4,21.9,2.2c-1.2,0.5-2.3,1.2-3.3,2.1
	c-2,4.6-2.4,9.8-3.4,14.7c-1.5,6.8-3.4,13.7-2.7,20.6c0.6,8.9-0.2,17.9,0.6,26.8c0.2,3.5-0.2,7,0.2,10.5c0.9,7.3,0.2,14.7,1.5,22
	c0.9,4.7,0.6,9.6,1.8,14.3c-0.3,0.4-0.9,1.1-1.1,1.4c-5.8-1-11.8-1-17.6-0.9c-2.2-17.8-5.7-35.3-8.4-53c-2.8-19.6-6.8-39.7-3.1-59.4
	L533.1,150.3L533.1,150.3z"/>
<path class="st7" d="M565.4,153.9c1-0.8,2.1-1.5,3.3-2.1c2.8,0,5.5,1.3,8.3,1.2l0.3,1c-1.7,8.8-5.6,17.1-6,26.2
	c-0.2,8.3-1.5,16.6-1.2,24.9c-0.9,17.5,1.5,34.9,2.7,52.4c0.2,2.7,0.8,5.3,1.7,7.8c-4.2,0.2-8.2-1.4-12.3-1c0.3-0.3,0.9-1,1.1-1.4
	c-1.2-4.7-0.9-9.6-1.8-14.3c-1.2-7.3-0.6-14.7-1.5-22c-0.4-3.5,0-7-0.2-10.5c-0.8-8.9,0-17.9-0.6-26.8c-0.8-7,1.2-13.9,2.7-20.6
	C563.1,163.7,563.4,158.6,565.4,153.9L565.4,153.9z"/>
<path class="st8" d="M577.5,154.1c1.6-0.9,3.5,0.7,5.3,0.9c5.8,1.7,11.5,4,16.8,7c-2.6,2.4-2.3,6.2-4,9.1c-2.5,4.4-2.7,9.7-3.8,14.6
	c-2.2,8.6-1.8,17.6-2.9,26.4c-0.9,6,0.6,11.9-0.2,17.9c-1,11.1,1.5,22,2.9,32.9c0.4,2.3,0.9,4.6,1.5,6.8c-2.8-0.9-5.7-1.6-8.6-2.2
	c-3.1-1-6.3-1.5-9.6-1.6c0-0.2-0.2-0.5-0.2-0.7c-0.9-2.5-1.4-5.2-1.7-7.8c-1.2-17.4-3.6-34.8-2.7-52.4c-0.3-8.3,1-16.6,1.2-24.9
	C571.8,171.2,575.8,162.8,577.5,154.1L577.5,154.1z"/>
<path class="st9" d="M480.4,155.7l0.2-0.8c4.5,16.4,7.8,33.3,8,50.4c0.3,20.1-2.7,40.9-12,59c-8.7,16.2-23.5,27.6-37.6,38.8
	c0.2-0.7,0.5-1.3,1-1.9c7.1-7.9,13.6-16.5,18-26.3c4.9-11.4,7.8-23.5,8.6-35.9l-2.3-0.9l2.1-0.4c0.2-4.2-0.1-8.5-0.7-12.7l0.7-1
	c-1.4-12.4-5-24.4-9.3-36c1.8-2.3,3.5-4.7,5-7.1c2.2-3.4,5.4-5.9,7.8-9.1c2.1-2.8,3.7-6,5.8-8.7
	C477.5,160.7,479.7,158.5,480.4,155.7L480.4,155.7z"/>
<path class="st10" d="M595.5,171.1c1.6-2.9,1.4-6.7,4-9.1c0.9,0.9,3.3,1.4,2.5,3.1c-3,14.6-4.4,29.5-4.2,44.5
	c0.6,11.2,2,22.4,4.1,33.4c0.1,0.8,0.6,1.7,0.2,2.6c-0.4,0.8-0.9,1.6-0.8,2.5c0.9,7.6,3,15.1,4,22.7c0.4,1.4,1,2.8,1.7,4.1
	c-4.6-1.9-9.2-3.6-13.9-5c-0.5-2.3-1.1-4.5-1.5-6.8c-1.4-10.9-3.9-21.8-2.9-32.9c0.8-6-0.7-12,0.2-17.9c1.1-8.8,0.8-17.8,2.9-26.4
	C592.9,180.8,593,175.6,595.5,171.1L595.5,171.1z"/>
<path class="st11" d="M623.4,208.4c2.7-15,6-30.2,13-43.8c7.8,3.8,13.7,10.5,17.4,18.2c-2.8,3.5-6.7,6-9.1,9.8
	c-9.2,12.3-14.1,27.4-15.5,42.6l0.7-0.6c-2.6,4.5-0.9,10-1.1,14.9c-2,1.1-4.2,1.9-6.5,2.3c-1.1-5.8-1-11.6-1-17.5
	C621.1,225.6,622.3,217,623.4,208.4L623.4,208.4z"/>
<path class="st12" d="M437.2,223c3.3,1.7,5.6,4.7,8.6,6.8c3.2,2.4,6.9,3.9,10.3,5.9c-1.1,2.2-0.8,4.7-1.3,7
	c-0.6,5.8-1.7,11.6-3.2,17.2c-2.3,7.9-4.9,15.9-9,23.1C445.1,262.8,441.8,242.5,437.2,223L437.2,223z"/>
<path class="st13" d="M499.2,224.5c6.2,8.6,9.4,19,11.2,29.4c0.5,4.4,1.5,8.9,0.5,13.3c0,0.2-0.1,0.5-0.1,0.7c-3.8,0-7.3,1.8-11,2.2
	c-0.3-5.3-1.3-10.5-2.8-15.6c-0.5-1.3-1.4-2.4-2.7-3C496.6,242.5,498.2,233.5,499.2,224.5L499.2,224.5z"/>
<path class="st14" d="M494,251.2l0.4,0.2c1.2,0.6,2.2,1.7,2.7,3c1.5,5.1,2.5,10.3,2.8,15.6v0.4c-6.6,1.7-13,3.8-19.2,6.6
	C486.7,269.4,491.3,260.6,494,251.2z"/>
<path class="st15" d="M557,276.3c5.7-1.2,11.6-0.5,16.9,1.9c4.3,2.2,7,6.7,6.9,11.5c0.2,5.4-0.2,10.7-0.4,16.1
	c-1.8,12.5-5.1,25.1-11.2,36.3l-1.8-0.5c1-2.9-1.5-5.4-1.3-8.3c0.3-3.3-1-6.4-1.1-9.6c-1.2-14.3-4.8-28.4-6-42.7
	C558.7,279.3,557.7,277.8,557,276.3L557,276.3z"/>
<path class="st16" d="M550.7,283.7c-0.1-3.7,3.2-6.1,6.3-7.3c0.8,1.5,1.8,3,1.9,4.8c1.2,14.3,4.8,28.3,6,42.7
	c0.2,3.2,1.5,6.3,1.1,9.6c-0.2,2.9,2.3,5.4,1.3,8.3l1.8,0.5c-6.2-0.5-12.3-1.9-18.5-1.7C550.7,321.5,550.7,302.6,550.7,283.7
	 M510.9,367.1c4.8-0.9,9.5-2.3,14.5-2.3l1.7,0.1c0.2,6.2,0,12.4,0,18.6c-3.3,0.3-6.6,0.8-9.8,1.5c-2.4,0.6-4.9,0.9-7.4,0.9l-0.6-0.9
	c0.8-3.1,1.6-6.2,1.4-9.4c-0.2-2,0.1-4,0.9-5.9c-0.2-0.7-0.5-1.5-0.7-2.2C510.8,367.4,510.9,367.2,510.9,367.1L510.9,367.1z"/>
<path class="st17" d="M485.6,287.5c3.4-1.8,7.2-2.6,11-2.4c3.1-0.3,7.1,0.9,7.8,4.4c-0.1,5.2,0.8,10.3,1,15.5
	c1.1,13.4,4.9,26.5,11,38.5l-0.5,1c-2.9,0.8-5.7,1.9-8.4,3.4c-5.7-3.5-10.2-8.6-14.4-13.7c-0.3-0.6-1.2-1.1-1.1-1.9
	c1.4-3.4,0.3-7-0.2-10.4c-0.9-4.1,0.2-8.4-1.2-12.4C488.4,302.3,489.4,294.2,485.6,287.5L485.6,287.5z"/>
<path class="st18" d="M589.7,288c0.7-1.5,2.5-2,3.8-2.8c0.4,1.8,0.6,4,2.4,5.1l-2,0.3c8.8-1.1-0.6,1.1,2.7,2c-0.4,2,1.3,3.6,1.3,5.6
	c0.4,5.3,2.9,10.1,3.5,15.3c0.7,4.8,2.1,9.4,3.2,14c-4.8,7.9-11.1,14.8-18.5,20.3c-2.9-1.3-5.8-2.5-8.9-3.5
	c-0.9-0.7,0.3-1.9,0.5-2.6c0.9-1.7,1.7-3.4,2.5-5.1c5.4-13,7.7-27,8.4-41C588.9,293.1,588.2,290.3,589.7,288 M462.9,465
	c4.4-2.2,9-3.9,13.8-5.3c-0.4,4.1-2.2,8-3.1,12c-1,3.3-1.1,6.8-1.9,10.1l-0.2,0.7c-1,0.1-2,0.2-2.9,0.4c-3.4,1.3-6.8,2.5-10.3,3.6
	c1.4-7.1,3.4-14,4.6-21.1L462.9,465L462.9,465z"/>
<path class="st19" d="M593.5,285.2c5.2-0.2,10.9-0.3,15.2,3.2c4.4,3.1,5.4,9,5.1,14c-1.4,8.9-4.5,17.5-9.1,25.2
	c-1.2-4.6-2.5-9.3-3.2-14c-0.7-5.2-3.1-10.1-3.5-15.3c0-2-1.7-3.6-1.3-5.6c-3.4-1,6.1-3.1-2.7-2l2-0.3
	C594.2,289.1,594,287,593.5,285.2 M463,306.2c2.2-2.3,6.3-4.8,9-1.8l-0.2,0.6c-1.8,3.5-0.1,7.3,0.5,10.9c1.9,7.9,2.1,16,3.1,24
	c0.1,2.1,0,4.1-0.5,6.1c-6.9-4.9-13.3-11.2-15.9-19.5C456.9,319.7,457.9,311.5,463,306.2 M456.9,468.4c1.9-1.2,3.8-2.2,5.9-3
	c-1.2,7.1-3.2,14-4.6,21.1l-0.1,0.3c-3.8,1.3-6.9,3.9-10.5,5.5c1.2-5.3,2.1-10.7,3.4-16C451.7,472.9,454.4,470.5,456.9,468.4
	L456.9,468.4z"/>
<path class="st20" d="M480.6,294c1-2.6,2.8-4.9,5.1-6.5c3.7,6.7,2.8,14.8,4.9,22c1.4,4,0.4,8.3,1.2,12.4c0.5,3.4,1.6,7.1,0.2,10.4
	c-5.2-6.5-8.3-14.4-10.7-22.2C479.6,304.9,479,299.3,480.6,294L480.6,294z"/>
<path class="st21" d="M638.6,298.4l0.2-0.9c10,13.2,18.6,27.9,22,44.3c4.9,21.8,0.5,44.8-9,64.6c-3-4.5-6.3-8.8-9.3-13.4
	c-5.9-0.2-11.8,0-17.7-0.2c9.5-10.1,17.4-22.1,21.1-35.7C651.7,337.7,648.7,316,638.6,298.4 M673.4,352.6c0.7,1,1.2,2.2,1.6,3.3
	c5.1,15.5,9.3,31.5,8.9,47.9c0.2,16.4-5.6,32.1-12.2,46.9c-3.2-4.6-5.9-9.5-8.9-14.3c-5.5,0-11.1-0.7-16.6-1
	c10.6-11.5,18.6-25.2,23.4-40.1C673.9,381.5,675.2,366.9,673.4,352.6L673.4,352.6z"/>
<path class="st22" d="M621.9,304.2c2-2.6,5.6-0.8,7.5,1c4.3,3.4,5.7,9,6.4,14.3c-0.4,6.7-3.1,13.1-7.6,18.2
	c-4.4,4.9-9.7,9-15.5,12.1c-0.8-5.1-2.9-9.9-3.3-15c4.7-7,8.1-14.8,10.3-22.9C620.4,309.3,620.7,306.6,621.9,304.2L621.9,304.2z"/>
<path class="st23" d="M472.2,316c-0.6-3.6-2.2-7.4-0.5-10.9c1.1,1.8,1.3,3.9,1.8,5.9c2.7,10.4,7.4,20.1,14,28.6
	c-0.4,4.5,0.6,9,0.1,13.5c-4.6-1.6-8.7-4.4-12.8-7c0.5-2,0.6-4.1,0.5-6.1C474.3,332,474.1,323.9,472.2,316L472.2,316z"/>
<path class="st24" d="M424.6,315.7c0.6-0.6,1.3-1,2.1-1.2c-12.3,16.2-17.6,37-16.3,57.2c0.4,3.1,0.7,6.2,0.9,9.3
	c1.5,8.8,3.7,17.4,6.5,25.8c-2.8,3.6-4.6,7.9-8,11c-4.8,4.1-6.9,10.4-11.3,14.8c-2.6-8.7-4.3-17.7-5.3-26.8c-0.4-4-0.1-8-0.7-12
	c0.4-8.4,0.8-16.7,2.6-25l0.4-0.6C399.6,348.2,410.5,330.2,424.6,315.7L424.6,315.7z"/>
<path class="st25" d="M423.2,349.4c1.1-5.5,3.1-10.8,5.9-15.6c-1.5,14.9,3.7,29.6,11,42.4c5.2,9.3,12.3,17.4,20.1,24.7
	c-5.5,0-11,0.5-16.5,0.4c-3.3,3.8-6.2,8-9.4,11.9h-1.2c-5.4-11.5-9-23.8-10.6-36.4C421.4,367.6,421.6,358.4,423.2,349.4L423.2,349.4
	z"/>
<path class="st26" d="M593.1,352.5c6.2-5.2,11.7-11.2,16.3-17.8c0.5,5.1,2.5,9.9,3.3,15c-5.2,2.9-10.7,5.7-16.4,7.1
	C595.3,355.4,594.3,353.9,593.1,352.5 M597.3,400.3c7.4,1.8,14.6,4.5,21.4,7.8c0.7,0.4,1.7,0.9,1.7,1.9c1,14.7,1.9,30.5,10.2,43.2
	c-2.3-0.5-4.1-2-6.2-2.9c-9.9-4.3-20.5-6.2-31.1-8c-1.6-0.4-3.2-0.8-4.8-1c1.7-5,3-10.2,5.3-15c0.4-4.1,2-7.9,2.9-11.9
	C597.3,409.8,596.6,405,597.3,400.3L597.3,400.3z"/>
<path class="st27" d="M487.5,339.5c3.6,4.7,7.9,8.9,12.6,12.5c-0.8,1.6-1.7,3.1-2.6,4.7c-2.5,0.3-4.6-1.4-7-2
	c-1.1-0.4-2.1-0.9-3-1.6C488.1,348.5,487.1,344.1,487.5,339.5L487.5,339.5z"/>
<path class="st28" d="M544.8,363.2c5.5,0,11.3-0.5,16.7,0.8c1,5-0.1,10.1-0.5,15.1c-0.2,1.4,1.1,2.3,1.8,3.3
	c-0.8,0.3-1.7,0.5-2.5,0.8c-6.1-0.6-12.3-0.2-18.4-0.3C542.9,376.3,544.1,369.9,544.8,363.2L544.8,363.2z"/>
<path class="st29" d="M561.5,364c4.5,0.1,8.9,0.6,13.2,1.6c-0.5,4-1.5,7.9-1.3,11.9c0,2.3,0.7,4.8-0.6,6.8
	c-4.2-0.6-8.4-0.6-12.6-1.1c0.8-0.3,1.6-0.6,2.5-0.8c-0.7-1-2-1.9-1.8-3.3C561.3,374.1,562.4,369.1,561.5,364z"/>
<path class="st30" d="M574.7,365.6c6.2,0.8,12.1,3,18,5v0.4c0.3,5.7,1.9,11.5,0.4,17.2c-3.4-0.9-6.9-1.3-10.3-2.1
	c-3.3-1-6.6-1.5-10-1.8c1.3-2.1,0.6-4.6,0.6-6.8C573.2,373.5,574.2,369.6,574.7,365.6 M487.2,402.8c5.7-2,11.6-3.5,17.6-4.5
	c0,5.4-1.6,10.5-1.9,15.9c-0.1,4.6-2.2,8.8-2.6,13.4s-0.5,10.1-4.5,12.9c0.9,0.8,1.9,1.5,2.8,2.1c-6.9,1-13.7,2.4-20.4,4.3
	c2.3-11,6.7-21.5,7.5-32.8C486,410.3,486.7,406.6,487.2,402.8L487.2,402.8z"/>
<path class="st31" d="M500.4,371.1c3.2-1.8,6.7-3,10.3-3.6c0.2,0.7,0.5,1.5,0.7,2.2c-0.8,1.8-1.1,3.9-0.9,5.9
	c0.3,3.2-0.5,6.3-1.4,9.4l0.7,0.9l0.4,0.5c-3.5,0.3-7,0.9-10.4,1.8C498.7,382.6,500.5,376.8,500.4,371.1L500.4,371.1z"/>
<path class="st32" d="M487.2,380.8c3.4-4.4,8-7.8,13.3-9.7c0,5.7-1.7,11.5-0.6,17.2c-5.2,1-10.2,2.9-15.4,3.9
	C485.8,388.5,484.7,384.1,487.2,380.8L487.2,380.8z"/>
<path class="st33" d="M592.7,371c5.3,1.9,9.9,5.2,13.3,9.6c2.6,3.3,1.5,7.7,2.1,11.6c-5-1.4-9.9-2.9-15-4
	C594.6,382.5,593,376.7,592.7,371L592.7,371z"/>
<path class="st34" d="M527.1,383.5c4.9-0.5,9.8-0.8,14.8-0.6c6.1,0.1,12.3-0.2,18.4,0.3c4.2,0.5,8.4,0.5,12.6,1.1
	c3.4,0.2,6.7,0.8,10,1.8c-5.7-0.3-11.4-1.4-17.2-2c-4,0-8-0.3-11.9-0.9c-9.7-0.3-19.3,0.1-28.9,1.2c-2.5,0.5-5.1,0.7-7.6,0.6
	C520.5,384.3,523.8,383.8,527.1,383.5L527.1,383.5z"/>
<path class="st35" d="M531.4,394.9c8.1-0.4,16.1-1,24.2-0.5c3.3,0.7,6.7,0.3,10,0.5c5.7,0.8,11.4,1.2,17.1,2.1l-0.8,0.2
	c-2.4,0-4.8-0.4-7.1,0.4c-1.2,1.7-1.9,3.7-1.8,5.8c-0.3,6.3-2.1,12.4-4.1,18.3c-0.9,3.1-3.4,5.4-4.4,8.5s-2.2,5.9-3.3,8.8
	c-11.7,0.2-23.4-0.2-35.1,0.3c5.3-14.4,9.7-29.2,13-44.2C536.6,394.9,534,394.8,531.4,394.9 M489.3,456.2c5.1-1.1,10.2-2.4,15.4-2.7
	c1.9-0.1,3.9-0.3,5.8-0.4c-3.1,8.1-7,15.8-10.6,23.6l-0.1,0.3c-4.4,0.2-8.8,1.5-13.2,1.5c-0.5-0.8-1.5-1.5-1.2-2.6
	c0.9-4.6,2.2-9.1,3.9-13.5C490,460.5,489.5,458.3,489.3,456.2L489.3,456.2z"/>
<path class="st36" d="M517.1,396c2-0.3,4-0.4,6-0.3h2.6c-1.9,15.1-5.4,30-10.4,44.3l-0.3,0.7c-5.5,0.1-10.9,1.2-16.3,1.8
	c-1-0.7-1.9-1.4-2.8-2.1c4.1-2.9,4.1-8.5,4.5-12.9c0.4-4.5,2.5-8.8,2.6-13.4c0.2-5.3,1.9-10.5,1.9-15.9
	C508.9,397,513.1,396.9,517.1,396L517.1,396z"/>
<path class="st37" d="M574.9,397.6c2.3-0.7,4.7-0.3,7.1-0.4c5.2,0.6,10.3,1.7,15.4,3c-0.7,4.7,0,9.4-0.5,14.1c-1,4-2.5,7.8-2.9,11.9
	c-2.4,4.8-3.6,10-5.3,15c-9-1.2-18.1-1.6-27.2-2.3c1.1-2.9,2.2-5.9,3.3-8.8c1.1-2.9,3.5-5.4,4.4-8.5c2-5.9,3.7-12,4.1-18.3
	C573,401.3,573.6,399.3,574.9,397.6L574.9,397.6z"/>
<path class="st38" d="M472.7,409.8c4-3.7,9.6-5,14.5-7c-0.6,3.8-1.2,7.5-1.5,11.3c-0.8,11.3-5.3,21.8-7.5,32.8
	c-4.9,1.3-9.5,3.3-13.9,5.8l-1.6,0.2c3.9-4.8,5.7-10.8,7.2-16.7C471.7,427.5,472.6,418.6,472.7,409.8L472.7,409.8z"/>
<path class="st39" d="M417.9,406.7l0.1-0.2c6.4,17.4,15.8,33.8,28.6,47.3c-6.9-0.2-13.8,0.6-20.7,0.8c-4.2,5.2-7.8,11-12.4,15.9
	c-6.1-12.2-11.5-24.9-15-38.1c4.5-4.4,6.6-10.6,11.4-14.8C413.3,414.6,415.1,410.2,417.9,406.7L417.9,406.7z"/>
<path class="st40" d="M515.2,440.1c3.6-0.2,7.3-0.6,11-0.8c11.7-0.5,23.4-0.1,35.1-0.3c9.1,0.8,18.2,1.2,27.2,2.3
	c1.6,0.2,3.2,0.6,4.8,1c-4.7,0.2-9.3-1.3-14-1.2c-4.2-1-8.5-0.7-12.8-1c-10.7-1.4-21.6-0.6-32.4-0.8c-6.4,1-12.8,0.6-19.2,1.5
	L515.2,440.1L515.2,440.1z"/>
<path class="st41" d="M524.8,450.9c5.7,0.3,11.3-0.8,17-0.8c5.8,0.2,11.7-0.3,17.5,0.5c4.7,0.8,9.6-0.2,14.3,1
	c6.8,0.4,13.5,1.3,20.2,2.3l1,0.7c-3.8-0.3-7.6-1-11.5-1.4c-9.4-1.2-18.8-1.9-28.2-2.1c-4.9-0.6-9.9-0.7-14.8-0.2
	c-6.5,0.7-13.1,0.1-19.6,1.3c-3.4,0.4-6.7,0.8-10.1,1.1c-1.9,0.2-3.9,0.3-5.8,0.4c1.4-1.1,3.1-0.8,4.8-1
	C514.5,452,519.7,451.6,524.8,450.9L524.8,450.9z"/>
<path class="st42" d="M520.6,452c6.5-1.1,13.1-0.6,19.6-1.3c4.9-0.5,9.9-0.4,14.8,0.2c-6.9,6.2-10.7,15.1-17.6,21.3
	c0.2,2.1,3.2,1.4,4.7,1.9c-6.6,0.6-13.3,0-19.8,0.9c-3.7,0.4-7.4,0.4-11.2,0.7l-2.6-0.1C512.6,467.8,517.1,460.1,520.6,452
	L520.6,452z"/>
<path class="st43" d="M555,450.9c9.4,0.2,18.9,0.9,28.2,2.1c-1.1,2.6-3.8,3.7-6.1,4.9c-3.8,1.7-5.8,5.6-9,7.9
	c-2.9,2.7-6.9,3.9-9.3,7.1c3.4,0.8,7,0.6,10.4,1.5c-9,0.2-18-0.6-27-0.4c-1.6-0.5-4.5,0.3-4.7-1.9C544.4,466,548.2,457.2,555,450.9
	L555,450.9z"/>
<path class="st44" d="M583.2,453.1c3.8,0.4,7.6,1.1,11.5,1.4c9.8,1.5,19.5,4,28.8,7.5c-3.3,3.1-3.6,7.9-6.2,11.4
	c-1.6,2.1-3,4.3-4.2,6.6c-9.8-1.9-19.6-3.3-29.5-4.2c-4.8-0.8-9.7-0.2-14.4-1.3c-3.4-1-7-0.7-10.3-1.5c2.4-3.2,6.4-4.4,9.3-7.1
	c3.3-2.4,5.3-6.2,9-7.9C579.4,456.8,582.1,455.7,583.2,453.1L583.2,453.1z"/>
<path class="st45" d="M476.7,459.6c4.2-1.2,8.4-2.5,12.6-3.4c0.2,2.1,0.7,4.2,0,6.3c-1.7,4.4-3,8.9-3.9,13.5c-0.3,1,0.7,1.8,1.2,2.6
	l0.4,0.5c-5.3,0.1-10.2,2.4-15.4,2.8c0.8-3.3,0.9-6.8,1.9-10.1c1-4,2.8-7.8,3.1-12L476.7,459.6L476.7,459.6z"/>
<path class="st46" d="M617.3,473.4c2.7-3.5,3-8.3,6.2-11.4c5,2.1,10.1,4.3,14.4,7.6c2.5,2,4.2,4.8,4.8,8c0.9,4.9,2.1,9.9,2.7,14.8
	c-9.6-6.7-21.1-9.9-32.4-12.4C614.2,477.7,615.6,475.5,617.3,473.4L617.3,473.4z"/>
<path class="st47" d="M499.6,515.2c3.6-0.8,7.3,0.4,9.9,3c3.6,3.9,3.3,11-1.1,14.2c-5,4.2-13.8,2.2-15.9-4.1
	c-1.9-5.1,0.7-10.8,5.9-12.7C498.7,515.4,499.1,515.3,499.6,515.2 M276.9,520.2c15.3,0.2,30.6,0,45.9,0.1c7.6-0.1,15.6,0.1,22.6,3.5
	c5.7,2.9,10.6,8.2,11.5,14.7c-4.6-2.6-9.5-5-14.8-5.8c-11.9-2-24-0.5-36-1.3c2.1,3.1,1.8,6.9,2.4,10.4c0.4,4.2,0.1,8.4,0.1,12.6
	c3.9,0.1,7.8-0.1,11.7,0.1c2,0.4,4,0.7,6,0.8c7.2,1.9,13.1,6.9,16.3,13.6c-4.4-2.6-9.5-3.9-14.7-3.8c-6.4,0-12.9,0.1-19.3,0.1
	c0.1,12.6-0.2,25.1,0.2,37.7c0,3.4,1.9,7.7,5.8,7.7c9,0.1,18,0,27,0c6.3,0,13-2.2,17-7.5c-0.1,4.5,0.4,9.7-2.8,13.3
	c-3.5,4.6-9.6,5.7-15,5.7c-15.9,0-31.9,0-47.8,0c-2.5-0.1-4.2-2.2-5.1-4.3c-1.9-4.6-1.9-9.7-1.9-14.6c0-20.8,0-41.5,0-62.3
	C285.8,533.2,282.6,525.7,276.9,520.2 M649.5,543.9c9.2-5.1,16.7-12.9,22.5-21.6c0,6.2,0,12.4,0,18.6c5.9,0,11.9,0,17.8,0
	c0,4.2,0.1,8.5,0,12.8c-5.3-3.2-11.7-3.7-17.8-3.4c-0.1,18.6,0,37.1,0,55.7c-0.1,6.3,3,12.3,8.3,15.8c-6.9,0-13.8,0-20.8,0
	c-3.3,0.3-5.1-3-6.2-5.6c-1.5-5-1.2-10.3-1.2-15.5c0-16.8,0-33.7,0-50.5c-4.4-0.4-8.8-0.1-13.3-0.3c3.3-2.5,7.3-3.8,10.7-6.1
	 M523.2,540.8c5.1,0,10.2-0.1,15.4,0c3.2,0.4,6.8,1.5,8.5,4.5c2,3.1,2.2,7,3.2,10.5c1.9-6.1,5.8-12,12.1-14.1
	c3.7-0.4,7.8-0.8,11.2,1c2.2,1.2,4.5,3.2,4.4,6c0,4,0,8,0,12c-2.2-1.6-4.2-3.5-6.8-4.4c-3.3-1.5-6.9-1.3-10.4-0.9
	c-5,1.4-9.6,5-10.5,10.3c0,13.4,0,26.8,0,40.2c0.1,6.2,3.4,11.8,8,15.9c-6.9,0.1-13.8,0-20.6,0c-2.2,0.2-3.9-1.6-4.8-3.5
	c-1.9-4.1-2.2-8.8-2.2-13.2c0-15.9,0-31.8,0-47.8C530.9,551,528.6,544.3,523.2,540.8 M361.3,540.8c6.2,0.3,12.7-1,18.7,1.2
	c5.3,2.2,7.5,8,8.2,13.3c2.1-5.9,6.4-11.2,12.4-13.5c11.4-4.2,26.2,1.2,30.3,13.1c2.3-3.9,4.3-8.3,8.2-10.9c7-5,16.5-4,24.1-0.9
	c6.9,3,11.4,9.9,11.4,17.5c0.1,15.4,0,30.8,0.1,46.2c0.2,5.9,3.6,11.1,7.9,14.9c-7.2,0.1-14.3,0.1-21.5,0c-2,0-3.3-1.9-4.2-3.5
	c-2.2-4.7-2.3-9.9-2.2-15c0-12.8,0.1-25.6,0-38.4c-0.5-6.5-7.1-11.2-13.4-10.4c-4.4,1-8.9,4.1-9.6,8.8c-0.2,14.2,0.4,28.3,0.2,42.5
	c-0.1,6.2,3.4,11.8,8,15.9c-7.1,0.2-14.3,0.1-21.4,0c-2,0.2-3.3-1.7-4.2-3.2c-1.5-3.1-2.2-6.6-2.2-10.1c0-13.9,0-27.8,0-41.8
	c0.1-3.9-1.7-7.7-4.9-10.1c-5.8-4.8-15.6-1.4-18.2,5.3c-0.3,14.7,0,29.3-0.1,44c-0.2,6.5,3.6,12.4,8.5,16.3
	c-7-0.1-13.9,0.1-20.9-0.1c-2.4-0.2-4.5-1.7-5.4-3.9c-1.5-2.8-1.5-6.1-2.2-9.1c-0.2-17.9,0-35.7-0.1-53.6
	C368.7,549.7,366.1,543.9,361.3,540.8 M489.5,545.7c-1-1.9-3-3-3.9-5c6.2,0.4,12.7-0.9,18.7,1.1c4.2,1.6,6.1,6.1,7.2,10.2
	c0.4,4,0.5,8,0.4,12c-0.2,13.4-0.1,26.7-0.1,40.1c-0.1,6.9,3,13.4,8.5,17.6c-7,0-14,0-21,0c-3,0.3-4.8-2.6-5.6-5
	c-1.9-5.3-1.7-11.2-1.7-16.7c-0.1-11.7,0.3-23.3,0.2-35c-0.1-6.4,0.7-13.3-2.8-19.1 M586.7,546.7c9.4-5.9,21.6-7.8,32-3.3
	c6.4,2.8,12.4,8.4,12.9,15.7c0,13.9,0,27.8,0,41.7c-0.1,4.9,0,10,2.6,14.4c1.3,2.8,4,4.6,5.6,7.2c-7.2-1.1-14.6-0.2-21.8-0.7
	c-3.3-1-4.6-4.9-5.2-8l-1.1,0.2c-3.4,6-10.5,8.4-17,8.3c-5.7-0.5-11.9-2-15.9-6.4c-4.4-4.3-5.2-10.8-4.7-16.6
	c0.5-5.3,2.8-10.3,6.6-14.1c6.3-6.6,15.1-9.8,23.2-13.4c4.1-1.9,8.2-4.8,9.6-9.2c1-3.2,0.8-7.1-1.8-9.5c-3.3-3.3-8.3-3.3-12.6-2.8
	c-5.6,1.2-9.7,5.8-12.3,10.6C586.7,556.1,586.8,551.4,586.7,546.7 M598.8,584.4c-4.9,4.3-7.6,10.7-7.3,17.2
	c-0.2,3.7,1.5,7.6,4.8,9.5c2.9,1.8,6.6,1.6,9.8,1.1c2.7-1.1,6.6-2.8,6.1-6.2c-0.1-10.5,0-21,0-31.6
	C608.2,578.3,602.8,580.4,598.8,584.4 M702.2,549.8c9.7-10.4,26.8-12,38.7-4.9c6.1,3.5,9.3,10.5,8,17.5c-1.9,8.5-8.6,14.8-15.5,19.4
	c-6.5,4.4-15.1,5.9-20,12.5c0.3,6.2,3.6,12.6,8.9,16c4,2.6,9.1,2.5,13.7,1.9c5.4-1.4,9.6-5.6,12.5-10.2c0.2,4.9,0.1,9.7,0.1,14.6
	c-6.4,4.4-14.3,5-21.8,5.7c-9-0.1-18.4-2.9-24.9-9.4c-8.4-7.8-12-19.6-11.7-30.8C690.4,570.4,693.9,558.2,702.2,549.8 M717.3,550.5
	c-3.7,4.9-4.4,11.2-5.3,17c-0.5,5.7-0.5,11.5-0.1,17.2c3.8-3.3,8.5-5.4,11.9-9c5.1-5.1,7.9-12,7.8-19.2c-0.2-2.8-0.8-6-3.1-7.8
	C724.9,546.2,720,547.1,717.3,550.5 M774,541.2c9.6-2,19.7,0,27.7,5.6c0,4.7,0.1,9.3-0.1,14c-2.6-5.4-7.5-10-13.5-11.2
	c-4-0.8-8.8-0.4-11.9,2.5c-2.7,2.7-2,7.2,0.3,9.9c2.9,3.6,7.4,5.2,11.2,7.7c6.9,4.2,14.2,9.1,17.2,17s2.2,17.5-3.3,24.2
	c-5.6,7.3-14.7,10.8-23.7,11.3c-7.1-0.5-14.2-2-20.3-5.7c-0.1-5-0.1-10.1,0-15.1c2.5,5.1,6.6,10,12.4,11.4
	c7.3,1.6,16.3-2.3,18.3-9.9c1.6-5.5-2.1-10.9-6.7-13.6c-6.5-3.8-13.3-7.4-18.4-13c-5.2-5.4-7.1-13.4-5.8-20.6
	c2-7.6,9.2-12.6,16.5-14.4 M529.5,649.9c12.4-5.2,26.5-6,39.6-3.1c11.4,2.5,21.3,9.4,29.1,17.9c-5.9,5.8-11.9,11.4-18,16.9
	c-3.6-3.5-7.3-7.2-12.1-9.1c-9.4-4.4-20.9-4.1-29.8,1.3c-8.8,5.1-14.1,14.9-15.5,24.9c-0.7,8-0.4,16.3,3.2,23.6
	c4.2,9.4,13.2,16.9,23.6,18.1c11.5,1.9,23.3-3.3,30.6-12.2c6,5.8,12.4,11.2,18,17.3c-5.9,6-12.5,11.5-20.3,14.9
	c-10.5,4.5-22.2,5.5-33.5,4c-12.4-1.7-24.3-7.4-33-16.5c-7.7-7.4-12.3-17.4-14.9-27.6c-1.1-5.7-1.6-11.4-1.7-17.2
	c0.7-7.4,1.6-15,4.6-22C504.9,667,515.7,655.8,529.5,649.9 M285.8,647.9c26.4,0,52.9,0,79.3,0c0,8,0.1,16-0.1,24
	c-17.7-0.1-35.4,0-53.1,0c0.1,7.7-0.1,15.3,0.1,23c11.1-0.1,22.2-0.1,33.3,0c0,7.8,0,15.6,0,23.4c-11.1,0-22.2,0-33.4,0
	c-0.1,14.7,0,29.4,0,44.1c-8.7,0.2-17.5,0-26.2,0.1C285.9,724.3,285.9,686.1,285.8,647.9 M396,648.3c7-0.6,14.1-0.1,21.1-0.2
	c16.2,38.1,32.6,76.2,48.6,114.4c-9.3,0-18.7,0.2-28-0.1c-3.4-8.3-6.9-16.5-10.6-24.7c-13.7,0.1-27.4,0-41.1,0
	c-3.5,8.2-7,16.5-10.6,24.8c-9.3,0-18.6,0-27.9-0.1c12.4-28.8,24.6-57.8,37-86.7C388.3,666.5,392.6,657.5,396,648.3 M406.3,685
	c-3.7,9.7-7.5,19.3-11.8,28.8c8.1,0.3,16.3,0.1,24.4,0.1c-3.8-9.7-8.2-19.2-11.6-29.1L406.3,685 M609.6,647.9
	c8.7,0.2,17.5-0.1,26.2,0.2c-0.1,20,0,40.1,0,60.1c0,7.7-0.7,15.9,3,22.9c2.5,5.4,8,8.7,13.8,9.6c7.3,1.1,15.8,0.2,21.3-5.2
	c4.9-5.2,5.7-12.8,6.3-19.6c0-22.7,0-45.3,0-68c8.6,0.1,17.2,0,25.8,0c0,24.3,0.1,48.7,0,73c-0.2,11.5-3.9,23.5-12.4,31.6
	c-8.8,8.5-21.4,11.9-33.4,12.2c-11.8,0.4-24.2-1.8-33.9-8.7c-7.1-5.3-12.3-12.7-14.6-21.3c-0.3-1.2-0.5-2.3-0.9-3.5
	c-1.7-8.7-1.1-17.6-1.2-26.4C609.6,685.8,609.5,666.8,609.6,647.9 M722.2,648c15.2-0.3,30.3,0,45.5-0.1c10.9,0.3,22.3,2,31.3,8.4
	c7,4.7,11.6,12.6,13,20.9c0.6,2.9,0.4,5.8,1,8.7c-0.5,7.4-1.7,15.2-6,21.4c-5.5,8.4-15.2,13-24.8,14.9c-11.1,2.4-22.5,1.5-33.7,1.7
	c-0.1,12.8,0,25.6,0,38.4c-8.7-0.1-17.5,0.1-26.2-0.1c0-38.1,0-76.1,0-114.2 M748.5,671.8c0,9.5,0,18.9,0,28.4
	c10-0.5,20.5,1.6,29.9-2.5c8-3.6,9.4-15.5,3.3-21.5c-3.8-3.3-9-4.3-13.9-4.5C761.4,671.8,755,671.8,748.5,671.8L748.5,671.8z"/>
</svg>
